<?xml version="1.0" encoding="utf-8"?>
<!-- Generator: Adobe Illustrator 26.0.3, SVG Export Plug-In . SVG Version: 6.00 Build 0)  -->
<svg version="1.1" xmlns="http://www.w3.org/2000/svg" xmlns:xlink="http://www.w3.org/1999/xlink" x="0px" y="0px"
	 viewBox="0 0 923.8 354" style="enable-background:new 0 0 923.8 354;" xml:space="preserve">
<style type="text/css">
	.st0{fill:none;stroke:#FF0000;stroke-width:1.100000e-03;stroke-linecap:round;stroke-linejoin:round;stroke-miterlimit:10;}
	.st1{display:none;}
	.st2{display:inline;}
	.st3{display:inline;fill:none;stroke:#D2D200;stroke-linecap:round;stroke-linejoin:round;stroke-miterlimit:10;}
	.st4{fill:none;stroke:#D2D200;stroke-linecap:round;stroke-linejoin:round;stroke-miterlimit:10;}
</style>
<g id="レイヤー_2">
	<path d="M890.7,7.5H16.7c-4.7,0-8.5,3.8-8.5,8.5V279c0,4.7,3.8,8.5,8.5,8.5h874.1c4.7,0,8.5-3.8,8.5-8.5V16
		C899.2,11.3,895.4,7.5,890.7,7.5z M13.2,278.5c-1.7,0-3.1-1.4-3.1-3.1c0-1.7,1.4-3.1,3.1-3.1s3.1,1.4,3.1,3.1
		C16.4,277.1,15,278.5,13.2,278.5z M13.2,150.6c-1.7,0-3.1-1.4-3.1-3.1c0-1.7,1.4-3.1,3.1-3.1s3.1,1.4,3.1,3.1
		C16.4,149.2,15,150.6,13.2,150.6z M13.2,22.8c-1.7,0-3.1-1.4-3.1-3.1c0-1.7,1.4-3.1,3.1-3.1s3.1,1.4,3.1,3.1
		C16.4,21.4,15,22.8,13.2,22.8z M825.1,24h39.1v39.1h-39.1V24z M757.6,21.3h39.1v39.1h-39.1V21.3z M732.6,26.8l6.8,38.5l-38.5,6.8
		l-6.8-38.5L732.6,26.8z M715.3,124.4l-38.5,6.8L670,92.7l38.5-6.8L715.3,124.4z M679.5,36.2l6.8,38.5l-38.5,6.8L640.9,43
		L679.5,36.2z M662.1,133.8l-38.5,6.8l-6.8-38.5l38.5-6.8L662.1,133.8z M626.3,45.6l6.8,38.5l-38.5,6.8l-6.8-38.5L626.3,45.6z
		 M608.9,143.2l-38.5,6.8l-6.8-38.5l38.5-6.8L608.9,143.2z M573.1,54.9l6.8,38.5l-38.5,6.8l-6.8-38.5L573.1,54.9z M462.2,35.7h39.1
		v39.1h-39.1V35.7z M321,48.1l38.5,6.8l-6.8,38.5l-38.5-6.8L321,48.1z M365.1,110.7l-6.8,38.5l-38.5-6.8l6.8-38.5L365.1,110.7z
		 M267.9,38.7l38.5,6.8L299.6,84l-38.5-6.8L267.9,38.7z M311.9,101.3l-6.8,38.5l-38.5-6.8l6.8-38.5L311.9,101.3z M214.7,29.3
		l38.5,6.8l-6.8,38.5l-38.5-6.8L214.7,29.3z M258.7,92l-6.8,38.5l-38.5-6.8l6.8-38.5L258.7,92z M161.5,20l38.5,6.8l-6.8,38.5
		l-38.5-6.8L161.5,20z M205.5,82.6l-6.8,38.5l-38.5-6.8l6.8-38.5L205.5,82.6z M99.3,24h39.1v39.1H99.3V24z M143.8,78v39.1h-39.1V78
		H143.8z M45.3,24h39.1v39.1H45.3V24z M88.5,132v39.1H49.4V132H88.5z M44.2,78h39.1v39.1H44.2V78z M68.2,225.1H29.1V186h39.1V225.1z
		 M122.2,225.1H83.1V186h39.1V225.1z M162.7,171.1h-39.1V132h39.1V171.1z M186.4,134l38.5,6.8l-6.8,38.5l-38.5-6.8L186.4,134z
		 M218.5,234.2l-38.5-6.8l6.8-38.5l38.5,6.8L218.5,234.2z M239.5,143.4l38.5,6.8l-6.8,38.5l-38.5-6.8L239.5,143.4z M298.3,248.3
		l-38.5-6.8l6.8-38.5l38.5,6.8L298.3,248.3z M324.5,198.1l-38.5-6.8l6.8-38.5l38.5,6.8L324.5,198.1z M371.4,261.2l-38.5-6.8
		l6.8-38.5l38.5,6.8L371.4,261.2z M377.6,207.5l-38.5-6.8l6.8-38.5l38.5,6.8L377.6,207.5z M387.7,35.7h39.1v39.1h-39.1V35.7z
		 M466.7,274.3c-43.1,0-78-34.9-78-78c0-43,34.9-78,78-78c43,0,77.9,34.9,77.9,78C544.6,239.4,509.7,274.3,466.7,274.3z
		 M549.1,168.8l38.5-6.8l6.8,38.5l-38.5,6.8L549.1,168.8z M563.1,260.9l-6.8-38.5l38.5-6.8l6.8,38.5L563.1,260.9z M602.2,159.5
		l38.5-6.8l6.8,38.5L609,198L602.2,159.5z M629.7,249.2l-6.8-38.5l38.5-6.8l6.8,38.5L629.7,249.2z M662.2,188.6l-6.8-38.5l38.5-6.8
		l6.8,38.5L662.2,188.6z M709.4,235.1l-6.8-38.5l38.5-6.8l6.8,38.5L709.4,235.1z M715.4,179.2l-6.8-38.5l38.5-6.8l6.8,38.5
		L715.4,179.2z M730,121.8l-6.8-38.5l38.5-6.8l6.8,38.5L730,121.8z M771.1,132h39.1v39.1h-39.1V132z M823.7,225.1h-39.1V186h39.1
		V225.1z M823.7,117.1h-39.1V78h39.1V117.1z M825.1,132h39.1v39.1h-39.1V132z M877.7,225.1h-39.1V186h39.1V225.1z M877.7,117.1
		h-39.1V78h39.1V117.1z M894.1,278.5c-1.7,0-3.1-1.4-3.1-3.1c0-1.7,1.4-3.1,3.1-3.1c1.7,0,3.1,1.4,3.1,3.1
		C897.2,277.1,895.8,278.5,894.1,278.5z M894.1,150.6c-1.7,0-3.1-1.4-3.1-3.1c0-1.7,1.4-3.1,3.1-3.1c1.7,0,3.1,1.4,3.1,3.1
		C897.2,149.2,895.8,150.6,894.1,150.6z M894.1,22.8c-1.7,0-3.1-1.4-3.1-3.1c0-1.7,1.4-3.1,3.1-3.1c1.7,0,3.1,1.4,3.1,3.1
		C897.2,21.4,895.8,22.8,894.1,22.8z"/>
	<path class="st0" d="M890.7,7.5H16.7c-4.7,0-8.5,3.8-8.5,8.5V279c0,4.7,3.8,8.5,8.5,8.5h874.1c4.7,0,8.5-3.8,8.5-8.5V16
		C899.2,11.3,895.4,7.5,890.7,7.5z M13.2,278.5c-1.7,0-3.1-1.4-3.1-3.1c0-1.7,1.4-3.1,3.1-3.1s3.1,1.4,3.1,3.1
		C16.4,277.1,15,278.5,13.2,278.5z M13.2,150.6c-1.7,0-3.1-1.4-3.1-3.1c0-1.7,1.4-3.1,3.1-3.1s3.1,1.4,3.1,3.1
		C16.4,149.2,15,150.6,13.2,150.6z M13.2,22.8c-1.7,0-3.1-1.4-3.1-3.1c0-1.7,1.4-3.1,3.1-3.1s3.1,1.4,3.1,3.1
		C16.4,21.4,15,22.8,13.2,22.8z M825.1,24h39.1v39.1h-39.1V24z M757.6,21.3h39.1v39.1h-39.1V21.3z M732.6,26.8l6.8,38.5l-38.5,6.8
		l-6.8-38.5L732.6,26.8z M715.3,124.4l-38.5,6.8L670,92.7l38.5-6.8L715.3,124.4z M679.5,36.2l6.8,38.5l-38.5,6.8L640.9,43
		L679.5,36.2z M662.1,133.8l-38.5,6.8l-6.8-38.5l38.5-6.8L662.1,133.8z M626.3,45.6l6.8,38.5l-38.5,6.8l-6.8-38.5L626.3,45.6z
		 M608.9,143.2l-38.5,6.8l-6.8-38.5l38.5-6.8L608.9,143.2z M573.1,54.9l6.8,38.5l-38.5,6.8l-6.8-38.5L573.1,54.9z M462.2,35.7h39.1
		v39.1h-39.1V35.7z M321,48.1l38.5,6.8l-6.8,38.5l-38.5-6.8L321,48.1z M365.1,110.7l-6.8,38.5l-38.5-6.8l6.8-38.5L365.1,110.7z
		 M267.9,38.7l38.5,6.8L299.6,84l-38.5-6.8L267.9,38.7z M311.9,101.3l-6.8,38.5l-38.5-6.8l6.8-38.5L311.9,101.3z M214.7,29.3
		l38.5,6.8l-6.8,38.5l-38.5-6.8L214.7,29.3z M258.7,92l-6.8,38.5l-38.5-6.8l6.8-38.5L258.7,92z M161.5,20l38.5,6.8l-6.8,38.5
		l-38.5-6.8L161.5,20z M205.5,82.6l-6.8,38.5l-38.5-6.8l6.8-38.5L205.5,82.6z M99.3,24h39.1v39.1H99.3V24z M143.8,78v39.1h-39.1V78
		H143.8z M45.3,24h39.1v39.1H45.3V24z M88.5,132v39.1H49.4V132H88.5z M44.2,78h39.1v39.1H44.2V78z M68.2,225.1H29.1V186h39.1V225.1z
		 M122.2,225.1H83.1V186h39.1V225.1z M162.7,171.1h-39.1V132h39.1V171.1z M186.4,134l38.5,6.8l-6.8,38.5l-38.5-6.8L186.4,134z
		 M218.5,234.2l-38.5-6.8l6.8-38.5l38.5,6.8L218.5,234.2z M239.5,143.4l38.5,6.8l-6.8,38.5l-38.5-6.8L239.5,143.4z M298.3,248.3
		l-38.5-6.8l6.8-38.5l38.5,6.8L298.3,248.3z M324.5,198.1l-38.5-6.8l6.8-38.5l38.5,6.8L324.5,198.1z M371.4,261.2l-38.5-6.8
		l6.8-38.5l38.5,6.8L371.4,261.2z M377.6,207.5l-38.5-6.8l6.8-38.5l38.5,6.8L377.6,207.5z M387.7,35.7h39.1v39.1h-39.1V35.7z
		 M466.7,274.3c-43.1,0-78-34.9-78-78c0-43,34.9-78,78-78c43,0,77.9,34.9,77.9,78C544.6,239.4,509.7,274.3,466.7,274.3z
		 M549.1,168.8l38.5-6.8l6.8,38.5l-38.5,6.8L549.1,168.8z M563.1,260.9l-6.8-38.5l38.5-6.8l6.8,38.5L563.1,260.9z M602.2,159.5
		l38.5-6.8l6.8,38.5L609,198L602.2,159.5z M629.7,249.2l-6.8-38.5l38.5-6.8l6.8,38.5L629.7,249.2z M662.2,188.6l-6.8-38.5l38.5-6.8
		l6.8,38.5L662.2,188.6z M709.4,235.1l-6.8-38.5l38.5-6.8l6.8,38.5L709.4,235.1z M715.4,179.2l-6.8-38.5l38.5-6.8l6.8,38.5
		L715.4,179.2z M730,121.8l-6.8-38.5l38.5-6.8l6.8,38.5L730,121.8z M771.1,132h39.1v39.1h-39.1V132z M823.7,225.1h-39.1V186h39.1
		V225.1z M823.7,117.1h-39.1V78h39.1V117.1z M825.1,132h39.1v39.1h-39.1V132z M877.7,225.1h-39.1V186h39.1V225.1z M877.7,117.1
		h-39.1V78h39.1V117.1z M894.1,278.5c-1.7,0-3.1-1.4-3.1-3.1c0-1.7,1.4-3.1,3.1-3.1c1.7,0,3.1,1.4,3.1,3.1
		C897.2,277.1,895.8,278.5,894.1,278.5z M894.1,150.6c-1.7,0-3.1-1.4-3.1-3.1c0-1.7,1.4-3.1,3.1-3.1c1.7,0,3.1,1.4,3.1,3.1
		C897.2,149.2,895.8,150.6,894.1,150.6z M894.1,22.8c-1.7,0-3.1-1.4-3.1-3.1c0-1.7,1.4-3.1,3.1-3.1c1.7,0,3.1,1.4,3.1,3.1
		C897.2,21.4,895.8,22.8,894.1,22.8z"/>
</g>
<g id="レイヤー_1" xmlns:svg="http://www.w3.org/2000/svg" class="st1">
	<desc>Picture generated by PCBNEW</desc>
	<g transform="translate(0 0) scale(1 1)" class="st2">
	</g>
	<path class="st3" d="M8.1,16c0-4.7,3.8-8.5,8.5-8.5h874.1c4.7,0,8.5,3.8,8.5,8.5V279c0,4.7-3.8,8.5-8.5,8.5H16.7
		c-4.7,0-8.5-3.8-8.5-8.5V16z"/>
	<circle class="st3" cx="466.6" cy="196.4" r="78"/>
	<path class="st3" d="M83.4,117.1V78H44.2v39.1H83.4z"/>
	<path class="st3" d="M864.2,63.1V24h-39.1v39.1H864.2z"/>
	<path class="st3" d="M748,228.3l-6.8-38.5l-38.5,6.8l6.8,38.5L748,228.3z"/>
	<path class="st3" d="M622.9,210.7l6.8,38.5l38.5-6.8l-6.8-38.5L622.9,210.7z"/>
	<path class="st3" d="M266.5,203l-6.8,38.5l38.5,6.8l6.8-38.5L266.5,203z"/>
	<path class="st3" d="M218.5,234.2l6.8-38.5l-38.5-6.8l-6.8,38.5L218.5,234.2z"/>
	<path class="st3" d="M88.5,171.1V132H49.4v39.1H88.5z"/>
	<path class="st3" d="M143.8,117.1V78h-39.1v39.1H143.8z"/>
	<path class="st3" d="M138.4,63.1V24H99.3v39.1H138.4z"/>
	<path class="st3" d="M84.4,63.1V24H45.3v39.1H84.4z"/>
	<path class="st3" d="M122.2,225.1V186H83.1v39.1H122.2z"/>
	<path class="st3" d="M162.7,171.1V132h-39.1v39.1H162.7z"/>
	<path class="st3" d="M193.2,65.3l6.8-38.5L161.5,20l-6.8,38.5L193.2,65.3z"/>
	<path class="st3" d="M29.1,186v39.1h39.1V186H29.1z"/>
	<path class="st3" d="M246.4,74.7l6.8-38.5l-38.5-6.8l-6.8,38.5L246.4,74.7z"/>
	<path class="st3" d="M371.4,261.2l6.8-38.5l-38.5-6.8l-6.8,38.5L371.4,261.2z"/>
	<path class="st3" d="M299.6,84l-38.5-6.8l6.8-38.5l38.5,6.8L299.6,84z"/>
	<path class="st3" d="M352.8,93.4l6.8-38.5L321,48.1l-6.8,38.5L352.8,93.4z"/>
	<path class="st3" d="M501.3,74.8V35.7h-39.1v39.1H501.3z"/>
	<path class="st3" d="M877.7,225.1V186h-39.1v39.1H877.7z"/>
	<path class="st3" d="M877.7,117.1V78h-39.1v39.1H877.7z"/>
	<path class="st3" d="M864.2,171.1V132h-39.1v39.1H864.2z"/>
	<path class="st3" d="M823.7,117.1V78h-39.1v39.1H823.7z"/>
	<path class="st3" d="M601.6,254.1l-6.8-38.5l-38.5,6.8l6.8,38.5L601.6,254.1z"/>
	<path class="st3" d="M708.6,140.7l6.8,38.5l38.5-6.8l-6.8-38.5L708.6,140.7z"/>
	<path class="st3" d="M739.4,65.3l-6.8-38.5l-38.5,6.8l6.8,38.5L739.4,65.3z"/>
	<path class="st3" d="M198.8,121.1l-38.5-6.8l6.8-38.5l38.5,6.8L198.8,121.1z"/>
	<path class="st3" d="M757.6,21.3v39.1h39.1V21.3H757.6z"/>
	<path class="st3" d="M324.5,198.1l6.8-38.5l-38.5-6.8l-6.8,38.5L324.5,198.1z"/>
	<path class="st3" d="M700.7,181.8l-6.8-38.5l-38.5,6.8l6.8,38.5L700.7,181.8z"/>
	<path class="st3" d="M633.1,84.1l-6.8-38.5l-38.5,6.8l6.8,38.5L633.1,84.1z"/>
	<path class="st3" d="M662.1,133.8l-6.8-38.5l-38.5,6.8l6.8,38.5L662.1,133.8z"/>
	<path class="st3" d="M768.5,115l-6.8-38.5l-38.5,6.8l6.8,38.5L768.5,115z"/>
	<path class="st3" d="M715.3,124.4l-6.8-38.5L670,92.7l6.8,38.5L715.3,124.4z"/>
	<path class="st3" d="M594.4,200.6l-6.8-38.5l-38.5,6.8l6.8,38.5L594.4,200.6z"/>
	<path class="st3" d="M358.3,149.2l6.8-38.5l-38.5-6.8l-6.8,38.5L358.3,149.2z"/>
	<path class="st3" d="M305.1,139.8l6.8-38.5l-38.5-6.8l-6.8,38.5L305.1,139.8z"/>
	<path class="st3" d="M810.2,171.1V132h-39.1v39.1H810.2z"/>
	<path class="st3" d="M271.3,188.7l6.8-38.5l-38.5-6.8l-6.8,38.5L271.3,188.7z"/>
	<path class="st3" d="M377.6,207.5l6.8-38.5l-38.5-6.8l-6.8,38.5L377.6,207.5z"/>
	<path class="st3" d="M579.9,93.5l-6.8-38.5l-38.5,6.8l6.8,38.5L579.9,93.5z"/>
	<path class="st3" d="M251.9,130.5l6.8-38.5l-38.5-6.8l-6.8,38.5L251.9,130.5z"/>
	<path class="st3" d="M686.3,74.7l-6.8-38.5L640.9,43l6.8,38.5L686.3,74.7z"/>
	<path class="st3" d="M823.7,225.1V186h-39.1v39.1H823.7z"/>
	<path class="st3" d="M647.6,191.2l-6.8-38.5l-38.5,6.8L609,198L647.6,191.2z"/>
	<path class="st3" d="M218.1,179.3l6.8-38.5l-38.5-6.8l-6.8,38.5L218.1,179.3z"/>
	<path class="st3" d="M426.8,74.8V35.7h-39.1v39.1H426.8z"/>
	<path class="st3" d="M602.2,104.6l6.8,38.5l-38.5,6.8l-6.8-38.5L602.2,104.6z"/>
	<g class="st2">
		<circle class="st4" cx="13.3" cy="19.7" r="3.1"/>
		<circle class="st4" cx="13.3" cy="147.5" r="3.1"/>
		<circle class="st4" cx="13.3" cy="275.4" r="3.1"/>
		<circle class="st4" cx="894.1" cy="19.7" r="3.1"/>
		<circle class="st4" cx="894.1" cy="147.5" r="3.1"/>
		<circle class="st4" cx="894.1" cy="275.4" r="3.1"/>
	</g>
</g>
</svg>
