G04 #@! TF.GenerationSoftware,KiCad,Pcbnew,(6.0.2-0)*
G04 #@! TF.CreationDate,2022-02-23T09:44:19+09:00*
G04 #@! TF.ProjectId,aliceball,616c6963-6562-4616-9c6c-2e6b69636164,rev?*
G04 #@! TF.SameCoordinates,Original*
G04 #@! TF.FileFunction,Legend,Top*
G04 #@! TF.FilePolarity,Positive*
%FSLAX46Y46*%
G04 Gerber Fmt 4.6, Leading zero omitted, Abs format (unit mm)*
G04 Created by KiCad (PCBNEW (6.0.2-0)) date 2022-02-23 09:44:19*
%MOMM*%
%LPD*%
G01*
G04 APERTURE LIST*
%ADD10C,0.150000*%
%ADD11C,4.000000*%
%ADD12C,2.000000*%
G04 APERTURE END LIST*
D10*
X175212476Y-82840380D02*
X175212476Y-83554666D01*
X175164857Y-83697523D01*
X175069619Y-83792761D01*
X174926761Y-83840380D01*
X174831523Y-83840380D01*
X176212476Y-83840380D02*
X175641047Y-83840380D01*
X175926761Y-83840380D02*
X175926761Y-82840380D01*
X175831523Y-82983238D01*
X175736285Y-83078476D01*
X175641047Y-83126095D01*
X176783904Y-83268952D02*
X176688666Y-83221333D01*
X176641047Y-83173714D01*
X176593428Y-83078476D01*
X176593428Y-83030857D01*
X176641047Y-82935619D01*
X176688666Y-82888000D01*
X176783904Y-82840380D01*
X176974380Y-82840380D01*
X177069619Y-82888000D01*
X177117238Y-82935619D01*
X177164857Y-83030857D01*
X177164857Y-83078476D01*
X177117238Y-83173714D01*
X177069619Y-83221333D01*
X176974380Y-83268952D01*
X176783904Y-83268952D01*
X176688666Y-83316571D01*
X176641047Y-83364190D01*
X176593428Y-83459428D01*
X176593428Y-83649904D01*
X176641047Y-83745142D01*
X176688666Y-83792761D01*
X176783904Y-83840380D01*
X176974380Y-83840380D01*
X177069619Y-83792761D01*
X177117238Y-83745142D01*
X177164857Y-83649904D01*
X177164857Y-83459428D01*
X177117238Y-83364190D01*
X177069619Y-83316571D01*
X176974380Y-83268952D01*
X175799750Y-39655750D02*
X176593500Y-39655750D01*
X175799750Y-38862000D02*
X175799750Y-39655750D01*
X175799750Y-28543250D02*
X175799750Y-29337000D01*
X176593500Y-28543250D02*
X175799750Y-28543250D01*
X186912250Y-39655750D02*
X186912250Y-38862000D01*
X186118500Y-39655750D02*
X186912250Y-39655750D01*
X186912250Y-28543250D02*
X186912250Y-29337000D01*
X186118500Y-28543250D02*
X186912250Y-28543250D01*
X169854000Y-24169500D02*
X160854000Y-24169500D01*
X160854000Y-24169500D02*
X160854000Y-21419500D01*
X160854000Y-21419500D02*
X169854000Y-21419500D01*
X169854000Y-21419500D02*
X169854000Y-24169500D01*
D11*
X309372000Y-29971817D03*
D12*
X314452000Y-29971817D03*
X304292000Y-29971817D03*
D11*
X285559500Y-29019317D03*
D12*
X290639500Y-29019317D03*
X280479500Y-29019317D03*
D11*
X267306003Y-89566137D03*
D12*
X272308826Y-88684004D03*
X262303180Y-90448270D03*
D11*
X239131420Y-94515552D03*
D12*
X244134243Y-93633419D03*
X234128597Y-95397685D03*
D11*
X111052213Y-94239213D03*
D12*
X106049390Y-93357080D03*
X116055036Y-95121346D03*
D11*
X82929056Y-89265846D03*
D12*
X77926233Y-88383713D03*
X87931879Y-90147979D03*
D11*
X35701196Y-68073560D03*
D12*
X30621196Y-68073560D03*
X40781196Y-68073560D03*
D11*
X33811560Y-49008483D03*
D12*
X28731560Y-49008483D03*
X38891560Y-49008483D03*
X309054500Y-87121817D03*
X319214500Y-87121817D03*
D11*
X314134500Y-87121817D03*
D12*
X304292000Y-68071817D03*
X314452000Y-68071817D03*
D11*
X309372000Y-68071817D03*
D12*
X309054500Y-49021817D03*
X319214500Y-49021817D03*
D11*
X314134500Y-49021817D03*
D12*
X290004500Y-87121817D03*
X300164500Y-87121817D03*
D11*
X295084500Y-87121817D03*
D12*
X285242000Y-68071817D03*
X295402000Y-68071817D03*
D11*
X290322000Y-68071817D03*
D12*
X290004500Y-49021817D03*
X300164500Y-49021817D03*
D11*
X295084500Y-49021817D03*
D12*
X264373410Y-70724637D03*
X274379056Y-68960371D03*
D11*
X269376233Y-69842504D03*
D12*
X269507677Y-50475450D03*
X279513323Y-48711184D03*
D11*
X274510500Y-49593317D03*
D12*
X259258261Y-32938822D03*
X269263907Y-31174556D03*
D11*
X264261084Y-32056689D03*
D12*
X245612822Y-74032635D03*
X255618468Y-72268369D03*
D11*
X250615645Y-73150502D03*
D12*
X250747089Y-53783448D03*
X260752735Y-52019182D03*
D11*
X255749912Y-52901315D03*
D12*
X240497674Y-36246820D03*
X250503320Y-34482554D03*
D11*
X245500497Y-35364687D03*
D12*
X226852235Y-77340633D03*
X236857881Y-75576367D03*
D11*
X231855058Y-76458500D03*
D12*
X231986501Y-57091446D03*
X241992147Y-55327180D03*
D11*
X236989324Y-56209313D03*
D12*
X221737086Y-39554817D03*
X231742732Y-37790551D03*
D11*
X226739909Y-38672684D03*
D12*
X210649221Y-99541538D03*
X220654867Y-97777272D03*
D11*
X215652044Y-98659405D03*
D12*
X208091647Y-80648630D03*
X218097293Y-78884364D03*
D11*
X213094470Y-79766497D03*
D12*
X213225914Y-60399444D03*
X223231560Y-58635178D03*
D11*
X218228737Y-59517311D03*
D12*
X202976498Y-42862815D03*
X212982144Y-41098549D03*
D11*
X207979321Y-41980682D03*
D12*
X149987000Y-34099500D03*
X160147000Y-34099500D03*
D11*
X155067000Y-34099500D03*
D12*
X131837209Y-97881154D03*
X141842855Y-99645420D03*
D11*
X136840032Y-98763287D03*
D12*
X134019572Y-78922086D03*
X144025218Y-80686352D03*
D11*
X139022395Y-79804219D03*
D12*
X127196852Y-58375180D03*
X137202498Y-60139446D03*
D11*
X132199675Y-59257313D03*
D12*
X125251886Y-38688354D03*
X135257532Y-40452620D03*
D11*
X130254709Y-39570487D03*
D12*
X115258984Y-75614090D03*
X125264630Y-77378356D03*
D11*
X120261807Y-76496223D03*
D12*
X108436264Y-55067182D03*
X118441910Y-56831448D03*
D11*
X113439087Y-55949315D03*
D12*
X106491298Y-35380355D03*
X116496944Y-37144621D03*
D11*
X111494121Y-36262488D03*
D12*
X96498396Y-72306092D03*
X106504042Y-74070358D03*
D11*
X101501219Y-73188225D03*
D12*
X89675677Y-51759184D03*
X99681323Y-53523450D03*
D11*
X94678500Y-52641317D03*
D12*
X87730710Y-32072357D03*
X97736356Y-33836623D03*
D11*
X92733533Y-32954490D03*
D12*
X77737809Y-68998093D03*
X87743455Y-70762359D03*
D11*
X82740632Y-69880226D03*
D12*
X70915089Y-48451187D03*
X80920735Y-50215453D03*
D11*
X75917912Y-49333320D03*
D12*
X68970123Y-28764359D03*
X78975769Y-30528625D03*
D11*
X73972946Y-29646492D03*
D12*
X42545000Y-87121817D03*
X52705000Y-87121817D03*
D11*
X47625000Y-87121817D03*
D12*
X56832500Y-68071817D03*
X66992500Y-68071817D03*
D11*
X61912500Y-68071817D03*
D12*
X50165000Y-49021817D03*
X60325000Y-49021817D03*
D11*
X55245000Y-49021817D03*
D12*
X48260000Y-29971817D03*
X58420000Y-29971817D03*
D11*
X53340000Y-29971817D03*
D12*
X23495000Y-87121817D03*
X33655000Y-87121817D03*
D11*
X28575000Y-87121817D03*
D12*
X29210000Y-29971817D03*
X39370000Y-29971817D03*
D11*
X34290000Y-29971817D03*
D12*
X309360500Y-20764500D03*
X315860500Y-20764500D03*
X166497000Y-31421000D03*
X166497000Y-37921000D03*
M02*
