G04 #@! TF.GenerationSoftware,KiCad,Pcbnew,(6.0.2-0)*
G04 #@! TF.CreationDate,2022-02-23T09:44:20+09:00*
G04 #@! TF.ProjectId,aliceball,616c6963-6562-4616-9c6c-2e6b69636164,rev?*
G04 #@! TF.SameCoordinates,Original*
G04 #@! TF.FileFunction,Soldermask,Bot*
G04 #@! TF.FilePolarity,Negative*
%FSLAX46Y46*%
G04 Gerber Fmt 4.6, Leading zero omitted, Abs format (unit mm)*
G04 Created by KiCad (PCBNEW (6.0.2-0)) date 2022-02-23 09:44:20*
%MOMM*%
%LPD*%
G01*
G04 APERTURE LIST*
G04 Aperture macros list*
%AMRotRect*
0 Rectangle, with rotation*
0 The origin of the aperture is its center*
0 $1 length*
0 $2 width*
0 $3 Rotation angle, in degrees counterclockwise*
0 Add horizontal line*
21,1,$1,$2,0,0,$3*%
G04 Aperture macros list end*
%ADD10R,1.800000X1.800000*%
%ADD11C,1.800000*%
%ADD12C,2.200000*%
%ADD13C,4.000000*%
%ADD14C,2.000000*%
%ADD15C,3.000000*%
%ADD16R,3.300000X3.000000*%
%ADD17R,3.300000X2.800000*%
%ADD18RotRect,3.300000X3.000000X190.000000*%
%ADD19RotRect,3.300000X3.000000X170.000000*%
%ADD20R,2.200000X0.820000*%
%ADD21RotRect,2.200000X0.820000X170.000000*%
%ADD22RotRect,2.200000X0.820000X190.000000*%
%ADD23R,3.200000X2.500000*%
%ADD24O,1.500000X1.500000*%
%ADD25R,0.950000X1.300000*%
%ADD26RotRect,1.300000X0.950000X280.000000*%
%ADD27RotRect,1.300000X0.950000X80.000000*%
%ADD28C,1.524000*%
G04 APERTURE END LIST*
D10*
X184912000Y-74998000D03*
D11*
X184912000Y-77538000D03*
X184912000Y-80078000D03*
X184912000Y-82618000D03*
X184912000Y-85158000D03*
X184912000Y-87698000D03*
X184912000Y-90238000D03*
X184912000Y-92778000D03*
D12*
X319659000Y-21336000D03*
X23241000Y-21336000D03*
X24384000Y-110680500D03*
X64198500Y-102870000D03*
X318516000Y-110680500D03*
X278701500Y-102870000D03*
X221932500Y-24955500D03*
X121158000Y-24955500D03*
X154114500Y-83888000D03*
X176022000Y-105918000D03*
X197929500Y-83888000D03*
X176022000Y-61912500D03*
X198310500Y-106680000D03*
X154305000Y-106680000D03*
X198310500Y-60769500D03*
X154305000Y-60769500D03*
D13*
X309372000Y-29971817D03*
D14*
X314452000Y-29971817D03*
X304292000Y-29971817D03*
D15*
X305562000Y-27431817D03*
X311912000Y-24891817D03*
D16*
X301922000Y-27391817D03*
X315522000Y-24851817D03*
D13*
X285559500Y-29019317D03*
D15*
X288099500Y-23939317D03*
D14*
X290639500Y-29019317D03*
D15*
X281749500Y-26479317D03*
D14*
X280479500Y-29019317D03*
D16*
X278109500Y-26439317D03*
D17*
X291709500Y-23999317D03*
D13*
X267306003Y-89566137D03*
D14*
X272308826Y-88684004D03*
X262303180Y-90448270D03*
D15*
X263112819Y-87726325D03*
X268925282Y-84122247D03*
D18*
X259521173Y-88319012D03*
X272473492Y-83455985D03*
D13*
X239131420Y-94515552D03*
D14*
X244134243Y-93633419D03*
X234128597Y-95397685D03*
D15*
X234938236Y-92675740D03*
X240750699Y-89071662D03*
D18*
X231346590Y-93268427D03*
X244298909Y-88405400D03*
D15*
X107741162Y-91076202D03*
X114435757Y-89677456D03*
D13*
X111052213Y-94239213D03*
D14*
X106049390Y-93357080D03*
X116055036Y-95121346D03*
D19*
X104163408Y-90404730D03*
X117997859Y-90264934D03*
D13*
X82929056Y-89265846D03*
D14*
X77926233Y-88383713D03*
D15*
X86312600Y-84704089D03*
X79618005Y-86102835D03*
D14*
X87931879Y-90147979D03*
D19*
X76040251Y-85431363D03*
X89874702Y-85291567D03*
D15*
X31891196Y-65533560D03*
X38241196Y-62993560D03*
D13*
X35701196Y-68073560D03*
D14*
X30621196Y-68073560D03*
X40781196Y-68073560D03*
D16*
X28251196Y-65493560D03*
X41851196Y-62953560D03*
D13*
X33811560Y-49008483D03*
D14*
X28731560Y-49008483D03*
D15*
X36351560Y-43928483D03*
X30001560Y-46468483D03*
D14*
X38891560Y-49008483D03*
D16*
X26361560Y-46428483D03*
X39961560Y-43888483D03*
D20*
X39520000Y-110480000D03*
X45420000Y-110480000D03*
X45420000Y-108980000D03*
X39520000Y-108980000D03*
X77060000Y-110478000D03*
X82960000Y-110478000D03*
X82960000Y-108978000D03*
X77060000Y-108978000D03*
X112683500Y-113335500D03*
X118583500Y-113335500D03*
X118583500Y-111835500D03*
X112683500Y-111835500D03*
X305584000Y-110478000D03*
X311484000Y-110478000D03*
X311484000Y-108978000D03*
X305584000Y-108978000D03*
X269660000Y-110470000D03*
X275560000Y-110470000D03*
X275560000Y-108970000D03*
X269660000Y-108970000D03*
X234032000Y-113335500D03*
X239932000Y-113335500D03*
X239932000Y-111835500D03*
X234032000Y-111835500D03*
X195360500Y-113335500D03*
X201260500Y-113335500D03*
X201260500Y-111835500D03*
X195360500Y-111835500D03*
X151340000Y-113350000D03*
X157240000Y-113350000D03*
X157240000Y-111850000D03*
X151340000Y-111850000D03*
X158594000Y-55042500D03*
X164494000Y-55042500D03*
X164494000Y-53542500D03*
X158594000Y-53542500D03*
X188121500Y-55042500D03*
X194021500Y-55042500D03*
X194021500Y-53542500D03*
X188121500Y-53542500D03*
X201266000Y-27610500D03*
X207166000Y-27610500D03*
X207166000Y-26110500D03*
X201266000Y-26110500D03*
X134324500Y-27610500D03*
X140224500Y-27610500D03*
X140224500Y-26110500D03*
X134324500Y-26110500D03*
X152307500Y-39421500D03*
X158207500Y-39421500D03*
X158207500Y-37921500D03*
X152307500Y-37921500D03*
X31149500Y-35611500D03*
X37049500Y-35611500D03*
X37049500Y-34111500D03*
X31149500Y-34111500D03*
X30768500Y-54661500D03*
X36668500Y-54661500D03*
X36668500Y-53161500D03*
X30768500Y-53161500D03*
X32673500Y-73711500D03*
X38573500Y-73711500D03*
X38573500Y-72211500D03*
X32673500Y-72211500D03*
X25434500Y-92761500D03*
X31334500Y-92761500D03*
X31334500Y-91261500D03*
X25434500Y-91261500D03*
X44675000Y-92761500D03*
X50575000Y-92761500D03*
X50575000Y-91261500D03*
X44675000Y-91261500D03*
X58772000Y-73711500D03*
X64672000Y-73711500D03*
X64672000Y-72211500D03*
X58772000Y-72211500D03*
X52104500Y-54661500D03*
X58004500Y-54661500D03*
X58004500Y-53161500D03*
X52104500Y-53161500D03*
X50199500Y-35611500D03*
X56099500Y-35611500D03*
X56099500Y-34111500D03*
X50199500Y-34111500D03*
D21*
X69926081Y-34706844D03*
X75736447Y-35731368D03*
X75996919Y-34254156D03*
X70186553Y-33229632D03*
X72021581Y-54328344D03*
X77831947Y-55352868D03*
X78092419Y-53875656D03*
X72282053Y-52851132D03*
X78879581Y-74902344D03*
X84689947Y-75926868D03*
X84950419Y-74449656D03*
X79140053Y-73425132D03*
X78879581Y-94333344D03*
X84689947Y-95357868D03*
X84950419Y-93880656D03*
X79140053Y-92856132D03*
X107073581Y-99286344D03*
X112883947Y-100310868D03*
X113144419Y-98833656D03*
X107334053Y-97809132D03*
X97548581Y-78331344D03*
X103358947Y-79355868D03*
X103619419Y-77878656D03*
X97809053Y-76854132D03*
X90690581Y-57757344D03*
X96500947Y-58781868D03*
X96761419Y-57304656D03*
X90951053Y-56280132D03*
X88746000Y-37905594D03*
X94556366Y-38930118D03*
X94816838Y-37452906D03*
X89006472Y-36428382D03*
X107454581Y-41374344D03*
X113264947Y-42398868D03*
X113525419Y-40921656D03*
X107715053Y-39897132D03*
X109359581Y-60995844D03*
X115169947Y-62020368D03*
X115430419Y-60543156D03*
X109620053Y-59518632D03*
X116217581Y-81569844D03*
X122027947Y-82594368D03*
X122288419Y-81117156D03*
X116478053Y-80092632D03*
X132791081Y-103858344D03*
X138601447Y-104882868D03*
X138861919Y-103405656D03*
X133051553Y-102381132D03*
X135037500Y-84998844D03*
X140847866Y-86023368D03*
X141108338Y-84546156D03*
X135297972Y-83521632D03*
X128219081Y-64234344D03*
X134029447Y-65258868D03*
X134289919Y-63781656D03*
X128479553Y-62757132D03*
X126274500Y-44612844D03*
X132084866Y-45637368D03*
X132345338Y-44160156D03*
X126534972Y-43135632D03*
D22*
X206013053Y-48113868D03*
X211823419Y-47089344D03*
X211562947Y-45612132D03*
X205752581Y-46636656D03*
X216300053Y-65449368D03*
X222110419Y-64424844D03*
X221849947Y-62947632D03*
X216039581Y-63972156D03*
X210966053Y-85832868D03*
X216776419Y-84808344D03*
X216515947Y-83331132D03*
X210705581Y-84355656D03*
X213442553Y-104692368D03*
X219252919Y-103667844D03*
X218992447Y-102190632D03*
X213182081Y-103215156D03*
X237064553Y-100501368D03*
X242874919Y-99476844D03*
X242614447Y-97999632D03*
X236804081Y-99024156D03*
X229635053Y-82403868D03*
X235445419Y-81379344D03*
X235184947Y-79902132D03*
X229374581Y-80926656D03*
X234969053Y-62210868D03*
X240779419Y-61186344D03*
X240518947Y-59709132D03*
X234708581Y-60733656D03*
X224682053Y-44875368D03*
X230492419Y-43850844D03*
X230231947Y-42373632D03*
X224421581Y-43398156D03*
X243351053Y-41446368D03*
X249161419Y-40421844D03*
X248900947Y-38944632D03*
X243090581Y-39969156D03*
X253638053Y-58972368D03*
X259448419Y-57947844D03*
X259187947Y-56470632D03*
X253377581Y-57495156D03*
X248494553Y-79165368D03*
X254304919Y-78140844D03*
X254044447Y-76663632D03*
X248234081Y-77688156D03*
X265258553Y-95738868D03*
X271068919Y-94714344D03*
X270808447Y-93237132D03*
X264998081Y-94261656D03*
X267245525Y-75926868D03*
X273055891Y-74902344D03*
X272795419Y-73425132D03*
X266985053Y-74449656D03*
X272307053Y-55733868D03*
X278117419Y-54709344D03*
X277856947Y-53232132D03*
X272046581Y-54256656D03*
X262020053Y-38017368D03*
X267830419Y-36992844D03*
X267569947Y-35515632D03*
X261759581Y-36540156D03*
D20*
X281657000Y-33897000D03*
X287557000Y-33897000D03*
X287557000Y-32397000D03*
X281657000Y-32397000D03*
X291944000Y-54661500D03*
X297844000Y-54661500D03*
X297844000Y-53161500D03*
X291944000Y-53161500D03*
X287181500Y-73711500D03*
X293081500Y-73711500D03*
X293081500Y-72211500D03*
X287181500Y-72211500D03*
X291944000Y-92761500D03*
X297844000Y-92761500D03*
X297844000Y-91261500D03*
X291944000Y-91261500D03*
X310994000Y-92761500D03*
X316894000Y-92761500D03*
X316894000Y-91261500D03*
X310994000Y-91261500D03*
X306231500Y-73711500D03*
X312131500Y-73711500D03*
X312131500Y-72211500D03*
X306231500Y-72211500D03*
X310994000Y-54661500D03*
X316894000Y-54661500D03*
X316894000Y-53161500D03*
X310994000Y-53161500D03*
X306612500Y-34659000D03*
X312512500Y-34659000D03*
X312512500Y-33159000D03*
X306612500Y-33159000D03*
D14*
X309054500Y-87121817D03*
X319214500Y-87121817D03*
D13*
X314134500Y-87121817D03*
D15*
X310324500Y-84581817D03*
X316674500Y-82041817D03*
D16*
X306684500Y-84541817D03*
X320284500Y-82001817D03*
D14*
X304292000Y-68071817D03*
X314452000Y-68071817D03*
D13*
X309372000Y-68071817D03*
D15*
X305562000Y-65531817D03*
X311912000Y-62991817D03*
D16*
X301922000Y-65491817D03*
X315522000Y-62951817D03*
D14*
X309054500Y-49021817D03*
X319214500Y-49021817D03*
D13*
X314134500Y-49021817D03*
D15*
X310324500Y-46481817D03*
X316674500Y-43941817D03*
D16*
X306684500Y-46441817D03*
X320284500Y-43901817D03*
D14*
X290004500Y-87121817D03*
X300164500Y-87121817D03*
D13*
X295084500Y-87121817D03*
D15*
X291274500Y-84581817D03*
X297624500Y-82041817D03*
D16*
X287634500Y-84541817D03*
X301234500Y-82001817D03*
D14*
X285242000Y-68071817D03*
X295402000Y-68071817D03*
D13*
X290322000Y-68071817D03*
D15*
X286512000Y-65531817D03*
X292862000Y-62991817D03*
D16*
X282872000Y-65491817D03*
X296472000Y-62951817D03*
D14*
X290004500Y-49021817D03*
X300164500Y-49021817D03*
D13*
X295084500Y-49021817D03*
D15*
X291274500Y-46481817D03*
X297624500Y-43941817D03*
D16*
X287634500Y-46441817D03*
X301234500Y-43901817D03*
D14*
X264373410Y-70724637D03*
X274379056Y-68960371D03*
D13*
X269376233Y-69842504D03*
D15*
X265183049Y-68002692D03*
X270995512Y-64398614D03*
D18*
X261591403Y-68595379D03*
X274543722Y-63732352D03*
D14*
X269507677Y-50475450D03*
X279513323Y-48711184D03*
D13*
X274510500Y-49593317D03*
D15*
X270317316Y-47753505D03*
X276129779Y-44149427D03*
D18*
X266725670Y-48346192D03*
X279677989Y-43483165D03*
D14*
X259258261Y-32938822D03*
X269263907Y-31174556D03*
D13*
X264261084Y-32056689D03*
D15*
X260067900Y-30216877D03*
X265880363Y-26612799D03*
D18*
X256476254Y-30809564D03*
X269428573Y-25946537D03*
D14*
X245612822Y-74032635D03*
X255618468Y-72268369D03*
D13*
X250615645Y-73150502D03*
D15*
X246422461Y-71310690D03*
X252234924Y-67706612D03*
D18*
X242830815Y-71903377D03*
X255783134Y-67040350D03*
D14*
X250747089Y-53783448D03*
X260752735Y-52019182D03*
D13*
X255749912Y-52901315D03*
D15*
X251556728Y-51061503D03*
X257369191Y-47457425D03*
D18*
X247965082Y-51654190D03*
X260917401Y-46791163D03*
D14*
X240497674Y-36246820D03*
X250503320Y-34482554D03*
D13*
X245500497Y-35364687D03*
D15*
X241307313Y-33524875D03*
X247119776Y-29920797D03*
D18*
X237715667Y-34117562D03*
X250667986Y-29254535D03*
D14*
X226852235Y-77340633D03*
X236857881Y-75576367D03*
D13*
X231855058Y-76458500D03*
D15*
X227661874Y-74618688D03*
X233474337Y-71014610D03*
D18*
X224070228Y-75211375D03*
X237022547Y-70348348D03*
D14*
X231986501Y-57091446D03*
X241992147Y-55327180D03*
D13*
X236989324Y-56209313D03*
D15*
X232796140Y-54369501D03*
X238608603Y-50765423D03*
D18*
X229204494Y-54962188D03*
X242156813Y-50099161D03*
D14*
X221737086Y-39554817D03*
X231742732Y-37790551D03*
D13*
X226739909Y-38672684D03*
D15*
X222546725Y-36832872D03*
X228359188Y-33228794D03*
D18*
X218955079Y-37425559D03*
X231907398Y-32562532D03*
D14*
X210649221Y-99541538D03*
X220654867Y-97777272D03*
D13*
X215652044Y-98659405D03*
D15*
X211458860Y-96819593D03*
X217271323Y-93215515D03*
D18*
X207867214Y-97412280D03*
X220819533Y-92549253D03*
D14*
X208091647Y-80648630D03*
X218097293Y-78884364D03*
D13*
X213094470Y-79766497D03*
D15*
X208901286Y-77926685D03*
X214713749Y-74322607D03*
D18*
X205309640Y-78519372D03*
X218261959Y-73656345D03*
D14*
X213225914Y-60399444D03*
X223231560Y-58635178D03*
D13*
X218228737Y-59517311D03*
D15*
X214035553Y-57677499D03*
X219848016Y-54073421D03*
D18*
X210443907Y-58270186D03*
X223396226Y-53407159D03*
D14*
X202976498Y-42862815D03*
X212982144Y-41098549D03*
D13*
X207979321Y-41980682D03*
D15*
X203786137Y-40140870D03*
X209598600Y-36536792D03*
D18*
X200194491Y-40733557D03*
X213146810Y-35870530D03*
D14*
X149987000Y-34099500D03*
X160147000Y-34099500D03*
D13*
X155067000Y-34099500D03*
D15*
X151257000Y-31559500D03*
X157607000Y-29019500D03*
D16*
X147617000Y-31519500D03*
X161217000Y-28979500D03*
D14*
X131837209Y-97881154D03*
X141842855Y-99645420D03*
D13*
X136840032Y-98763287D03*
D15*
X133528981Y-95600276D03*
X140223576Y-94201530D03*
D19*
X129951227Y-94928804D03*
X143785678Y-94789008D03*
D14*
X134019572Y-78922086D03*
X144025218Y-80686352D03*
D13*
X139022395Y-79804219D03*
D15*
X135711344Y-76641208D03*
X142405939Y-75242462D03*
D19*
X132133590Y-75969736D03*
X145968041Y-75829940D03*
D14*
X127196852Y-58375180D03*
X137202498Y-60139446D03*
D13*
X132199675Y-59257313D03*
D15*
X128888624Y-56094302D03*
X135583219Y-54695556D03*
D19*
X125310870Y-55422830D03*
X139145321Y-55283034D03*
D14*
X125251886Y-38688354D03*
X135257532Y-40452620D03*
D13*
X130254709Y-39570487D03*
D15*
X126943658Y-36407476D03*
X133638253Y-35008730D03*
D19*
X123365904Y-35736004D03*
X137200355Y-35596208D03*
D14*
X115258984Y-75614090D03*
X125264630Y-77378356D03*
D13*
X120261807Y-76496223D03*
D15*
X116950756Y-73333212D03*
X123645351Y-71934466D03*
D19*
X113373002Y-72661740D03*
X127207453Y-72521944D03*
D14*
X108436264Y-55067182D03*
X118441910Y-56831448D03*
D13*
X113439087Y-55949315D03*
D15*
X110128036Y-52786304D03*
X116822631Y-51387558D03*
D19*
X106550282Y-52114832D03*
X120384733Y-51975036D03*
D14*
X106491298Y-35380355D03*
X116496944Y-37144621D03*
D13*
X111494121Y-36262488D03*
D15*
X108183070Y-33099477D03*
X114877665Y-31700731D03*
D19*
X104605316Y-32428005D03*
X118439767Y-32288209D03*
D14*
X96498396Y-72306092D03*
X106504042Y-74070358D03*
D13*
X101501219Y-73188225D03*
D15*
X98190168Y-70025214D03*
X104884763Y-68626468D03*
D19*
X94612414Y-69353742D03*
X108446865Y-69213946D03*
D14*
X89675677Y-51759184D03*
X99681323Y-53523450D03*
D13*
X94678500Y-52641317D03*
D15*
X91367449Y-49478306D03*
X98062044Y-48079560D03*
D19*
X87789695Y-48806834D03*
X101624146Y-48667038D03*
D14*
X87730710Y-32072357D03*
X97736356Y-33836623D03*
D13*
X92733533Y-32954490D03*
D15*
X89422482Y-29791479D03*
X96117077Y-28392733D03*
D19*
X85844728Y-29120007D03*
X99679179Y-28980211D03*
D14*
X77737809Y-68998093D03*
X87743455Y-70762359D03*
D13*
X82740632Y-69880226D03*
D15*
X79429581Y-66717215D03*
X86124176Y-65318469D03*
D19*
X75851827Y-66045743D03*
X89686278Y-65905947D03*
D14*
X70915089Y-48451187D03*
X80920735Y-50215453D03*
D13*
X75917912Y-49333320D03*
D15*
X72606861Y-46170309D03*
X79301456Y-44771563D03*
D19*
X69029107Y-45498837D03*
X82863558Y-45359041D03*
D14*
X68970123Y-28764359D03*
X78975769Y-30528625D03*
D13*
X73972946Y-29646492D03*
D15*
X70661895Y-26483481D03*
X77356490Y-25084735D03*
D19*
X67084141Y-25812009D03*
X80918592Y-25672213D03*
D14*
X42545000Y-87121817D03*
X52705000Y-87121817D03*
D13*
X47625000Y-87121817D03*
D15*
X43815000Y-84581817D03*
X50165000Y-82041817D03*
D16*
X40175000Y-84541817D03*
X53775000Y-82001817D03*
D14*
X56832500Y-68071817D03*
X66992500Y-68071817D03*
D13*
X61912500Y-68071817D03*
D15*
X58102500Y-65531817D03*
X64452500Y-62991817D03*
D16*
X54462500Y-65491817D03*
X68062500Y-62951817D03*
D14*
X50165000Y-49021817D03*
X60325000Y-49021817D03*
D13*
X55245000Y-49021817D03*
D15*
X51435000Y-46481817D03*
X57785000Y-43941817D03*
D16*
X47795000Y-46441817D03*
X61395000Y-43901817D03*
D14*
X48260000Y-29971817D03*
X58420000Y-29971817D03*
D13*
X53340000Y-29971817D03*
D15*
X49530000Y-27431817D03*
X55880000Y-24891817D03*
D16*
X45890000Y-27391817D03*
X59490000Y-24851817D03*
D14*
X23495000Y-87121817D03*
X33655000Y-87121817D03*
D13*
X28575000Y-87121817D03*
D15*
X24765000Y-84581817D03*
X31115000Y-82041817D03*
D16*
X21125000Y-84541817D03*
X34725000Y-82001817D03*
D14*
X29210000Y-29971817D03*
X39370000Y-29971817D03*
D13*
X34290000Y-29971817D03*
D15*
X30480000Y-27431817D03*
X36830000Y-24891817D03*
D16*
X26840000Y-27391817D03*
X40440000Y-24851817D03*
D14*
X173856000Y-31599500D03*
X173856000Y-34099500D03*
X173856000Y-36599500D03*
D23*
X181356000Y-28499500D03*
X181356000Y-39699500D03*
D14*
X188356000Y-31599500D03*
X188356000Y-36599500D03*
D24*
X167854000Y-22719500D03*
X165354000Y-22719500D03*
X162854000Y-22719500D03*
D25*
X44005500Y-70736000D03*
X44005500Y-67186000D03*
X318325500Y-67186000D03*
X318325500Y-70736000D03*
D26*
X258390774Y-70832466D03*
X259007226Y-74328534D03*
D25*
X303085500Y-86236000D03*
X303085500Y-89786000D03*
D27*
X101990274Y-56612034D03*
X102606726Y-53115966D03*
D25*
X163449000Y-36255500D03*
X163449000Y-32705500D03*
X192024000Y-32134000D03*
X192024000Y-35684000D03*
D26*
X244865274Y-53877966D03*
X245481726Y-57374034D03*
X277440774Y-67593966D03*
X278057226Y-71090034D03*
D27*
X83130774Y-53183034D03*
X83747226Y-49686966D03*
D26*
X281631774Y-47400966D03*
X282248226Y-50897034D03*
D27*
X81606774Y-33561534D03*
X82223226Y-30065466D03*
X137804274Y-43277034D03*
X138420726Y-39780966D03*
D25*
X69913500Y-70736000D03*
X69913500Y-67186000D03*
X61341000Y-32255000D03*
X61341000Y-28705000D03*
D27*
X146567274Y-83853534D03*
X147183726Y-80357466D03*
D25*
X42100500Y-51686000D03*
X42100500Y-48136000D03*
D14*
X309360500Y-20764500D03*
X315860500Y-20764500D03*
D27*
X91893774Y-93378534D03*
X92510226Y-89882466D03*
D26*
X223338774Y-95978466D03*
X223955226Y-99474534D03*
D25*
X298323000Y-67186000D03*
X298323000Y-70736000D03*
D27*
X139709274Y-63089034D03*
X140325726Y-59592966D03*
D25*
X42481500Y-32255000D03*
X42481500Y-28705000D03*
D26*
X271725774Y-29493966D03*
X272342226Y-32990034D03*
X247532274Y-92168466D03*
X248148726Y-95664534D03*
X253628274Y-33113466D03*
X254244726Y-36609534D03*
D25*
X302895000Y-48136000D03*
X302895000Y-51686000D03*
D27*
X144471774Y-102713034D03*
X145088226Y-99216966D03*
D25*
X37147500Y-89976500D03*
X37147500Y-86426500D03*
X63627000Y-51686000D03*
X63627000Y-48136000D03*
X318516000Y-28895500D03*
X318516000Y-32445500D03*
D26*
X215528274Y-39780966D03*
X216144726Y-43277034D03*
D25*
X55816500Y-89976500D03*
X55816500Y-86426500D03*
D27*
X120659274Y-59850534D03*
X121275726Y-56354466D03*
D25*
X321754500Y-48136000D03*
X321754500Y-51686000D03*
D27*
X90369774Y-73757034D03*
X90986226Y-70260966D03*
D14*
X166497000Y-31421000D03*
X166497000Y-37921000D03*
D27*
X108848274Y-76995534D03*
X109464726Y-73499466D03*
D25*
X321564000Y-86236000D03*
X321564000Y-89786000D03*
D27*
X100275774Y-36800034D03*
X100892226Y-33303966D03*
D28*
X275209000Y-20955000D03*
X275209000Y-36175000D03*
X277749000Y-36175000D03*
X280289000Y-36175000D03*
X282829000Y-36175000D03*
X285369000Y-36175000D03*
X287909000Y-36175000D03*
X290449000Y-36175000D03*
X292989000Y-36175000D03*
X295529000Y-36175000D03*
X298069000Y-36175000D03*
X300609000Y-36175000D03*
X303149000Y-36175000D03*
X305689000Y-36175000D03*
X305689000Y-20955000D03*
X303149000Y-20955000D03*
X300609000Y-20955000D03*
X298069000Y-20955000D03*
X295529000Y-20955000D03*
X292989000Y-20955000D03*
X290449000Y-20955000D03*
X287909000Y-20955000D03*
X285369000Y-20955000D03*
X282829000Y-20955000D03*
X280289000Y-20955000D03*
X277749000Y-20955000D03*
D27*
X118754274Y-98141034D03*
X119370726Y-94644966D03*
D26*
X239531274Y-74070966D03*
X240147726Y-77567034D03*
X263534274Y-50639466D03*
X264150726Y-54135534D03*
X276297774Y-87215466D03*
X276914226Y-90711534D03*
X226005774Y-56925966D03*
X226622226Y-60422034D03*
D27*
X127707774Y-80424534D03*
X128324226Y-76928466D03*
D25*
X293751000Y-27562000D03*
X293751000Y-31112000D03*
D27*
X118754274Y-40038534D03*
X119370726Y-36542466D03*
D26*
X234578274Y-36161466D03*
X235194726Y-39657534D03*
X220862274Y-77309466D03*
X221478726Y-80805534D03*
M02*
