G04 #@! TF.GenerationSoftware,KiCad,Pcbnew,(6.0.2-0)*
G04 #@! TF.CreationDate,2022-02-23T09:44:20+09:00*
G04 #@! TF.ProjectId,aliceball,616c6963-6562-4616-9c6c-2e6b69636164,rev?*
G04 #@! TF.SameCoordinates,Original*
G04 #@! TF.FileFunction,Profile,NP*
%FSLAX46Y46*%
G04 Gerber Fmt 4.6, Leading zero omitted, Abs format (unit mm)*
G04 Created by KiCad (PCBNEW (6.0.2-0)) date 2022-02-23 09:44:20*
%MOMM*%
%LPD*%
G01*
G04 APERTURE LIST*
G04 #@! TA.AperFunction,Profile*
%ADD10C,0.100000*%
G04 #@! TD*
G04 #@! TA.AperFunction,Profile*
%ADD11C,0.120000*%
G04 #@! TD*
G04 APERTURE END LIST*
D10*
X19275000Y-113050000D02*
G75*
G03*
X22275000Y-116050000I3000001J1D01*
G01*
X22275000Y-17250000D02*
G75*
G03*
X19275000Y-20250000I1J-3000001D01*
G01*
X320625000Y-116050000D02*
G75*
G03*
X323625000Y-113050000I-1J3000001D01*
G01*
X323625000Y-20250000D02*
G75*
G03*
X320625000Y-17250000I-3000001J-1D01*
G01*
X183474612Y-73723500D02*
X183450929Y-93727951D01*
X320625000Y-17250000D02*
X22275000Y-17250000D01*
X193929000Y-65722500D02*
X158115000Y-65722500D01*
X194310000Y-66103500D02*
X194310000Y-72771000D01*
X183450929Y-93727951D02*
G75*
G03*
X184022429Y-94299451I571498J-2D01*
G01*
X184022429Y-94299451D02*
X193929000Y-94297500D01*
X193929000Y-73152000D02*
X184046112Y-73152000D01*
X184046112Y-73152000D02*
G75*
G03*
X183474612Y-73723500I-2J-571498D01*
G01*
X193929000Y-102108000D02*
G75*
G03*
X194310000Y-101727000I1J380999D01*
G01*
X194310000Y-94678500D02*
X194310000Y-101727000D01*
X158115000Y-65722500D02*
G75*
G03*
X157734000Y-66103500I-1J-380999D01*
G01*
X194310000Y-66103500D02*
G75*
G03*
X193929000Y-65722500I-380999J1D01*
G01*
X157734000Y-101727000D02*
G75*
G03*
X158115000Y-102108000I380999J-1D01*
G01*
X193929000Y-73152000D02*
G75*
G03*
X194310000Y-72771000I1J380999D01*
G01*
X158115000Y-102108000D02*
X193929000Y-102108000D01*
X194310000Y-94678500D02*
G75*
G03*
X193929000Y-94297500I-380999J1D01*
G01*
X323625000Y-20250000D02*
X323625000Y-113050000D01*
X157734000Y-66103500D02*
X157734000Y-101727000D01*
X19275000Y-20250000D02*
X19275000Y-113050000D01*
X22275000Y-116050000D02*
X320625000Y-116050000D01*
D11*
X44220000Y-108130000D02*
X44220000Y-111330000D01*
X40720000Y-108130000D02*
X44220000Y-108130000D01*
X44220000Y-111330000D02*
X40720000Y-111330000D01*
X40720000Y-111330000D02*
X40720000Y-108130000D01*
X81760000Y-108128000D02*
X81760000Y-111328000D01*
X78260000Y-108128000D02*
X81760000Y-108128000D01*
X81760000Y-111328000D02*
X78260000Y-111328000D01*
X78260000Y-111328000D02*
X78260000Y-108128000D01*
X117383500Y-110985500D02*
X117383500Y-114185500D01*
X113883500Y-110985500D02*
X117383500Y-110985500D01*
X117383500Y-114185500D02*
X113883500Y-114185500D01*
X113883500Y-114185500D02*
X113883500Y-110985500D01*
X310284000Y-108128000D02*
X310284000Y-111328000D01*
X306784000Y-108128000D02*
X310284000Y-108128000D01*
X310284000Y-111328000D02*
X306784000Y-111328000D01*
X306784000Y-111328000D02*
X306784000Y-108128000D01*
X274360000Y-108120000D02*
X274360000Y-111320000D01*
X270860000Y-108120000D02*
X274360000Y-108120000D01*
X274360000Y-111320000D02*
X270860000Y-111320000D01*
X270860000Y-111320000D02*
X270860000Y-108120000D01*
X238732000Y-110985500D02*
X238732000Y-114185500D01*
X235232000Y-110985500D02*
X238732000Y-110985500D01*
X238732000Y-114185500D02*
X235232000Y-114185500D01*
X235232000Y-114185500D02*
X235232000Y-110985500D01*
X200060500Y-110985500D02*
X200060500Y-114185500D01*
X196560500Y-110985500D02*
X200060500Y-110985500D01*
X200060500Y-114185500D02*
X196560500Y-114185500D01*
X196560500Y-114185500D02*
X196560500Y-110985500D01*
X156040000Y-111000000D02*
X156040000Y-114200000D01*
X152540000Y-111000000D02*
X156040000Y-111000000D01*
X156040000Y-114200000D02*
X152540000Y-114200000D01*
X152540000Y-114200000D02*
X152540000Y-111000000D01*
X163294000Y-52692500D02*
X163294000Y-55892500D01*
X159794000Y-52692500D02*
X163294000Y-52692500D01*
X163294000Y-55892500D02*
X159794000Y-55892500D01*
X159794000Y-55892500D02*
X159794000Y-52692500D01*
X192821500Y-52692500D02*
X192821500Y-55892500D01*
X189321500Y-52692500D02*
X192821500Y-52692500D01*
X192821500Y-55892500D02*
X189321500Y-55892500D01*
X189321500Y-55892500D02*
X189321500Y-52692500D01*
X205966000Y-25260500D02*
X205966000Y-28460500D01*
X202466000Y-25260500D02*
X205966000Y-25260500D01*
X205966000Y-28460500D02*
X202466000Y-28460500D01*
X202466000Y-28460500D02*
X202466000Y-25260500D01*
X139024500Y-25260500D02*
X139024500Y-28460500D01*
X135524500Y-25260500D02*
X139024500Y-25260500D01*
X139024500Y-28460500D02*
X135524500Y-28460500D01*
X135524500Y-28460500D02*
X135524500Y-25260500D01*
X157007500Y-37071500D02*
X157007500Y-40271500D01*
X153507500Y-37071500D02*
X157007500Y-37071500D01*
X157007500Y-40271500D02*
X153507500Y-40271500D01*
X153507500Y-40271500D02*
X153507500Y-37071500D01*
X35849500Y-33261500D02*
X35849500Y-36461500D01*
X32349500Y-33261500D02*
X35849500Y-33261500D01*
X35849500Y-36461500D02*
X32349500Y-36461500D01*
X32349500Y-36461500D02*
X32349500Y-33261500D01*
X35468500Y-52311500D02*
X35468500Y-55511500D01*
X31968500Y-52311500D02*
X35468500Y-52311500D01*
X35468500Y-55511500D02*
X31968500Y-55511500D01*
X31968500Y-55511500D02*
X31968500Y-52311500D01*
X37373500Y-71361500D02*
X37373500Y-74561500D01*
X33873500Y-71361500D02*
X37373500Y-71361500D01*
X37373500Y-74561500D02*
X33873500Y-74561500D01*
X33873500Y-74561500D02*
X33873500Y-71361500D01*
X30134500Y-90411500D02*
X30134500Y-93611500D01*
X26634500Y-90411500D02*
X30134500Y-90411500D01*
X30134500Y-93611500D02*
X26634500Y-93611500D01*
X26634500Y-93611500D02*
X26634500Y-90411500D01*
X49375000Y-90411500D02*
X49375000Y-93611500D01*
X45875000Y-90411500D02*
X49375000Y-90411500D01*
X49375000Y-93611500D02*
X45875000Y-93611500D01*
X45875000Y-93611500D02*
X45875000Y-90411500D01*
X63472000Y-71361500D02*
X63472000Y-74561500D01*
X59972000Y-71361500D02*
X63472000Y-71361500D01*
X63472000Y-74561500D02*
X59972000Y-74561500D01*
X59972000Y-74561500D02*
X59972000Y-71361500D01*
X56804500Y-52311500D02*
X56804500Y-55511500D01*
X53304500Y-52311500D02*
X56804500Y-52311500D01*
X56804500Y-55511500D02*
X53304500Y-55511500D01*
X53304500Y-55511500D02*
X53304500Y-52311500D01*
X54899500Y-33261500D02*
X54899500Y-36461500D01*
X51399500Y-33261500D02*
X54899500Y-33261500D01*
X54899500Y-36461500D02*
X51399500Y-36461500D01*
X51399500Y-36461500D02*
X51399500Y-33261500D01*
X74962751Y-33208692D02*
X74407076Y-36360077D01*
X71515924Y-32600923D02*
X74962751Y-33208692D01*
X74407076Y-36360077D02*
X70960249Y-35752308D01*
X70960249Y-35752308D02*
X71515924Y-32600923D01*
X77058251Y-52830192D02*
X76502576Y-55981577D01*
X73611424Y-52222423D02*
X77058251Y-52830192D01*
X76502576Y-55981577D02*
X73055749Y-55373808D01*
X73055749Y-55373808D02*
X73611424Y-52222423D01*
X83916251Y-73404192D02*
X83360576Y-76555577D01*
X80469424Y-72796423D02*
X83916251Y-73404192D01*
X83360576Y-76555577D02*
X79913749Y-75947808D01*
X79913749Y-75947808D02*
X80469424Y-72796423D01*
X83916251Y-92835192D02*
X83360576Y-95986577D01*
X80469424Y-92227423D02*
X83916251Y-92835192D01*
X83360576Y-95986577D02*
X79913749Y-95378808D01*
X79913749Y-95378808D02*
X80469424Y-92227423D01*
X112110251Y-97788192D02*
X111554576Y-100939577D01*
X108663424Y-97180423D02*
X112110251Y-97788192D01*
X111554576Y-100939577D02*
X108107749Y-100331808D01*
X108107749Y-100331808D02*
X108663424Y-97180423D01*
X102585251Y-76833192D02*
X102029576Y-79984577D01*
X99138424Y-76225423D02*
X102585251Y-76833192D01*
X102029576Y-79984577D02*
X98582749Y-79376808D01*
X98582749Y-79376808D02*
X99138424Y-76225423D01*
X95727251Y-56259192D02*
X95171576Y-59410577D01*
X92280424Y-55651423D02*
X95727251Y-56259192D01*
X95171576Y-59410577D02*
X91724749Y-58802808D01*
X91724749Y-58802808D02*
X92280424Y-55651423D01*
X93782670Y-36407442D02*
X93226995Y-39558827D01*
X90335843Y-35799673D02*
X93782670Y-36407442D01*
X93226995Y-39558827D02*
X89780168Y-38951058D01*
X89780168Y-38951058D02*
X90335843Y-35799673D01*
X112491251Y-39876192D02*
X111935576Y-43027577D01*
X109044424Y-39268423D02*
X112491251Y-39876192D01*
X111935576Y-43027577D02*
X108488749Y-42419808D01*
X108488749Y-42419808D02*
X109044424Y-39268423D01*
X114396251Y-59497692D02*
X113840576Y-62649077D01*
X110949424Y-58889923D02*
X114396251Y-59497692D01*
X113840576Y-62649077D02*
X110393749Y-62041308D01*
X110393749Y-62041308D02*
X110949424Y-58889923D01*
X121254251Y-80071692D02*
X120698576Y-83223077D01*
X117807424Y-79463923D02*
X121254251Y-80071692D01*
X120698576Y-83223077D02*
X117251749Y-82615308D01*
X117251749Y-82615308D02*
X117807424Y-79463923D01*
X137827751Y-102360192D02*
X137272076Y-105511577D01*
X134380924Y-101752423D02*
X137827751Y-102360192D01*
X137272076Y-105511577D02*
X133825249Y-104903808D01*
X133825249Y-104903808D02*
X134380924Y-101752423D01*
X140074170Y-83500692D02*
X139518495Y-86652077D01*
X136627343Y-82892923D02*
X140074170Y-83500692D01*
X139518495Y-86652077D02*
X136071668Y-86044308D01*
X136071668Y-86044308D02*
X136627343Y-82892923D01*
X133255751Y-62736192D02*
X132700076Y-65887577D01*
X129808924Y-62128423D02*
X133255751Y-62736192D01*
X132700076Y-65887577D02*
X129253249Y-65279808D01*
X129253249Y-65279808D02*
X129808924Y-62128423D01*
X131311170Y-43114692D02*
X130755495Y-46266077D01*
X127864343Y-42506923D02*
X131311170Y-43114692D01*
X130755495Y-46266077D02*
X127308668Y-45658308D01*
X127308668Y-45658308D02*
X127864343Y-42506923D01*
X210233576Y-44983423D02*
X210789251Y-48134808D01*
X206786749Y-45591192D02*
X210233576Y-44983423D01*
X210789251Y-48134808D02*
X207342424Y-48742577D01*
X207342424Y-48742577D02*
X206786749Y-45591192D01*
X220520576Y-62318923D02*
X221076251Y-65470308D01*
X217073749Y-62926692D02*
X220520576Y-62318923D01*
X221076251Y-65470308D02*
X217629424Y-66078077D01*
X217629424Y-66078077D02*
X217073749Y-62926692D01*
X215186576Y-82702423D02*
X215742251Y-85853808D01*
X211739749Y-83310192D02*
X215186576Y-82702423D01*
X215742251Y-85853808D02*
X212295424Y-86461577D01*
X212295424Y-86461577D02*
X211739749Y-83310192D01*
X217663076Y-101561923D02*
X218218751Y-104713308D01*
X214216249Y-102169692D02*
X217663076Y-101561923D01*
X218218751Y-104713308D02*
X214771924Y-105321077D01*
X214771924Y-105321077D02*
X214216249Y-102169692D01*
X241285076Y-97370923D02*
X241840751Y-100522308D01*
X237838249Y-97978692D02*
X241285076Y-97370923D01*
X241840751Y-100522308D02*
X238393924Y-101130077D01*
X238393924Y-101130077D02*
X237838249Y-97978692D01*
X233855576Y-79273423D02*
X234411251Y-82424808D01*
X230408749Y-79881192D02*
X233855576Y-79273423D01*
X234411251Y-82424808D02*
X230964424Y-83032577D01*
X230964424Y-83032577D02*
X230408749Y-79881192D01*
X239189576Y-59080423D02*
X239745251Y-62231808D01*
X235742749Y-59688192D02*
X239189576Y-59080423D01*
X239745251Y-62231808D02*
X236298424Y-62839577D01*
X236298424Y-62839577D02*
X235742749Y-59688192D01*
X228902576Y-41744923D02*
X229458251Y-44896308D01*
X225455749Y-42352692D02*
X228902576Y-41744923D01*
X229458251Y-44896308D02*
X226011424Y-45504077D01*
X226011424Y-45504077D02*
X225455749Y-42352692D01*
X247571576Y-38315923D02*
X248127251Y-41467308D01*
X244124749Y-38923692D02*
X247571576Y-38315923D01*
X248127251Y-41467308D02*
X244680424Y-42075077D01*
X244680424Y-42075077D02*
X244124749Y-38923692D01*
X257858576Y-55841923D02*
X258414251Y-58993308D01*
X254411749Y-56449692D02*
X257858576Y-55841923D01*
X258414251Y-58993308D02*
X254967424Y-59601077D01*
X254967424Y-59601077D02*
X254411749Y-56449692D01*
X252715076Y-76034923D02*
X253270751Y-79186308D01*
X249268249Y-76642692D02*
X252715076Y-76034923D01*
X253270751Y-79186308D02*
X249823924Y-79794077D01*
X249823924Y-79794077D02*
X249268249Y-76642692D01*
X269479076Y-92608423D02*
X270034751Y-95759808D01*
X266032249Y-93216192D02*
X269479076Y-92608423D01*
X270034751Y-95759808D02*
X266587924Y-96367577D01*
X266587924Y-96367577D02*
X266032249Y-93216192D01*
X271466048Y-72796423D02*
X272021723Y-75947808D01*
X268019221Y-73404192D02*
X271466048Y-72796423D01*
X272021723Y-75947808D02*
X268574896Y-76555577D01*
X268574896Y-76555577D02*
X268019221Y-73404192D01*
X276527576Y-52603423D02*
X277083251Y-55754808D01*
X273080749Y-53211192D02*
X276527576Y-52603423D01*
X277083251Y-55754808D02*
X273636424Y-56362577D01*
X273636424Y-56362577D02*
X273080749Y-53211192D01*
X266240576Y-34886923D02*
X266796251Y-38038308D01*
X262793749Y-35494692D02*
X266240576Y-34886923D01*
X266796251Y-38038308D02*
X263349424Y-38646077D01*
X263349424Y-38646077D02*
X262793749Y-35494692D01*
X286357000Y-31547000D02*
X286357000Y-34747000D01*
X282857000Y-31547000D02*
X286357000Y-31547000D01*
X286357000Y-34747000D02*
X282857000Y-34747000D01*
X282857000Y-34747000D02*
X282857000Y-31547000D01*
X296644000Y-52311500D02*
X296644000Y-55511500D01*
X293144000Y-52311500D02*
X296644000Y-52311500D01*
X296644000Y-55511500D02*
X293144000Y-55511500D01*
X293144000Y-55511500D02*
X293144000Y-52311500D01*
X291881500Y-71361500D02*
X291881500Y-74561500D01*
X288381500Y-71361500D02*
X291881500Y-71361500D01*
X291881500Y-74561500D02*
X288381500Y-74561500D01*
X288381500Y-74561500D02*
X288381500Y-71361500D01*
X296644000Y-90411500D02*
X296644000Y-93611500D01*
X293144000Y-90411500D02*
X296644000Y-90411500D01*
X296644000Y-93611500D02*
X293144000Y-93611500D01*
X293144000Y-93611500D02*
X293144000Y-90411500D01*
X315694000Y-90411500D02*
X315694000Y-93611500D01*
X312194000Y-90411500D02*
X315694000Y-90411500D01*
X315694000Y-93611500D02*
X312194000Y-93611500D01*
X312194000Y-93611500D02*
X312194000Y-90411500D01*
X310931500Y-71361500D02*
X310931500Y-74561500D01*
X307431500Y-71361500D02*
X310931500Y-71361500D01*
X310931500Y-74561500D02*
X307431500Y-74561500D01*
X307431500Y-74561500D02*
X307431500Y-71361500D01*
X315694000Y-52311500D02*
X315694000Y-55511500D01*
X312194000Y-52311500D02*
X315694000Y-52311500D01*
X315694000Y-55511500D02*
X312194000Y-55511500D01*
X312194000Y-55511500D02*
X312194000Y-52311500D01*
X311312500Y-32309000D02*
X311312500Y-35509000D01*
X307812500Y-32309000D02*
X311312500Y-32309000D01*
X311312500Y-35509000D02*
X307812500Y-35509000D01*
X307812500Y-35509000D02*
X307812500Y-32309000D01*
M02*
