G04 #@! TF.GenerationSoftware,KiCad,Pcbnew,(6.0.2-0)*
G04 #@! TF.CreationDate,2022-02-23T09:44:20+09:00*
G04 #@! TF.ProjectId,aliceball,616c6963-6562-4616-9c6c-2e6b69636164,rev?*
G04 #@! TF.SameCoordinates,Original*
G04 #@! TF.FileFunction,Soldermask,Top*
G04 #@! TF.FilePolarity,Negative*
%FSLAX46Y46*%
G04 Gerber Fmt 4.6, Leading zero omitted, Abs format (unit mm)*
G04 Created by KiCad (PCBNEW (6.0.2-0)) date 2022-02-23 09:44:20*
%MOMM*%
%LPD*%
G01*
G04 APERTURE LIST*
%ADD10R,1.800000X1.800000*%
%ADD11C,1.800000*%
%ADD12C,2.200000*%
%ADD13C,4.000000*%
%ADD14C,2.000000*%
%ADD15C,3.000000*%
%ADD16R,3.200000X2.500000*%
%ADD17O,1.500000X1.500000*%
%ADD18C,1.524000*%
G04 APERTURE END LIST*
D10*
X184912000Y-74998000D03*
D11*
X184912000Y-77538000D03*
X184912000Y-80078000D03*
X184912000Y-82618000D03*
X184912000Y-85158000D03*
X184912000Y-87698000D03*
X184912000Y-90238000D03*
X184912000Y-92778000D03*
D12*
X319659000Y-21336000D03*
X23241000Y-21336000D03*
X24384000Y-110680500D03*
X64198500Y-102870000D03*
X318516000Y-110680500D03*
X278701500Y-102870000D03*
X221932500Y-24955500D03*
X121158000Y-24955500D03*
X154114500Y-83888000D03*
X176022000Y-105918000D03*
X197929500Y-83888000D03*
X176022000Y-61912500D03*
X198310500Y-106680000D03*
X154305000Y-106680000D03*
X198310500Y-60769500D03*
X154305000Y-60769500D03*
D13*
X309372000Y-29971817D03*
D14*
X314452000Y-29971817D03*
X304292000Y-29971817D03*
D15*
X305562000Y-27431817D03*
X311912000Y-24891817D03*
D13*
X285559500Y-29019317D03*
D15*
X288099500Y-23939317D03*
D14*
X290639500Y-29019317D03*
D15*
X281749500Y-26479317D03*
D14*
X280479500Y-29019317D03*
D13*
X267306003Y-89566137D03*
D14*
X272308826Y-88684004D03*
X262303180Y-90448270D03*
D15*
X263112819Y-87726325D03*
X268925282Y-84122247D03*
D13*
X239131420Y-94515552D03*
D14*
X244134243Y-93633419D03*
X234128597Y-95397685D03*
D15*
X234938236Y-92675740D03*
X240750699Y-89071662D03*
X107741162Y-91076202D03*
X114435757Y-89677456D03*
D13*
X111052213Y-94239213D03*
D14*
X106049390Y-93357080D03*
X116055036Y-95121346D03*
D13*
X82929056Y-89265846D03*
D14*
X77926233Y-88383713D03*
D15*
X86312600Y-84704089D03*
X79618005Y-86102835D03*
D14*
X87931879Y-90147979D03*
D15*
X31891196Y-65533560D03*
X38241196Y-62993560D03*
D13*
X35701196Y-68073560D03*
D14*
X30621196Y-68073560D03*
X40781196Y-68073560D03*
D13*
X33811560Y-49008483D03*
D14*
X28731560Y-49008483D03*
D15*
X36351560Y-43928483D03*
X30001560Y-46468483D03*
D14*
X38891560Y-49008483D03*
X309054500Y-87121817D03*
X319214500Y-87121817D03*
D13*
X314134500Y-87121817D03*
D15*
X310324500Y-84581817D03*
X316674500Y-82041817D03*
D14*
X304292000Y-68071817D03*
X314452000Y-68071817D03*
D13*
X309372000Y-68071817D03*
D15*
X305562000Y-65531817D03*
X311912000Y-62991817D03*
D14*
X309054500Y-49021817D03*
X319214500Y-49021817D03*
D13*
X314134500Y-49021817D03*
D15*
X310324500Y-46481817D03*
X316674500Y-43941817D03*
D14*
X290004500Y-87121817D03*
X300164500Y-87121817D03*
D13*
X295084500Y-87121817D03*
D15*
X291274500Y-84581817D03*
X297624500Y-82041817D03*
D14*
X285242000Y-68071817D03*
X295402000Y-68071817D03*
D13*
X290322000Y-68071817D03*
D15*
X286512000Y-65531817D03*
X292862000Y-62991817D03*
D14*
X290004500Y-49021817D03*
X300164500Y-49021817D03*
D13*
X295084500Y-49021817D03*
D15*
X291274500Y-46481817D03*
X297624500Y-43941817D03*
D14*
X264373410Y-70724637D03*
X274379056Y-68960371D03*
D13*
X269376233Y-69842504D03*
D15*
X265183049Y-68002692D03*
X270995512Y-64398614D03*
D14*
X269507677Y-50475450D03*
X279513323Y-48711184D03*
D13*
X274510500Y-49593317D03*
D15*
X270317316Y-47753505D03*
X276129779Y-44149427D03*
D14*
X259258261Y-32938822D03*
X269263907Y-31174556D03*
D13*
X264261084Y-32056689D03*
D15*
X260067900Y-30216877D03*
X265880363Y-26612799D03*
D14*
X245612822Y-74032635D03*
X255618468Y-72268369D03*
D13*
X250615645Y-73150502D03*
D15*
X246422461Y-71310690D03*
X252234924Y-67706612D03*
D14*
X250747089Y-53783448D03*
X260752735Y-52019182D03*
D13*
X255749912Y-52901315D03*
D15*
X251556728Y-51061503D03*
X257369191Y-47457425D03*
D14*
X240497674Y-36246820D03*
X250503320Y-34482554D03*
D13*
X245500497Y-35364687D03*
D15*
X241307313Y-33524875D03*
X247119776Y-29920797D03*
D14*
X226852235Y-77340633D03*
X236857881Y-75576367D03*
D13*
X231855058Y-76458500D03*
D15*
X227661874Y-74618688D03*
X233474337Y-71014610D03*
D14*
X231986501Y-57091446D03*
X241992147Y-55327180D03*
D13*
X236989324Y-56209313D03*
D15*
X232796140Y-54369501D03*
X238608603Y-50765423D03*
D14*
X221737086Y-39554817D03*
X231742732Y-37790551D03*
D13*
X226739909Y-38672684D03*
D15*
X222546725Y-36832872D03*
X228359188Y-33228794D03*
D14*
X210649221Y-99541538D03*
X220654867Y-97777272D03*
D13*
X215652044Y-98659405D03*
D15*
X211458860Y-96819593D03*
X217271323Y-93215515D03*
D14*
X208091647Y-80648630D03*
X218097293Y-78884364D03*
D13*
X213094470Y-79766497D03*
D15*
X208901286Y-77926685D03*
X214713749Y-74322607D03*
D14*
X213225914Y-60399444D03*
X223231560Y-58635178D03*
D13*
X218228737Y-59517311D03*
D15*
X214035553Y-57677499D03*
X219848016Y-54073421D03*
D14*
X202976498Y-42862815D03*
X212982144Y-41098549D03*
D13*
X207979321Y-41980682D03*
D15*
X203786137Y-40140870D03*
X209598600Y-36536792D03*
D14*
X149987000Y-34099500D03*
X160147000Y-34099500D03*
D13*
X155067000Y-34099500D03*
D15*
X151257000Y-31559500D03*
X157607000Y-29019500D03*
D14*
X131837209Y-97881154D03*
X141842855Y-99645420D03*
D13*
X136840032Y-98763287D03*
D15*
X133528981Y-95600276D03*
X140223576Y-94201530D03*
D14*
X134019572Y-78922086D03*
X144025218Y-80686352D03*
D13*
X139022395Y-79804219D03*
D15*
X135711344Y-76641208D03*
X142405939Y-75242462D03*
D14*
X127196852Y-58375180D03*
X137202498Y-60139446D03*
D13*
X132199675Y-59257313D03*
D15*
X128888624Y-56094302D03*
X135583219Y-54695556D03*
D14*
X125251886Y-38688354D03*
X135257532Y-40452620D03*
D13*
X130254709Y-39570487D03*
D15*
X126943658Y-36407476D03*
X133638253Y-35008730D03*
D14*
X115258984Y-75614090D03*
X125264630Y-77378356D03*
D13*
X120261807Y-76496223D03*
D15*
X116950756Y-73333212D03*
X123645351Y-71934466D03*
D14*
X108436264Y-55067182D03*
X118441910Y-56831448D03*
D13*
X113439087Y-55949315D03*
D15*
X110128036Y-52786304D03*
X116822631Y-51387558D03*
D14*
X106491298Y-35380355D03*
X116496944Y-37144621D03*
D13*
X111494121Y-36262488D03*
D15*
X108183070Y-33099477D03*
X114877665Y-31700731D03*
D14*
X96498396Y-72306092D03*
X106504042Y-74070358D03*
D13*
X101501219Y-73188225D03*
D15*
X98190168Y-70025214D03*
X104884763Y-68626468D03*
D14*
X89675677Y-51759184D03*
X99681323Y-53523450D03*
D13*
X94678500Y-52641317D03*
D15*
X91367449Y-49478306D03*
X98062044Y-48079560D03*
D14*
X87730710Y-32072357D03*
X97736356Y-33836623D03*
D13*
X92733533Y-32954490D03*
D15*
X89422482Y-29791479D03*
X96117077Y-28392733D03*
D14*
X77737809Y-68998093D03*
X87743455Y-70762359D03*
D13*
X82740632Y-69880226D03*
D15*
X79429581Y-66717215D03*
X86124176Y-65318469D03*
D14*
X70915089Y-48451187D03*
X80920735Y-50215453D03*
D13*
X75917912Y-49333320D03*
D15*
X72606861Y-46170309D03*
X79301456Y-44771563D03*
D14*
X68970123Y-28764359D03*
X78975769Y-30528625D03*
D13*
X73972946Y-29646492D03*
D15*
X70661895Y-26483481D03*
X77356490Y-25084735D03*
D14*
X42545000Y-87121817D03*
X52705000Y-87121817D03*
D13*
X47625000Y-87121817D03*
D15*
X43815000Y-84581817D03*
X50165000Y-82041817D03*
D14*
X56832500Y-68071817D03*
X66992500Y-68071817D03*
D13*
X61912500Y-68071817D03*
D15*
X58102500Y-65531817D03*
X64452500Y-62991817D03*
D14*
X50165000Y-49021817D03*
X60325000Y-49021817D03*
D13*
X55245000Y-49021817D03*
D15*
X51435000Y-46481817D03*
X57785000Y-43941817D03*
D14*
X48260000Y-29971817D03*
X58420000Y-29971817D03*
D13*
X53340000Y-29971817D03*
D15*
X49530000Y-27431817D03*
X55880000Y-24891817D03*
D14*
X23495000Y-87121817D03*
X33655000Y-87121817D03*
D13*
X28575000Y-87121817D03*
D15*
X24765000Y-84581817D03*
X31115000Y-82041817D03*
D14*
X29210000Y-29971817D03*
X39370000Y-29971817D03*
D13*
X34290000Y-29971817D03*
D15*
X30480000Y-27431817D03*
X36830000Y-24891817D03*
D14*
X173856000Y-31599500D03*
X173856000Y-34099500D03*
X173856000Y-36599500D03*
D16*
X181356000Y-28499500D03*
X181356000Y-39699500D03*
D14*
X188356000Y-31599500D03*
X188356000Y-36599500D03*
D17*
X167854000Y-22719500D03*
X165354000Y-22719500D03*
X162854000Y-22719500D03*
D14*
X309360500Y-20764500D03*
X315860500Y-20764500D03*
X166497000Y-31421000D03*
X166497000Y-37921000D03*
D18*
X275209000Y-20955000D03*
X275209000Y-36175000D03*
X277749000Y-36175000D03*
X280289000Y-36175000D03*
X282829000Y-36175000D03*
X285369000Y-36175000D03*
X287909000Y-36175000D03*
X290449000Y-36175000D03*
X292989000Y-36175000D03*
X295529000Y-36175000D03*
X298069000Y-36175000D03*
X300609000Y-36175000D03*
X303149000Y-36175000D03*
X305689000Y-36175000D03*
X305689000Y-20955000D03*
X303149000Y-20955000D03*
X300609000Y-20955000D03*
X298069000Y-20955000D03*
X295529000Y-20955000D03*
X292989000Y-20955000D03*
X290449000Y-20955000D03*
X287909000Y-20955000D03*
X285369000Y-20955000D03*
X282829000Y-20955000D03*
X280289000Y-20955000D03*
X277749000Y-20955000D03*
M02*
