G04 #@! TF.GenerationSoftware,KiCad,Pcbnew,(6.0.2-0)*
G04 #@! TF.CreationDate,2022-02-23T09:44:19+09:00*
G04 #@! TF.ProjectId,aliceball,616c6963-6562-4616-9c6c-2e6b69636164,rev?*
G04 #@! TF.SameCoordinates,Original*
G04 #@! TF.FileFunction,Copper,L2,Bot*
G04 #@! TF.FilePolarity,Positive*
%FSLAX46Y46*%
G04 Gerber Fmt 4.6, Leading zero omitted, Abs format (unit mm)*
G04 Created by KiCad (PCBNEW (6.0.2-0)) date 2022-02-23 09:44:19*
%MOMM*%
%LPD*%
G01*
G04 APERTURE LIST*
G04 Aperture macros list*
%AMRotRect*
0 Rectangle, with rotation*
0 The origin of the aperture is its center*
0 $1 length*
0 $2 width*
0 $3 Rotation angle, in degrees counterclockwise*
0 Add horizontal line*
21,1,$1,$2,0,0,$3*%
G04 Aperture macros list end*
G04 #@! TA.AperFunction,ComponentPad*
%ADD10R,1.800000X1.800000*%
G04 #@! TD*
G04 #@! TA.AperFunction,ComponentPad*
%ADD11C,1.800000*%
G04 #@! TD*
G04 #@! TA.AperFunction,SMDPad,CuDef*
%ADD12R,3.300000X3.000000*%
G04 #@! TD*
G04 #@! TA.AperFunction,SMDPad,CuDef*
%ADD13R,3.300000X2.800000*%
G04 #@! TD*
G04 #@! TA.AperFunction,SMDPad,CuDef*
%ADD14RotRect,3.300000X3.000000X190.000000*%
G04 #@! TD*
G04 #@! TA.AperFunction,SMDPad,CuDef*
%ADD15RotRect,3.300000X3.000000X170.000000*%
G04 #@! TD*
G04 #@! TA.AperFunction,SMDPad,CuDef*
%ADD16R,2.200000X0.820000*%
G04 #@! TD*
G04 #@! TA.AperFunction,SMDPad,CuDef*
%ADD17RotRect,2.200000X0.820000X170.000000*%
G04 #@! TD*
G04 #@! TA.AperFunction,SMDPad,CuDef*
%ADD18RotRect,2.200000X0.820000X190.000000*%
G04 #@! TD*
G04 #@! TA.AperFunction,ComponentPad*
%ADD19C,2.000000*%
G04 #@! TD*
G04 #@! TA.AperFunction,ComponentPad*
%ADD20R,3.200000X2.500000*%
G04 #@! TD*
G04 #@! TA.AperFunction,ComponentPad*
%ADD21O,1.500000X1.500000*%
G04 #@! TD*
G04 #@! TA.AperFunction,SMDPad,CuDef*
%ADD22R,0.950000X1.300000*%
G04 #@! TD*
G04 #@! TA.AperFunction,SMDPad,CuDef*
%ADD23RotRect,1.300000X0.950000X280.000000*%
G04 #@! TD*
G04 #@! TA.AperFunction,SMDPad,CuDef*
%ADD24RotRect,1.300000X0.950000X80.000000*%
G04 #@! TD*
G04 #@! TA.AperFunction,ComponentPad*
%ADD25C,1.524000*%
G04 #@! TD*
G04 #@! TA.AperFunction,ViaPad*
%ADD26C,0.800000*%
G04 #@! TD*
G04 #@! TA.AperFunction,Conductor*
%ADD27C,0.250000*%
G04 #@! TD*
G04 #@! TA.AperFunction,Conductor*
%ADD28C,0.500000*%
G04 #@! TD*
G04 APERTURE END LIST*
D10*
X184912000Y-74998000D03*
D11*
X184912000Y-77538000D03*
X184912000Y-80078000D03*
X184912000Y-82618000D03*
X184912000Y-85158000D03*
X184912000Y-87698000D03*
X184912000Y-90238000D03*
X184912000Y-92778000D03*
D12*
X301922000Y-27391817D03*
X315522000Y-24851817D03*
X278109500Y-26439317D03*
D13*
X291709500Y-23999317D03*
D14*
X259521173Y-88319012D03*
X272473492Y-83455985D03*
X231346590Y-93268427D03*
X244298909Y-88405400D03*
D15*
X104163408Y-90404730D03*
X117997859Y-90264934D03*
X76040251Y-85431363D03*
X89874702Y-85291567D03*
D12*
X28251196Y-65493560D03*
X41851196Y-62953560D03*
X26361560Y-46428483D03*
X39961560Y-43888483D03*
D16*
X39520000Y-110480000D03*
X45420000Y-110480000D03*
X45420000Y-108980000D03*
X39520000Y-108980000D03*
X77060000Y-110478000D03*
X82960000Y-110478000D03*
X82960000Y-108978000D03*
X77060000Y-108978000D03*
X112683500Y-113335500D03*
X118583500Y-113335500D03*
X118583500Y-111835500D03*
X112683500Y-111835500D03*
X305584000Y-110478000D03*
X311484000Y-110478000D03*
X311484000Y-108978000D03*
X305584000Y-108978000D03*
X269660000Y-110470000D03*
X275560000Y-110470000D03*
X275560000Y-108970000D03*
X269660000Y-108970000D03*
X234032000Y-113335500D03*
X239932000Y-113335500D03*
X239932000Y-111835500D03*
X234032000Y-111835500D03*
X195360500Y-113335500D03*
X201260500Y-113335500D03*
X201260500Y-111835500D03*
X195360500Y-111835500D03*
X151340000Y-113350000D03*
X157240000Y-113350000D03*
X157240000Y-111850000D03*
X151340000Y-111850000D03*
X158594000Y-55042500D03*
X164494000Y-55042500D03*
X164494000Y-53542500D03*
X158594000Y-53542500D03*
X188121500Y-55042500D03*
X194021500Y-55042500D03*
X194021500Y-53542500D03*
X188121500Y-53542500D03*
X201266000Y-27610500D03*
X207166000Y-27610500D03*
X207166000Y-26110500D03*
X201266000Y-26110500D03*
X134324500Y-27610500D03*
X140224500Y-27610500D03*
X140224500Y-26110500D03*
X134324500Y-26110500D03*
X152307500Y-39421500D03*
X158207500Y-39421500D03*
X158207500Y-37921500D03*
X152307500Y-37921500D03*
X31149500Y-35611500D03*
X37049500Y-35611500D03*
X37049500Y-34111500D03*
X31149500Y-34111500D03*
X30768500Y-54661500D03*
X36668500Y-54661500D03*
X36668500Y-53161500D03*
X30768500Y-53161500D03*
X32673500Y-73711500D03*
X38573500Y-73711500D03*
X38573500Y-72211500D03*
X32673500Y-72211500D03*
X25434500Y-92761500D03*
X31334500Y-92761500D03*
X31334500Y-91261500D03*
X25434500Y-91261500D03*
X44675000Y-92761500D03*
X50575000Y-92761500D03*
X50575000Y-91261500D03*
X44675000Y-91261500D03*
X58772000Y-73711500D03*
X64672000Y-73711500D03*
X64672000Y-72211500D03*
X58772000Y-72211500D03*
X52104500Y-54661500D03*
X58004500Y-54661500D03*
X58004500Y-53161500D03*
X52104500Y-53161500D03*
X50199500Y-35611500D03*
X56099500Y-35611500D03*
X56099500Y-34111500D03*
X50199500Y-34111500D03*
D17*
X69926081Y-34706844D03*
X75736447Y-35731368D03*
X75996919Y-34254156D03*
X70186553Y-33229632D03*
X72021581Y-54328344D03*
X77831947Y-55352868D03*
X78092419Y-53875656D03*
X72282053Y-52851132D03*
X78879581Y-74902344D03*
X84689947Y-75926868D03*
X84950419Y-74449656D03*
X79140053Y-73425132D03*
X78879581Y-94333344D03*
X84689947Y-95357868D03*
X84950419Y-93880656D03*
X79140053Y-92856132D03*
X107073581Y-99286344D03*
X112883947Y-100310868D03*
X113144419Y-98833656D03*
X107334053Y-97809132D03*
X97548581Y-78331344D03*
X103358947Y-79355868D03*
X103619419Y-77878656D03*
X97809053Y-76854132D03*
X90690581Y-57757344D03*
X96500947Y-58781868D03*
X96761419Y-57304656D03*
X90951053Y-56280132D03*
X88746000Y-37905594D03*
X94556366Y-38930118D03*
X94816838Y-37452906D03*
X89006472Y-36428382D03*
X107454581Y-41374344D03*
X113264947Y-42398868D03*
X113525419Y-40921656D03*
X107715053Y-39897132D03*
X109359581Y-60995844D03*
X115169947Y-62020368D03*
X115430419Y-60543156D03*
X109620053Y-59518632D03*
X116217581Y-81569844D03*
X122027947Y-82594368D03*
X122288419Y-81117156D03*
X116478053Y-80092632D03*
X132791081Y-103858344D03*
X138601447Y-104882868D03*
X138861919Y-103405656D03*
X133051553Y-102381132D03*
X135037500Y-84998844D03*
X140847866Y-86023368D03*
X141108338Y-84546156D03*
X135297972Y-83521632D03*
X128219081Y-64234344D03*
X134029447Y-65258868D03*
X134289919Y-63781656D03*
X128479553Y-62757132D03*
X126274500Y-44612844D03*
X132084866Y-45637368D03*
X132345338Y-44160156D03*
X126534972Y-43135632D03*
D18*
X206013053Y-48113868D03*
X211823419Y-47089344D03*
X211562947Y-45612132D03*
X205752581Y-46636656D03*
X216300053Y-65449368D03*
X222110419Y-64424844D03*
X221849947Y-62947632D03*
X216039581Y-63972156D03*
X210966053Y-85832868D03*
X216776419Y-84808344D03*
X216515947Y-83331132D03*
X210705581Y-84355656D03*
X213442553Y-104692368D03*
X219252919Y-103667844D03*
X218992447Y-102190632D03*
X213182081Y-103215156D03*
X237064553Y-100501368D03*
X242874919Y-99476844D03*
X242614447Y-97999632D03*
X236804081Y-99024156D03*
X229635053Y-82403868D03*
X235445419Y-81379344D03*
X235184947Y-79902132D03*
X229374581Y-80926656D03*
X234969053Y-62210868D03*
X240779419Y-61186344D03*
X240518947Y-59709132D03*
X234708581Y-60733656D03*
X224682053Y-44875368D03*
X230492419Y-43850844D03*
X230231947Y-42373632D03*
X224421581Y-43398156D03*
X243351053Y-41446368D03*
X249161419Y-40421844D03*
X248900947Y-38944632D03*
X243090581Y-39969156D03*
X253638053Y-58972368D03*
X259448419Y-57947844D03*
X259187947Y-56470632D03*
X253377581Y-57495156D03*
X248494553Y-79165368D03*
X254304919Y-78140844D03*
X254044447Y-76663632D03*
X248234081Y-77688156D03*
X265258553Y-95738868D03*
X271068919Y-94714344D03*
X270808447Y-93237132D03*
X264998081Y-94261656D03*
X267245525Y-75926868D03*
X273055891Y-74902344D03*
X272795419Y-73425132D03*
X266985053Y-74449656D03*
X272307053Y-55733868D03*
X278117419Y-54709344D03*
X277856947Y-53232132D03*
X272046581Y-54256656D03*
X262020053Y-38017368D03*
X267830419Y-36992844D03*
X267569947Y-35515632D03*
X261759581Y-36540156D03*
D16*
X281657000Y-33897000D03*
X287557000Y-33897000D03*
X287557000Y-32397000D03*
X281657000Y-32397000D03*
X291944000Y-54661500D03*
X297844000Y-54661500D03*
X297844000Y-53161500D03*
X291944000Y-53161500D03*
X287181500Y-73711500D03*
X293081500Y-73711500D03*
X293081500Y-72211500D03*
X287181500Y-72211500D03*
X291944000Y-92761500D03*
X297844000Y-92761500D03*
X297844000Y-91261500D03*
X291944000Y-91261500D03*
X310994000Y-92761500D03*
X316894000Y-92761500D03*
X316894000Y-91261500D03*
X310994000Y-91261500D03*
X306231500Y-73711500D03*
X312131500Y-73711500D03*
X312131500Y-72211500D03*
X306231500Y-72211500D03*
X310994000Y-54661500D03*
X316894000Y-54661500D03*
X316894000Y-53161500D03*
X310994000Y-53161500D03*
X306612500Y-34659000D03*
X312512500Y-34659000D03*
X312512500Y-33159000D03*
X306612500Y-33159000D03*
D12*
X306684500Y-84541817D03*
X320284500Y-82001817D03*
X301922000Y-65491817D03*
X315522000Y-62951817D03*
X306684500Y-46441817D03*
X320284500Y-43901817D03*
X287634500Y-84541817D03*
X301234500Y-82001817D03*
X282872000Y-65491817D03*
X296472000Y-62951817D03*
X287634500Y-46441817D03*
X301234500Y-43901817D03*
D14*
X261591403Y-68595379D03*
X274543722Y-63732352D03*
X266725670Y-48346192D03*
X279677989Y-43483165D03*
X256476254Y-30809564D03*
X269428573Y-25946537D03*
X242830815Y-71903377D03*
X255783134Y-67040350D03*
X247965082Y-51654190D03*
X260917401Y-46791163D03*
X237715667Y-34117562D03*
X250667986Y-29254535D03*
X224070228Y-75211375D03*
X237022547Y-70348348D03*
X229204494Y-54962188D03*
X242156813Y-50099161D03*
X218955079Y-37425559D03*
X231907398Y-32562532D03*
X207867214Y-97412280D03*
X220819533Y-92549253D03*
X205309640Y-78519372D03*
X218261959Y-73656345D03*
X210443907Y-58270186D03*
X223396226Y-53407159D03*
X200194491Y-40733557D03*
X213146810Y-35870530D03*
D12*
X147617000Y-31519500D03*
X161217000Y-28979500D03*
D15*
X129951227Y-94928804D03*
X143785678Y-94789008D03*
X132133590Y-75969736D03*
X145968041Y-75829940D03*
X125310870Y-55422830D03*
X139145321Y-55283034D03*
X123365904Y-35736004D03*
X137200355Y-35596208D03*
X113373002Y-72661740D03*
X127207453Y-72521944D03*
X106550282Y-52114832D03*
X120384733Y-51975036D03*
X104605316Y-32428005D03*
X118439767Y-32288209D03*
X94612414Y-69353742D03*
X108446865Y-69213946D03*
X87789695Y-48806834D03*
X101624146Y-48667038D03*
X85844728Y-29120007D03*
X99679179Y-28980211D03*
X75851827Y-66045743D03*
X89686278Y-65905947D03*
X69029107Y-45498837D03*
X82863558Y-45359041D03*
X67084141Y-25812009D03*
X80918592Y-25672213D03*
D12*
X40175000Y-84541817D03*
X53775000Y-82001817D03*
X54462500Y-65491817D03*
X68062500Y-62951817D03*
X47795000Y-46441817D03*
X61395000Y-43901817D03*
X45890000Y-27391817D03*
X59490000Y-24851817D03*
X21125000Y-84541817D03*
X34725000Y-82001817D03*
X26840000Y-27391817D03*
X40440000Y-24851817D03*
D19*
X173856000Y-31599500D03*
X173856000Y-34099500D03*
X173856000Y-36599500D03*
D20*
X181356000Y-28499500D03*
X181356000Y-39699500D03*
D19*
X188356000Y-31599500D03*
X188356000Y-36599500D03*
D21*
X167854000Y-22719500D03*
X165354000Y-22719500D03*
X162854000Y-22719500D03*
D22*
X44005500Y-70736000D03*
X44005500Y-67186000D03*
X318325500Y-67186000D03*
X318325500Y-70736000D03*
D23*
X258390774Y-70832466D03*
X259007226Y-74328534D03*
D22*
X303085500Y-86236000D03*
X303085500Y-89786000D03*
D24*
X101990274Y-56612034D03*
X102606726Y-53115966D03*
D22*
X163449000Y-36255500D03*
X163449000Y-32705500D03*
X192024000Y-32134000D03*
X192024000Y-35684000D03*
D23*
X244865274Y-53877966D03*
X245481726Y-57374034D03*
X277440774Y-67593966D03*
X278057226Y-71090034D03*
D24*
X83130774Y-53183034D03*
X83747226Y-49686966D03*
D23*
X281631774Y-47400966D03*
X282248226Y-50897034D03*
D24*
X81606774Y-33561534D03*
X82223226Y-30065466D03*
X137804274Y-43277034D03*
X138420726Y-39780966D03*
D22*
X69913500Y-70736000D03*
X69913500Y-67186000D03*
X61341000Y-32255000D03*
X61341000Y-28705000D03*
D24*
X146567274Y-83853534D03*
X147183726Y-80357466D03*
D22*
X42100500Y-51686000D03*
X42100500Y-48136000D03*
D19*
X309360500Y-20764500D03*
X315860500Y-20764500D03*
D24*
X91893774Y-93378534D03*
X92510226Y-89882466D03*
D23*
X223338774Y-95978466D03*
X223955226Y-99474534D03*
D22*
X298323000Y-67186000D03*
X298323000Y-70736000D03*
D24*
X139709274Y-63089034D03*
X140325726Y-59592966D03*
D22*
X42481500Y-32255000D03*
X42481500Y-28705000D03*
D23*
X271725774Y-29493966D03*
X272342226Y-32990034D03*
X247532274Y-92168466D03*
X248148726Y-95664534D03*
X253628274Y-33113466D03*
X254244726Y-36609534D03*
D22*
X302895000Y-48136000D03*
X302895000Y-51686000D03*
D24*
X144471774Y-102713034D03*
X145088226Y-99216966D03*
D22*
X37147500Y-89976500D03*
X37147500Y-86426500D03*
X63627000Y-51686000D03*
X63627000Y-48136000D03*
X318516000Y-28895500D03*
X318516000Y-32445500D03*
D23*
X215528274Y-39780966D03*
X216144726Y-43277034D03*
D22*
X55816500Y-89976500D03*
X55816500Y-86426500D03*
D24*
X120659274Y-59850534D03*
X121275726Y-56354466D03*
D22*
X321754500Y-48136000D03*
X321754500Y-51686000D03*
D24*
X90369774Y-73757034D03*
X90986226Y-70260966D03*
D19*
X166497000Y-31421000D03*
X166497000Y-37921000D03*
D24*
X108848274Y-76995534D03*
X109464726Y-73499466D03*
D22*
X321564000Y-86236000D03*
X321564000Y-89786000D03*
D24*
X100275774Y-36800034D03*
X100892226Y-33303966D03*
D25*
X275209000Y-20955000D03*
X275209000Y-36175000D03*
X277749000Y-36175000D03*
X280289000Y-36175000D03*
X282829000Y-36175000D03*
X285369000Y-36175000D03*
X287909000Y-36175000D03*
X290449000Y-36175000D03*
X292989000Y-36175000D03*
X295529000Y-36175000D03*
X298069000Y-36175000D03*
X300609000Y-36175000D03*
X303149000Y-36175000D03*
X305689000Y-36175000D03*
X305689000Y-20955000D03*
X303149000Y-20955000D03*
X300609000Y-20955000D03*
X298069000Y-20955000D03*
X295529000Y-20955000D03*
X292989000Y-20955000D03*
X290449000Y-20955000D03*
X287909000Y-20955000D03*
X285369000Y-20955000D03*
X282829000Y-20955000D03*
X280289000Y-20955000D03*
X277749000Y-20955000D03*
D24*
X118754274Y-98141034D03*
X119370726Y-94644966D03*
D23*
X239531274Y-74070966D03*
X240147726Y-77567034D03*
X263534274Y-50639466D03*
X264150726Y-54135534D03*
X276297774Y-87215466D03*
X276914226Y-90711534D03*
X226005774Y-56925966D03*
X226622226Y-60422034D03*
D24*
X127707774Y-80424534D03*
X128324226Y-76928466D03*
D22*
X293751000Y-27562000D03*
X293751000Y-31112000D03*
D24*
X118754274Y-40038534D03*
X119370726Y-36542466D03*
D23*
X234578274Y-36161466D03*
X235194726Y-39657534D03*
X220862274Y-77309466D03*
X221478726Y-80805534D03*
D26*
X145161000Y-43243500D03*
X270248151Y-33408849D03*
X192214500Y-47053500D03*
X148399500Y-43243500D03*
X274598000Y-37719000D03*
X195643500Y-46101000D03*
X171069000Y-63817500D03*
X283845000Y-50863500D03*
X174307500Y-45720000D03*
X207835500Y-63436500D03*
X286321500Y-50863500D03*
X210502500Y-63436500D03*
X299977000Y-70736000D03*
X295084500Y-39433500D03*
X298132500Y-39814500D03*
X299466000Y-38862000D03*
X304739500Y-89786000D03*
X68961000Y-89916000D03*
X72390000Y-90106500D03*
X280225500Y-90106500D03*
X296037000Y-38671500D03*
X283647199Y-89810637D03*
X79438500Y-36385500D03*
X253365000Y-39814500D03*
X321373500Y-92773500D03*
X315277500Y-110490000D03*
X277749000Y-74104500D03*
X241173000Y-80200500D03*
X244792500Y-60388500D03*
X247269000Y-98679000D03*
X52768500Y-110490000D03*
X98298000Y-39624000D03*
X35433000Y-92773500D03*
X119443500Y-62674500D03*
X235648500Y-42862500D03*
X321183000Y-54673500D03*
X220599000Y-84010500D03*
X255841500Y-80391000D03*
X126301500Y-83248500D03*
X223647000Y-102870000D03*
X116967000Y-43053000D03*
X168402000Y-54864000D03*
X297370500Y-73723500D03*
X136017000Y-46291500D03*
X301942500Y-54673500D03*
X207835500Y-88963500D03*
X87630000Y-110299500D03*
X100393500Y-59436000D03*
X122301000Y-113157000D03*
X208026000Y-55435500D03*
X143827500Y-27622500D03*
X258889500Y-77343000D03*
X81534000Y-56007000D03*
X162496500Y-39433500D03*
X107061000Y-80010000D03*
X223266000Y-111823500D03*
X211074000Y-28384500D03*
X144780000Y-86868000D03*
X282130500Y-109728000D03*
X88582500Y-96012000D03*
X263461500Y-57150000D03*
X59817000Y-35814000D03*
X316611000Y-34671000D03*
X271843500Y-36385500D03*
X98298000Y-88963500D03*
X54102000Y-92773500D03*
X282702000Y-53911500D03*
X40767000Y-54673500D03*
X204787500Y-56959500D03*
X68389500Y-73723500D03*
X101155500Y-85915500D03*
X142875000Y-105537000D03*
X138303000Y-65913000D03*
X246126000Y-113157000D03*
X40386000Y-35623500D03*
X61824521Y-54761479D03*
X204025500Y-90297000D03*
X159829500Y-113347500D03*
X276415500Y-93726000D03*
X42481500Y-73723500D03*
X211645500Y-49530000D03*
X88582500Y-76581000D03*
X216598500Y-46291500D03*
X122682000Y-102108000D03*
X302323500Y-92773500D03*
X317182500Y-73723500D03*
X201739500Y-57721500D03*
X226123500Y-63817500D03*
X211836000Y-25908000D03*
X315468000Y-33147000D03*
X308229000Y-36957000D03*
X319849500Y-52959000D03*
X315087000Y-72009000D03*
X308419500Y-54673500D03*
X303657000Y-73723500D03*
X319849500Y-91059000D03*
X308038500Y-92773500D03*
X304419000Y-92773500D03*
X289179000Y-92773500D03*
X295846500Y-72199500D03*
X300990000Y-53149500D03*
X284226000Y-73723500D03*
X289179000Y-54673500D03*
X291465000Y-32575500D03*
X275463000Y-33909000D03*
X271653000Y-34861500D03*
X281178000Y-52578000D03*
X259080000Y-38481000D03*
X268605000Y-62952500D03*
X269580858Y-61093141D03*
X269557500Y-56197500D03*
X276606000Y-72771000D03*
X274891500Y-92583000D03*
X264604500Y-76390500D03*
X257175000Y-76200000D03*
X262128000Y-96393000D03*
X245554500Y-79629000D03*
X262128000Y-56007000D03*
X252031500Y-38481000D03*
X250698000Y-59436000D03*
X236791500Y-41338500D03*
X239839500Y-42100500D03*
X243268500Y-59055000D03*
X221932500Y-45339000D03*
X232219500Y-62865000D03*
X239268000Y-79248000D03*
X226695000Y-83058000D03*
X245173500Y-97536000D03*
X234124500Y-100965000D03*
X230695500Y-100393500D03*
X210883500Y-105156000D03*
X219265500Y-82867500D03*
X224599500Y-62674500D03*
X208216500Y-86487000D03*
X213550500Y-65913000D03*
X214693500Y-45148500D03*
X203454000Y-48577500D03*
X196024500Y-47434500D03*
X192214500Y-48577500D03*
X144589500Y-48577500D03*
X200977500Y-47244000D03*
X148399500Y-48577500D03*
X137160000Y-64008000D03*
X123444000Y-44196000D03*
X125730000Y-63817500D03*
X144018000Y-85153500D03*
X132588000Y-84582000D03*
X141732000Y-104013000D03*
X130111500Y-103251000D03*
X128206500Y-82296000D03*
X118110000Y-61150500D03*
X113157000Y-80962500D03*
X116014500Y-41338500D03*
X106299000Y-60579000D03*
X102298500Y-39052500D03*
X104584500Y-40957500D03*
X85915500Y-37338000D03*
X99060000Y-57721500D03*
X106299000Y-78295500D03*
X87630000Y-57340500D03*
X116014500Y-99441000D03*
X94869000Y-77914500D03*
X104203500Y-98869500D03*
X101536500Y-97155000D03*
X75819000Y-93916500D03*
X87630000Y-75057000D03*
X80581500Y-54483000D03*
X76200000Y-74485500D03*
X69151500Y-53911500D03*
X78295500Y-34861500D03*
X63246000Y-34290000D03*
X66865500Y-34290000D03*
X60579000Y-53149500D03*
X47053500Y-35623500D03*
X48768000Y-54673500D03*
X67246500Y-72199500D03*
X56007000Y-73723500D03*
X57531000Y-91249500D03*
X38671500Y-92773500D03*
X41719500Y-92773500D03*
X41338500Y-72199500D03*
X22860000Y-92773500D03*
X39433500Y-53149500D03*
X29718000Y-73723500D03*
X39433500Y-34099500D03*
X27622500Y-54673500D03*
X160782000Y-37909500D03*
X28575000Y-35623500D03*
X149542500Y-39433500D03*
X146113500Y-26098500D03*
X197739000Y-27622500D03*
X196405500Y-53530500D03*
X158686500Y-57340500D03*
X163830000Y-113347500D03*
X204406500Y-111823500D03*
X187642500Y-114490500D03*
X232219500Y-110299500D03*
X229552500Y-112204500D03*
X265938000Y-106489500D03*
X263842500Y-108585000D03*
X300037500Y-108966000D03*
X301752000Y-107251500D03*
X206311500Y-94107000D03*
X207073500Y-57150000D03*
X23812500Y-46482000D03*
X200596500Y-48768000D03*
X204787500Y-74676000D03*
X21145500Y-80772000D03*
X23812500Y-65532000D03*
X23812500Y-27432000D03*
X208216500Y-112395000D03*
X40957500Y-88582500D03*
X45720000Y-43053000D03*
X224790000Y-110490000D03*
X189166500Y-114300000D03*
X219456000Y-40386000D03*
X228028500Y-93535500D03*
X49911000Y-65532000D03*
X211645500Y-20574000D03*
X222885000Y-78676500D03*
X214884000Y-20574000D03*
X45720000Y-30289500D03*
X47434500Y-78676500D03*
X226306062Y-54490938D03*
X184975500Y-113728500D03*
X72961500Y-84963000D03*
X221551500Y-21526500D03*
X65722500Y-45529500D03*
X210693000Y-21526500D03*
X238125000Y-37719000D03*
X66294000Y-28575000D03*
X242697000Y-68580000D03*
X71818500Y-66103500D03*
X245554500Y-48958500D03*
X219646500Y-28003500D03*
X149352000Y-110680500D03*
X109537500Y-109918500D03*
X85725000Y-44005500D03*
X253174500Y-108775500D03*
X235648500Y-20764500D03*
X84582000Y-32766000D03*
X239268000Y-20764500D03*
X100965000Y-89916000D03*
X192405000Y-109347000D03*
X259651500Y-84963000D03*
X227457000Y-109347000D03*
X256984500Y-33718500D03*
X260223000Y-72009000D03*
X266128500Y-51625500D03*
X231076500Y-109347000D03*
X92964000Y-65532000D03*
X146685000Y-112395000D03*
X206692500Y-111442500D03*
X211836000Y-23812500D03*
X254317500Y-93154500D03*
X264795000Y-105727500D03*
X231076500Y-107823000D03*
X121539000Y-99822000D03*
X261747000Y-105727500D03*
X284416500Y-41529000D03*
X124968000Y-109156500D03*
X287464500Y-49149000D03*
X211645500Y-110109000D03*
X145161000Y-111252000D03*
X206216250Y-109061250D03*
X111061500Y-72771000D03*
X283845000Y-84391500D03*
X104775000Y-48958500D03*
X148780500Y-109537500D03*
X227457000Y-107823000D03*
X103441500Y-35052000D03*
X290512500Y-43434000D03*
X278511000Y-28765500D03*
X281559000Y-38671500D03*
X280035000Y-65722500D03*
X124206000Y-100965000D03*
X284035500Y-105346500D03*
X297751500Y-100774500D03*
X261366000Y-104203500D03*
X130302000Y-92011500D03*
X122301000Y-38290500D03*
X232029000Y-106680000D03*
X302323500Y-100774500D03*
X301561500Y-30099000D03*
X264795000Y-104203500D03*
X123444000Y-51435000D03*
X207645000Y-107632500D03*
X130302000Y-72199500D03*
X229362000Y-104775000D03*
X306133500Y-43624500D03*
X307848000Y-100774500D03*
X301752000Y-68580000D03*
X306324000Y-81724500D03*
X211455000Y-107632500D03*
X132016500Y-106108500D03*
X297370500Y-32575500D03*
X203835000Y-22479000D03*
X191262000Y-22479000D03*
X288988500Y-26860500D03*
X278511000Y-24003000D03*
X186309000Y-52006500D03*
X278892000Y-39624000D03*
X203746872Y-54775872D03*
X200787000Y-54483000D03*
X204693854Y-53433646D03*
X277749000Y-38671500D03*
X183832500Y-51054000D03*
X200787000Y-52387500D03*
X294894000Y-23050500D03*
X190500000Y-76390500D03*
D27*
X294894000Y-23050500D02*
X308229000Y-23050500D01*
X308229000Y-23050500D02*
X309360500Y-21919000D01*
X309360500Y-21919000D02*
X309360500Y-20764500D01*
X225026736Y-44814591D02*
X221932500Y-45339000D01*
X206357736Y-48053091D02*
X203454000Y-48577500D01*
X199453500Y-51054000D02*
X183832500Y-51054000D01*
X200787000Y-52387500D02*
X199453500Y-51054000D01*
X277749000Y-38671500D02*
X276225000Y-40195500D01*
X276225000Y-40195500D02*
X204693854Y-53433646D01*
D28*
X302323500Y-92773500D02*
X297406000Y-92773500D01*
D27*
X69913500Y-70736000D02*
X90369774Y-73757034D01*
X90369774Y-73757034D02*
X108848274Y-76995534D01*
X101990274Y-56612034D02*
X120659274Y-59850534D01*
X120659274Y-59850534D02*
X139709274Y-63089034D01*
D28*
X52768500Y-110490000D02*
X44980000Y-110490000D01*
X35433000Y-92773500D02*
X35421000Y-92761500D01*
X35421000Y-92761500D02*
X30884500Y-92761500D01*
D27*
X33123500Y-73711500D02*
X29730000Y-73711500D01*
X29730000Y-73711500D02*
X29718000Y-73723500D01*
X41338500Y-72199500D02*
X41326500Y-72211500D01*
X41326500Y-72211500D02*
X38123500Y-72211500D01*
D28*
X72725217Y-52929274D02*
X68770500Y-52197000D01*
X68770500Y-52197000D02*
X67056000Y-53911500D01*
X67056000Y-57150000D02*
X65532000Y-58674000D01*
X67056000Y-53911500D02*
X67056000Y-57150000D01*
D27*
X60579000Y-53149500D02*
X60567000Y-53161500D01*
X60567000Y-53161500D02*
X57554500Y-53161500D01*
X39433500Y-53149500D02*
X39421500Y-53161500D01*
X39421500Y-53161500D02*
X36218500Y-53161500D01*
X50649500Y-35611500D02*
X47065500Y-35611500D01*
X47065500Y-35611500D02*
X47053500Y-35623500D01*
X39433500Y-34099500D02*
X39421500Y-34111500D01*
X39421500Y-34111500D02*
X36599500Y-34111500D01*
X31499500Y-35611500D02*
X28587000Y-35611500D01*
X28587000Y-35611500D02*
X28575000Y-35623500D01*
D28*
X39970000Y-108980000D02*
X35828000Y-108980000D01*
X34480500Y-98107500D02*
X33337500Y-96964500D01*
X35828000Y-108980000D02*
X34480500Y-107632500D01*
X34480500Y-107632500D02*
X34480500Y-98107500D01*
D27*
X77510000Y-110478000D02*
X57138000Y-110478000D01*
X57138000Y-110478000D02*
X55640000Y-108980000D01*
X55640000Y-108980000D02*
X45070000Y-108980000D01*
X39990000Y-24851817D02*
X39990000Y-27226500D01*
X41468500Y-28705000D02*
X42481500Y-28705000D01*
X39990000Y-27226500D02*
X41468500Y-28705000D01*
X316420500Y-31813500D02*
X317052500Y-32445500D01*
X81606774Y-33561534D02*
X100275774Y-36800034D01*
X118754274Y-40038534D02*
X137804274Y-43277034D01*
X312610500Y-29146500D02*
X312610500Y-30670500D01*
X302808838Y-31346338D02*
X303276000Y-31813500D01*
X310896000Y-27432000D02*
X312610500Y-29146500D01*
X42481500Y-32255000D02*
X42572838Y-32346338D01*
X304800000Y-31813500D02*
X306324000Y-30289500D01*
X169354500Y-47053500D02*
X163449000Y-41148000D01*
X293751000Y-31112000D02*
X293985338Y-31346338D01*
X293751000Y-31112000D02*
X293751000Y-32004000D01*
X42572838Y-32346338D02*
X61249662Y-32346338D01*
X61341000Y-32255000D02*
X64454000Y-32255000D01*
X293985338Y-31346338D02*
X302808838Y-31346338D01*
X235194726Y-39657534D02*
X216144726Y-43277034D01*
X308553736Y-27432000D02*
X310896000Y-27432000D01*
X161353500Y-43243500D02*
X163449000Y-41148000D01*
X192214500Y-47053500D02*
X169354500Y-47053500D01*
X145127466Y-43277034D02*
X145161000Y-43243500D01*
X61249662Y-32346338D02*
X61341000Y-32255000D01*
X200025000Y-46101000D02*
X216144726Y-43277034D01*
X289603500Y-34480500D02*
X287909000Y-36175000D01*
X64454000Y-32255000D02*
X67627500Y-31051500D01*
X287909000Y-37274500D02*
X287909000Y-36175000D01*
X274598000Y-37719000D02*
X287464500Y-37719000D01*
X317052500Y-32445500D02*
X318516000Y-32445500D01*
X312610500Y-30670500D02*
X313753500Y-31813500D01*
X313753500Y-31813500D02*
X316420500Y-31813500D01*
X306324000Y-30289500D02*
X306324000Y-29661736D01*
X293751000Y-32004000D02*
X291274500Y-34480500D01*
X137804274Y-43277034D02*
X145127466Y-43277034D01*
X100275774Y-36800034D02*
X118754274Y-40038534D01*
X254244726Y-36609534D02*
X235194726Y-39657534D01*
X291274500Y-34480500D02*
X289603500Y-34480500D01*
X270248151Y-33408849D02*
X254244726Y-36609534D01*
X163449000Y-41148000D02*
X163449000Y-36255500D01*
X306324000Y-29661736D02*
X308553736Y-27432000D01*
X287464500Y-37719000D02*
X287909000Y-37274500D01*
X272342226Y-32990034D02*
X270248151Y-33408849D01*
X67627500Y-31051500D02*
X81606774Y-33561534D01*
X148399500Y-43243500D02*
X161353500Y-43243500D01*
X195643500Y-46101000D02*
X200025000Y-46101000D01*
X303276000Y-31813500D02*
X304800000Y-31813500D01*
X40897000Y-48136000D02*
X39511560Y-46750560D01*
X39511560Y-46750560D02*
X39511560Y-43888483D01*
X42100500Y-48136000D02*
X40897000Y-48136000D01*
X178689000Y-63436500D02*
X178117500Y-64008000D01*
X302895000Y-51686000D02*
X287144000Y-51686000D01*
X245481726Y-57374034D02*
X226622226Y-60422034D01*
X157543500Y-64008000D02*
X170878500Y-64008000D01*
X287144000Y-51686000D02*
X286321500Y-50863500D01*
X207835500Y-63436500D02*
X178689000Y-63436500D01*
X282248226Y-50897034D02*
X264150726Y-54135534D01*
X63627000Y-51686000D02*
X63726034Y-51586966D01*
X264150726Y-54135534D02*
X245481726Y-57374034D01*
X193357500Y-42862500D02*
X193357500Y-32575500D01*
X178117500Y-64008000D02*
X171259500Y-64008000D01*
X83130774Y-53183034D02*
X101990274Y-56612034D01*
X42100500Y-51686000D02*
X63627000Y-51686000D01*
X139709274Y-63089034D02*
X140628240Y-64008000D01*
X171259500Y-64008000D02*
X171069000Y-63817500D01*
X63726034Y-51586966D02*
X69532500Y-50673000D01*
X192916000Y-32134000D02*
X192024000Y-32134000D01*
X170878500Y-64008000D02*
X171069000Y-63817500D01*
X321754500Y-51686000D02*
X302895000Y-51686000D01*
X282281760Y-50863500D02*
X282248226Y-50897034D01*
X174307500Y-45720000D02*
X190500000Y-45720000D01*
X69532500Y-50673000D02*
X83130774Y-53183034D01*
X190500000Y-45720000D02*
X193357500Y-42862500D01*
X226622226Y-60422034D02*
X210502500Y-63436500D01*
X193357500Y-32575500D02*
X192916000Y-32134000D01*
X140628240Y-64008000D02*
X157543500Y-64008000D01*
X283845000Y-50863500D02*
X282281760Y-50863500D01*
X42611500Y-67186000D02*
X41401196Y-65975696D01*
X44005500Y-67186000D02*
X42611500Y-67186000D01*
X41401196Y-65975696D02*
X41401196Y-62953560D01*
X127707774Y-80424534D02*
X146567274Y-83853534D01*
X295084500Y-39433500D02*
X295465500Y-39814500D01*
X205930500Y-83629500D02*
X204978000Y-84582000D01*
X221478726Y-80805534D02*
X205930500Y-83629500D01*
X204978000Y-84582000D02*
X204978000Y-94107000D01*
X44005500Y-70736000D02*
X69913500Y-70736000D01*
X151638000Y-97726500D02*
X151638000Y-87058500D01*
X187833000Y-109347000D02*
X163258500Y-109347000D01*
X240147726Y-77567034D02*
X221478726Y-80805534D01*
X278057226Y-71090034D02*
X259007226Y-74328534D01*
X299977000Y-70736000D02*
X298323000Y-70736000D01*
X108848274Y-76995534D02*
X127707774Y-80424534D01*
X190690500Y-106489500D02*
X187833000Y-109347000D01*
X151638000Y-87058500D02*
X148590000Y-84201000D01*
X318325500Y-70736000D02*
X299977000Y-70736000D01*
X279654000Y-70675500D02*
X278057226Y-71090034D01*
X259007226Y-74328534D02*
X240147726Y-77567034D01*
X163258500Y-109347000D02*
X151638000Y-97726500D01*
X295465500Y-39814500D02*
X298132500Y-39814500D01*
X148590000Y-84201000D02*
X146567274Y-83853534D01*
X192595500Y-106489500D02*
X190690500Y-106489500D01*
X298323000Y-70736000D02*
X279654000Y-70675500D01*
X204978000Y-94107000D02*
X192595500Y-106489500D01*
X35944000Y-86426500D02*
X34275000Y-84757500D01*
X37147500Y-86426500D02*
X35944000Y-86426500D01*
X34275000Y-84757500D02*
X34275000Y-82001817D01*
X55816500Y-89976500D02*
X68900500Y-89976500D01*
X192976500Y-107061000D02*
X196596000Y-103441500D01*
X276914226Y-90711534D02*
X248148726Y-95664534D01*
X188023500Y-110109000D02*
X191071500Y-107061000D01*
X196596000Y-103441500D02*
X209359500Y-103441500D01*
X210693000Y-102108000D02*
X223955226Y-99474534D01*
X118754274Y-98141034D02*
X144471774Y-102713034D01*
X209359500Y-103441500D02*
X210693000Y-102108000D01*
X321564000Y-89786000D02*
X304739500Y-89786000D01*
X155481534Y-102713034D02*
X162877500Y-110109000D01*
X248148726Y-95664534D02*
X223955226Y-99474534D01*
X191071500Y-107061000D02*
X192976500Y-107061000D01*
X304739500Y-89786000D02*
X303085500Y-89786000D01*
X303085500Y-89786000D02*
X283671836Y-89786000D01*
X68900500Y-89976500D02*
X68961000Y-89916000D01*
X162877500Y-110109000D02*
X188023500Y-110109000D01*
X299466000Y-38862000D02*
X296227500Y-38862000D01*
X144471774Y-102713034D02*
X155481534Y-102713034D01*
X72390000Y-90106500D02*
X91893774Y-93378534D01*
X91893774Y-93378534D02*
X118754274Y-98141034D01*
X283671836Y-89786000D02*
X283647199Y-89810637D01*
X37147500Y-89976500D02*
X55816500Y-89976500D01*
X296227500Y-38862000D02*
X296037000Y-38671500D01*
X280225500Y-90106500D02*
X276914226Y-90711534D01*
X59055000Y-27622500D02*
X60137500Y-28705000D01*
X60137500Y-28705000D02*
X61341000Y-28705000D01*
X59055000Y-24866817D02*
X59055000Y-27622500D01*
X59040000Y-24851817D02*
X59055000Y-24866817D01*
X63627000Y-48136000D02*
X62804500Y-48136000D01*
X60945000Y-46276500D02*
X60945000Y-43901817D01*
X62804500Y-48136000D02*
X60945000Y-46276500D01*
X67612500Y-66469500D02*
X67612500Y-62951817D01*
X68329000Y-67186000D02*
X67612500Y-66469500D01*
X69913500Y-67186000D02*
X68329000Y-67186000D01*
X53325000Y-84948000D02*
X53325000Y-82001817D01*
X55816500Y-86426500D02*
X54803500Y-86426500D01*
X54803500Y-86426500D02*
X53325000Y-84948000D01*
X80475429Y-28849929D02*
X81690966Y-30065466D01*
X80475429Y-25594071D02*
X80475429Y-28849929D01*
X81690966Y-30065466D02*
X82223226Y-30065466D01*
X83937726Y-49496466D02*
X83024466Y-49496466D01*
X82420395Y-48892395D02*
X82420395Y-45280899D01*
X83024466Y-49496466D02*
X82420395Y-48892395D01*
X89243115Y-69621615D02*
X89243115Y-65827805D01*
X89882466Y-70260966D02*
X89243115Y-69621615D01*
X90986226Y-70260966D02*
X89882466Y-70260966D01*
X92510226Y-89882466D02*
X91596966Y-89882466D01*
X91596966Y-89882466D02*
X89431539Y-87717039D01*
X89431539Y-87717039D02*
X89431539Y-85213425D01*
X99236016Y-28902069D02*
X99236016Y-31989516D01*
X99236016Y-31989516D02*
X100550466Y-33303966D01*
X100550466Y-33303966D02*
X100892226Y-33303966D01*
X102606726Y-53115966D02*
X101693466Y-53115966D01*
X101693466Y-53115966D02*
X101180983Y-52603483D01*
X101180983Y-52603483D02*
X101180983Y-48588896D01*
X109464726Y-73499466D02*
X108551466Y-73499466D01*
X108003702Y-72951702D02*
X108003702Y-69135804D01*
X108551466Y-73499466D02*
X108003702Y-72951702D01*
X119370726Y-94644966D02*
X118266966Y-94644966D01*
X117554696Y-93932696D02*
X117554696Y-90186792D01*
X118266966Y-94644966D02*
X117554696Y-93932696D01*
X118300500Y-35472240D02*
X119370726Y-36542466D01*
X117996604Y-32210067D02*
X117996604Y-35129104D01*
X118300500Y-35433000D02*
X118300500Y-35472240D01*
X117996604Y-35129104D02*
X118300500Y-35433000D01*
X120362466Y-56354466D02*
X119941570Y-55933570D01*
X121275726Y-56354466D02*
X120362466Y-56354466D01*
X119941570Y-55933570D02*
X119941570Y-51896894D01*
X127410966Y-76928466D02*
X126764290Y-76281790D01*
X126764290Y-76281790D02*
X126764290Y-72443802D01*
X128324226Y-76928466D02*
X127410966Y-76928466D01*
X137888466Y-39780966D02*
X138420726Y-39780966D01*
X136757192Y-38649692D02*
X137888466Y-39780966D01*
X136757192Y-35518066D02*
X136757192Y-38649692D01*
X140325726Y-59592966D02*
X139412466Y-59592966D01*
X138702158Y-58882658D02*
X138702158Y-55204892D01*
X139412466Y-59592966D02*
X138702158Y-58882658D01*
X146270466Y-80357466D02*
X145524878Y-79611878D01*
X145524878Y-79611878D02*
X145524878Y-75751798D01*
X147183726Y-80357466D02*
X146270466Y-80357466D01*
X145088226Y-99216966D02*
X143984466Y-99216966D01*
X143984466Y-99216966D02*
X143342515Y-98575015D01*
X143342515Y-98575015D02*
X143342515Y-94710866D01*
X160782000Y-28994500D02*
X160782000Y-31242000D01*
X160782000Y-31242000D02*
X162245500Y-32705500D01*
X166497000Y-37921000D02*
X166497000Y-34480500D01*
X166497000Y-34480500D02*
X164722000Y-32705500D01*
X160767000Y-28979500D02*
X160782000Y-28994500D01*
X164722000Y-32705500D02*
X163449000Y-32705500D01*
X162245500Y-32705500D02*
X163449000Y-32705500D01*
X190857500Y-36599500D02*
X188356000Y-36599500D01*
X191773000Y-35684000D02*
X190857500Y-36599500D01*
X192024000Y-35684000D02*
X191773000Y-35684000D01*
X212703647Y-38015147D02*
X212703647Y-35948672D01*
X215528274Y-39780966D02*
X214469466Y-39780966D01*
X214469466Y-39780966D02*
X212703647Y-38015147D01*
X226005774Y-56925966D02*
X224946966Y-56925966D01*
X222953063Y-54932063D02*
X222953063Y-53485301D01*
X224946966Y-56925966D02*
X222953063Y-54932063D01*
X217818796Y-74943796D02*
X217818796Y-73734487D01*
X220184466Y-77309466D02*
X217818796Y-74943796D01*
X220862274Y-77309466D02*
X220184466Y-77309466D01*
X222089466Y-95978466D02*
X220376370Y-94265370D01*
X220376370Y-94265370D02*
X220376370Y-92627395D01*
X223338774Y-95978466D02*
X222089466Y-95978466D01*
X234578274Y-36161466D02*
X233138466Y-36161466D01*
X231464235Y-34487235D02*
X231464235Y-32640674D01*
X233138466Y-36161466D02*
X231464235Y-34487235D01*
X241713650Y-52166150D02*
X241713650Y-50177303D01*
X243459000Y-53911500D02*
X241713650Y-52166150D01*
X244865274Y-53877966D02*
X243492534Y-53877966D01*
X243492534Y-53877966D02*
X243459000Y-53911500D01*
X236579384Y-72177884D02*
X236579384Y-70426490D01*
X239531274Y-74070966D02*
X238472466Y-74070966D01*
X238472466Y-74070966D02*
X236579384Y-72177884D01*
X246092466Y-92168466D02*
X243855746Y-89931746D01*
X243855746Y-89931746D02*
X243855746Y-88483542D01*
X247532274Y-92168466D02*
X246092466Y-92168466D01*
X253628274Y-33113466D02*
X252569466Y-33113466D01*
X250224823Y-30768823D02*
X250224823Y-29332677D01*
X252569466Y-33113466D02*
X250224823Y-30768823D01*
X263534274Y-50639466D02*
X262665966Y-50639466D01*
X260474238Y-48447738D02*
X260474238Y-46869305D01*
X262665966Y-50639466D02*
X260474238Y-48447738D01*
X257331966Y-70832466D02*
X255339971Y-68840471D01*
X255339971Y-68840471D02*
X255339971Y-67118492D01*
X258390774Y-70832466D02*
X257331966Y-70832466D01*
X268985410Y-27812410D02*
X268985410Y-26024679D01*
X270666966Y-29493966D02*
X268985410Y-27812410D01*
X271725774Y-29493966D02*
X270666966Y-29493966D01*
X281631774Y-47400966D02*
X280953966Y-47400966D01*
X279234826Y-45681826D02*
X279234826Y-43561307D01*
X280953966Y-47400966D02*
X279234826Y-45681826D01*
X276191466Y-67593966D02*
X274100559Y-65503059D01*
X277440774Y-67593966D02*
X276191466Y-67593966D01*
X274100559Y-65503059D02*
X274100559Y-63810494D01*
X272030329Y-84959329D02*
X272030329Y-83534127D01*
X276297774Y-87215466D02*
X274286466Y-87215466D01*
X274286466Y-87215466D02*
X272030329Y-84959329D01*
X291259500Y-25893000D02*
X291259500Y-23899317D01*
X293751000Y-27562000D02*
X292928500Y-27562000D01*
X292928500Y-27562000D02*
X291259500Y-25893000D01*
X302895000Y-48136000D02*
X302072500Y-48136000D01*
X302072500Y-48136000D02*
X300784500Y-46848000D01*
X300784500Y-46848000D02*
X300784500Y-43901817D01*
X298323000Y-67186000D02*
X297500500Y-67186000D01*
X297500500Y-67186000D02*
X296022000Y-65707500D01*
X296022000Y-65707500D02*
X296022000Y-62951817D01*
X300784500Y-84757500D02*
X300784500Y-82001817D01*
X302263000Y-86236000D02*
X300784500Y-84757500D01*
X303085500Y-86236000D02*
X302263000Y-86236000D01*
X318516000Y-28895500D02*
X317312500Y-28895500D01*
X317312500Y-28895500D02*
X315072000Y-26655000D01*
X315072000Y-26655000D02*
X315072000Y-24851817D01*
X321313000Y-48136000D02*
X319834500Y-46657500D01*
X319834500Y-46657500D02*
X319834500Y-43901817D01*
X321754500Y-48136000D02*
X321313000Y-48136000D01*
X315072000Y-65136000D02*
X315072000Y-62951817D01*
X318325500Y-67186000D02*
X317122000Y-67186000D01*
X317122000Y-67186000D02*
X315072000Y-65136000D01*
X321564000Y-84582000D02*
X319834500Y-82852500D01*
X319834500Y-82852500D02*
X319834500Y-82001817D01*
X321564000Y-86236000D02*
X321564000Y-84582000D01*
D28*
X276415500Y-93726000D02*
X270625756Y-94792485D01*
X216333256Y-86180744D02*
X216333256Y-84886485D01*
X277749000Y-74104500D02*
X272612728Y-74980485D01*
X199060500Y-55042500D02*
X193571500Y-55042500D01*
X57554500Y-54661500D02*
X61724542Y-54661500D01*
X245947500Y-113335500D02*
X239482000Y-113335500D01*
X317182500Y-73723500D02*
X311693500Y-73723500D01*
D27*
X286131000Y-35814000D02*
X287107000Y-34838000D01*
D28*
X54102000Y-92773500D02*
X50137000Y-92773500D01*
X77388783Y-55274726D02*
X81534000Y-56007000D01*
X247269000Y-98679000D02*
X242431756Y-99554985D01*
X159827000Y-113350000D02*
X156790000Y-113350000D01*
X68389500Y-73723500D02*
X64234000Y-73723500D01*
X142875000Y-105537000D02*
X138158283Y-104804726D01*
X215646000Y-87630000D02*
X216333256Y-86180744D01*
X36218500Y-54661500D02*
X40755000Y-54661500D01*
X84963000Y-112966500D02*
X87630000Y-110299500D01*
X168402000Y-54864000D02*
X178879500Y-54864000D01*
X122682000Y-102108000D02*
X112440783Y-100232726D01*
X162484500Y-39421500D02*
X162496500Y-39433500D01*
X92392500Y-115062000D02*
X120396000Y-115062000D01*
X96057783Y-58703726D02*
X100393500Y-59436000D01*
X84246783Y-95279726D02*
X88582500Y-96012000D01*
X271843500Y-36385500D02*
X267387256Y-37070985D01*
X221754000Y-113335500D02*
X200810500Y-113335500D01*
X211645500Y-49530000D02*
X211645500Y-47432729D01*
X297394000Y-54661500D02*
X301930500Y-54661500D01*
X210300000Y-27610500D02*
X211074000Y-28384500D01*
X315277500Y-110490000D02*
X311046000Y-110490000D01*
X211380256Y-47167485D02*
X216598500Y-46291500D01*
X263461500Y-57150000D02*
X259005256Y-58025985D01*
X297370500Y-73723500D02*
X292643500Y-73723500D01*
X168223500Y-55042500D02*
X164044000Y-55042500D01*
X244792500Y-60388500D02*
X240336256Y-61264485D01*
X126301500Y-83248500D02*
X121584783Y-82516226D01*
X40755000Y-54661500D02*
X40767000Y-54673500D01*
X75293283Y-35653226D02*
X79438500Y-36385500D01*
X226123500Y-63817500D02*
X221667256Y-64502985D01*
X312062500Y-34659000D02*
X316599000Y-34659000D01*
X42469500Y-73711500D02*
X42481500Y-73723500D01*
D27*
X285730000Y-35814000D02*
X286131000Y-35814000D01*
D28*
X112821783Y-42320726D02*
X116967000Y-43053000D01*
X36599500Y-35611500D02*
X40374000Y-35611500D01*
X144780000Y-86868000D02*
X140404702Y-85945226D01*
D27*
X285369000Y-36175000D02*
X285730000Y-35814000D01*
D28*
X206311500Y-55435500D02*
X204787500Y-56959500D01*
X143827500Y-27622500D02*
X139786500Y-27622500D01*
X203894000Y-90238000D02*
X184912000Y-90238000D01*
X220599000Y-84010500D02*
X216333256Y-84886485D01*
X87451500Y-110478000D02*
X82510000Y-110478000D01*
X120396000Y-115062000D02*
X122301000Y-113157000D01*
X40374000Y-35611500D02*
X40386000Y-35623500D01*
X316599000Y-34659000D02*
X316611000Y-34671000D01*
X94113202Y-38851976D02*
X98298000Y-39624000D01*
X84246783Y-75848726D02*
X88582500Y-76581000D01*
X178879500Y-54864000D02*
X181165500Y-57150000D01*
D27*
X287107000Y-34838000D02*
X287107000Y-33897000D01*
D28*
X201739500Y-57721500D02*
X199060500Y-55042500D01*
X223266000Y-111823500D02*
X221754000Y-113335500D01*
X258889500Y-79819500D02*
X255841500Y-80391000D01*
X241173000Y-80200500D02*
X235002256Y-81457485D01*
X206716000Y-27610500D02*
X210300000Y-27610500D01*
X52768500Y-110490000D02*
X55245000Y-112966500D01*
X59614500Y-35611500D02*
X59817000Y-35814000D01*
X87630000Y-110299500D02*
X92392500Y-115062000D01*
X246126000Y-113157000D02*
X245947500Y-113335500D01*
X157757500Y-39421500D02*
X162484500Y-39421500D01*
X211645500Y-47432729D02*
X211380256Y-47167485D01*
X282702000Y-53911500D02*
X277674256Y-54787485D01*
X87630000Y-110299500D02*
X87451500Y-110478000D01*
X55245000Y-112966500D02*
X84963000Y-112966500D01*
X193571500Y-56745500D02*
X193571500Y-55042500D01*
X321183000Y-54673500D02*
X316456000Y-54673500D01*
X223647000Y-102870000D02*
X218809756Y-103745985D01*
X230049256Y-43928985D02*
X235648500Y-42862500D01*
X204025500Y-90297000D02*
X203894000Y-90238000D01*
X253861756Y-78218985D02*
X258889500Y-77343000D01*
X193167000Y-57150000D02*
X193571500Y-56745500D01*
X159829500Y-113347500D02*
X159827000Y-113350000D01*
X321373500Y-92773500D02*
X316456000Y-92773500D01*
X248718256Y-40499985D02*
X253365000Y-39814500D01*
X131641702Y-45559226D02*
X136017000Y-46291500D01*
X138303000Y-65913000D02*
X133586283Y-65180726D01*
X258889500Y-77343000D02*
X259270500Y-79248000D01*
X301930500Y-54661500D02*
X301942500Y-54673500D01*
X207835500Y-88963500D02*
X215646000Y-87630000D01*
X168402000Y-54864000D02*
X168223500Y-55042500D01*
X122122500Y-113335500D02*
X118133500Y-113335500D01*
X281388500Y-110470000D02*
X275110000Y-110470000D01*
X119443500Y-62674500D02*
X114726783Y-61942226D01*
X102915783Y-79277726D02*
X107061000Y-80010000D01*
X181165500Y-57150000D02*
X193167000Y-57150000D01*
X61724542Y-54661500D02*
X61824521Y-54761479D01*
X282130500Y-109728000D02*
X281388500Y-110470000D01*
X208026000Y-55435500D02*
X206311500Y-55435500D01*
X259270500Y-79248000D02*
X258889500Y-79819500D01*
X55649500Y-35611500D02*
X59614500Y-35611500D01*
X38123500Y-73711500D02*
X42469500Y-73711500D01*
X122301000Y-113157000D02*
X122122500Y-113335500D01*
X101155500Y-85915500D02*
X98298000Y-88963500D01*
X166306500Y-20764500D02*
X173926500Y-20764500D01*
X165354000Y-22719500D02*
X165354000Y-21717000D01*
X173926500Y-20764500D02*
X206883000Y-20764500D01*
X206883000Y-20764500D02*
X211264500Y-25146000D01*
X211264500Y-25146000D02*
X211836000Y-25717500D01*
X165354000Y-21717000D02*
X166306500Y-20764500D01*
X211836000Y-25717500D02*
X211836000Y-25908000D01*
D27*
X315468000Y-33147000D02*
X312074500Y-33147000D01*
X307062500Y-34659000D02*
X307062500Y-35790500D01*
X319647000Y-53161500D02*
X316444000Y-53161500D01*
X319849500Y-52959000D02*
X319647000Y-53161500D01*
X307062500Y-35790500D02*
X308229000Y-36957000D01*
D28*
X122491500Y-64198500D02*
X122491500Y-66294000D01*
X113133500Y-111835500D02*
X108787500Y-111835500D01*
X93154500Y-80200500D02*
X92341227Y-81013773D01*
X152757500Y-37921500D02*
X148578000Y-37921500D01*
X128922717Y-62835274D02*
X124587000Y-62103000D01*
X181927500Y-49911000D02*
X193167000Y-49911000D01*
X263080500Y-79305150D02*
X261680325Y-80705325D01*
X205168500Y-71437500D02*
X213621295Y-70046997D01*
X246899373Y-64209873D02*
X228158202Y-67497798D01*
X211148744Y-84277515D02*
X207073500Y-84963000D01*
X267081000Y-55816500D02*
X267081000Y-59797098D01*
X267081000Y-59797098D02*
X266023299Y-60854799D01*
X70104000Y-96964500D02*
X71056500Y-96964500D01*
X259401094Y-100643906D02*
X230672842Y-105704842D01*
X225933000Y-81534000D02*
X224218500Y-82486500D01*
X72771000Y-77533500D02*
X72932737Y-77562263D01*
X268033500Y-55054500D02*
X267081000Y-55816500D01*
X184912000Y-74998000D02*
X201608000Y-74998000D01*
X151828500Y-50673000D02*
X151638000Y-50673000D01*
X202120500Y-52578000D02*
X219075000Y-49530000D01*
X74104500Y-76581000D02*
X73123237Y-77562263D01*
X46089000Y-34111500D02*
X45148500Y-35052000D01*
X25527000Y-54483000D02*
X25527000Y-57340500D01*
X219456000Y-45148500D02*
X219456000Y-49045678D01*
X263271000Y-103441500D02*
X260473406Y-100643906D01*
X224864744Y-43320015D02*
X220027500Y-44196000D01*
X304228500Y-58864500D02*
X320040000Y-58864500D01*
X270110000Y-108970000D02*
X266132500Y-108970000D01*
X87058500Y-55626000D02*
X85534500Y-57531000D01*
X232791000Y-99822000D02*
X232219500Y-100584000D01*
X296989500Y-41148000D02*
X295656000Y-42481500D01*
X85344000Y-35814000D02*
X83629500Y-37909500D01*
X85534500Y-57531000D02*
X85534500Y-59055000D01*
X211645500Y-65722500D02*
X211645500Y-68093618D01*
X181165500Y-50673000D02*
X151638000Y-50673000D01*
X193548000Y-44005500D02*
X193548000Y-49530000D01*
X104203500Y-62293500D02*
X102599362Y-63897638D01*
X151638000Y-50673000D02*
X145351500Y-50673000D01*
X79583217Y-92934274D02*
X75277226Y-92202000D01*
X27432000Y-76009500D02*
X28956000Y-77533500D01*
X54292500Y-73342500D02*
X54292500Y-76581000D01*
X124587000Y-62103000D02*
X122491500Y-64198500D01*
X148578000Y-37921500D02*
X146685000Y-39814500D01*
X144399000Y-109918500D02*
X147447000Y-110490000D01*
X311444000Y-91261500D02*
X307455000Y-91261500D01*
X238125000Y-41719500D02*
X239077500Y-40767000D01*
X72199500Y-58674000D02*
X83904260Y-60685240D01*
X54292500Y-76581000D02*
X53340000Y-77533500D01*
X244411500Y-78295500D02*
X242697000Y-79248000D01*
X116921217Y-80170774D02*
X112585500Y-79438500D01*
X105992518Y-103135018D02*
X126583945Y-106771945D01*
X242087400Y-84162900D02*
X223304100Y-87477600D01*
X40005000Y-95821500D02*
X38862000Y-96964500D01*
X48184500Y-53161500D02*
X46863000Y-54483000D01*
X306681500Y-72211500D02*
X302692500Y-72211500D01*
X282511500Y-73152000D02*
X282511500Y-76390500D01*
X192595500Y-110871000D02*
X193167000Y-110299500D01*
X129349500Y-29527500D02*
X131826000Y-32004000D01*
X237247244Y-98946015D02*
X232791000Y-99822000D01*
X318516000Y-77533500D02*
X300037500Y-77533500D01*
X249555000Y-58293000D02*
X248602500Y-59055000D01*
X229362000Y-66294000D02*
X228158202Y-67497798D01*
X22860000Y-96964500D02*
X33337500Y-96964500D01*
X307264500Y-53161500D02*
X305943000Y-54483000D01*
X193548000Y-49530000D02*
X193167000Y-49911000D01*
X300037500Y-98488500D02*
X298323000Y-96774000D01*
X22288500Y-60579000D02*
X22288500Y-68389500D01*
X311444000Y-53161500D02*
X307264500Y-53161500D01*
X257746500Y-37147500D02*
X262202744Y-36462015D01*
X108787500Y-111835500D02*
X107823000Y-110871000D01*
X321183000Y-74866500D02*
X318516000Y-77533500D01*
X45125000Y-91261500D02*
X41136000Y-91261500D01*
X232219500Y-104158184D02*
X230672842Y-105704842D01*
X202996485Y-46558515D02*
X202120500Y-47434500D01*
X52554500Y-53161500D02*
X48184500Y-53161500D01*
X145351500Y-50673000D02*
X137922000Y-50673000D01*
X181165500Y-50673000D02*
X181927500Y-49911000D01*
X73533000Y-94678500D02*
X73533000Y-95821500D01*
X276034500Y-23050500D02*
X284416500Y-23050500D01*
X301764000Y-108978000D02*
X300037500Y-107251500D01*
X283464000Y-96774000D02*
X281368500Y-96774000D01*
X46863000Y-57721500D02*
X45910500Y-58674000D01*
X108158217Y-39975274D02*
X103822500Y-39243000D01*
X288595500Y-53161500D02*
X286131000Y-55626000D01*
X256984500Y-38290500D02*
X257746500Y-37147500D01*
X200787000Y-49911000D02*
X202120500Y-51244500D01*
X70629717Y-33307774D02*
X66294000Y-32575500D01*
X227721782Y-106224718D02*
X210610330Y-109239170D01*
X98252217Y-76932274D02*
X93916500Y-76200000D01*
X229743000Y-110109000D02*
X229743000Y-108204000D01*
X134774500Y-26110500D02*
X133365478Y-26110500D01*
X273748500Y-38481000D02*
X273748500Y-31051500D01*
X282511500Y-76390500D02*
X281368500Y-77533500D01*
X147447000Y-110490000D02*
X148426000Y-111850000D01*
X279654000Y-77533500D02*
X261680325Y-80705325D01*
X305943000Y-57150000D02*
X304228500Y-58864500D01*
X22288500Y-41910000D02*
X22288500Y-51244500D01*
X202120500Y-51244500D02*
X202120500Y-47434500D01*
X144970500Y-36766500D02*
X144970500Y-38100000D01*
X307455000Y-91261500D02*
X306324000Y-92392500D01*
X248677244Y-77610015D02*
X244411500Y-78295500D01*
X107823000Y-104965500D02*
X105992518Y-103135018D01*
X105346500Y-58864500D02*
X104203500Y-60388500D01*
X237553500Y-46291500D02*
X238125000Y-45724306D01*
X65532000Y-58674000D02*
X72199500Y-58674000D01*
X261175500Y-95059500D02*
X260032500Y-96202500D01*
X154698000Y-53542500D02*
X151828500Y-50673000D01*
X63627000Y-39433500D02*
X73533000Y-39433500D01*
X209550000Y-110299500D02*
X210610330Y-109239170D01*
X103632000Y-97155000D02*
X101727000Y-99631500D01*
X256984500Y-42479348D02*
X256984500Y-38290500D01*
X131254500Y-83058000D02*
X130111500Y-84963000D01*
X25527000Y-57340500D02*
X26860500Y-58674000D01*
X188571500Y-53542500D02*
X184035000Y-53542500D01*
X285369000Y-22098000D02*
X285369000Y-20955000D01*
X211645500Y-68093618D02*
X213603191Y-70051309D01*
X197346000Y-26110500D02*
X194310000Y-29146500D01*
X121539000Y-44005500D02*
X121539000Y-46482000D01*
X83629500Y-39433500D02*
X82129013Y-40933987D01*
X28753500Y-72211500D02*
X27432000Y-73533000D01*
X122872500Y-42481500D02*
X121539000Y-44005500D01*
X140208000Y-32004000D02*
X144970500Y-36766500D01*
X304360511Y-34451967D02*
X304360511Y-40063489D01*
X74104500Y-74485500D02*
X74104500Y-76581000D01*
X195810500Y-111835500D02*
X192988500Y-111835500D01*
X102489000Y-40767000D02*
X102489000Y-42672000D01*
X146685000Y-49339500D02*
X145351500Y-50673000D01*
X304360511Y-40063489D02*
X303276000Y-41148000D01*
X79583217Y-73503274D02*
X75247500Y-72771000D01*
X25527000Y-57340500D02*
X22288500Y-60579000D01*
X121539000Y-46482000D02*
X120405597Y-47615403D01*
X82129013Y-40933987D02*
X100942927Y-44218073D01*
X194310000Y-29146500D02*
X194310000Y-43243500D01*
X45910500Y-58674000D02*
X65532000Y-58674000D01*
X260473406Y-100643906D02*
X259401094Y-100643906D01*
X22288500Y-68389500D02*
X27432000Y-73533000D01*
X277368000Y-58864500D02*
X266023299Y-60854799D01*
X321183000Y-60007500D02*
X321183000Y-74866500D01*
X304800000Y-96774000D02*
X298323000Y-96774000D01*
X130111500Y-86487000D02*
X129055621Y-87542879D01*
X55423500Y-72211500D02*
X54292500Y-73342500D01*
X107777217Y-97887274D02*
X103632000Y-97155000D01*
X184035000Y-53542500D02*
X181165500Y-50673000D01*
X237553500Y-46291500D02*
X256603500Y-42862500D01*
X26860500Y-58674000D02*
X45910500Y-58674000D01*
X300037500Y-77533500D02*
X281368500Y-77533500D01*
X103822500Y-39243000D02*
X102489000Y-40767000D01*
X209931000Y-104013000D02*
X209359500Y-104775000D01*
X253820744Y-57417015D02*
X249555000Y-58293000D01*
X64389000Y-35052000D02*
X64389000Y-38671500D01*
X192595500Y-111442500D02*
X192595500Y-110871000D01*
X267428216Y-74371515D02*
X264223500Y-74866500D01*
X261680325Y-80705325D02*
X242087400Y-84162900D01*
X283845000Y-44577000D02*
X286131000Y-55626000D01*
X301561500Y-76009500D02*
X300037500Y-77533500D01*
X256413000Y-42862500D02*
X271653000Y-40195500D01*
X211645500Y-68093618D02*
X208978500Y-65341500D01*
X205930500Y-89154000D02*
X207111600Y-90335100D01*
X298323000Y-96774000D02*
X286321500Y-96774000D01*
X72580500Y-108013500D02*
X72580500Y-100012500D01*
X219075000Y-49530000D02*
X237553500Y-46291500D01*
X300037500Y-107251500D02*
X300037500Y-98488500D01*
X224218500Y-82486500D02*
X224218500Y-86563200D01*
X26289000Y-37909500D02*
X27813000Y-39433500D01*
X45148500Y-35052000D02*
X45148500Y-38290500D01*
X89449636Y-36506524D02*
X85344000Y-35814000D01*
X148426000Y-111850000D02*
X151790000Y-111850000D01*
X129159000Y-101727000D02*
X128206500Y-103441500D01*
X206195744Y-46558515D02*
X202996485Y-46558515D01*
X112585500Y-79438500D02*
X111633000Y-80962500D01*
X85534500Y-59055000D02*
X83904260Y-60685240D01*
X213625244Y-103137015D02*
X209931000Y-104013000D01*
X53340000Y-77533500D02*
X72771000Y-77533500D01*
X216482744Y-63894015D02*
X212979000Y-64579500D01*
X26289000Y-35242500D02*
X26289000Y-37909500D01*
X285178500Y-42481500D02*
X284416500Y-43243500D01*
X287655000Y-92202000D02*
X287655000Y-95440500D01*
X73533000Y-95821500D02*
X72189828Y-97164672D01*
X33123500Y-72211500D02*
X28753500Y-72211500D01*
X104203500Y-60388500D02*
X104203500Y-62293500D01*
X133494717Y-102459274D02*
X129159000Y-101727000D01*
X128206500Y-103441500D02*
X128206500Y-105149390D01*
X273748500Y-25336500D02*
X276034500Y-23050500D01*
X295656000Y-42481500D02*
X285178500Y-42481500D01*
X283452000Y-72211500D02*
X282511500Y-73152000D01*
X229817744Y-80848515D02*
X225933000Y-81534000D01*
X27813000Y-39433500D02*
X44005500Y-39433500D01*
X284988000Y-58864500D02*
X277368000Y-58864500D01*
X230672842Y-105704842D02*
X227721782Y-106224718D01*
X64389000Y-38671500D02*
X63627000Y-39433500D01*
X229743000Y-108204000D02*
X227763718Y-106224718D01*
X282107000Y-32397000D02*
X275094000Y-32397000D01*
X286131000Y-57721500D02*
X284988000Y-58864500D01*
X193167000Y-49911000D02*
X200787000Y-49911000D01*
X135741136Y-83599774D02*
X131254500Y-83058000D01*
X33337500Y-96964500D02*
X38862000Y-96964500D01*
X66294000Y-32575500D02*
X64389000Y-35052000D01*
X73123237Y-77562263D02*
X72932737Y-77562263D01*
X28956000Y-77533500D02*
X53340000Y-77533500D01*
X100942927Y-44218073D02*
X120405597Y-47615403D01*
X205930500Y-86487000D02*
X205930500Y-89154000D01*
X275094000Y-32397000D02*
X273748500Y-31051500D01*
X45148500Y-38290500D02*
X44005500Y-39433500D01*
X287655000Y-95440500D02*
X286321500Y-96774000D01*
X21336000Y-95440500D02*
X22860000Y-96964500D01*
X209359500Y-104775000D02*
X209359500Y-107988340D01*
X44005500Y-39433500D02*
X63627000Y-39433500D01*
X292394000Y-91261500D02*
X288595500Y-91261500D01*
X72580500Y-100012500D02*
X69532500Y-96964500D01*
X248602500Y-62506746D02*
X246899373Y-64209873D01*
X101727000Y-99631500D02*
X101727000Y-100584000D01*
X122491500Y-66294000D02*
X121619596Y-67165904D01*
X133353478Y-26098500D02*
X130873500Y-26098500D01*
X110294081Y-84206419D02*
X129055621Y-87542879D01*
X272489744Y-54178515D02*
X268033500Y-55054500D01*
X133365478Y-26110500D02*
X133353478Y-26098500D01*
X202120500Y-52959000D02*
X202120500Y-51244500D01*
X31599500Y-34111500D02*
X27420000Y-34111500D01*
X305943000Y-54483000D02*
X305943000Y-57150000D01*
X130873500Y-26098500D02*
X129349500Y-27622500D01*
X242697000Y-79248000D02*
X242697000Y-83553300D01*
X220027500Y-44196000D02*
X219456000Y-45148500D01*
X207073500Y-84963000D02*
X205930500Y-86487000D01*
X110063217Y-59596774D02*
X105346500Y-58864500D01*
X22657500Y-91261500D02*
X21336000Y-92583000D01*
X130111500Y-84963000D02*
X130111500Y-86487000D01*
X288595500Y-91261500D02*
X287655000Y-92202000D01*
X238125000Y-45724306D02*
X238125000Y-41719500D01*
X69532500Y-96964500D02*
X72771000Y-77533500D01*
X40005000Y-92392500D02*
X40005000Y-95821500D01*
X305653478Y-33159000D02*
X304360511Y-34451967D01*
X281368500Y-96774000D02*
X259401094Y-100643906D01*
X26289000Y-37909500D02*
X22288500Y-41910000D01*
X159044000Y-53542500D02*
X154698000Y-53542500D01*
X50649500Y-34111500D02*
X46089000Y-34111500D01*
X208978500Y-63055500D02*
X202120500Y-56197500D01*
X72932737Y-77562263D02*
X92341227Y-81013773D01*
X83629500Y-37909500D02*
X83629500Y-39433500D01*
X287631500Y-72211500D02*
X283452000Y-72211500D01*
X239077500Y-40767000D02*
X243533744Y-39891015D01*
X59222000Y-72211500D02*
X55423500Y-72211500D01*
X227763718Y-106224718D02*
X227721782Y-106224718D01*
X194310000Y-43243500D02*
X193548000Y-44005500D01*
X77510000Y-108978000D02*
X73545000Y-108978000D01*
X320040000Y-58864500D02*
X321183000Y-60007500D01*
X27420000Y-34111500D02*
X26289000Y-35242500D01*
X260032500Y-100012500D02*
X259401094Y-100643906D01*
X21336000Y-92583000D02*
X21336000Y-95440500D01*
X307062500Y-33159000D02*
X305653478Y-33159000D01*
X41136000Y-91261500D02*
X40005000Y-92392500D01*
X73533000Y-39433500D02*
X82129013Y-40933987D01*
X107823000Y-110871000D02*
X107823000Y-104965500D01*
X192988500Y-111835500D02*
X192595500Y-111442500D01*
X231469500Y-111835500D02*
X229743000Y-110109000D01*
X284416500Y-43243500D02*
X283845000Y-44577000D01*
X128206500Y-105149390D02*
X126583945Y-106771945D01*
X265441244Y-94183515D02*
X261175500Y-95059500D01*
X292394000Y-53161500D02*
X288595500Y-53161500D01*
X304228500Y-58864500D02*
X284988000Y-58864500D01*
X26848500Y-53161500D02*
X25527000Y-54483000D01*
X263080500Y-76009500D02*
X263080500Y-79305150D01*
X256603500Y-42862500D02*
X256984500Y-42479348D01*
X144970500Y-38100000D02*
X146685000Y-39814500D01*
X193167000Y-110299500D02*
X209550000Y-110299500D01*
X93916500Y-76200000D02*
X93154500Y-77724000D01*
X273748500Y-31051500D02*
X273748500Y-25336500D01*
X201608000Y-74998000D02*
X205168500Y-71437500D01*
X260032500Y-96202500D02*
X260032500Y-100012500D01*
X284416500Y-23050500D02*
X285369000Y-22098000D01*
X303276000Y-41148000D02*
X296989500Y-41148000D01*
X25884500Y-91261500D02*
X22657500Y-91261500D01*
X264223500Y-74866500D02*
X263080500Y-76009500D01*
X207111600Y-90335100D02*
X223304100Y-87477600D01*
X306034000Y-108978000D02*
X301764000Y-108978000D01*
X38862000Y-96964500D02*
X70104000Y-96964500D01*
X75277226Y-92202000D02*
X73533000Y-94678500D01*
X73545000Y-108978000D02*
X72580500Y-108013500D01*
X111633000Y-82867500D02*
X110294081Y-84206419D01*
X224218500Y-86563200D02*
X223304100Y-87477600D01*
X266023299Y-60854799D02*
X246899373Y-64209873D01*
X306324000Y-95250000D02*
X304800000Y-96774000D01*
X302692500Y-72211500D02*
X301561500Y-73342500D01*
X235151744Y-60655515D02*
X230886000Y-61531500D01*
X100037311Y-102083189D02*
X105992518Y-103135018D01*
X129349500Y-27622500D02*
X129349500Y-29527500D01*
X230886000Y-61531500D02*
X229362000Y-62674500D01*
X126583945Y-106771945D02*
X144399000Y-109918500D01*
X92341227Y-81013773D02*
X110294081Y-84206419D01*
X146685000Y-39814500D02*
X146685000Y-49339500D01*
X102599362Y-63897638D02*
X121619596Y-67165904D01*
X242697000Y-83553300D02*
X242087400Y-84162900D01*
X83904260Y-60685240D02*
X102599362Y-63897638D01*
X101727000Y-100584000D02*
X100227811Y-102083189D01*
X209359500Y-107988340D02*
X210610330Y-109239170D01*
X266132500Y-108970000D02*
X263271000Y-106108500D01*
X100227811Y-102083189D02*
X100037311Y-102083189D01*
X131826000Y-32004000D02*
X140208000Y-32004000D01*
X27432000Y-73533000D02*
X27432000Y-76009500D01*
X75247500Y-72771000D02*
X74104500Y-74485500D01*
X281368500Y-77533500D02*
X279654000Y-77533500D01*
X234482000Y-111835500D02*
X231469500Y-111835500D01*
X137922000Y-50673000D02*
X120405597Y-47615403D01*
X208978500Y-65341500D02*
X208978500Y-63055500D01*
X46863000Y-54483000D02*
X46863000Y-57721500D01*
X279654000Y-77533500D02*
X283083000Y-96774000D01*
X286131000Y-55626000D02*
X286131000Y-57721500D01*
X232219500Y-100584000D02*
X232219500Y-104158184D01*
X91394217Y-56358274D02*
X87058500Y-55626000D01*
X286321500Y-96774000D02*
X283464000Y-96774000D01*
X263271000Y-106108500D02*
X263271000Y-103441500D01*
X111633000Y-80962500D02*
X111633000Y-82867500D01*
X212979000Y-64579500D02*
X211645500Y-65722500D01*
X93154500Y-77724000D02*
X93154500Y-80200500D01*
X306324000Y-92392500D02*
X306324000Y-95250000D01*
X301561500Y-73342500D02*
X301561500Y-76009500D01*
X72189828Y-97164672D02*
X100037311Y-102083189D01*
X31218500Y-53161500D02*
X26848500Y-53161500D01*
X102489000Y-42672000D02*
X100942927Y-44218073D01*
X71056500Y-96964500D02*
X72189828Y-97164672D01*
X22288500Y-51244500D02*
X25527000Y-54483000D01*
X201716000Y-26110500D02*
X197346000Y-26110500D01*
X229362000Y-62674500D02*
X229362000Y-66294000D01*
X202120500Y-56197500D02*
X202120500Y-52959000D01*
X126978136Y-43213774D02*
X122872500Y-42481500D01*
X271653000Y-40195500D02*
X273748500Y-38481000D01*
X248602500Y-59055000D02*
X248602500Y-62506746D01*
X228158202Y-67497798D02*
X213603191Y-70051309D01*
D27*
X311432000Y-54673500D02*
X308419500Y-54673500D01*
X315087000Y-72009000D02*
X314884500Y-72211500D01*
X314884500Y-72211500D02*
X311681500Y-72211500D01*
X306681500Y-73711500D02*
X303669000Y-73711500D01*
X319647000Y-91261500D02*
X316444000Y-91261500D01*
X319849500Y-91059000D02*
X319647000Y-91261500D01*
X303669000Y-73711500D02*
X303657000Y-73723500D01*
X302907000Y-91261500D02*
X297394000Y-91261500D01*
X304419000Y-92773500D02*
X302907000Y-91261500D01*
X311432000Y-92773500D02*
X308038500Y-92773500D01*
X292382000Y-92773500D02*
X289179000Y-92773500D01*
X295846500Y-72199500D02*
X292643500Y-72199500D01*
X287631500Y-73711500D02*
X284238000Y-73711500D01*
X300990000Y-53149500D02*
X297406000Y-53149500D01*
X284238000Y-73711500D02*
X284226000Y-73723500D01*
X289191000Y-54661500D02*
X289179000Y-54673500D01*
X292394000Y-54661500D02*
X289191000Y-54661500D01*
X291465000Y-32575500D02*
X287285500Y-32575500D01*
X287285500Y-32575500D02*
X287107000Y-32397000D01*
X282107000Y-33897000D02*
X275475000Y-33897000D01*
X275475000Y-33897000D02*
X275463000Y-33909000D01*
X271653000Y-34861500D02*
X267126783Y-35593774D01*
X281178000Y-52578000D02*
X277413783Y-53310274D01*
X262463217Y-37939226D02*
X259080000Y-38481000D01*
X272750217Y-55655726D02*
X269557500Y-56197500D01*
X269580858Y-61093141D02*
X269580858Y-61976642D01*
X276606000Y-72771000D02*
X272352255Y-73503274D01*
X269580858Y-61976642D02*
X268605000Y-62952500D01*
X267688689Y-75848726D02*
X265366500Y-76200000D01*
X265366500Y-76200000D02*
X264604500Y-76390500D01*
X274891500Y-92583000D02*
X270365283Y-93315274D01*
X257175000Y-76200000D02*
X253601283Y-76741774D01*
X265701717Y-95660726D02*
X262128000Y-96393000D01*
X248937717Y-79087226D02*
X245554500Y-79629000D01*
X262128000Y-56007000D02*
X258744783Y-56548774D01*
X252031500Y-38481000D02*
X248457783Y-39022774D01*
X254081217Y-58894226D02*
X250698000Y-59436000D01*
X243794217Y-41368226D02*
X239839500Y-42100500D01*
X236791500Y-41338500D02*
X229788783Y-42451774D01*
X242536226Y-59787274D02*
X240075783Y-59787274D01*
X243268500Y-59055000D02*
X242536226Y-59787274D01*
X239268000Y-79248000D02*
X234741783Y-79980274D01*
X235412217Y-62132726D02*
X232219500Y-62865000D01*
X245173500Y-97536000D02*
X242171283Y-98077774D01*
X230078217Y-82325726D02*
X226695000Y-83058000D01*
X230695500Y-100393500D02*
X218549283Y-102268774D01*
X237507717Y-100423226D02*
X234124500Y-100965000D01*
X219265500Y-82867500D02*
X216072783Y-83409274D01*
X213885717Y-104614226D02*
X210883500Y-105156000D01*
X224599500Y-62674500D02*
X221406783Y-63025774D01*
X211409217Y-85754726D02*
X208216500Y-86487000D01*
X214693500Y-45148500D02*
X211119783Y-45690274D01*
X216743217Y-65371226D02*
X213550500Y-65913000D01*
X196024500Y-47434500D02*
X196215000Y-47244000D01*
X196215000Y-47244000D02*
X200977500Y-47244000D01*
X144589500Y-48577500D02*
X141351000Y-48577500D01*
X141351000Y-48577500D02*
X136588500Y-44958000D01*
X136588500Y-44958000D02*
X131902175Y-44082015D01*
X192214500Y-48577500D02*
X148399500Y-48577500D01*
X126717663Y-44690985D02*
X123444000Y-44196000D01*
X134151241Y-64008000D02*
X133846756Y-63703515D01*
X137160000Y-64008000D02*
X134151241Y-64008000D01*
X128662244Y-64312485D02*
X125730000Y-63817500D01*
X144018000Y-85153500D02*
X140665175Y-84468015D01*
X135480663Y-85076985D02*
X132588000Y-84582000D01*
X141732000Y-104013000D02*
X138418756Y-103327515D01*
X133234244Y-103936485D02*
X130111500Y-103251000D01*
X128206500Y-82296000D02*
X121845256Y-81039015D01*
X113157000Y-80962500D02*
X116660744Y-81647985D01*
X118110000Y-61150500D02*
X114987256Y-60465015D01*
X116014500Y-41338500D02*
X113082256Y-40843515D01*
X109802744Y-61073985D02*
X106299000Y-60579000D01*
X102298500Y-39052500D02*
X94373675Y-37374765D01*
X107897744Y-41452485D02*
X104584500Y-40957500D01*
X99060000Y-57721500D02*
X96318256Y-57226515D01*
X85915500Y-37338000D02*
X89189163Y-37983735D01*
X91133744Y-57835485D02*
X87630000Y-57340500D01*
X106299000Y-78295500D02*
X103176256Y-77800515D01*
X97991744Y-78409485D02*
X94869000Y-77914500D01*
X116014500Y-99441000D02*
X112701256Y-98755515D01*
X107516744Y-99364485D02*
X104203500Y-98869500D01*
X101536500Y-97155000D02*
X84507256Y-93802515D01*
X87630000Y-75057000D02*
X84507256Y-74371515D01*
X79322744Y-94411485D02*
X75819000Y-93916500D01*
X80581500Y-54483000D02*
X77649256Y-53797515D01*
X79322744Y-74980485D02*
X76200000Y-74485500D01*
X78295500Y-34861500D02*
X75553756Y-34176015D01*
X72464744Y-54406485D02*
X69151500Y-53911500D01*
X55828000Y-34290000D02*
X55649500Y-34111500D01*
X63246000Y-34290000D02*
X55828000Y-34290000D01*
X70369244Y-34784985D02*
X66865500Y-34290000D01*
X67246500Y-72199500D02*
X64234000Y-72199500D01*
X48780000Y-54661500D02*
X48768000Y-54673500D01*
X52554500Y-54661500D02*
X48780000Y-54661500D01*
X57531000Y-91249500D02*
X50137000Y-91249500D01*
X59222000Y-73711500D02*
X56019000Y-73711500D01*
X56019000Y-73711500D02*
X56007000Y-73723500D01*
X38100000Y-92773500D02*
X36588000Y-91261500D01*
X38671500Y-92773500D02*
X38100000Y-92773500D01*
X36588000Y-91261500D02*
X30884500Y-91261500D01*
X45113000Y-92773500D02*
X41719500Y-92773500D01*
X22872000Y-92761500D02*
X22860000Y-92773500D01*
X25884500Y-92761500D02*
X22872000Y-92761500D01*
X31218500Y-54661500D02*
X27634500Y-54661500D01*
X27634500Y-54661500D02*
X27622500Y-54673500D01*
X160782000Y-37909500D02*
X157769500Y-37909500D01*
X146113500Y-26098500D02*
X139786500Y-26098500D01*
X149554500Y-39421500D02*
X149542500Y-39433500D01*
X152757500Y-39421500D02*
X149554500Y-39421500D01*
X134683500Y-27701500D02*
X134683500Y-28575000D01*
X134683500Y-28575000D02*
X135064500Y-28956000D01*
X135064500Y-28956000D02*
X145351500Y-28956000D01*
X209550000Y-25527000D02*
X208966500Y-26110500D01*
X208966500Y-26110500D02*
X206716000Y-26110500D01*
X153543000Y-27813000D02*
X156400500Y-24955500D01*
X194881500Y-24955500D02*
X195834000Y-24003000D01*
X209550000Y-24765000D02*
X209550000Y-25527000D01*
X208788000Y-24003000D02*
X209550000Y-24765000D01*
X156400500Y-24955500D02*
X194881500Y-24955500D01*
X145351500Y-28956000D02*
X146494500Y-27813000D01*
X195834000Y-24003000D02*
X208788000Y-24003000D01*
X146494500Y-27813000D02*
X153543000Y-27813000D01*
X196405500Y-53530500D02*
X193583500Y-53530500D01*
X197751000Y-27610500D02*
X201716000Y-27610500D01*
X197739000Y-27622500D02*
X197751000Y-27610500D01*
X182106000Y-55042500D02*
X180594000Y-53530500D01*
X180594000Y-53530500D02*
X164056000Y-53530500D01*
X188571500Y-55042500D02*
X182106000Y-55042500D01*
X158686500Y-55400000D02*
X159044000Y-55042500D01*
X161544000Y-113347500D02*
X163830000Y-113347500D01*
X159803000Y-111850000D02*
X160046500Y-111850000D01*
X156790000Y-111850000D02*
X159803000Y-111850000D01*
X160046500Y-111850000D02*
X161544000Y-113347500D01*
X158686500Y-57340500D02*
X158686500Y-55400000D01*
X148971000Y-113347500D02*
X151787500Y-113347500D01*
X204406500Y-111823500D02*
X200822500Y-111823500D01*
X148399500Y-114300000D02*
X148399500Y-113919000D01*
X148971000Y-114871500D02*
X148399500Y-114300000D01*
X148399500Y-113919000D02*
X148971000Y-113347500D01*
X187642500Y-114490500D02*
X187261500Y-114871500D01*
X187261500Y-114871500D02*
X148971000Y-114871500D01*
X242887500Y-111061500D02*
X242887500Y-111442500D01*
X193560000Y-113335500D02*
X193167000Y-113728500D01*
X193167000Y-113728500D02*
X193167000Y-114109500D01*
X227076000Y-114681000D02*
X229552500Y-112204500D01*
X242125500Y-110299500D02*
X242887500Y-111061500D01*
X242887500Y-111442500D02*
X242494500Y-111835500D01*
X203073000Y-114681000D02*
X227076000Y-114681000D01*
X193167000Y-114109500D02*
X193548000Y-114490500D01*
X232219500Y-110299500D02*
X242125500Y-110299500D01*
X193738500Y-114681000D02*
X203073000Y-114681000D01*
X195810500Y-113335500D02*
X193560000Y-113335500D01*
X193548000Y-114490500D02*
X193738500Y-114681000D01*
X242494500Y-111835500D02*
X239482000Y-111835500D01*
X234482000Y-113335500D02*
X232231500Y-113335500D01*
X278701500Y-108775500D02*
X278507000Y-108970000D01*
X233934000Y-114681000D02*
X257746500Y-114681000D01*
X265938000Y-106489500D02*
X277368000Y-106489500D01*
X231838500Y-114300000D02*
X232219500Y-114681000D01*
X277368000Y-106489500D02*
X278701500Y-107823000D01*
X231838500Y-113728500D02*
X231838500Y-114300000D01*
X257746500Y-114681000D02*
X259080000Y-113347500D01*
X278701500Y-107823000D02*
X278701500Y-108775500D01*
X232231500Y-113335500D02*
X231838500Y-113728500D01*
X278507000Y-108970000D02*
X275110000Y-108970000D01*
X259080000Y-113347500D02*
X263842500Y-108585000D01*
X232219500Y-114681000D02*
X233934000Y-114681000D01*
X267081000Y-111061500D02*
X267081000Y-111633000D01*
X282130500Y-112014000D02*
X296989500Y-112014000D01*
X267672500Y-110470000D02*
X267081000Y-111061500D01*
X301752000Y-107251500D02*
X302133000Y-106870500D01*
X296989500Y-112014000D02*
X300037500Y-108966000D01*
X267081000Y-111633000D02*
X267271500Y-111823500D01*
X313551000Y-108978000D02*
X311034000Y-108978000D01*
X302133000Y-106870500D02*
X312991500Y-106870500D01*
X267271500Y-111823500D02*
X267462000Y-112014000D01*
X313944000Y-108585000D02*
X313551000Y-108978000D01*
X312991500Y-106870500D02*
X313944000Y-107823000D01*
X267462000Y-112014000D02*
X282130500Y-112014000D01*
X313944000Y-107823000D02*
X313944000Y-108585000D01*
X270110000Y-110470000D02*
X267672500Y-110470000D01*
X258699000Y-115443000D02*
X127063500Y-115443000D01*
X297180000Y-113347500D02*
X260794500Y-113347500D01*
X127063500Y-115443000D02*
X123456000Y-111835500D01*
X260794500Y-113347500D02*
X258699000Y-115443000D01*
X123456000Y-111835500D02*
X118133500Y-111835500D01*
X300049500Y-110478000D02*
X297180000Y-113347500D01*
X306034000Y-110478000D02*
X300049500Y-110478000D01*
X90309000Y-108978000D02*
X82510000Y-108978000D01*
X113133500Y-113335500D02*
X94666500Y-113335500D01*
X94666500Y-113335500D02*
X90309000Y-108978000D01*
X27290000Y-27391817D02*
X27249817Y-27432000D01*
X215074500Y-17907000D02*
X29908500Y-17907000D01*
X213169500Y-19812000D02*
X213169500Y-30861000D01*
X205752803Y-75641303D02*
X204787500Y-74676000D01*
X21145500Y-84112317D02*
X21575000Y-84541817D01*
X215074500Y-17907000D02*
X213169500Y-19812000D01*
X200596500Y-48768000D02*
X194881500Y-48768000D01*
X21145500Y-80772000D02*
X21145500Y-84112317D01*
X23866017Y-46428483D02*
X23812500Y-46482000D01*
X213169500Y-30861000D02*
X211264500Y-32766000D01*
X195072000Y-42100500D02*
X196517085Y-40655415D01*
X29908500Y-17907000D02*
X27290000Y-20525500D01*
X27249817Y-27432000D02*
X23812500Y-27432000D01*
X27290000Y-20525500D02*
X27290000Y-27391817D01*
X194500500Y-44196000D02*
X195072000Y-43624500D01*
X210887070Y-58192044D02*
X208115544Y-58192044D01*
X206311500Y-95335261D02*
X208310377Y-97334138D01*
X194500500Y-48387000D02*
X194500500Y-44196000D01*
X206311500Y-94107000D02*
X206311500Y-95335261D01*
X208115544Y-58192044D02*
X207073500Y-57150000D01*
X205752803Y-78441230D02*
X205752803Y-75641303D01*
X194881500Y-48768000D02*
X194500500Y-48387000D01*
X292481000Y-17907000D02*
X215074500Y-17907000D01*
X195072000Y-43624500D02*
X195072000Y-42100500D01*
X28701196Y-65493560D02*
X28662756Y-65532000D01*
X196517085Y-40655415D02*
X200637654Y-40655415D01*
X28662756Y-65532000D02*
X23812500Y-65532000D01*
X295529000Y-20955000D02*
X292481000Y-17907000D01*
X203073000Y-32766000D02*
X200637654Y-35201346D01*
X26811560Y-46428483D02*
X23866017Y-46428483D01*
X200637654Y-35201346D02*
X200637654Y-40655415D01*
X211264500Y-32766000D02*
X203073000Y-32766000D01*
X231444538Y-93535500D02*
X231789753Y-93190285D01*
X216979500Y-18478500D02*
X214884000Y-20574000D01*
X40625000Y-84541817D02*
X40625000Y-88250000D01*
X54912500Y-65491817D02*
X49951183Y-65491817D01*
X209550000Y-18478500D02*
X207454500Y-18478500D01*
X47053500Y-79057500D02*
X42100500Y-79057500D01*
X223075500Y-18478500D02*
X218503500Y-23050500D01*
X228028500Y-93535500D02*
X231444538Y-93535500D01*
X185737500Y-113538000D02*
X185166000Y-113538000D01*
X46340000Y-20525500D02*
X48387000Y-18478500D01*
X46340000Y-27391817D02*
X45720000Y-28011817D01*
X185166000Y-113538000D02*
X184975500Y-113728500D01*
X40625000Y-88250000D02*
X40957500Y-88582500D01*
X229254549Y-54490938D02*
X226306062Y-54490938D01*
X46340000Y-27391817D02*
X46340000Y-20525500D01*
X47625000Y-45821817D02*
X47625000Y-44386500D01*
X211645500Y-20574000D02*
X209550000Y-18478500D01*
X224513391Y-75133233D02*
X224513391Y-77048109D01*
X207454500Y-18478500D02*
X48387000Y-18478500D01*
X224790000Y-110490000D02*
X224409000Y-110871000D01*
X223075500Y-18478500D02*
X216979500Y-18478500D01*
X224513391Y-77048109D02*
X222885000Y-78676500D01*
X46291500Y-43053000D02*
X45720000Y-43053000D01*
X218503500Y-23050500D02*
X218503500Y-36452675D01*
X292989000Y-20955000D02*
X290512500Y-18478500D01*
X42100500Y-79057500D02*
X40625000Y-80533000D01*
X219398242Y-40328242D02*
X219456000Y-40386000D01*
X45720000Y-28011817D02*
X45720000Y-30289500D01*
X220980000Y-112395000D02*
X208216500Y-112395000D01*
X40625000Y-80533000D02*
X40625000Y-84541817D01*
X47434500Y-78676500D02*
X47053500Y-79057500D01*
X189166500Y-114300000D02*
X188404500Y-113538000D01*
X188404500Y-113538000D02*
X185737500Y-113538000D01*
X49951183Y-65491817D02*
X49911000Y-65532000D01*
X229647657Y-54884046D02*
X229254549Y-54490938D01*
X290512500Y-18478500D02*
X223075500Y-18478500D01*
X224409000Y-110871000D02*
X222504000Y-110871000D01*
X222504000Y-110871000D02*
X220980000Y-112395000D01*
X48245000Y-46441817D02*
X47625000Y-45821817D01*
X218503500Y-36452675D02*
X219398242Y-37347417D01*
X47625000Y-44386500D02*
X46291500Y-43053000D01*
X219398242Y-37347417D02*
X219398242Y-40328242D01*
X290449000Y-20955000D02*
X288544000Y-19050000D01*
X208216500Y-19050000D02*
X210693000Y-21526500D01*
X71838885Y-66123885D02*
X71818500Y-66103500D01*
X65769979Y-45576979D02*
X65722500Y-45529500D01*
X242697000Y-68580000D02*
X242697000Y-71248257D01*
X72961500Y-84963000D02*
X73508005Y-85509505D01*
X73508005Y-85509505D02*
X76483414Y-85509505D01*
X238158830Y-37685170D02*
X238125000Y-37719000D01*
X247459500Y-48958500D02*
X245554500Y-48958500D01*
X288544000Y-19050000D02*
X239077500Y-19050000D01*
X238158830Y-34039420D02*
X238158830Y-37685170D01*
X247650000Y-49149000D02*
X247459500Y-48958500D01*
X237363000Y-33243590D02*
X238158830Y-34039420D01*
X68961000Y-19050000D02*
X208216500Y-19050000D01*
X76294990Y-66123885D02*
X71838885Y-66123885D01*
X224028000Y-19050000D02*
X221551500Y-21526500D01*
X237363000Y-20764500D02*
X237363000Y-33243590D01*
X239077500Y-19050000D02*
X224028000Y-19050000D01*
X239077500Y-19050000D02*
X237363000Y-20764500D01*
X248408245Y-51576048D02*
X247650000Y-50817803D01*
X66294000Y-27123455D02*
X66294000Y-28575000D01*
X242697000Y-71248257D02*
X243273978Y-71825235D01*
X67527304Y-25890151D02*
X67527304Y-20483696D01*
X247650000Y-50817803D02*
X247650000Y-49149000D01*
X67527304Y-25890151D02*
X66294000Y-27123455D01*
X69472270Y-45576979D02*
X65769979Y-45576979D01*
X67527304Y-20483696D02*
X68961000Y-19050000D01*
X260985000Y-19621500D02*
X240411000Y-19621500D01*
X257707130Y-88240870D02*
X256222500Y-89725500D01*
X252603000Y-109347000D02*
X231076500Y-109347000D01*
X88232858Y-48884976D02*
X88232858Y-46513358D01*
X86287891Y-29198149D02*
X86287891Y-21154109D01*
X267168833Y-48268050D02*
X267168833Y-50585167D01*
X95055577Y-69431884D02*
X95055577Y-67623577D01*
X260985000Y-19621500D02*
X256919417Y-23687083D01*
X86287891Y-29198149D02*
X84582000Y-32766000D01*
X256919417Y-23687083D02*
X256919417Y-30731422D01*
X206692500Y-111442500D02*
X220408500Y-111442500D01*
X256919417Y-30731422D02*
X256919417Y-33653417D01*
X259964336Y-88240870D02*
X257707130Y-88240870D01*
X254317500Y-91630500D02*
X254317500Y-93154500D01*
X220408500Y-111442500D02*
X222504000Y-109347000D01*
X100965000Y-89916000D02*
X104606571Y-90482872D01*
X230695500Y-20764500D02*
X223456500Y-28003500D01*
X287909000Y-20955000D02*
X286575500Y-19621500D01*
X161734500Y-112204500D02*
X189547500Y-112204500D01*
X88232858Y-46513358D02*
X85725000Y-44005500D01*
X207645000Y-19621500D02*
X211836000Y-23812500D01*
X222504000Y-109347000D02*
X227457000Y-109347000D01*
X146685000Y-112395000D02*
X145923000Y-113157000D01*
X235648500Y-20764500D02*
X230695500Y-20764500D01*
X259651500Y-87928034D02*
X259964336Y-88240870D01*
X149542500Y-110490000D02*
X160020000Y-110490000D01*
X95055577Y-67623577D02*
X92964000Y-65532000D01*
X256919417Y-33653417D02*
X256984500Y-33718500D01*
X145923000Y-113157000D02*
X126873000Y-113157000D01*
X189547500Y-112204500D02*
X192405000Y-109347000D01*
X256222500Y-89725500D02*
X254317500Y-91630500D01*
X160020000Y-110490000D02*
X161734500Y-112204500D01*
X267168833Y-50585167D02*
X266128500Y-51625500D01*
X123634500Y-109918500D02*
X109537500Y-109918500D01*
X262034566Y-70197434D02*
X260223000Y-72009000D01*
X149352000Y-110680500D02*
X149542500Y-110490000D01*
X253174500Y-108775500D02*
X252603000Y-109347000D01*
X259651500Y-84963000D02*
X259651500Y-87928034D01*
X87820500Y-19621500D02*
X207645000Y-19621500D01*
X126873000Y-113157000D02*
X123634500Y-109918500D01*
X86287891Y-21154109D02*
X87820500Y-19621500D01*
X240411000Y-19621500D02*
X239268000Y-20764500D01*
X286575500Y-19621500D02*
X260985000Y-19621500D01*
X262034566Y-68517237D02*
X262034566Y-70197434D01*
X223456500Y-28003500D02*
X219646500Y-28003500D01*
X283322000Y-65491817D02*
X283091317Y-65722500D01*
X284035500Y-105346500D02*
X283654500Y-105727500D01*
X193548000Y-108394500D02*
X194500500Y-109347000D01*
X162306000Y-111633000D02*
X188595000Y-111633000D01*
X283845000Y-84391500D02*
X283995317Y-84541817D01*
X220789500Y-110109000D02*
X211645500Y-110109000D01*
X103441500Y-34113126D02*
X103441500Y-35052000D01*
X288084500Y-46441817D02*
X287464500Y-47061817D01*
X106993445Y-52192974D02*
X106680000Y-51879529D01*
X105918000Y-48958500D02*
X104775000Y-48958500D01*
X254889000Y-107823000D02*
X250317000Y-107823000D01*
X188595000Y-111633000D02*
X191833500Y-108394500D01*
X250317000Y-107823000D02*
X231076500Y-107823000D01*
X113816165Y-72739882D02*
X111092618Y-72739882D01*
X290512500Y-43434000D02*
X288988500Y-43434000D01*
X160210500Y-109537500D02*
X162306000Y-111633000D01*
X200882250Y-109061250D02*
X206216250Y-109061250D01*
X194500500Y-109347000D02*
X200596500Y-109347000D01*
X223075500Y-107823000D02*
X220789500Y-110109000D01*
X287464500Y-47061817D02*
X287464500Y-49149000D01*
X143827500Y-112204500D02*
X128016000Y-112204500D01*
X148780500Y-109537500D02*
X160210500Y-109537500D01*
X261747000Y-105727500D02*
X256984500Y-105727500D01*
X281559000Y-38671500D02*
X284416500Y-41529000D01*
X122301000Y-100584000D02*
X123634500Y-100584000D01*
X128016000Y-112204500D02*
X124968000Y-109156500D01*
X288084500Y-44338000D02*
X288084500Y-46441817D01*
X255460500Y-107251500D02*
X254889000Y-107823000D01*
X283654500Y-105727500D02*
X264795000Y-105727500D01*
X288988500Y-43434000D02*
X288084500Y-44338000D01*
X227457000Y-107823000D02*
X223075500Y-107823000D01*
X123634500Y-100584000D02*
X123825000Y-100584000D01*
X121539000Y-99822000D02*
X122301000Y-100584000D01*
X191833500Y-108394500D02*
X193548000Y-108394500D01*
X278559500Y-28717000D02*
X278511000Y-28765500D01*
X123825000Y-100584000D02*
X124206000Y-100965000D01*
X106680000Y-49720500D02*
X105918000Y-48958500D01*
X111092618Y-72739882D02*
X111061500Y-72771000D01*
X278559500Y-26439317D02*
X278559500Y-28717000D01*
X256984500Y-105727500D02*
X255460500Y-107251500D01*
X144208500Y-112204500D02*
X143827500Y-112204500D01*
X283995317Y-84541817D02*
X288084500Y-84541817D01*
X106680000Y-51879529D02*
X106680000Y-49720500D01*
X105048479Y-32506147D02*
X103441500Y-34113126D01*
X200596500Y-109347000D02*
X200882250Y-109061250D01*
X145161000Y-111252000D02*
X144208500Y-112204500D01*
X283091317Y-65722500D02*
X280035000Y-65722500D01*
X132576753Y-74474253D02*
X130302000Y-72199500D01*
X297751500Y-100774500D02*
X281749500Y-100774500D01*
X155638500Y-103822500D02*
X150304500Y-103822500D01*
X274701000Y-101536500D02*
X272034000Y-104203500D01*
X281749500Y-100774500D02*
X280606500Y-99631500D01*
X130302000Y-92011500D02*
X130302000Y-94914556D01*
X188214000Y-110680500D02*
X162496500Y-110680500D01*
X203263500Y-107632500D02*
X199644000Y-104013000D01*
X150304500Y-103822500D02*
X145351500Y-108775500D01*
X261366000Y-104203500D02*
X256413000Y-104203500D01*
X256413000Y-104203500D02*
X254127000Y-106489500D01*
X196977000Y-104013000D02*
X193357500Y-107632500D01*
X307848000Y-100774500D02*
X302323500Y-100774500D01*
X276606000Y-99631500D02*
X274701000Y-101536500D01*
X193357500Y-107632500D02*
X191262000Y-107632500D01*
X123809067Y-36782433D02*
X122301000Y-38290500D01*
X123809067Y-35814146D02*
X123809067Y-36782433D01*
X280606500Y-99631500D02*
X276606000Y-99631500D01*
X306133500Y-45440817D02*
X307134500Y-46441817D01*
X132576753Y-76047878D02*
X132576753Y-74474253D01*
X301561500Y-30099000D02*
X302372000Y-29288500D01*
X125754033Y-53745033D02*
X123444000Y-51435000D01*
X302372000Y-29288500D02*
X302372000Y-27391817D01*
X306133500Y-43624500D02*
X306133500Y-45440817D01*
X162496500Y-110680500D02*
X155638500Y-103822500D01*
X254127000Y-106489500D02*
X253936500Y-106680000D01*
X229362000Y-104775000D02*
X211455000Y-107632500D01*
X125754033Y-55500972D02*
X125754033Y-53745033D01*
X130302000Y-94914556D02*
X130394390Y-95006946D01*
X301752000Y-68580000D02*
X302372000Y-67960000D01*
X145351500Y-108775500D02*
X132016500Y-106108500D01*
X191262000Y-107632500D02*
X188214000Y-110680500D01*
X253936500Y-106680000D02*
X232029000Y-106680000D01*
X272034000Y-104203500D02*
X264795000Y-104203500D01*
X306324000Y-83731317D02*
X307134500Y-84541817D01*
X207645000Y-107632500D02*
X203263500Y-107632500D01*
X306324000Y-81724500D02*
X306324000Y-83731317D01*
X302372000Y-67960000D02*
X302372000Y-65491817D01*
X199644000Y-104013000D02*
X196977000Y-104013000D01*
X148067000Y-31519500D02*
X148067000Y-29860000D01*
X285940500Y-25336500D02*
X284607000Y-24003000D01*
X166497000Y-31421000D02*
X166497000Y-27622500D01*
X303149000Y-36175000D02*
X299549500Y-32575500D01*
X148067000Y-29860000D02*
X149352000Y-28575000D01*
X203835000Y-22479000D02*
X191262000Y-22479000D01*
X288988500Y-26860500D02*
X287464500Y-26860500D01*
X164592000Y-25717500D02*
X186690000Y-25717500D01*
X153924000Y-28575000D02*
X156781500Y-25717500D01*
X166497000Y-27622500D02*
X164592000Y-25717500D01*
X149352000Y-28575000D02*
X153924000Y-28575000D01*
X188356000Y-27383500D02*
X188356000Y-31599500D01*
X186690000Y-25717500D02*
X188356000Y-27383500D01*
X284607000Y-24003000D02*
X278511000Y-24003000D01*
X299549500Y-32575500D02*
X297370500Y-32575500D01*
X156781500Y-25717500D02*
X164592000Y-25717500D01*
X287464500Y-26860500D02*
X285940500Y-25336500D01*
X278892000Y-39624000D02*
X277368000Y-41148000D01*
X203962429Y-54736571D02*
X203786173Y-54736571D01*
X186309000Y-52006500D02*
X198310500Y-52006500D01*
X272224500Y-42291000D02*
X203962429Y-54736571D01*
X203786173Y-54736571D02*
X203746872Y-54775872D01*
X198310500Y-52006500D02*
X200787000Y-54483000D01*
X277368000Y-41148000D02*
X272224500Y-42291000D01*
X190500000Y-76390500D02*
X186812500Y-80078000D01*
X186812500Y-80078000D02*
X184912000Y-80078000D01*
M02*
