G04 #@! TF.GenerationSoftware,KiCad,Pcbnew,(6.0.2-0)*
G04 #@! TF.CreationDate,2022-02-23T09:44:19+09:00*
G04 #@! TF.ProjectId,aliceball,616c6963-6562-4616-9c6c-2e6b69636164,rev?*
G04 #@! TF.SameCoordinates,Original*
G04 #@! TF.FileFunction,Copper,L1,Top*
G04 #@! TF.FilePolarity,Positive*
%FSLAX46Y46*%
G04 Gerber Fmt 4.6, Leading zero omitted, Abs format (unit mm)*
G04 Created by KiCad (PCBNEW (6.0.2-0)) date 2022-02-23 09:44:19*
%MOMM*%
%LPD*%
G01*
G04 APERTURE LIST*
G04 #@! TA.AperFunction,ComponentPad*
%ADD10R,1.800000X1.800000*%
G04 #@! TD*
G04 #@! TA.AperFunction,ComponentPad*
%ADD11C,1.800000*%
G04 #@! TD*
G04 #@! TA.AperFunction,ComponentPad*
%ADD12C,2.000000*%
G04 #@! TD*
G04 #@! TA.AperFunction,ComponentPad*
%ADD13R,3.200000X2.500000*%
G04 #@! TD*
G04 #@! TA.AperFunction,ComponentPad*
%ADD14O,1.500000X1.500000*%
G04 #@! TD*
G04 #@! TA.AperFunction,ComponentPad*
%ADD15C,1.524000*%
G04 #@! TD*
G04 #@! TA.AperFunction,ViaPad*
%ADD16C,0.800000*%
G04 #@! TD*
G04 #@! TA.AperFunction,Conductor*
%ADD17C,0.250000*%
G04 #@! TD*
G04 #@! TA.AperFunction,Conductor*
%ADD18C,0.500000*%
G04 #@! TD*
G04 APERTURE END LIST*
D10*
X184912000Y-74998000D03*
D11*
X184912000Y-77538000D03*
X184912000Y-80078000D03*
X184912000Y-82618000D03*
X184912000Y-85158000D03*
X184912000Y-87698000D03*
X184912000Y-90238000D03*
X184912000Y-92778000D03*
D12*
X173856000Y-31599500D03*
X173856000Y-34099500D03*
X173856000Y-36599500D03*
D13*
X181356000Y-28499500D03*
X181356000Y-39699500D03*
D12*
X188356000Y-31599500D03*
X188356000Y-36599500D03*
D14*
X167854000Y-22719500D03*
X165354000Y-22719500D03*
X162854000Y-22719500D03*
D12*
X309360500Y-20764500D03*
X315860500Y-20764500D03*
X166497000Y-31421000D03*
X166497000Y-37921000D03*
D15*
X275209000Y-20955000D03*
X275209000Y-36175000D03*
X277749000Y-36175000D03*
X280289000Y-36175000D03*
X282829000Y-36175000D03*
X285369000Y-36175000D03*
X287909000Y-36175000D03*
X290449000Y-36175000D03*
X292989000Y-36175000D03*
X295529000Y-36175000D03*
X298069000Y-36175000D03*
X300609000Y-36175000D03*
X303149000Y-36175000D03*
X305689000Y-36175000D03*
X305689000Y-20955000D03*
X303149000Y-20955000D03*
X300609000Y-20955000D03*
X298069000Y-20955000D03*
X295529000Y-20955000D03*
X292989000Y-20955000D03*
X290449000Y-20955000D03*
X287909000Y-20955000D03*
X285369000Y-20955000D03*
X282829000Y-20955000D03*
X280289000Y-20955000D03*
X277749000Y-20955000D03*
D16*
X145161000Y-43243500D03*
X270248151Y-33408849D03*
X192214500Y-47053500D03*
X148399500Y-43243500D03*
X274598000Y-37719000D03*
X195643500Y-46101000D03*
X171069000Y-63817500D03*
X283845000Y-50863500D03*
X174307500Y-45720000D03*
X207835500Y-63436500D03*
X286321500Y-50863500D03*
X210502500Y-63436500D03*
X299977000Y-70736000D03*
X295084500Y-39433500D03*
X298132500Y-39814500D03*
X299466000Y-38862000D03*
X304739500Y-89786000D03*
X68961000Y-89916000D03*
X72390000Y-90106500D03*
X280225500Y-90106500D03*
X296037000Y-38671500D03*
X283647199Y-89810637D03*
X79438500Y-36385500D03*
X253365000Y-39814500D03*
X321373500Y-92773500D03*
X315277500Y-110490000D03*
X277749000Y-74104500D03*
X241173000Y-80200500D03*
X244792500Y-60388500D03*
X247269000Y-98679000D03*
X52768500Y-110490000D03*
X98298000Y-39624000D03*
X35433000Y-92773500D03*
X119443500Y-62674500D03*
X235648500Y-42862500D03*
X321183000Y-54673500D03*
X220599000Y-84010500D03*
X255841500Y-80391000D03*
X126301500Y-83248500D03*
X223647000Y-102870000D03*
X116967000Y-43053000D03*
X168402000Y-54864000D03*
X297370500Y-73723500D03*
X136017000Y-46291500D03*
X301942500Y-54673500D03*
X207835500Y-88963500D03*
X87630000Y-110299500D03*
X100393500Y-59436000D03*
X122301000Y-113157000D03*
X208026000Y-55435500D03*
X143827500Y-27622500D03*
X258889500Y-77343000D03*
X81534000Y-56007000D03*
X162496500Y-39433500D03*
X107061000Y-80010000D03*
X223266000Y-111823500D03*
X211074000Y-28384500D03*
X144780000Y-86868000D03*
X282130500Y-109728000D03*
X88582500Y-96012000D03*
X263461500Y-57150000D03*
X59817000Y-35814000D03*
X316611000Y-34671000D03*
X271843500Y-36385500D03*
X98298000Y-88963500D03*
X54102000Y-92773500D03*
X282702000Y-53911500D03*
X40767000Y-54673500D03*
X204787500Y-56959500D03*
X68389500Y-73723500D03*
X101155500Y-85915500D03*
X142875000Y-105537000D03*
X138303000Y-65913000D03*
X246126000Y-113157000D03*
X40386000Y-35623500D03*
X61824521Y-54761479D03*
X204025500Y-90297000D03*
X159829500Y-113347500D03*
X276415500Y-93726000D03*
X42481500Y-73723500D03*
X211645500Y-49530000D03*
X88582500Y-76581000D03*
X216598500Y-46291500D03*
X122682000Y-102108000D03*
X302323500Y-92773500D03*
X317182500Y-73723500D03*
X201739500Y-57721500D03*
X226123500Y-63817500D03*
X211836000Y-25908000D03*
X315468000Y-33147000D03*
X308229000Y-36957000D03*
X319849500Y-52959000D03*
X315087000Y-72009000D03*
X308419500Y-54673500D03*
X303657000Y-73723500D03*
X319849500Y-91059000D03*
X308038500Y-92773500D03*
X304419000Y-92773500D03*
X289179000Y-92773500D03*
X295846500Y-72199500D03*
X300990000Y-53149500D03*
X284226000Y-73723500D03*
X289179000Y-54673500D03*
X291465000Y-32575500D03*
X275463000Y-33909000D03*
X271653000Y-34861500D03*
X281178000Y-52578000D03*
X259080000Y-38481000D03*
X268605000Y-62952500D03*
X269580858Y-61093141D03*
X269557500Y-56197500D03*
X276606000Y-72771000D03*
X274891500Y-92583000D03*
X264604500Y-76390500D03*
X257175000Y-76200000D03*
X262128000Y-96393000D03*
X245554500Y-79629000D03*
X262128000Y-56007000D03*
X252031500Y-38481000D03*
X250698000Y-59436000D03*
X236791500Y-41338500D03*
X239839500Y-42100500D03*
X243268500Y-59055000D03*
X221932500Y-45339000D03*
X232219500Y-62865000D03*
X239268000Y-79248000D03*
X226695000Y-83058000D03*
X245173500Y-97536000D03*
X234124500Y-100965000D03*
X230695500Y-100393500D03*
X210883500Y-105156000D03*
X219265500Y-82867500D03*
X224599500Y-62674500D03*
X208216500Y-86487000D03*
X213550500Y-65913000D03*
X214693500Y-45148500D03*
X203454000Y-48577500D03*
X196024500Y-47434500D03*
X192214500Y-48577500D03*
X144589500Y-48577500D03*
X200977500Y-47244000D03*
X148399500Y-48577500D03*
X137160000Y-64008000D03*
X123444000Y-44196000D03*
X125730000Y-63817500D03*
X144018000Y-85153500D03*
X132588000Y-84582000D03*
X141732000Y-104013000D03*
X130111500Y-103251000D03*
X128206500Y-82296000D03*
X118110000Y-61150500D03*
X113157000Y-80962500D03*
X116014500Y-41338500D03*
X106299000Y-60579000D03*
X102298500Y-39052500D03*
X104584500Y-40957500D03*
X85915500Y-37338000D03*
X99060000Y-57721500D03*
X106299000Y-78295500D03*
X87630000Y-57340500D03*
X116014500Y-99441000D03*
X94869000Y-77914500D03*
X104203500Y-98869500D03*
X101536500Y-97155000D03*
X75819000Y-93916500D03*
X87630000Y-75057000D03*
X80581500Y-54483000D03*
X76200000Y-74485500D03*
X69151500Y-53911500D03*
X78295500Y-34861500D03*
X63246000Y-34290000D03*
X66865500Y-34290000D03*
X60579000Y-53149500D03*
X47053500Y-35623500D03*
X48768000Y-54673500D03*
X67246500Y-72199500D03*
X56007000Y-73723500D03*
X57531000Y-91249500D03*
X38671500Y-92773500D03*
X41719500Y-92773500D03*
X41338500Y-72199500D03*
X22860000Y-92773500D03*
X39433500Y-53149500D03*
X29718000Y-73723500D03*
X39433500Y-34099500D03*
X27622500Y-54673500D03*
X160782000Y-37909500D03*
X28575000Y-35623500D03*
X149542500Y-39433500D03*
X146113500Y-26098500D03*
X197739000Y-27622500D03*
X196405500Y-53530500D03*
X158686500Y-57340500D03*
X163830000Y-113347500D03*
X204406500Y-111823500D03*
X187642500Y-114490500D03*
X232219500Y-110299500D03*
X229552500Y-112204500D03*
X265938000Y-106489500D03*
X263842500Y-108585000D03*
X300037500Y-108966000D03*
X301752000Y-107251500D03*
X206311500Y-94107000D03*
X207073500Y-57150000D03*
X23812500Y-46482000D03*
X200596500Y-48768000D03*
X204787500Y-74676000D03*
X21145500Y-80772000D03*
X23812500Y-65532000D03*
X23812500Y-27432000D03*
X208216500Y-112395000D03*
X40957500Y-88582500D03*
X45720000Y-43053000D03*
X224790000Y-110490000D03*
X189166500Y-114300000D03*
X219456000Y-40386000D03*
X228028500Y-93535500D03*
X49911000Y-65532000D03*
X211645500Y-20574000D03*
X222885000Y-78676500D03*
X214884000Y-20574000D03*
X45720000Y-30289500D03*
X47434500Y-78676500D03*
X226306062Y-54490938D03*
X184975500Y-113728500D03*
X72961500Y-84963000D03*
X221551500Y-21526500D03*
X65722500Y-45529500D03*
X210693000Y-21526500D03*
X238125000Y-37719000D03*
X66294000Y-28575000D03*
X242697000Y-68580000D03*
X71818500Y-66103500D03*
X245554500Y-48958500D03*
X219646500Y-28003500D03*
X149352000Y-110680500D03*
X109537500Y-109918500D03*
X85725000Y-44005500D03*
X253174500Y-108775500D03*
X235648500Y-20764500D03*
X84582000Y-32766000D03*
X239268000Y-20764500D03*
X100965000Y-89916000D03*
X192405000Y-109347000D03*
X259651500Y-84963000D03*
X227457000Y-109347000D03*
X256984500Y-33718500D03*
X260223000Y-72009000D03*
X266128500Y-51625500D03*
X231076500Y-109347000D03*
X92964000Y-65532000D03*
X146685000Y-112395000D03*
X206692500Y-111442500D03*
X211836000Y-23812500D03*
X254317500Y-93154500D03*
X264795000Y-105727500D03*
X231076500Y-107823000D03*
X121539000Y-99822000D03*
X261747000Y-105727500D03*
X284416500Y-41529000D03*
X124968000Y-109156500D03*
X287464500Y-49149000D03*
X211645500Y-110109000D03*
X145161000Y-111252000D03*
X206216250Y-109061250D03*
X111061500Y-72771000D03*
X283845000Y-84391500D03*
X104775000Y-48958500D03*
X148780500Y-109537500D03*
X227457000Y-107823000D03*
X103441500Y-35052000D03*
X290512500Y-43434000D03*
X278511000Y-28765500D03*
X281559000Y-38671500D03*
X280035000Y-65722500D03*
X124206000Y-100965000D03*
X284035500Y-105346500D03*
X297751500Y-100774500D03*
X261366000Y-104203500D03*
X130302000Y-92011500D03*
X122301000Y-38290500D03*
X232029000Y-106680000D03*
X302323500Y-100774500D03*
X301561500Y-30099000D03*
X264795000Y-104203500D03*
X123444000Y-51435000D03*
X207645000Y-107632500D03*
X130302000Y-72199500D03*
X229362000Y-104775000D03*
X306133500Y-43624500D03*
X307848000Y-100774500D03*
X301752000Y-68580000D03*
X306324000Y-81724500D03*
X211455000Y-107632500D03*
X132016500Y-106108500D03*
X297370500Y-32575500D03*
X203835000Y-22479000D03*
X191262000Y-22479000D03*
X288988500Y-26860500D03*
X278511000Y-24003000D03*
X186309000Y-52006500D03*
X278892000Y-39624000D03*
X203746872Y-54775872D03*
X200787000Y-54483000D03*
X204693854Y-53433646D03*
X277749000Y-38671500D03*
X183832500Y-51054000D03*
X200787000Y-52387500D03*
X294894000Y-23050500D03*
X190500000Y-76390500D03*
D17*
X245554500Y-79629000D02*
X244030500Y-78105000D01*
X244030500Y-77914500D02*
X243078000Y-71247000D01*
X244030500Y-78105000D02*
X244030500Y-77914500D01*
X243078000Y-71247000D02*
X243078000Y-71056500D01*
X243078000Y-71056500D02*
X252984000Y-61531500D01*
X252984000Y-61531500D02*
X259461000Y-61531500D01*
X259461000Y-61531500D02*
X262509000Y-58102500D01*
X262509000Y-58102500D02*
X262128000Y-56007000D01*
X276606000Y-72771000D02*
X275653500Y-67056000D01*
X268605000Y-65341500D02*
X268605000Y-62952500D01*
X275653500Y-67056000D02*
X270319500Y-67056000D01*
X270319500Y-67056000D02*
X268605000Y-65341500D01*
X202311000Y-48577500D02*
X200977500Y-47244000D01*
X203454000Y-48577500D02*
X202311000Y-48577500D01*
X200787000Y-52387500D02*
X201833146Y-53433646D01*
X201833146Y-53433646D02*
X204693854Y-53433646D01*
X300609000Y-20955000D02*
X300609000Y-19812000D01*
X198501000Y-56769000D02*
X195643500Y-59626500D01*
X299275500Y-18478500D02*
X204216000Y-18478500D01*
X195643500Y-59626500D02*
X195643500Y-73914000D01*
X204216000Y-18478500D02*
X200215500Y-22479000D01*
X200215500Y-22479000D02*
X200215500Y-45148500D01*
X300609000Y-19812000D02*
X299275500Y-18478500D01*
X198501000Y-46863000D02*
X198501000Y-56769000D01*
X200215500Y-45148500D02*
X198501000Y-46863000D01*
X195643500Y-73914000D02*
X192019500Y-77538000D01*
X192019500Y-77538000D02*
X184912000Y-77538000D01*
X303149000Y-20955000D02*
X303149000Y-19875500D01*
X303149000Y-19875500D02*
X301180500Y-17907000D01*
X197929500Y-46482000D02*
X197929500Y-56388000D01*
X197929500Y-56388000D02*
X194881500Y-59436000D01*
X301180500Y-17907000D02*
X204025500Y-17907000D01*
X199644000Y-22288500D02*
X199644000Y-44767500D01*
X204025500Y-17907000D02*
X199644000Y-22288500D01*
X194881500Y-59436000D02*
X194881500Y-73533000D01*
X199644000Y-44767500D02*
X197929500Y-46482000D01*
X194881500Y-73533000D02*
X192024000Y-76390500D01*
X192024000Y-76390500D02*
X190500000Y-76390500D01*
X246507000Y-65532000D02*
X243459000Y-68580000D01*
X208216500Y-112395000D02*
X206121000Y-112395000D01*
X206121000Y-112395000D02*
X203835000Y-114681000D01*
X203835000Y-114681000D02*
X189547500Y-114681000D01*
X189547500Y-114681000D02*
X189166500Y-114300000D01*
X199644000Y-52387500D02*
X199644000Y-56959500D01*
X195643500Y-46101000D02*
X195072000Y-47053500D01*
X274598000Y-37719000D02*
X270319500Y-37719000D01*
X145161000Y-43243500D02*
X148399500Y-43243500D01*
X270319500Y-37719000D02*
X270248151Y-37647651D01*
X270248151Y-37647651D02*
X270248151Y-33408849D01*
X195072000Y-47053500D02*
X192214500Y-47053500D01*
X282130500Y-42100500D02*
X283845000Y-50863500D01*
X286321500Y-50863500D02*
X283845000Y-50863500D01*
X210502500Y-63436500D02*
X207835500Y-63436500D01*
X284416500Y-39814500D02*
X282130500Y-42100500D01*
X172402500Y-62484000D02*
X172402500Y-62103000D01*
X288607500Y-39814500D02*
X284416500Y-39814500D01*
X290449000Y-36175000D02*
X290449000Y-37973000D01*
X172402500Y-47625000D02*
X174307500Y-45720000D01*
X171069000Y-63817500D02*
X172402500Y-62484000D01*
X172402500Y-62103000D02*
X172402500Y-47625000D01*
X290449000Y-37973000D02*
X288607500Y-39814500D01*
X298132500Y-39814500D02*
X299499021Y-41181021D01*
X292989000Y-37338000D02*
X295084500Y-39433500D01*
X303466500Y-61150500D02*
X299977000Y-64640000D01*
X303466500Y-46482000D02*
X303466500Y-61150500D01*
X299977000Y-64640000D02*
X299977000Y-70736000D01*
X292989000Y-36175000D02*
X292989000Y-37338000D01*
X299499021Y-42514521D02*
X303466500Y-46482000D01*
X299499021Y-41181021D02*
X299499021Y-42514521D01*
X304228500Y-45910500D02*
X304228500Y-61531500D01*
X295529000Y-38163500D02*
X296037000Y-38671500D01*
X300799500Y-42481500D02*
X304228500Y-45910500D01*
X300418500Y-38862000D02*
X300799500Y-39243000D01*
X299466000Y-38862000D02*
X300418500Y-38862000D01*
X68961000Y-89916000D02*
X72390000Y-90106500D01*
X304228500Y-61531500D02*
X300799500Y-64960500D01*
X300799500Y-39243000D02*
X300799500Y-42481500D01*
X295529000Y-36175000D02*
X295529000Y-38163500D01*
X304739500Y-81473500D02*
X304739500Y-89786000D01*
X280225500Y-90106500D02*
X283647199Y-89810637D01*
X300799500Y-64960500D02*
X300799500Y-77533500D01*
X300799500Y-77533500D02*
X304739500Y-81473500D01*
D18*
X162854000Y-24170000D02*
X164020500Y-25336500D01*
X321183000Y-55626000D02*
X317944500Y-58864500D01*
X250126500Y-86106000D02*
X244792500Y-86106000D01*
X35623500Y-82296000D02*
X35623500Y-92583000D01*
X302323500Y-80200500D02*
X302323500Y-92773500D01*
D17*
X280289000Y-20955000D02*
X286004000Y-26670000D01*
D18*
X35623500Y-92583000D02*
X35433000Y-92773500D01*
X158115000Y-109728000D02*
X151447500Y-109728000D01*
X278701500Y-41529000D02*
X280606500Y-41529000D01*
X54102000Y-92773500D02*
X54204521Y-92670979D01*
X244221000Y-115062000D02*
X246126000Y-113157000D01*
X40767000Y-58864500D02*
X42481500Y-60579000D01*
X159829500Y-113347500D02*
X159829500Y-111442500D01*
X297370500Y-75247500D02*
X301752000Y-79629000D01*
X317182500Y-59626500D02*
X317182500Y-73723500D01*
D17*
X286893000Y-26670000D02*
X288417000Y-28194000D01*
D18*
X122682000Y-112776000D02*
X122301000Y-113157000D01*
X42481500Y-73723500D02*
X42481500Y-74676000D01*
X223266000Y-111823500D02*
X226504500Y-115062000D01*
X297370500Y-73723500D02*
X297370500Y-75247500D01*
X317754000Y-33528000D02*
X316611000Y-34671000D01*
X35623500Y-81534000D02*
X35623500Y-82296000D01*
X219265500Y-73914000D02*
X220789500Y-83248500D01*
X68389500Y-73723500D02*
X68389500Y-82867500D01*
X263461500Y-62388750D02*
X257175000Y-68770500D01*
X151447500Y-109728000D02*
X147256500Y-105537000D01*
X94107000Y-96202500D02*
X88773000Y-96202500D01*
X246126000Y-113157000D02*
X285559500Y-113157000D01*
X87820500Y-81343500D02*
X90868500Y-84582000D01*
X302323500Y-97917000D02*
X310896000Y-106489500D01*
X244792500Y-86106000D02*
X247269000Y-98679000D01*
D17*
X285770000Y-36175000D02*
X285369000Y-36175000D01*
D18*
X144018000Y-27813000D02*
X144018000Y-42672000D01*
X321373500Y-100393500D02*
X316611000Y-105156000D01*
X46291500Y-79819500D02*
X42481500Y-76009500D01*
X58483500Y-92773500D02*
X54102000Y-92773500D01*
X255841500Y-80391000D02*
X250126500Y-86106000D01*
X107061000Y-80010000D02*
X101155500Y-85915500D01*
X121729500Y-49530000D02*
X116776500Y-44767500D01*
X137731500Y-113157000D02*
X142875000Y-108013500D01*
X167640000Y-25336500D02*
X168402000Y-24574500D01*
X128206500Y-71628000D02*
X119443500Y-62674500D01*
X142875000Y-105537000D02*
X145732500Y-90487500D01*
X54204521Y-81636521D02*
X52387500Y-79819500D01*
X315860500Y-20764500D02*
X315860500Y-26300500D01*
X145732500Y-90487500D02*
X144780000Y-86868000D01*
X42481500Y-60579000D02*
X42481500Y-73723500D01*
X316611000Y-38290500D02*
X320230500Y-41910000D01*
X88773000Y-96202500D02*
X88582500Y-96012000D01*
X40767000Y-54673500D02*
X40767000Y-58864500D01*
X102870000Y-45339000D02*
X98298000Y-39624000D01*
X140398500Y-46291500D02*
X136017000Y-46291500D01*
X159829500Y-111442500D02*
X158115000Y-109728000D01*
X285559500Y-113157000D02*
X286321500Y-113919000D01*
X68389500Y-82867500D02*
X58483500Y-92773500D01*
X257175000Y-68770500D02*
X258889500Y-77343000D01*
X61824521Y-56490521D02*
X68492021Y-63158021D01*
X247269000Y-112014000D02*
X246126000Y-113157000D01*
X83629500Y-43624500D02*
X81534000Y-56007000D01*
X275844000Y-36810000D02*
X275844000Y-38671500D01*
X42481500Y-74676000D02*
X42291000Y-74866500D01*
X40386000Y-35623500D02*
X40767000Y-36004500D01*
X276415500Y-93726000D02*
X273939000Y-80581500D01*
X122301000Y-113157000D02*
X137731500Y-113157000D01*
X321373500Y-92773500D02*
X321373500Y-100393500D01*
X109347000Y-68199000D02*
X109156500Y-68008500D01*
X164020500Y-25336500D02*
X167640000Y-25336500D01*
X40767000Y-36004500D02*
X40767000Y-54673500D01*
X204787500Y-56959500D02*
X202501500Y-56959500D01*
X100393500Y-59436000D02*
X102489000Y-47815500D01*
X147066000Y-74866500D02*
X144780000Y-86868000D01*
X102489000Y-47815500D02*
X102870000Y-45339000D01*
X223647000Y-102870000D02*
X223647000Y-111442500D01*
X235648500Y-43053000D02*
X236601000Y-48006000D01*
X61824521Y-54761479D02*
X61824521Y-56490521D01*
X277749000Y-74104500D02*
X275653500Y-62103000D01*
X122682000Y-102108000D02*
X126301500Y-83248500D01*
X126301500Y-83248500D02*
X128206500Y-71628000D01*
X317754000Y-28194000D02*
X317754000Y-33528000D01*
X282702000Y-53911500D02*
X282702000Y-55054500D01*
X107061000Y-80010000D02*
X109347000Y-68199000D01*
X275209000Y-36175000D02*
X275844000Y-36810000D01*
X275844000Y-38671500D02*
X278701500Y-41529000D01*
X220599000Y-84010500D02*
X223647000Y-102870000D01*
X316611000Y-34671000D02*
X316611000Y-38290500D01*
X235648500Y-42862500D02*
X235648500Y-43053000D01*
X315860500Y-26300500D02*
X317754000Y-28194000D01*
X202501500Y-56959500D02*
X201739500Y-57721500D01*
X168402000Y-35814000D02*
X168402000Y-24574500D01*
X122682000Y-102108000D02*
X122682000Y-112776000D01*
X247269000Y-98679000D02*
X247269000Y-112014000D01*
X271843500Y-36385500D02*
X275209000Y-36175000D01*
X59817000Y-35814000D02*
X61824521Y-37821521D01*
X168402000Y-45339000D02*
X168402000Y-54864000D01*
X242697000Y-48958500D02*
X244792500Y-60388500D01*
X140970000Y-50673000D02*
X136017000Y-46291500D01*
X253365000Y-39814500D02*
X263461500Y-49911000D01*
X310896000Y-106489500D02*
X315277500Y-106489500D01*
X317944500Y-58864500D02*
X317182500Y-59626500D01*
X302323500Y-92773500D02*
X302323500Y-97917000D01*
X42481500Y-76009500D02*
X42481500Y-74676000D01*
X282829000Y-36175000D02*
X282702000Y-39814500D01*
X321183000Y-42862500D02*
X321183000Y-54673500D01*
X162496500Y-39433500D02*
X168402000Y-45339000D01*
X320230500Y-41910000D02*
X321183000Y-42862500D01*
X54102000Y-109156500D02*
X52768500Y-110490000D01*
X236601000Y-48006000D02*
X242697000Y-48958500D01*
X144018000Y-42672000D02*
X140398500Y-46291500D01*
X170116500Y-34099500D02*
X173856000Y-34099500D01*
X88582500Y-96012000D02*
X88582500Y-109347000D01*
X42291000Y-74866500D02*
X35623500Y-81534000D01*
X88582500Y-76581000D02*
X87820500Y-81343500D01*
X204025500Y-90297000D02*
X207835500Y-88963500D01*
D17*
X286004000Y-26670000D02*
X286893000Y-26670000D01*
D18*
X241173000Y-80200500D02*
X241935000Y-83439000D01*
X208026000Y-55435500D02*
X211645500Y-51816000D01*
X142875000Y-108013500D02*
X142875000Y-105537000D01*
X61824521Y-37821521D02*
X61824521Y-54761479D01*
X98298000Y-88963500D02*
X98488500Y-91821000D01*
X301942500Y-54673500D02*
X301942500Y-61150500D01*
X79438500Y-36385500D02*
X83629500Y-43624500D01*
X321183000Y-54673500D02*
X321183000Y-55626000D01*
X54204521Y-92670979D02*
X54204521Y-81636521D01*
X282130500Y-109728000D02*
X286321500Y-113919000D01*
X81534000Y-56007000D02*
X90678000Y-64579500D01*
X144018000Y-42672000D02*
X145161000Y-41529000D01*
X119443500Y-62674500D02*
X121729500Y-49530000D01*
X276415500Y-93726000D02*
X282130500Y-100203000D01*
X282702000Y-55054500D02*
X275653500Y-62103000D01*
X263461500Y-57150000D02*
X263461500Y-62388750D01*
X162854000Y-22719500D02*
X162854000Y-24170000D01*
X168402000Y-45339000D02*
X168402000Y-35814000D01*
X147256500Y-105537000D02*
X142875000Y-105537000D01*
X273939000Y-80581500D02*
X277749000Y-74104500D01*
X90678000Y-64579500D02*
X88582500Y-76581000D01*
X321373500Y-77914500D02*
X321373500Y-92773500D01*
X223837500Y-50863500D02*
X216598500Y-46291500D01*
X297370500Y-65722500D02*
X297370500Y-73723500D01*
X239268000Y-70294500D02*
X244792500Y-60388500D01*
X167854000Y-24026500D02*
X167854000Y-22719500D01*
X168402000Y-24574500D02*
X167854000Y-24026500D01*
X226504500Y-68961000D02*
X219265500Y-73914000D01*
X168402000Y-35814000D02*
X170116500Y-34099500D01*
X54102000Y-92773500D02*
X54102000Y-109156500D01*
D17*
X288417000Y-33528000D02*
X285770000Y-36175000D01*
D18*
X211074000Y-28384500D02*
X216598500Y-33909000D01*
X52387500Y-79819500D02*
X46291500Y-79819500D01*
X211645500Y-51816000D02*
X211645500Y-49530000D01*
X145161000Y-41529000D02*
X160401000Y-41529000D01*
X241935000Y-83439000D02*
X244792500Y-86106000D01*
X90868500Y-84582000D02*
X88582500Y-96012000D01*
X226504500Y-115062000D02*
X244221000Y-115062000D01*
X109156500Y-68008500D02*
X100393500Y-59436000D01*
X297561000Y-65532000D02*
X297370500Y-65722500D01*
X226123500Y-63817500D02*
X226504500Y-68961000D01*
X317182500Y-73723500D02*
X321373500Y-77914500D01*
X216598500Y-33909000D02*
X216598500Y-46291500D01*
X143827500Y-27622500D02*
X144018000Y-27813000D01*
X301942500Y-61150500D02*
X297561000Y-65532000D01*
X68492021Y-73620979D02*
X68389500Y-73723500D01*
X301752000Y-79629000D02*
X302323500Y-80200500D01*
X98488500Y-91821000D02*
X94107000Y-96202500D01*
X315277500Y-106489500D02*
X315277500Y-110490000D01*
X138303000Y-65913000D02*
X147066000Y-74866500D01*
X68492021Y-63158021D02*
X68492021Y-73620979D01*
X220789500Y-83248500D02*
X220599000Y-84010500D01*
X88582500Y-109347000D02*
X87630000Y-110299500D01*
X316611000Y-105156000D02*
X315277500Y-106489500D01*
X138303000Y-65913000D02*
X140970000Y-50673000D01*
X311848500Y-113919000D02*
X315277500Y-110490000D01*
X282829000Y-36175000D02*
X285369000Y-36175000D01*
D17*
X288417000Y-28194000D02*
X288417000Y-33528000D01*
D18*
X223647000Y-111442500D02*
X223266000Y-111823500D01*
X282130500Y-100203000D02*
X282130500Y-109728000D01*
X226123500Y-63817500D02*
X223837500Y-50863500D01*
X280606500Y-41529000D02*
X282702000Y-53911500D01*
X286321500Y-113919000D02*
X311848500Y-113919000D01*
X160401000Y-41529000D02*
X162496500Y-39433500D01*
X241173000Y-80200500D02*
X239268000Y-70294500D01*
X263461500Y-49911000D02*
X263461500Y-57150000D01*
X282702000Y-39814500D02*
X280606500Y-41529000D01*
X116776500Y-44767500D02*
X116967000Y-43053000D01*
X271081500Y-20955000D02*
X275209000Y-20955000D01*
X269557500Y-22479000D02*
X271081500Y-20955000D01*
X211836000Y-25908000D02*
X215646000Y-29718000D01*
X215646000Y-29718000D02*
X225171000Y-29718000D01*
X232410000Y-22479000D02*
X269557500Y-22479000D01*
X225171000Y-29718000D02*
X232410000Y-22479000D01*
D17*
X305689000Y-20955000D02*
X305689000Y-22032630D01*
X312229500Y-27051000D02*
X314325000Y-27051000D01*
X316420500Y-29146500D02*
X316420500Y-32194500D01*
X310707370Y-27051000D02*
X312229500Y-27051000D01*
X316420500Y-32194500D02*
X315468000Y-33147000D01*
X314325000Y-27051000D02*
X316420500Y-29146500D01*
X305689000Y-22032630D02*
X310707370Y-27051000D01*
X308229000Y-38862000D02*
X317373000Y-48006000D01*
X317373000Y-48006000D02*
X317373000Y-49911000D01*
X318706500Y-51244500D02*
X319849500Y-52387500D01*
X308229000Y-36957000D02*
X308229000Y-38862000D01*
X319849500Y-52387500D02*
X319849500Y-52959000D01*
X317373000Y-49911000D02*
X318706500Y-51244500D01*
X308419500Y-54673500D02*
X308419500Y-63055500D01*
X313944000Y-70294500D02*
X314706000Y-71056500D01*
X314706000Y-71056500D02*
X315087000Y-71437500D01*
X308419500Y-63055500D02*
X311277000Y-65913000D01*
X312610500Y-66484500D02*
X312610500Y-69532500D01*
X313753500Y-70294500D02*
X313944000Y-70294500D01*
X313372500Y-70294500D02*
X313753500Y-70294500D01*
X315087000Y-71437500D02*
X315087000Y-72009000D01*
X312610500Y-69532500D02*
X313372500Y-70294500D01*
X312039000Y-65913000D02*
X312610500Y-66484500D01*
X311277000Y-65913000D02*
X312039000Y-65913000D01*
X303657000Y-76771500D02*
X306705000Y-79819500D01*
X303657000Y-73723500D02*
X303657000Y-76771500D01*
X311086500Y-79819500D02*
X317373000Y-86106000D01*
X318516000Y-89154000D02*
X319087500Y-89154000D01*
X317373000Y-88011000D02*
X318516000Y-89154000D01*
X319849500Y-89916000D02*
X319849500Y-91059000D01*
X319087500Y-89154000D02*
X319849500Y-89916000D01*
X317373000Y-86106000D02*
X317373000Y-88011000D01*
X306705000Y-79819500D02*
X311086500Y-79819500D01*
X308038500Y-92773500D02*
X304419000Y-92773500D01*
X288607500Y-80962500D02*
X289560000Y-80010000D01*
X289179000Y-92773500D02*
X287464500Y-91059000D01*
X295846500Y-75057000D02*
X295846500Y-72199500D01*
X287464500Y-82105500D02*
X288607500Y-80962500D01*
X289560000Y-80010000D02*
X290893500Y-80010000D01*
X287464500Y-91059000D02*
X287464500Y-86677500D01*
X287464500Y-86677500D02*
X287464500Y-82105500D01*
X290893500Y-80010000D02*
X295846500Y-75057000D01*
X287083500Y-61531500D02*
X290893500Y-57721500D01*
X298323000Y-57721500D02*
X300990000Y-55054500D01*
X284226000Y-73723500D02*
X282892500Y-72390000D01*
X282892500Y-72390000D02*
X282892500Y-63055500D01*
X282892500Y-63055500D02*
X284416500Y-61531500D01*
X284416500Y-61531500D02*
X287083500Y-61531500D01*
X290893500Y-57721500D02*
X298323000Y-57721500D01*
X300990000Y-55054500D02*
X300990000Y-53149500D01*
X291655500Y-39814500D02*
X291655500Y-32766000D01*
X291274500Y-40195500D02*
X291655500Y-39814500D01*
X290703000Y-40195500D02*
X291274500Y-40195500D01*
X289179000Y-54673500D02*
X288629979Y-54124479D01*
X288629979Y-54124479D02*
X288629979Y-42268521D01*
X291655500Y-32766000D02*
X291465000Y-32575500D01*
X288629979Y-42268521D02*
X290703000Y-40195500D01*
X271653000Y-34861500D02*
X272796000Y-33909000D01*
X272796000Y-33909000D02*
X275463000Y-33909000D01*
X273367500Y-44767500D02*
X281178000Y-52578000D01*
X259080000Y-38481000D02*
X265366500Y-44767500D01*
X265366500Y-44767500D02*
X273367500Y-44767500D01*
X269557500Y-61069783D02*
X269580858Y-61093141D01*
X269557500Y-56197500D02*
X269557500Y-61069783D01*
X264604500Y-77724000D02*
X264604500Y-76390500D01*
X273177000Y-83439000D02*
X270891000Y-81343500D01*
X270891000Y-81343500D02*
X268224000Y-81343500D01*
X274891500Y-92583000D02*
X273177000Y-83439000D01*
X268224000Y-81343500D02*
X264604500Y-77724000D01*
X259270500Y-92011500D02*
X262128000Y-96393000D01*
X257175000Y-76200000D02*
X259270500Y-92011500D01*
X249174000Y-56388000D02*
X248031000Y-48768000D01*
X248031000Y-48768000D02*
X252984000Y-44767500D01*
X250698000Y-59436000D02*
X249174000Y-56388000D01*
X252603000Y-42291000D02*
X252031500Y-38481000D01*
X252984000Y-44767500D02*
X252603000Y-42291000D01*
X236791500Y-41338500D02*
X239839500Y-42100500D01*
X235839000Y-51054000D02*
X237934500Y-53149500D01*
X240030000Y-55245000D02*
X240030000Y-56197500D01*
X221932500Y-45339000D02*
X227647500Y-51054000D01*
X241935000Y-57721500D02*
X243268500Y-59055000D01*
X237934500Y-53149500D02*
X240030000Y-55245000D01*
X240030000Y-56197500D02*
X241554000Y-57721500D01*
X227647500Y-51054000D02*
X234315000Y-51054000D01*
X234315000Y-51054000D02*
X235839000Y-51054000D01*
X241554000Y-57721500D02*
X241935000Y-57721500D01*
X233172000Y-68199000D02*
X232219500Y-62865000D01*
X237553500Y-69342000D02*
X233172000Y-68199000D01*
X239268000Y-79248000D02*
X237553500Y-69342000D01*
X235648500Y-89154000D02*
X237440683Y-90946183D01*
X239917183Y-90946183D02*
X242506500Y-93535500D01*
X227457000Y-87820500D02*
X230505000Y-89916000D01*
X244602000Y-95821500D02*
X245173500Y-97536000D01*
X242887500Y-95440500D02*
X244602000Y-95821500D01*
X230505000Y-89916000D02*
X235648500Y-89154000D01*
X226695000Y-83058000D02*
X227457000Y-87820500D01*
X242506500Y-93535500D02*
X242887500Y-95440500D01*
X237440683Y-90946183D02*
X239917183Y-90946183D01*
X234124500Y-100965000D02*
X230695500Y-100393500D01*
X207835500Y-95250000D02*
X208597500Y-101727000D01*
X219646500Y-86677500D02*
X215265000Y-91630500D01*
X219265500Y-82867500D02*
X219646500Y-86677500D01*
X208597500Y-101727000D02*
X210883500Y-105156000D01*
X215265000Y-91630500D02*
X212217000Y-92202000D01*
X212217000Y-92202000D02*
X207835500Y-95250000D01*
X206883000Y-83248500D02*
X205740000Y-76962000D01*
X224980500Y-64960500D02*
X224599500Y-62674500D01*
X208216500Y-86487000D02*
X206883000Y-83248500D01*
X205740000Y-76962000D02*
X209550000Y-72580500D01*
X209550000Y-72580500D02*
X219456000Y-71437500D01*
X224218500Y-68389500D02*
X224980500Y-64960500D01*
X219456000Y-71437500D02*
X224218500Y-68389500D01*
X210693000Y-55928559D02*
X215836500Y-51625500D01*
X213550500Y-65913000D02*
X211836000Y-64198500D01*
X211836000Y-64198500D02*
X210693000Y-55928559D01*
X215836500Y-51625500D02*
X214693500Y-45148500D01*
X148399500Y-48577500D02*
X144589500Y-48577500D01*
X194881500Y-48577500D02*
X192214500Y-48577500D01*
X196024500Y-47434500D02*
X194881500Y-48577500D01*
X123444000Y-44196000D02*
X123063000Y-46101000D01*
X137160000Y-62674500D02*
X137160000Y-64008000D01*
X135064500Y-57340500D02*
X135255000Y-57531000D01*
X123063000Y-46101000D02*
X135064500Y-57340500D01*
X135255000Y-60769500D02*
X137160000Y-62674500D01*
X135255000Y-57531000D02*
X135255000Y-60769500D01*
X141922500Y-81915000D02*
X144399000Y-83439000D01*
X125730000Y-63817500D02*
X125349000Y-65151000D01*
X133731000Y-72580500D02*
X142113000Y-78486000D01*
X142113000Y-78486000D02*
X141922500Y-81915000D01*
X144399000Y-83439000D02*
X144018000Y-85153500D01*
X125349000Y-65151000D02*
X133731000Y-72580500D01*
X141732000Y-104013000D02*
X142113000Y-102108000D01*
X131826000Y-89535000D02*
X132588000Y-84582000D01*
X140017500Y-96964500D02*
X131826000Y-89535000D01*
X142113000Y-102108000D02*
X140017500Y-100393500D01*
X140017500Y-100393500D02*
X140017500Y-96964500D01*
X128206500Y-82296000D02*
X126873000Y-99822000D01*
X126873000Y-99822000D02*
X130111500Y-103251000D01*
X118110000Y-63817500D02*
X118110000Y-61150500D01*
X113157000Y-80962500D02*
X113919000Y-67437000D01*
X113919000Y-67437000D02*
X118110000Y-63817500D01*
X106299000Y-50863500D02*
X112585500Y-44577000D01*
X115443000Y-43624500D02*
X116014500Y-41338500D01*
X106299000Y-60579000D02*
X106299000Y-50863500D01*
X112585500Y-44577000D02*
X114681000Y-44386500D01*
X114681000Y-44386500D02*
X115443000Y-43624500D01*
X104584500Y-40957500D02*
X102298500Y-39052500D01*
X97726500Y-51625500D02*
X97726500Y-54292500D01*
X85915500Y-37338000D02*
X85915500Y-40195500D01*
X99250500Y-55816500D02*
X99060000Y-57721500D01*
X97726500Y-54292500D02*
X99250500Y-55816500D01*
X85915500Y-40195500D02*
X97726500Y-51625500D01*
X99822000Y-67246500D02*
X104394000Y-71628000D01*
X87630000Y-57340500D02*
X87630000Y-58674000D01*
X106299000Y-76581000D02*
X106299000Y-78295500D01*
X104584500Y-74676000D02*
X106299000Y-76581000D01*
X95821500Y-66865500D02*
X99822000Y-67246500D01*
X87630000Y-58674000D02*
X95821500Y-66865500D01*
X104394000Y-71628000D02*
X104584500Y-74676000D01*
X94869000Y-77914500D02*
X93916500Y-82867500D01*
X114300000Y-96393000D02*
X116014500Y-99441000D01*
X114300000Y-93535500D02*
X114300000Y-96393000D01*
X98869500Y-86868000D02*
X108775500Y-88392000D01*
X108775500Y-88392000D02*
X114300000Y-93535500D01*
X93916500Y-82867500D02*
X98869500Y-86868000D01*
X104203500Y-98869500D02*
X101536500Y-97155000D01*
X75819000Y-84582000D02*
X78486000Y-81153000D01*
X86296500Y-81153000D02*
X87630000Y-75057000D01*
X75819000Y-93916500D02*
X74676000Y-92202000D01*
X78486000Y-81153000D02*
X86296500Y-81153000D01*
X74676000Y-92202000D02*
X75819000Y-84582000D01*
X79819500Y-57912000D02*
X80581500Y-54483000D01*
X76200000Y-74485500D02*
X76009500Y-60388500D01*
X76009500Y-60388500D02*
X79819500Y-57912000D01*
X70294500Y-42291000D02*
X74866500Y-42291000D01*
X66865500Y-51625500D02*
X68008500Y-44577000D01*
X74866500Y-42291000D02*
X77343000Y-38862000D01*
X77343000Y-38862000D02*
X78295500Y-34861500D01*
X69151500Y-53911500D02*
X66865500Y-51625500D01*
X68008500Y-44577000D02*
X70294500Y-42291000D01*
X66865500Y-34290000D02*
X63246000Y-34290000D01*
X57912000Y-49911000D02*
X59436000Y-51435000D01*
X59436000Y-51435000D02*
X60579000Y-52578000D01*
X53340000Y-42862500D02*
X57912000Y-47434500D01*
X47053500Y-35623500D02*
X47053500Y-39814500D01*
X50101500Y-42862500D02*
X52006500Y-42862500D01*
X52006500Y-42862500D02*
X53340000Y-42862500D01*
X47053500Y-39814500D02*
X49530000Y-42291000D01*
X57912000Y-47434500D02*
X57912000Y-49911000D01*
X60579000Y-52578000D02*
X60579000Y-53149500D01*
X49530000Y-42291000D02*
X50101500Y-42862500D01*
X64770000Y-68580000D02*
X67246500Y-71056500D01*
X52006500Y-61722000D02*
X59626500Y-61722000D01*
X48768000Y-54673500D02*
X48768000Y-58483500D01*
X48768000Y-58483500D02*
X52006500Y-61722000D01*
X59626500Y-61722000D02*
X64770000Y-66865500D01*
X67246500Y-71056500D02*
X67246500Y-72199500D01*
X64770000Y-66865500D02*
X64770000Y-68580000D01*
X56007000Y-73723500D02*
X56007000Y-76581000D01*
X57531000Y-78105000D02*
X57531000Y-91249500D01*
X56007000Y-76581000D02*
X57531000Y-78105000D01*
X41719500Y-92773500D02*
X38671500Y-92773500D01*
X21717000Y-91630500D02*
X21717000Y-83248500D01*
X21717000Y-83248500D02*
X25336500Y-79629000D01*
X41338500Y-73914000D02*
X41338500Y-72199500D01*
X39814500Y-75438000D02*
X41338500Y-73914000D01*
X31623000Y-79629000D02*
X35814000Y-75438000D01*
X22860000Y-92773500D02*
X21717000Y-91630500D01*
X25336500Y-79629000D02*
X31623000Y-79629000D01*
X35814000Y-75438000D02*
X39814500Y-75438000D01*
X30861000Y-62674500D02*
X31623000Y-62674500D01*
X38671500Y-57531000D02*
X39433500Y-56769000D01*
X33528000Y-62674500D02*
X38671500Y-57531000D01*
X28194000Y-72199500D02*
X28194000Y-65341500D01*
X31623000Y-62674500D02*
X33528000Y-62674500D01*
X39433500Y-56769000D02*
X39433500Y-53149500D01*
X28194000Y-65341500D02*
X30861000Y-62674500D01*
X29718000Y-73723500D02*
X28194000Y-72199500D01*
X29908500Y-41910000D02*
X33147000Y-41910000D01*
X27622500Y-54673500D02*
X26289000Y-53340000D01*
X35052000Y-41910000D02*
X38862000Y-38100000D01*
X26289000Y-45529500D02*
X29908500Y-41910000D01*
X38862000Y-38100000D02*
X39433500Y-37528500D01*
X26289000Y-53340000D02*
X26289000Y-45529500D01*
X33147000Y-41910000D02*
X35052000Y-41910000D01*
X39433500Y-37528500D02*
X39433500Y-34099500D01*
X160782000Y-37909500D02*
X160972500Y-37719000D01*
X160972500Y-37719000D02*
X160972500Y-36766500D01*
X160972500Y-36766500D02*
X160210500Y-36004500D01*
X158115000Y-33147000D02*
X151828500Y-26860500D01*
X151828500Y-26860500D02*
X151828500Y-22288500D01*
X26860500Y-25908000D02*
X26860500Y-33909000D01*
X160210500Y-36004500D02*
X159067500Y-36004500D01*
X158115000Y-35052000D02*
X158115000Y-33147000D01*
X151828500Y-22288500D02*
X149923500Y-20383500D01*
X149923500Y-20383500D02*
X32385000Y-20383500D01*
X159067500Y-36004500D02*
X158115000Y-35052000D01*
X26860500Y-33909000D02*
X28575000Y-35623500D01*
X32385000Y-20383500D02*
X26860500Y-25908000D01*
X149542500Y-39433500D02*
X146113500Y-36004500D01*
X146113500Y-36004500D02*
X146113500Y-26098500D01*
X196405500Y-53530500D02*
X197130011Y-52805989D01*
X197130011Y-52805989D02*
X197130011Y-28231489D01*
X197130011Y-28231489D02*
X197739000Y-27622500D01*
X150876000Y-98107500D02*
X164401500Y-111633000D01*
X164401500Y-111633000D02*
X164401500Y-112776000D01*
X158686500Y-57340500D02*
X158686500Y-61722000D01*
X150876000Y-69532500D02*
X150876000Y-98107500D01*
X158686500Y-61722000D02*
X150876000Y-69532500D01*
X164401500Y-112776000D02*
X163830000Y-113347500D01*
X187642500Y-114490500D02*
X191833500Y-110299500D01*
X204406500Y-111252000D02*
X204406500Y-111823500D01*
X203454000Y-110299500D02*
X204406500Y-111252000D01*
X191833500Y-110299500D02*
X203454000Y-110299500D01*
X229552500Y-112204500D02*
X231457500Y-110299500D01*
X231457500Y-110299500D02*
X232219500Y-110299500D01*
X263842500Y-108585000D02*
X265938000Y-106489500D01*
X300037500Y-108966000D02*
X301752000Y-107251500D01*
X20383500Y-100584000D02*
X20383500Y-81534000D01*
X23812500Y-46482000D02*
X23812500Y-65532000D01*
X204787500Y-74676000D02*
X202692000Y-76771500D01*
X27813000Y-108013500D02*
X20383500Y-100584000D01*
X23622000Y-73342500D02*
X21145500Y-75819000D01*
X27813000Y-110490000D02*
X27813000Y-108013500D01*
X202692000Y-92583000D02*
X204216000Y-94107000D01*
X23812500Y-65532000D02*
X23812500Y-73152000D01*
X202692000Y-50101500D02*
X204597000Y-50101500D01*
X207073500Y-58674000D02*
X207073500Y-57150000D01*
X204787500Y-74676000D02*
X207073500Y-72390000D01*
X206311500Y-64008000D02*
X206311500Y-59436000D01*
X200596500Y-48768000D02*
X201358500Y-48768000D01*
X201358500Y-48768000D02*
X202692000Y-50101500D01*
X23812500Y-27432000D02*
X23812500Y-46482000D01*
X207073500Y-52578000D02*
X207073500Y-57150000D01*
X206311500Y-59436000D02*
X207073500Y-58674000D01*
X206311500Y-94107000D02*
X184975500Y-115443000D01*
X207073500Y-72390000D02*
X207073500Y-64770000D01*
X23812500Y-73152000D02*
X23622000Y-73342500D01*
X204597000Y-50101500D02*
X207073500Y-52578000D01*
X20383500Y-81534000D02*
X21145500Y-80772000D01*
X21145500Y-75819000D02*
X21145500Y-80772000D01*
X204216000Y-94107000D02*
X206311500Y-94107000D01*
X207073500Y-64770000D02*
X206311500Y-64008000D01*
X32766000Y-115443000D02*
X27813000Y-110490000D01*
X184975500Y-115443000D02*
X32766000Y-115443000D01*
X202692000Y-76771500D02*
X202692000Y-92583000D01*
X214884000Y-20574000D02*
X211645500Y-20574000D01*
X229171500Y-69723000D02*
X222885000Y-75057000D01*
X45720000Y-57912000D02*
X45720000Y-43053000D01*
X222885000Y-81153000D02*
X222885000Y-88392000D01*
X225552000Y-50482500D02*
X226306062Y-54490938D01*
X219075000Y-46291500D02*
X224980500Y-50101500D01*
X184975500Y-113728500D02*
X184023000Y-114681000D01*
X224790000Y-108013500D02*
X228028500Y-104775000D01*
X222885000Y-75057000D02*
X222885000Y-78676500D01*
X40957500Y-88582500D02*
X43815000Y-91440000D01*
X45720000Y-43053000D02*
X45720000Y-30289500D01*
X226306062Y-54490938D02*
X229171500Y-69723000D01*
X50482500Y-114681000D02*
X46482000Y-110680500D01*
X222885000Y-88392000D02*
X228028500Y-93535500D01*
X46482000Y-110680500D02*
X46482000Y-103060500D01*
X224790000Y-110490000D02*
X224790000Y-108013500D01*
X47434500Y-78676500D02*
X49911000Y-76200000D01*
X46482000Y-103060500D02*
X43815000Y-100393500D01*
X43815000Y-91440000D02*
X43815000Y-93345000D01*
X43815000Y-93345000D02*
X43815000Y-98107500D01*
X49911000Y-76200000D02*
X49911000Y-65532000D01*
X49911000Y-65532000D02*
X49911000Y-62103000D01*
X49911000Y-62103000D02*
X45720000Y-57912000D01*
X219456000Y-40386000D02*
X219075000Y-46291500D01*
X224980500Y-50101500D02*
X225552000Y-50482500D01*
X184023000Y-114681000D02*
X50482500Y-114681000D01*
X43815000Y-100393500D02*
X43815000Y-98107500D01*
X222885000Y-78676500D02*
X222885000Y-81153000D01*
X228028500Y-104775000D02*
X228028500Y-93535500D01*
X68961000Y-39624000D02*
X65722500Y-42862500D01*
X65722500Y-45529500D02*
X65722500Y-55054500D01*
X65722500Y-55054500D02*
X71818500Y-61150500D01*
X245554500Y-48958500D02*
X246507000Y-49911000D01*
X241935000Y-41910000D02*
X241935000Y-45339000D01*
X66294000Y-28575000D02*
X66294000Y-30099000D01*
X65722500Y-42862500D02*
X65722500Y-45529500D01*
X244411500Y-47815500D02*
X245554500Y-48958500D01*
X243459000Y-68580000D02*
X242697000Y-68580000D01*
X71818500Y-66103500D02*
X71818500Y-83820000D01*
X238125000Y-37719000D02*
X241935000Y-41529000D01*
X71818500Y-61150500D02*
X71818500Y-66103500D01*
X241935000Y-45339000D02*
X244411500Y-47815500D01*
X66294000Y-30099000D02*
X68961000Y-32766000D01*
X241935000Y-41529000D02*
X241935000Y-41910000D01*
X221551500Y-21526500D02*
X210693000Y-21526500D01*
X246507000Y-49911000D02*
X246507000Y-65532000D01*
X68961000Y-32766000D02*
X68961000Y-39624000D01*
X71818500Y-83820000D02*
X72961500Y-84963000D01*
X260223000Y-84391500D02*
X259651500Y-84963000D01*
X266128500Y-51625500D02*
X266128500Y-61150500D01*
X148399500Y-110680500D02*
X146685000Y-112395000D01*
X109537500Y-109918500D02*
X102679500Y-109918500D01*
X260223000Y-69342000D02*
X260223000Y-72009000D01*
X254317500Y-107632500D02*
X254317500Y-93154500D01*
X216027000Y-28003500D02*
X211836000Y-23812500D01*
X206692500Y-111442500D02*
X204597000Y-109347000D01*
X256984500Y-33718500D02*
X256984500Y-40005000D01*
X149352000Y-110680500D02*
X148399500Y-110680500D01*
X92964000Y-65532000D02*
X92964000Y-83248500D01*
X260223000Y-72009000D02*
X260223000Y-84391500D01*
X266128500Y-49149000D02*
X266128500Y-51625500D01*
X84582000Y-42862500D02*
X85725000Y-44005500D01*
X256984500Y-40005000D02*
X258889500Y-41910000D01*
X253174500Y-108775500D02*
X254317500Y-107632500D01*
X258889500Y-41910000D02*
X266128500Y-49149000D01*
X219646500Y-28003500D02*
X216027000Y-28003500D01*
X84582000Y-32766000D02*
X84582000Y-42862500D01*
X85725000Y-44005500D02*
X85725000Y-58293000D01*
X102679500Y-109918500D02*
X100811989Y-108050989D01*
X266128500Y-61150500D02*
X260223000Y-67056000D01*
X239268000Y-20764500D02*
X235648500Y-20764500D01*
X92964000Y-83248500D02*
X100965000Y-89916000D01*
X260223000Y-67056000D02*
X260223000Y-69342000D01*
X100811989Y-90069011D02*
X100965000Y-89916000D01*
X227457000Y-109347000D02*
X231076500Y-109347000D01*
X85725000Y-58293000D02*
X92964000Y-65532000D01*
X100811989Y-108050989D02*
X100811989Y-90069011D01*
X204597000Y-109347000D02*
X192405000Y-109347000D01*
X283845000Y-84391500D02*
X286131000Y-86677500D01*
X121539000Y-92392500D02*
X121539000Y-99822000D01*
X100774500Y-39814500D02*
X104775000Y-43815000D01*
X124206000Y-100965000D02*
X124968000Y-101727000D01*
X280035000Y-80581500D02*
X283845000Y-84391500D01*
X100774500Y-37719000D02*
X100774500Y-39814500D01*
X293179500Y-43434000D02*
X290512500Y-43434000D01*
X206978250Y-109061250D02*
X208026000Y-110109000D01*
X264795000Y-105727500D02*
X261747000Y-105727500D01*
X104775000Y-61150500D02*
X107442000Y-63817500D01*
X278511000Y-31432500D02*
X281368500Y-34290000D01*
X286131000Y-86677500D02*
X286131000Y-90868500D01*
X146875500Y-109537500D02*
X145161000Y-111252000D01*
X281368500Y-34290000D02*
X281559000Y-34480500D01*
X111061500Y-81915000D02*
X114871500Y-85725000D01*
X280035000Y-69723000D02*
X280035000Y-80581500D01*
X208026000Y-110109000D02*
X211645500Y-110109000D01*
X284416500Y-41529000D02*
X287464500Y-44577000D01*
X287464500Y-49149000D02*
X287464500Y-55626000D01*
X278511000Y-28765500D02*
X278511000Y-31432500D01*
X103441500Y-35052000D02*
X100774500Y-37719000D01*
X280035000Y-63055500D02*
X280035000Y-65722500D01*
X107442000Y-63817500D02*
X111061500Y-67437000D01*
X148780500Y-109537500D02*
X146875500Y-109537500D01*
X298069000Y-36175000D02*
X298069000Y-38544500D01*
X287464500Y-55626000D02*
X281749500Y-61341000D01*
X280035000Y-65722500D02*
X280035000Y-69723000D01*
X111061500Y-72771000D02*
X111061500Y-81915000D01*
X286131000Y-90868500D02*
X286131000Y-97726500D01*
X104775000Y-48958500D02*
X104775000Y-60007500D01*
X124968000Y-101727000D02*
X124968000Y-109156500D01*
X298069000Y-38544500D02*
X293179500Y-43434000D01*
X286131000Y-103251000D02*
X284035500Y-105346500D01*
X281749500Y-61341000D02*
X280035000Y-63055500D01*
X104775000Y-60007500D02*
X104775000Y-61150500D01*
X114871500Y-85725000D02*
X121539000Y-92392500D01*
X111061500Y-67437000D02*
X111061500Y-72771000D01*
X104775000Y-43815000D02*
X104775000Y-48958500D01*
X286131000Y-97726500D02*
X286131000Y-103251000D01*
X287464500Y-44577000D02*
X287464500Y-49149000D01*
X206216250Y-109061250D02*
X206978250Y-109061250D01*
X281559000Y-34480500D02*
X281559000Y-38671500D01*
X231076500Y-107823000D02*
X227457000Y-107823000D01*
X123444000Y-64579500D02*
X123444000Y-65341500D01*
X121539000Y-46482000D02*
X123253500Y-48196500D01*
X301752000Y-68580000D02*
X301752000Y-64960500D01*
X131635500Y-101346000D02*
X132016500Y-106108500D01*
X309943500Y-91821000D02*
X309943500Y-99250500D01*
X130302000Y-96012000D02*
X129730500Y-96583500D01*
X301752000Y-64960500D02*
X306133500Y-60579000D01*
X301752000Y-68580000D02*
X301752000Y-77533500D01*
X300609000Y-37909500D02*
X304609500Y-41910000D01*
X301752000Y-77533500D02*
X305943000Y-81724500D01*
X123444000Y-65341500D02*
X129349500Y-71247000D01*
X207645000Y-107632500D02*
X211455000Y-107632500D01*
X308800500Y-90678000D02*
X309943500Y-91821000D01*
X308419500Y-100774500D02*
X307848000Y-100774500D01*
X130302000Y-72199500D02*
X130302000Y-92011500D01*
X130302000Y-92011500D02*
X130302000Y-96012000D01*
X129730500Y-100584000D02*
X131635500Y-101346000D01*
X305943000Y-81724500D02*
X306324000Y-81724500D01*
X304609500Y-41910000D02*
X306133500Y-43434000D01*
X306133500Y-43434000D02*
X306133500Y-43624500D01*
X129349500Y-71247000D02*
X130302000Y-72199500D01*
X300609000Y-31051500D02*
X301561500Y-30099000D01*
X123444000Y-48387000D02*
X123444000Y-51435000D01*
X121539000Y-39052500D02*
X121539000Y-46482000D01*
X123253500Y-48196500D02*
X123444000Y-48387000D01*
X300609000Y-36175000D02*
X300609000Y-37909500D01*
X123444000Y-51435000D02*
X123444000Y-64579500D01*
X302323500Y-100774500D02*
X297751500Y-100774500D01*
X229362000Y-104775000D02*
X231076500Y-106680000D01*
X231076500Y-106680000D02*
X232029000Y-106680000D01*
X261366000Y-104203500D02*
X264795000Y-104203500D01*
X129730500Y-96583500D02*
X129730500Y-100584000D01*
X306133500Y-60579000D02*
X306133500Y-43624500D01*
X122301000Y-38290500D02*
X121539000Y-39052500D01*
X300609000Y-36175000D02*
X300609000Y-31051500D01*
X306324000Y-81724500D02*
X306324000Y-88201500D01*
X309943500Y-99250500D02*
X308419500Y-100774500D01*
X306324000Y-88201500D02*
X308800500Y-90678000D01*
X291655500Y-26860500D02*
X288988500Y-26860500D01*
X215265000Y-30861000D02*
X209169000Y-24765000D01*
X272796000Y-24003000D02*
X233553000Y-24003000D01*
X206883000Y-22479000D02*
X203835000Y-22479000D01*
X209169000Y-24765000D02*
X206883000Y-22479000D01*
X226695000Y-30861000D02*
X215646000Y-30861000D01*
X215646000Y-30861000D02*
X215265000Y-30861000D01*
X188356000Y-25385000D02*
X188356000Y-31599500D01*
X278511000Y-24003000D02*
X272796000Y-24003000D01*
X191262000Y-22479000D02*
X188356000Y-25385000D01*
X231267000Y-26289000D02*
X226695000Y-30861000D01*
X297370500Y-32575500D02*
X291655500Y-26860500D01*
X233553000Y-24003000D02*
X231267000Y-26289000D01*
X175427000Y-31599500D02*
X173856000Y-31599500D01*
X186309000Y-52006500D02*
X176784000Y-42481500D01*
X280289000Y-38227000D02*
X278892000Y-39624000D01*
X280289000Y-36175000D02*
X280289000Y-38227000D01*
X176784000Y-32956500D02*
X175427000Y-31599500D01*
X201079872Y-54775872D02*
X200787000Y-54483000D01*
X203746872Y-54775872D02*
X201079872Y-54775872D01*
X176784000Y-42481500D02*
X176784000Y-32956500D01*
X277749000Y-36175000D02*
X277749000Y-38671500D01*
X173856000Y-41077500D02*
X173856000Y-36599500D01*
X183832500Y-51054000D02*
X173856000Y-41077500D01*
X294894000Y-23050500D02*
X293370000Y-23050500D01*
X290606662Y-25813838D02*
X286989338Y-25813838D01*
X282829000Y-21653500D02*
X282829000Y-20955000D01*
X286989338Y-25813838D02*
X282829000Y-21653500D01*
X293370000Y-23050500D02*
X290606662Y-25813838D01*
X199644000Y-47244000D02*
X199644000Y-52387500D01*
X201930000Y-59245500D02*
X201930000Y-78105000D01*
X296227500Y-19621500D02*
X204597000Y-19621500D01*
X198882000Y-81153000D02*
X196596000Y-81153000D01*
X192591000Y-85158000D02*
X184912000Y-85158000D01*
X305689000Y-36175000D02*
X302704500Y-33190500D01*
X296799000Y-22098000D02*
X296799000Y-20193000D01*
X204597000Y-19621500D02*
X201358500Y-22860000D01*
X201358500Y-22860000D02*
X201358500Y-45529500D01*
X302704500Y-28003500D02*
X296799000Y-22098000D01*
X199644000Y-56959500D02*
X201930000Y-59245500D01*
X302704500Y-33190500D02*
X302704500Y-28003500D01*
X201930000Y-78105000D02*
X198882000Y-81153000D01*
X196596000Y-81153000D02*
X192591000Y-85158000D01*
X296799000Y-20193000D02*
X296227500Y-19621500D01*
X201358500Y-45529500D02*
X199644000Y-47244000D01*
X201358500Y-77533500D02*
X198691500Y-80200500D01*
X200787000Y-45339000D02*
X199072500Y-47053500D01*
X193797500Y-82618000D02*
X184912000Y-82618000D01*
X298069000Y-20955000D02*
X298069000Y-19939000D01*
X199072500Y-47053500D02*
X199072500Y-57340500D01*
X204406500Y-19050000D02*
X200787000Y-22669500D01*
X199072500Y-57340500D02*
X201358500Y-59626500D01*
X200787000Y-22669500D02*
X200787000Y-45339000D01*
X201358500Y-59626500D02*
X201358500Y-77533500D01*
X298069000Y-19939000D02*
X297180000Y-19050000D01*
X198691500Y-80200500D02*
X196215000Y-80200500D01*
X196215000Y-80200500D02*
X193797500Y-82618000D01*
X297180000Y-19050000D02*
X204406500Y-19050000D01*
M02*
