M48
; DRILL file {KiCad (6.0.2-0)} date 
; FORMAT={-:-/ absolute / metric / decimal}
; #@! TF.CreationDate,2022-02-23T09:44:24+09:00
; #@! TF.GenerationSoftware,Kicad,Pcbnew,(6.0.2-0)
; #@! TF.FileFunction,NonPlated,1,2,NPTH
FMAT,2
METRIC
; #@! TA.AperFunction,NonPlated,NPTH,ComponentDrill
T1C2.000
; #@! TA.AperFunction,NonPlated,NPTH,ComponentDrill
T2C2.200
; #@! TA.AperFunction,NonPlated,NPTH,ComponentDrill
T3C3.000
; #@! TA.AperFunction,NonPlated,NPTH,ComponentDrill
T4C4.000
%
G90
G05
T1
X23.495Y-87.122
X28.732Y-49.008
X29.21Y-29.972
X30.621Y-68.074
X33.655Y-87.122
X38.892Y-49.008
X39.37Y-29.972
X40.781Y-68.074
X42.545Y-87.122
X48.26Y-29.972
X50.165Y-49.022
X52.705Y-87.122
X56.832Y-68.072
X58.42Y-29.972
X60.325Y-49.022
X66.992Y-68.072
X68.97Y-28.764
X70.915Y-48.451
X77.738Y-68.998
X77.926Y-88.384
X78.976Y-30.529
X80.921Y-50.215
X87.731Y-32.072
X87.743Y-70.762
X87.932Y-90.148
X89.676Y-51.759
X96.498Y-72.306
X97.736Y-33.837
X99.681Y-53.523
X106.049Y-93.357
X106.491Y-35.38
X106.504Y-74.07
X108.436Y-55.067
X115.259Y-75.614
X116.055Y-95.121
X116.497Y-37.145
X118.442Y-56.831
X125.252Y-38.688
X125.265Y-77.378
X127.197Y-58.375
X131.837Y-97.881
X134.02Y-78.922
X135.258Y-40.453
X137.202Y-60.139
X141.843Y-99.645
X144.025Y-80.686
X149.987Y-34.099
X160.147Y-34.099
X202.976Y-42.863
X208.092Y-80.649
X210.649Y-99.542
X212.982Y-41.099
X213.226Y-60.399
X218.097Y-78.884
X220.655Y-97.777
X221.737Y-39.555
X223.232Y-58.635
X226.852Y-77.341
X231.743Y-37.791
X231.987Y-57.091
X234.129Y-95.398
X236.858Y-75.576
X240.498Y-36.247
X241.992Y-55.327
X244.134Y-93.633
X245.613Y-74.033
X250.503Y-34.483
X250.747Y-53.783
X255.618Y-72.268
X259.258Y-32.939
X260.753Y-52.019
X262.303Y-90.448
X264.373Y-70.725
X269.264Y-31.175
X269.508Y-50.475
X272.309Y-88.684
X274.379Y-68.96
X279.513Y-48.711
X280.479Y-29.019
X285.242Y-68.072
X290.005Y-49.022
X290.005Y-87.122
X290.639Y-29.019
X295.402Y-68.072
X300.164Y-49.022
X300.164Y-87.122
X304.292Y-29.972
X304.292Y-68.072
X309.054Y-49.022
X309.054Y-87.122
X314.452Y-29.972
X314.452Y-68.072
X319.214Y-49.022
X319.214Y-87.122
T2
X23.241Y-21.336
X24.384Y-110.68
X64.198Y-102.87
X121.158Y-24.955
X154.114Y-83.888
X154.305Y-60.77
X154.305Y-106.68
X176.022Y-61.912
X176.022Y-105.918
X197.929Y-83.888
X198.31Y-60.77
X198.31Y-106.68
X221.932Y-24.955
X278.702Y-102.87
X318.516Y-110.68
X319.659Y-21.336
T3
X24.765Y-84.582
X30.002Y-46.468
X30.48Y-27.432
X31.115Y-82.042
X31.891Y-65.534
X36.352Y-43.928
X36.83Y-24.892
X38.241Y-62.994
X43.815Y-84.582
X49.53Y-27.432
X50.165Y-82.042
X51.435Y-46.482
X55.88Y-24.892
X57.785Y-43.942
X58.102Y-65.532
X64.453Y-62.992
X70.662Y-26.483
X72.607Y-46.17
X77.356Y-25.085
X79.301Y-44.772
X79.43Y-66.717
X79.618Y-86.103
X86.124Y-65.318
X86.313Y-84.704
X89.422Y-29.791
X91.367Y-49.478
X96.117Y-28.393
X98.062Y-48.08
X98.19Y-70.025
X104.885Y-68.626
X107.741Y-91.076
X108.183Y-33.099
X110.128Y-52.786
X114.436Y-89.677
X114.878Y-31.701
X116.823Y-51.388
X116.951Y-73.333
X123.645Y-71.934
X126.944Y-36.407
X128.889Y-56.094
X133.529Y-95.6
X133.638Y-35.009
X135.583Y-54.696
X135.711Y-76.641
X140.224Y-94.202
X142.406Y-75.242
X151.257Y-31.559
X157.607Y-29.019
X203.786Y-40.141
X208.901Y-77.927
X209.599Y-36.537
X211.459Y-96.82
X214.036Y-57.677
X214.714Y-74.323
X217.271Y-93.216
X219.848Y-54.073
X222.547Y-36.833
X227.662Y-74.619
X228.359Y-33.229
X232.796Y-54.37
X233.474Y-71.015
X234.938Y-92.676
X238.609Y-50.765
X240.751Y-89.072
X241.307Y-33.525
X246.422Y-71.311
X247.12Y-29.921
X251.557Y-51.062
X252.235Y-67.707
X257.369Y-47.457
X260.068Y-30.217
X263.113Y-87.726
X265.183Y-68.003
X265.88Y-26.613
X268.925Y-84.122
X270.317Y-47.754
X270.996Y-64.399
X276.13Y-44.149
X281.75Y-26.479
X286.512Y-65.532
X288.099Y-23.939
X291.274Y-46.482
X291.274Y-84.582
X292.862Y-62.992
X297.625Y-43.942
X297.625Y-82.042
X305.562Y-27.432
X305.562Y-65.532
X310.325Y-46.482
X310.325Y-84.582
X311.912Y-24.892
X311.912Y-62.992
X316.674Y-43.942
X316.674Y-82.042
T4
X28.575Y-87.122
X33.812Y-49.008
X34.29Y-29.972
X35.701Y-68.074
X47.625Y-87.122
X53.34Y-29.972
X55.245Y-49.022
X61.912Y-68.072
X73.973Y-29.646
X75.918Y-49.333
X82.741Y-69.88
X82.929Y-89.266
X92.734Y-32.954
X94.678Y-52.641
X101.501Y-73.188
X111.052Y-94.239
X111.494Y-36.262
X113.439Y-55.949
X120.262Y-76.496
X130.255Y-39.57
X132.2Y-59.257
X136.84Y-98.763
X139.022Y-79.804
X155.067Y-34.099
X207.979Y-41.981
X213.094Y-79.766
X215.652Y-98.659
X218.229Y-59.517
X226.74Y-38.673
X231.855Y-76.459
X236.989Y-56.209
X239.131Y-94.516
X245.5Y-35.365
X250.616Y-73.151
X255.75Y-52.901
X264.261Y-32.057
X267.306Y-89.566
X269.376Y-69.843
X274.51Y-49.593
X285.56Y-29.019
X290.322Y-68.072
X295.084Y-49.022
X295.084Y-87.122
X309.372Y-29.972
X309.372Y-68.072
X314.135Y-49.022
X314.135Y-87.122
T0
M30
