M48
; DRILL file {KiCad (6.0.2-0)} date 
; FORMAT={-:-/ absolute / metric / decimal}
; #@! TF.CreationDate,2022-02-23T09:44:24+09:00
; #@! TF.GenerationSoftware,Kicad,Pcbnew,(6.0.2-0)
; #@! TF.FileFunction,Plated,1,2,PTH
FMAT,2
METRIC
; #@! TA.AperFunction,Plated,PTH,ViaDrill
T1C0.400
; #@! TA.AperFunction,Plated,PTH,ComponentDrill
T2C0.800
; #@! TA.AperFunction,Plated,PTH,ComponentDrill
T3C0.813
; #@! TA.AperFunction,Plated,PTH,ComponentDrill
T4C1.000
; #@! TA.AperFunction,Plated,PTH,ComponentDrill
T5C1.020
; #@! TA.AperFunction,Plated,PTH,ComponentDrill
T6C1.300
; #@! TA.AperFunction,Plated,PTH,ComponentDrill
T7C2.000
%
G90
G05
T1
X21.145Y-80.772
X22.86Y-92.773
X23.812Y-27.432
X23.812Y-46.482
X23.812Y-65.532
X27.622Y-54.673
X28.575Y-35.623
X29.718Y-73.724
X35.433Y-92.773
X38.672Y-92.773
X39.433Y-34.099
X39.433Y-53.149
X40.386Y-35.623
X40.767Y-54.673
X40.957Y-88.582
X41.338Y-72.2
X41.719Y-92.773
X42.481Y-73.724
X45.72Y-30.29
X45.72Y-43.053
X47.053Y-35.623
X47.434Y-78.676
X48.768Y-54.673
X49.911Y-65.532
X52.768Y-110.49
X54.102Y-92.773
X56.007Y-73.724
X57.531Y-91.249
X59.817Y-35.814
X60.579Y-53.149
X61.825Y-54.761
X63.246Y-34.29
X65.722Y-45.529
X66.294Y-28.575
X66.865Y-34.29
X67.246Y-72.2
X68.389Y-73.724
X68.961Y-89.916
X69.151Y-53.911
X71.819Y-66.103
X72.39Y-90.106
X72.962Y-84.963
X75.819Y-93.916
X76.2Y-74.486
X78.295Y-34.861
X79.438Y-36.386
X80.581Y-54.483
X81.534Y-56.007
X84.582Y-32.766
X85.725Y-44.005
X85.915Y-37.338
X87.63Y-57.34
X87.63Y-75.057
X87.63Y-110.299
X88.582Y-76.581
X88.582Y-96.012
X92.964Y-65.532
X94.869Y-77.914
X98.298Y-39.624
X98.298Y-88.963
X99.06Y-57.721
X100.393Y-59.436
X100.965Y-89.916
X101.155Y-85.915
X101.536Y-97.155
X102.298Y-39.052
X103.441Y-35.052
X104.203Y-98.87
X104.584Y-40.957
X104.775Y-48.959
X106.299Y-60.579
X106.299Y-78.295
X107.061Y-80.01
X109.537Y-109.918
X111.061Y-72.771
X113.157Y-80.962
X116.014Y-41.338
X116.014Y-99.441
X116.967Y-43.053
X118.11Y-61.15
X119.444Y-62.674
X121.539Y-99.822
X122.301Y-38.291
X122.301Y-113.157
X122.682Y-102.108
X123.444Y-44.196
X123.444Y-51.435
X124.206Y-100.965
X124.968Y-109.156
X125.73Y-63.817
X126.301Y-83.248
X128.207Y-82.296
X130.112Y-103.251
X130.302Y-72.2
X130.302Y-92.011
X132.017Y-106.108
X132.588Y-84.582
X136.017Y-46.291
X137.16Y-64.008
X138.303Y-65.913
X141.732Y-104.013
X142.875Y-105.537
X143.827Y-27.622
X144.018Y-85.153
X144.589Y-48.578
X144.78Y-86.868
X145.161Y-43.243
X145.161Y-111.252
X146.113Y-26.098
X146.685Y-112.395
X148.399Y-43.243
X148.399Y-48.578
X148.78Y-109.537
X149.352Y-110.68
X149.542Y-39.433
X158.686Y-57.34
X159.829Y-113.347
X160.782Y-37.91
X162.496Y-39.433
X163.83Y-113.347
X168.402Y-54.864
X171.069Y-63.817
X174.308Y-45.72
X183.832Y-51.054
X184.975Y-113.728
X186.309Y-52.006
X187.642Y-114.49
X189.166Y-114.3
X190.5Y-76.391
X191.262Y-22.479
X192.214Y-47.053
X192.214Y-48.578
X192.405Y-109.347
X195.643Y-46.101
X196.024Y-47.434
X196.405Y-53.53
X197.739Y-27.622
X200.596Y-48.768
X200.787Y-52.387
X200.787Y-54.483
X200.977Y-47.244
X201.739Y-57.721
X203.454Y-48.578
X203.747Y-54.776
X203.835Y-22.479
X204.025Y-90.297
X204.406Y-111.823
X204.694Y-53.434
X204.787Y-56.959
X204.787Y-74.676
X206.216Y-109.061
X206.311Y-94.107
X206.692Y-111.442
X207.073Y-57.15
X207.645Y-107.632
X207.835Y-63.436
X207.835Y-88.963
X208.026Y-55.435
X208.216Y-86.487
X208.216Y-112.395
X210.502Y-63.436
X210.693Y-21.526
X210.883Y-105.156
X211.074Y-28.384
X211.455Y-107.632
X211.645Y-20.574
X211.645Y-49.53
X211.645Y-110.109
X211.836Y-23.812
X211.836Y-25.908
X213.55Y-65.913
X214.694Y-45.148
X214.884Y-20.574
X216.599Y-46.291
X219.266Y-82.867
X219.456Y-40.386
X219.647Y-28.003
X220.599Y-84.01
X221.551Y-21.526
X221.932Y-45.339
X222.885Y-78.676
X223.266Y-111.823
X223.647Y-102.87
X224.599Y-62.674
X224.79Y-110.49
X226.123Y-63.817
X226.306Y-54.491
X226.695Y-83.058
X227.457Y-107.823
X227.457Y-109.347
X228.028Y-93.535
X229.362Y-104.775
X229.552Y-112.204
X230.695Y-100.393
X231.076Y-107.823
X231.076Y-109.347
X232.029Y-106.68
X232.219Y-62.865
X232.219Y-110.299
X234.124Y-100.965
X235.648Y-20.764
X235.648Y-42.862
X236.791Y-41.338
X238.125Y-37.719
X239.268Y-20.764
X239.268Y-79.248
X239.839Y-42.1
X241.173Y-80.2
X242.697Y-68.58
X243.268Y-59.055
X244.792Y-60.389
X245.173Y-97.536
X245.554Y-48.959
X245.554Y-79.629
X246.126Y-113.157
X247.269Y-98.679
X250.698Y-59.436
X252.031Y-38.481
X253.174Y-108.775
X253.365Y-39.814
X254.317Y-93.154
X255.841Y-80.391
X256.984Y-33.718
X257.175Y-76.2
X258.889Y-77.343
X259.08Y-38.481
X259.651Y-84.963
X260.223Y-72.009
X261.366Y-104.203
X261.747Y-105.727
X262.128Y-56.007
X262.128Y-96.393
X263.462Y-57.15
X263.842Y-108.585
X264.604Y-76.391
X264.795Y-104.203
X264.795Y-105.727
X265.938Y-106.489
X266.128Y-51.625
X268.605Y-62.953
X269.558Y-56.197
X269.581Y-61.093
X270.248Y-33.409
X271.653Y-34.861
X271.844Y-36.386
X274.598Y-37.719
X274.892Y-92.583
X275.463Y-33.909
X276.416Y-93.726
X276.606Y-72.771
X277.749Y-38.672
X277.749Y-74.105
X278.511Y-24.003
X278.511Y-28.765
X278.892Y-39.624
X280.035Y-65.722
X280.226Y-90.106
X281.178Y-52.578
X281.559Y-38.672
X282.13Y-109.728
X282.702Y-53.911
X283.647Y-89.811
X283.845Y-50.863
X283.845Y-84.391
X284.036Y-105.346
X284.226Y-73.724
X284.416Y-41.529
X286.322Y-50.863
X287.464Y-49.149
X288.988Y-26.86
X289.179Y-54.673
X289.179Y-92.773
X290.512Y-43.434
X291.465Y-32.575
X294.894Y-23.05
X295.084Y-39.433
X295.846Y-72.2
X296.037Y-38.672
X297.37Y-32.575
X297.37Y-73.724
X297.751Y-100.774
X298.132Y-39.814
X299.466Y-38.862
X299.977Y-70.736
X300.037Y-108.966
X300.99Y-53.149
X301.561Y-30.099
X301.752Y-68.58
X301.752Y-107.251
X301.942Y-54.673
X302.323Y-92.773
X302.323Y-100.774
X303.657Y-73.724
X304.419Y-92.773
X304.739Y-89.786
X306.133Y-43.624
X306.324Y-81.724
X307.848Y-100.774
X308.038Y-92.773
X308.229Y-36.957
X308.419Y-54.673
X315.087Y-72.009
X315.277Y-110.49
X315.468Y-33.147
X316.611Y-34.671
X317.183Y-73.724
X319.849Y-52.959
X319.849Y-91.059
X321.183Y-54.673
X321.373Y-92.773
T3
X275.209Y-20.955
X275.209Y-36.175
X277.749Y-20.955
X277.749Y-36.175
X280.289Y-20.955
X280.289Y-36.175
X282.829Y-20.955
X282.829Y-36.175
X285.369Y-20.955
X285.369Y-36.175
X287.909Y-20.955
X287.909Y-36.175
X290.449Y-20.955
X290.449Y-36.175
X292.989Y-20.955
X292.989Y-36.175
X295.529Y-20.955
X295.529Y-36.175
X298.069Y-20.955
X298.069Y-36.175
X300.609Y-20.955
X300.609Y-36.175
X303.149Y-20.955
X303.149Y-36.175
X305.689Y-20.955
X305.689Y-36.175
T4
X173.856Y-31.599
X173.856Y-34.099
X173.856Y-36.599
X188.356Y-31.599
X188.356Y-36.599
T5
X184.912Y-74.998
X184.912Y-77.538
X184.912Y-80.078
X184.912Y-82.618
X184.912Y-85.158
X184.912Y-87.698
X184.912Y-90.238
X184.912Y-92.778
T6
X166.497Y-31.421
X166.497Y-37.921
X309.361Y-20.764
X315.861Y-20.764
T2
G00X162.854Y-22.72
M15
G01X162.854Y-22.72
M16
G05
G00X165.354Y-22.72
M15
G01X165.354Y-22.72
M16
G05
G00X167.854Y-22.72
M15
G01X167.854Y-22.72
M16
G05
T7
G00X180.956Y-28.499
M15
G01X181.756Y-28.499
M16
G05
G00X180.956Y-39.7
M15
G01X181.756Y-39.7
M16
G05
T0
M30
