G04 #@! TF.GenerationSoftware,KiCad,Pcbnew,(6.0.0-0)*
G04 #@! TF.CreationDate,2022-01-02T14:55:06+09:00*
G04 #@! TF.ProjectId,aliceball,616c6963-6562-4616-9c6c-2e6b69636164,rev?*
G04 #@! TF.SameCoordinates,Original*
G04 #@! TF.FileFunction,Profile,NP*
%FSLAX46Y46*%
G04 Gerber Fmt 4.6, Leading zero omitted, Abs format (unit mm)*
G04 Created by KiCad (PCBNEW (6.0.0-0)) date 2022-01-02 14:55:06*
%MOMM*%
%LPD*%
G01*
G04 APERTURE LIST*
G04 #@! TA.AperFunction,Profile*
%ADD10C,0.100000*%
G04 #@! TD*
G04 #@! TA.AperFunction,Profile*
%ADD11C,0.120000*%
G04 #@! TD*
G04 #@! TA.AperFunction,Profile*
%ADD12C,0.150000*%
G04 #@! TD*
G04 #@! TA.AperFunction,Profile*
%ADD13C,0.010000*%
G04 #@! TD*
G04 APERTURE END LIST*
D10*
X328625000Y-20250000D02*
G75*
G03*
X325625000Y-17250000I-3000001J-1D01*
G01*
X17275000Y-17250000D02*
G75*
G03*
X14275000Y-20250000I1J-3000001D01*
G01*
X14275000Y-113050000D02*
G75*
G03*
X17275000Y-116050000I3000001J1D01*
G01*
X325625000Y-17250000D02*
X17275000Y-17250000D01*
X328625000Y-113050000D02*
X328625000Y-20250000D01*
X203522000Y-83888000D02*
G75*
G03*
X203522000Y-83888000I-27500000J0D01*
G01*
X325625000Y-116050000D02*
G75*
G03*
X328625000Y-113050000I-1J3000001D01*
G01*
X14275000Y-20250000D02*
X14275000Y-113050000D01*
X17275000Y-116050000D02*
X325625000Y-116050000D01*
D11*
X62295000Y-56071817D02*
X48195000Y-56071817D01*
X48195000Y-56071817D02*
X48195000Y-41971817D01*
X48195000Y-41971817D02*
X62295000Y-41971817D01*
X62295000Y-41971817D02*
X62295000Y-56071817D01*
X60390000Y-37021817D02*
X46290000Y-37021817D01*
X46290000Y-22921817D02*
X60390000Y-22921817D01*
X46290000Y-37021817D02*
X46290000Y-22921817D01*
X60390000Y-22921817D02*
X60390000Y-37021817D01*
X28573500Y-75121817D02*
X28573500Y-61021817D01*
X42673500Y-75121817D02*
X28573500Y-75121817D01*
X42673500Y-61021817D02*
X42673500Y-75121817D01*
X28573500Y-61021817D02*
X42673500Y-61021817D01*
X41340000Y-22921817D02*
X41340000Y-37021817D01*
X41340000Y-37021817D02*
X27240000Y-37021817D01*
X27240000Y-37021817D02*
X27240000Y-22921817D01*
X27240000Y-22921817D02*
X41340000Y-22921817D01*
X40959000Y-56071817D02*
X26859000Y-56071817D01*
X26859000Y-41971817D02*
X40959000Y-41971817D01*
X26859000Y-56071817D02*
X26859000Y-41971817D01*
X40959000Y-41971817D02*
X40959000Y-56071817D01*
D12*
X114417827Y-101968405D02*
X100532038Y-99519966D01*
D11*
X94962736Y-82443436D02*
X92392743Y-97018591D01*
X99483359Y-98268858D02*
X102053352Y-83693703D01*
D12*
X116866266Y-88082616D02*
X114417827Y-101968405D01*
D11*
X92392743Y-97018591D02*
X99483359Y-98268858D01*
D12*
X100532038Y-99519966D02*
X102980477Y-85634177D01*
X102980477Y-85634177D02*
X116866266Y-88082616D01*
D11*
X115831167Y-101151417D02*
X118401160Y-86576263D01*
X118401160Y-86576263D02*
X125491776Y-87826530D01*
X125491776Y-87826530D02*
X122921783Y-102401684D01*
X122921783Y-102401684D02*
X115831167Y-101151417D01*
X102053352Y-83693703D02*
X94962736Y-82443436D01*
X40575000Y-80071817D02*
X54675000Y-80071817D01*
X40575000Y-94171817D02*
X40575000Y-80071817D01*
X54675000Y-94171817D02*
X40575000Y-94171817D01*
X54675000Y-80071817D02*
X54675000Y-94171817D01*
X54862500Y-61021817D02*
X68962500Y-61021817D01*
X54862500Y-75121817D02*
X54862500Y-61021817D01*
X68962500Y-75121817D02*
X54862500Y-75121817D01*
X68962500Y-61021817D02*
X68962500Y-75121817D01*
X82140060Y-23927817D02*
X79691621Y-37813606D01*
X68254271Y-21479378D02*
X82140060Y-23927817D01*
X65805832Y-35365167D02*
X68254271Y-21479378D01*
X79691621Y-37813606D02*
X65805832Y-35365167D01*
X35625000Y-94171817D02*
X21525000Y-94171817D01*
X21525000Y-80071817D02*
X35625000Y-80071817D01*
X21525000Y-94171817D02*
X21525000Y-80071817D01*
X35625000Y-80071817D02*
X35625000Y-94171817D01*
X84566419Y-38673165D02*
X87014858Y-24787376D01*
X100900647Y-27235815D02*
X98452208Y-41121604D01*
X98452208Y-41121604D02*
X84566419Y-38673165D01*
X87014858Y-24787376D02*
X100900647Y-27235815D01*
X145007146Y-93044612D02*
X142558707Y-106930401D01*
X142558707Y-106930401D02*
X128672918Y-104481962D01*
X131121357Y-90596173D02*
X145007146Y-93044612D01*
X128672918Y-104481962D02*
X131121357Y-90596173D01*
X117212796Y-44429602D02*
X103327007Y-41981163D01*
X105775446Y-28095374D02*
X119661235Y-30543813D01*
X119661235Y-30543813D02*
X117212796Y-44429602D01*
X103327007Y-41981163D02*
X105775446Y-28095374D01*
X135973384Y-47737601D02*
X122087595Y-45289162D01*
X122087595Y-45289162D02*
X124536034Y-31403373D01*
X138421823Y-33851812D02*
X135973384Y-47737601D01*
X124536034Y-31403373D02*
X138421823Y-33851812D01*
D12*
X188406000Y-27049500D02*
X188406000Y-41149500D01*
X174306000Y-27049500D02*
X188406000Y-27049500D01*
X188406000Y-41149500D02*
X174306000Y-41149500D01*
X174306000Y-41149500D02*
X174306000Y-27049500D01*
D11*
X321184500Y-94171817D02*
X307084500Y-94171817D01*
X307084500Y-94171817D02*
X307084500Y-80071817D01*
X321184500Y-80071817D02*
X321184500Y-94171817D01*
X307084500Y-80071817D02*
X321184500Y-80071817D01*
X307084500Y-41971817D02*
X321184500Y-41971817D01*
X321184500Y-41971817D02*
X321184500Y-56071817D01*
X307084500Y-56071817D02*
X307084500Y-41971817D01*
X321184500Y-56071817D02*
X307084500Y-56071817D01*
X302322000Y-75121817D02*
X302322000Y-61021817D01*
X316422000Y-61021817D02*
X316422000Y-75121817D01*
X316422000Y-75121817D02*
X302322000Y-75121817D01*
X302322000Y-61021817D02*
X316422000Y-61021817D01*
X316422000Y-22921817D02*
X316422000Y-37021817D01*
X302322000Y-22921817D02*
X316422000Y-22921817D01*
X302322000Y-37021817D02*
X302322000Y-22921817D01*
X316422000Y-37021817D02*
X302322000Y-37021817D01*
D13*
X17175000Y-21550000D02*
G75*
G03*
X17175000Y-21550000I-1100000J0D01*
G01*
X17175000Y-66650000D02*
G75*
G03*
X17175000Y-66650000I-1100000J0D01*
G01*
X17175000Y-111750000D02*
G75*
G03*
X17175000Y-111750000I-1100000J0D01*
G01*
X327925000Y-21550000D02*
G75*
G03*
X327925000Y-21550000I-1100000J0D01*
G01*
X327925000Y-66650000D02*
G75*
G03*
X327925000Y-66650000I-1100000J0D01*
G01*
X327925000Y-111750000D02*
G75*
G03*
X327925000Y-111750000I-1100000J0D01*
G01*
D11*
X302134500Y-41971817D02*
X302134500Y-56071817D01*
X288034500Y-41971817D02*
X302134500Y-41971817D01*
X288034500Y-56071817D02*
X288034500Y-41971817D01*
X302134500Y-56071817D02*
X288034500Y-56071817D01*
X207484930Y-92940730D02*
X221370719Y-90492291D01*
X223819158Y-104378080D02*
X209933369Y-106826519D01*
X221370719Y-90492291D02*
X223819158Y-104378080D01*
X209933369Y-106826519D02*
X207484930Y-92940730D01*
X261209119Y-64123829D02*
X275094908Y-61675390D01*
X277543347Y-75561179D02*
X263657558Y-78009618D01*
X275094908Y-61675390D02*
X277543347Y-75561179D01*
X263657558Y-78009618D02*
X261209119Y-64123829D01*
X256093970Y-26338014D02*
X269979759Y-23889575D01*
X269979759Y-23889575D02*
X272428198Y-37775364D01*
X272428198Y-37775364D02*
X258542409Y-40223803D01*
X258542409Y-40223803D02*
X256093970Y-26338014D01*
X81636587Y-57500434D02*
X67750798Y-55051995D01*
X84085026Y-43614645D02*
X81636587Y-57500434D01*
X70199237Y-41166206D02*
X84085026Y-43614645D01*
X67750798Y-55051995D02*
X70199237Y-41166206D01*
X278509500Y-36069317D02*
X278509500Y-21969317D01*
X292609500Y-21969317D02*
X292609500Y-36069317D01*
X278509500Y-21969317D02*
X292609500Y-21969317D01*
X292609500Y-36069317D02*
X278509500Y-36069317D01*
X112094693Y-82214898D02*
X114543132Y-68329109D01*
X114543132Y-68329109D02*
X128428921Y-70777548D01*
X128428921Y-70777548D02*
X125980482Y-84663337D01*
X125980482Y-84663337D02*
X112094693Y-82214898D01*
X258782759Y-78869177D02*
X244896970Y-81317616D01*
X242448531Y-67431827D02*
X256334320Y-64983388D01*
X256334320Y-64983388D02*
X258782759Y-78869177D01*
X244896970Y-81317616D02*
X242448531Y-67431827D01*
X72391156Y-94557969D02*
X74839595Y-80672180D01*
X74839595Y-80672180D02*
X88725384Y-83120619D01*
X86276945Y-97006408D02*
X72391156Y-94557969D01*
X88725384Y-83120619D02*
X86276945Y-97006408D01*
X218572795Y-32954009D02*
X232458584Y-30505570D01*
X232458584Y-30505570D02*
X234907023Y-44391359D01*
X221021234Y-46839798D02*
X218572795Y-32954009D01*
X234907023Y-44391359D02*
X221021234Y-46839798D01*
X228822210Y-50490638D02*
X242707999Y-48042199D01*
X231270649Y-64376427D02*
X228822210Y-50490638D01*
X245156438Y-61927988D02*
X231270649Y-64376427D01*
X242707999Y-48042199D02*
X245156438Y-61927988D01*
X266343386Y-43874642D02*
X280229175Y-41426203D01*
X280229175Y-41426203D02*
X282677614Y-55311992D01*
X282677614Y-55311992D02*
X268791825Y-57760431D01*
X268791825Y-57760431D02*
X266343386Y-43874642D01*
X261468587Y-44734201D02*
X263917026Y-58619990D01*
X250031237Y-61068429D02*
X247582798Y-47182640D01*
X263917026Y-58619990D02*
X250031237Y-61068429D01*
X247582798Y-47182640D02*
X261468587Y-44734201D01*
X266215132Y-96902526D02*
X263766693Y-83016737D01*
X263766693Y-83016737D02*
X277652482Y-80568298D01*
X280100921Y-94454087D02*
X266215132Y-96902526D01*
X277652482Y-80568298D02*
X280100921Y-94454087D01*
X207375795Y-87933611D02*
X204927356Y-74047822D01*
X218813145Y-71599383D02*
X221261584Y-85485172D01*
X204927356Y-74047822D02*
X218813145Y-71599383D01*
X221261584Y-85485172D02*
X207375795Y-87933611D01*
X124032561Y-64975988D02*
X126481000Y-51090199D01*
X137918350Y-67424427D02*
X124032561Y-64975988D01*
X126481000Y-51090199D02*
X140366789Y-53538638D01*
X140366789Y-53538638D02*
X137918350Y-67424427D01*
X119157762Y-64116429D02*
X105271973Y-61667990D01*
X121606201Y-50230640D02*
X119157762Y-64116429D01*
X107720412Y-47782201D02*
X121606201Y-50230640D01*
X105271973Y-61667990D02*
X107720412Y-47782201D01*
X283272000Y-61021817D02*
X297372000Y-61021817D01*
X283272000Y-75121817D02*
X283272000Y-61021817D01*
X297372000Y-61021817D02*
X297372000Y-75121817D01*
X297372000Y-75121817D02*
X283272000Y-75121817D01*
X95782544Y-65021111D02*
X109668333Y-67469550D01*
X109668333Y-67469550D02*
X107219894Y-81355339D01*
X107219894Y-81355339D02*
X93334105Y-78906900D01*
X93334105Y-78906900D02*
X95782544Y-65021111D01*
X147189509Y-74085544D02*
X144741070Y-87971333D01*
X144741070Y-87971333D02*
X130855281Y-85522894D01*
X133303720Y-71637105D02*
X147189509Y-74085544D01*
X130855281Y-85522894D02*
X133303720Y-71637105D01*
X213697996Y-33813568D02*
X216146435Y-47699357D01*
X199812207Y-36262007D02*
X213697996Y-33813568D01*
X216146435Y-47699357D02*
X202260646Y-50147796D01*
X202260646Y-50147796D02*
X199812207Y-36262007D01*
X86511386Y-58359992D02*
X88959825Y-44474203D01*
X100397175Y-60808431D02*
X86511386Y-58359992D01*
X102845614Y-46922642D02*
X100397175Y-60808431D01*
X88959825Y-44474203D02*
X102845614Y-46922642D01*
X253667611Y-41083362D02*
X239781822Y-43531801D01*
X239781822Y-43531801D02*
X237333383Y-29646012D01*
X251219172Y-27197573D02*
X253667611Y-41083362D01*
X237333383Y-29646012D02*
X251219172Y-27197573D01*
X253008719Y-98164975D02*
X250438726Y-83589820D01*
X234090918Y-86472380D02*
X227000302Y-87722647D01*
D12*
X238074251Y-101864522D02*
X235625812Y-87978733D01*
D11*
X236660911Y-101047534D02*
X234090918Y-86472380D01*
D12*
X251960040Y-99416083D02*
X238074251Y-101864522D01*
D11*
X229570295Y-102297801D02*
X236660911Y-101047534D01*
X260099335Y-96914708D02*
X253008719Y-98164975D01*
D12*
X249511601Y-85530294D02*
X251960040Y-99416083D01*
D11*
X257529342Y-82339553D02*
X260099335Y-96914708D01*
X227000302Y-87722647D02*
X229570295Y-102297801D01*
X250438726Y-83589820D02*
X257529342Y-82339553D01*
D12*
X235625812Y-87978733D02*
X249511601Y-85530294D01*
D11*
X288034500Y-94171817D02*
X288034500Y-80071817D01*
X302134500Y-94171817D02*
X288034500Y-94171817D01*
X302134500Y-80071817D02*
X302134500Y-94171817D01*
X288034500Y-80071817D02*
X302134500Y-80071817D01*
X237573733Y-68291386D02*
X240022172Y-82177175D01*
X226136383Y-84625614D02*
X223687944Y-70739825D01*
X240022172Y-82177175D02*
X226136383Y-84625614D01*
X223687944Y-70739825D02*
X237573733Y-68291386D01*
X77021957Y-61713112D02*
X90907746Y-64161551D01*
X74573518Y-75598901D02*
X77021957Y-61713112D01*
X90907746Y-64161551D02*
X88459307Y-78047340D01*
X88459307Y-78047340D02*
X74573518Y-75598901D01*
X148017000Y-27049500D02*
X162117000Y-27049500D01*
X162117000Y-41149500D02*
X148017000Y-41149500D01*
X148017000Y-41149500D02*
X148017000Y-27049500D01*
X162117000Y-27049500D02*
X162117000Y-41149500D01*
X212510062Y-67684425D02*
X210061623Y-53798636D01*
X210061623Y-53798636D02*
X223947412Y-51350197D01*
X223947412Y-51350197D02*
X226395851Y-65235986D01*
X226395851Y-65235986D02*
X212510062Y-67684425D01*
M02*
