M48
; DRILL file {KiCad (6.0.0-0)} date 
; FORMAT={-:-/ absolute / inch / decimal}
; #@! TF.CreationDate,2022-01-02T14:55:08+09:00
; #@! TF.GenerationSoftware,Kicad,Pcbnew,(6.0.0-0)
; #@! TF.FileFunction,Plated,1,2,PTH
FMAT,2
INCH
; #@! TA.AperFunction,Plated,PTH,ComponentDrill
T1C0.0118
%
G90
G05
T1
G00X0.8514Y-3.1564
M15
G01X0.8514Y-3.7036
M16
G05
G00X1.0614Y-1.6564
M15
G01X1.0614Y-2.2036
M16
G05
G00X1.0764Y-0.9064
M15
G01X1.0764Y-1.4536
M16
G05
G00X0.8514Y-3.1564
M15
G01X1.3986Y-3.1564
M16
G05
G00X0.8514Y-3.7036
M15
G01X1.3986Y-3.7036
M16
G05
G00X1.1289Y-2.4064
M15
G01X1.1289Y-2.9536
M16
G05
G00X1.0614Y-1.6564
M15
G01X1.6086Y-1.6564
M16
G05
G00X1.0614Y-2.2036
M15
G01X1.6086Y-2.2036
M16
G05
G00X1.0764Y-0.9064
M15
G01X1.6236Y-0.9064
M16
G05
G00X1.0764Y-1.4536
M15
G01X1.6236Y-1.4536
M16
G05
G00X1.3986Y-3.1564
M15
G01X1.3986Y-3.7036
M16
G05
G00X1.1289Y-2.4064
M15
G01X1.6761Y-2.4064
M16
G05
G00X1.1289Y-2.9536
M15
G01X1.6761Y-2.9536
M16
G05
G00X1.6014Y-3.1564
M15
G01X1.6014Y-3.7036
M16
G05
G00X1.6086Y-1.6564
M15
G01X1.6086Y-2.2036
M16
G05
G00X1.6236Y-0.9064
M15
G01X1.6236Y-1.4536
M16
G05
G00X1.6761Y-2.4064
M15
G01X1.6761Y-2.9536
M16
G05
G00X1.8264Y-0.9064
M15
G01X1.8264Y-1.4536
M16
G05
G00X1.6014Y-3.1564
M15
G01X2.1486Y-3.1564
M16
G05
G00X1.6014Y-3.7036
M15
G01X2.1486Y-3.7036
M16
G05
G00X1.9014Y-1.6564
M15
G01X1.9014Y-2.2036
M16
G05
G00X1.8264Y-0.9064
M15
G01X2.3736Y-0.9064
M16
G05
G00X1.8264Y-1.4536
M15
G01X2.3736Y-1.4536
M16
G05
G00X2.1486Y-3.1564
M15
G01X2.1486Y-3.7036
M16
G05
G00X2.1639Y-2.4064
M15
G01X2.1639Y-2.9536
M16
G05
G00X1.9014Y-1.6564
M15
G01X2.4486Y-1.6564
M16
G05
G00X1.9014Y-2.2036
M15
G01X2.4486Y-2.2036
M16
G05
G00X2.3736Y-0.9064
M15
G01X2.3736Y-1.4536
M16
G05
G00X2.1639Y-2.4064
M15
G01X2.7111Y-2.4064
M16
G05
G00X2.1639Y-2.9536
M15
G01X2.7111Y-2.9536
M16
G05
G00X2.4486Y-1.6564
M15
G01X2.4486Y-2.2036
M16
G05
G00X2.6904Y-0.8502
M15
G01X2.5953Y-1.3891
M16
G05
G00X2.7111Y-2.4064
M15
G01X2.7111Y-2.9536
M16
G05
G00X2.7669Y-1.6253
M15
G01X2.6719Y-2.1642
M16
G05
G00X2.5953Y-1.3891
M15
G01X3.1343Y-1.4842
M16
G05
G00X2.9496Y-3.1806
M15
G01X2.8546Y-3.7196
M16
G05
G00X2.6719Y-2.1642
M15
G01X3.2108Y-2.2592
M16
G05
G00X2.6904Y-0.8502
M15
G01X3.2293Y-0.9452
M16
G05
G00X3.0356Y-2.4342
M15
G01X2.9405Y-2.9731
M16
G05
G00X2.7669Y-1.6253
M15
G01X3.3059Y-1.7203
M16
G05
G00X2.8546Y-3.7196
M15
G01X3.3935Y-3.8146
M16
G05
G00X3.2293Y-0.9452
M15
G01X3.1343Y-1.4842
M16
G05
G00X2.9405Y-2.9731
M15
G01X3.4795Y-3.0682
M16
G05
G00X2.9496Y-3.1806
M15
G01X3.4886Y-3.2757
M16
G05
G00X3.3059Y-1.7203
M15
G01X3.2108Y-2.2592
M16
G05
G00X3.0356Y-2.4342
M15
G01X3.5745Y-2.5292
M16
G05
G00X3.429Y-0.9804
M15
G01X3.3339Y-1.5194
M16
G05
G00X3.4886Y-3.2757
M15
G01X3.3935Y-3.8146
M16
G05
G00X3.5055Y-1.7555
M15
G01X3.4105Y-2.2944
M16
G05
G00X3.5745Y-2.5292
M15
G01X3.4795Y-3.0682
M16
G05
G00X3.3339Y-1.5194
M15
G01X3.8729Y-1.6144
M16
G05
G00X3.4105Y-2.2944
M15
G01X3.9495Y-2.3895
M16
G05
G00X3.6421Y-3.8164
M15
G01X3.7419Y-3.2504
M16
G05
G00X3.429Y-0.9804
M15
G01X3.9679Y-1.0755
M16
G05
G00X3.7742Y-2.5644
M15
G01X3.6791Y-3.1034
M16
G05
G00X3.5055Y-1.7555
M15
G01X4.0445Y-1.8505
M16
G05
G00X3.9135Y-3.8643
M15
G01X3.6421Y-3.8164
M16
G05
G00X4.0133Y-3.2982
M15
G01X3.7419Y-3.2504
M16
G05
G00X3.9679Y-1.0755
M15
G01X3.8729Y-1.6144
M16
G05
G00X3.6791Y-3.1034
M15
G01X4.2181Y-3.1984
M16
G05
G00X3.9135Y-3.8643
M15
G01X4.0133Y-3.2982
M16
G05
G00X4.0445Y-1.8505
M15
G01X3.9495Y-2.3895
M16
G05
G00X3.9625Y-3.9149
M15
G01X4.0575Y-3.376
M16
G05
G00X3.7742Y-2.5644
M15
G01X4.3131Y-2.6595
M16
G05
G00X4.1676Y-1.1107
M15
G01X4.0726Y-1.6496
M16
G05
G00X4.2442Y-1.8857
M15
G01X4.1491Y-2.4247
M16
G05
G00X4.5014Y-4.0099
M15
G01X3.9625Y-3.9149
M16
G05
G00X4.3131Y-2.6595
M15
G01X4.2181Y-3.1984
M16
G05
G00X4.5965Y-3.471
M15
G01X4.0575Y-3.376
M16
G05
G00X4.0726Y-1.6496
M15
G01X4.6115Y-1.7446
M16
G05
G00X4.1491Y-2.4247
M15
G01X4.6881Y-2.5197
M16
G05
G00X4.1676Y-1.1107
M15
G01X4.7065Y-1.2057
M16
G05
G00X4.5128Y-2.6947
M15
G01X4.4177Y-3.2336
M16
G05
G00X4.2442Y-1.8857
M15
G01X4.7831Y-1.9808
M16
G05
G00X4.5014Y-4.0099
M15
G01X4.5965Y-3.471
M16
G05
G00X4.5648Y-3.9791
M15
G01X4.6647Y-3.4131
M16
G05
G00X4.7065Y-1.2057
M15
G01X4.6115Y-1.7446
M16
G05
G00X4.4177Y-3.2336
M15
G01X4.9567Y-3.3286
M16
G05
G00X4.8362Y-4.027
M15
G01X4.5648Y-3.9791
M16
G05
G00X4.7831Y-1.9808
M15
G01X4.6881Y-2.5197
M16
G05
G00X4.5128Y-2.6947
M15
G01X5.0517Y-2.7897
M16
G05
G00X4.9361Y-3.4609
M15
G01X4.6647Y-3.4131
M16
G05
G00X4.9062Y-1.2409
M15
G01X4.8112Y-1.7798
M16
G05
G00X4.8362Y-4.027
M15
G01X4.9361Y-3.4609
M16
G05
G00X4.9828Y-2.016
M15
G01X4.8877Y-2.5549
M16
G05
G00X5.0517Y-2.7897
M15
G01X4.9567Y-3.3286
M16
G05
G00X4.8112Y-1.7798
M15
G01X5.3501Y-1.8749
M16
G05
G00X5.1655Y-3.5713
M15
G01X5.0704Y-4.1103
M16
G05
G00X4.8877Y-2.5549
M15
G01X5.4267Y-2.6499
M16
G05
G00X4.9062Y-1.2409
M15
G01X5.4451Y-1.3359
M16
G05
G00X5.2514Y-2.8249
M15
G01X5.1563Y-3.3638
M16
G05
G00X4.9828Y-2.016
M15
G01X5.5217Y-2.111
M16
G05
G00X5.0704Y-4.1103
M15
G01X5.6094Y-4.2053
M16
G05
G00X5.4451Y-1.3359
M15
G01X5.3501Y-1.8749
M16
G05
G00X5.1563Y-3.3638
M15
G01X5.6953Y-3.4589
M16
G05
G00X5.1655Y-3.5713
M15
G01X5.7044Y-3.6664
M16
G05
G00X5.5217Y-2.111
M15
G01X5.4267Y-2.6499
M16
G05
G00X5.2514Y-2.8249
M15
G01X5.7903Y-2.9199
M16
G05
G00X5.7044Y-3.6664
M15
G01X5.6094Y-4.2053
M16
G05
G00X5.7903Y-2.9199
M15
G01X5.6953Y-3.4589
M16
G05
G00X5.8314Y-1.0689
M15
G01X5.8314Y-1.6161
M16
G05
G00X5.8314Y-1.0689
M15
G01X6.3786Y-1.0689
M16
G05
G00X5.8314Y-1.6161
M15
G01X6.3786Y-1.6161
M16
G05
G00X6.3786Y-1.0689
M15
G01X6.3786Y-1.6161
M16
G05
G00X7.8712Y-1.4308
M15
G01X7.9662Y-1.9698
M16
G05
G00X8.0726Y-2.9185
M15
G01X8.1676Y-3.4574
M16
G05
G00X7.8712Y-1.4308
M15
G01X8.4101Y-1.3358
M16
G05
G00X8.1733Y-3.6623
M15
G01X8.2683Y-4.2012
M16
G05
G00X7.9662Y-1.9698
M15
G01X8.5051Y-1.8747
M16
G05
G00X8.2747Y-2.1213
M15
G01X8.3697Y-2.6602
M16
G05
G00X8.0726Y-2.9185
M15
G01X8.6115Y-2.8234
M16
G05
G00X8.1676Y-3.4574
M15
G01X8.7065Y-3.3624
M16
G05
G00X8.1733Y-3.6623
M15
G01X8.7122Y-3.5672
M16
G05
G00X8.4101Y-1.3358
M15
G01X8.5051Y-1.8747
M16
G05
G00X8.2683Y-4.2012
M15
G01X8.8072Y-4.1062
M16
G05
G00X8.2747Y-2.1213
M15
G01X8.8136Y-2.0262
M16
G05
G00X8.3697Y-2.6602
M15
G01X8.9087Y-2.5652
M16
G05
G00X8.6098Y-1.3006
M15
G01X8.7048Y-1.8395
M16
G05
G00X8.6115Y-2.8234
M15
G01X8.7065Y-3.3624
M16
G05
G00X8.7122Y-3.5672
M15
G01X8.8072Y-4.1062
M16
G05
G00X8.8112Y-2.7882
M15
G01X8.9062Y-3.3272
M16
G05
G00X8.8136Y-2.0262
M15
G01X8.9087Y-2.5652
M16
G05
G00X8.6098Y-1.3006
M15
G01X9.1487Y-1.2056
M16
G05
G00X8.7048Y-1.8395
M15
G01X9.2437Y-1.7445
M16
G05
G00X9.0414Y-4.0229
M15
G01X8.9416Y-3.4568
M16
G05
G00X9.0133Y-1.991
M15
G01X9.1083Y-2.5299
M16
G05
G00X9.213Y-3.409
M15
G01X8.9416Y-3.4568
M16
G05
G00X8.8112Y-2.7882
M15
G01X9.3501Y-2.6932
M16
G05
G00X8.9062Y-3.3272
M15
G01X9.4451Y-3.2321
M16
G05
G00X9.3128Y-3.9751
M15
G01X9.0414Y-4.0229
M16
G05
G00X9.1487Y-1.2056
M15
G01X9.2437Y-1.7445
M16
G05
G00X9.3128Y-3.9751
M15
G01X9.213Y-3.409
M16
G05
G00X9.0133Y-1.991
M15
G01X9.5522Y-1.896
M16
G05
G00X9.3762Y-4.0059
M15
G01X9.2812Y-3.4669
M16
G05
G00X9.1083Y-2.5299
M15
G01X9.6473Y-2.4349
M16
G05
G00X9.3484Y-1.1704
M15
G01X9.4434Y-1.7093
M16
G05
G00X9.3501Y-2.6932
M15
G01X9.4451Y-3.2321
M16
G05
G00X9.8201Y-3.3719
M15
G01X9.2812Y-3.4669
M16
G05
G00X9.5498Y-2.658
M15
G01X9.6448Y-3.1969
M16
G05
G00X9.5522Y-1.896
M15
G01X9.6473Y-2.4349
M16
G05
G00X9.3484Y-1.1704
M15
G01X9.8873Y-1.0753
M16
G05
G00X9.9151Y-3.9108
M15
G01X9.3762Y-4.0059
M16
G05
G00X9.4434Y-1.7093
M15
G01X9.9824Y-1.6143
M16
G05
G00X9.7519Y-1.8608
M15
G01X9.8469Y-2.3997
M16
G05
G00X9.5498Y-2.658
M15
G01X10.0887Y-2.563
M16
G05
G00X9.9151Y-3.9108
M15
G01X9.8201Y-3.3719
M16
G05
G00X9.9642Y-3.8602
M15
G01X9.8644Y-3.2941
M16
G05
G00X9.6448Y-3.1969
M15
G01X10.1837Y-3.1019
M16
G05
G00X9.8873Y-1.0753
M15
G01X9.9824Y-1.6143
M16
G05
G00X10.1358Y-3.2463
M15
G01X9.8644Y-3.2941
M16
G05
G00X9.7519Y-1.8608
M15
G01X10.2908Y-1.7657
M16
G05
G00X10.2356Y-3.8123
M15
G01X9.9642Y-3.8602
M16
G05
G00X9.8469Y-2.3997
M15
G01X10.3859Y-2.3047
M16
G05
G00X10.087Y-1.0401
M15
G01X10.182Y-1.5791
M16
G05
G00X10.0887Y-2.563
M15
G01X10.1837Y-3.1019
M16
G05
G00X10.2356Y-3.8123
M15
G01X10.1358Y-3.2463
M16
G05
G00X10.2884Y-2.5278
M15
G01X10.3834Y-3.0667
M16
G05
G00X10.2908Y-1.7657
M15
G01X10.3859Y-2.3047
M16
G05
G00X10.087Y-1.0401
M15
G01X10.6259Y-0.9451
M16
G05
G00X10.3891Y-3.2716
M15
G01X10.4841Y-3.8105
M16
G05
G00X10.182Y-1.5791
M15
G01X10.721Y-1.484
M16
G05
G00X10.4905Y-1.7305
M15
G01X10.5855Y-2.2695
M16
G05
G00X10.2884Y-2.5278
M15
G01X10.8273Y-2.4327
M16
G05
G00X10.3834Y-3.0667
M15
G01X10.9223Y-2.9717
M16
G05
G00X10.3891Y-3.2716
M15
G01X10.928Y-3.1765
M16
G05
G00X10.6259Y-0.9451
M15
G01X10.721Y-1.484
M16
G05
G00X10.4841Y-3.8105
M15
G01X11.023Y-3.7155
M16
G05
G00X10.4905Y-1.7305
M15
G01X11.0295Y-1.6355
M16
G05
G00X10.5855Y-2.2695
M15
G01X11.1245Y-2.1744
M16
G05
G00X10.8273Y-2.4327
M15
G01X10.9223Y-2.9717
M16
G05
G00X10.9689Y-0.8689
M15
G01X10.9689Y-1.4161
M16
G05
G00X10.928Y-3.1765
M15
G01X11.023Y-3.7155
M16
G05
G00X11.0295Y-1.6355
M15
G01X11.1245Y-2.1744
M16
G05
G00X11.1564Y-2.4064
M15
G01X11.1564Y-2.9536
M16
G05
G00X10.9689Y-0.8689
M15
G01X11.5161Y-0.8689
M16
G05
G00X10.9689Y-1.4161
M15
G01X11.5161Y-1.4161
M16
G05
G00X11.3439Y-1.6564
M15
G01X11.3439Y-2.2036
M16
G05
G00X11.3439Y-3.1564
M15
G01X11.3439Y-3.7036
M16
G05
G00X11.1564Y-2.4064
M15
G01X11.7036Y-2.4064
M16
G05
G00X11.1564Y-2.9536
M15
G01X11.7036Y-2.9536
M16
G05
G00X11.5161Y-0.8689
M15
G01X11.5161Y-1.4161
M16
G05
G00X11.3439Y-1.6564
M15
G01X11.8911Y-1.6564
M16
G05
G00X11.3439Y-2.2036
M15
G01X11.8911Y-2.2036
M16
G05
G00X11.3439Y-3.1564
M15
G01X11.8911Y-3.1564
M16
G05
G00X11.3439Y-3.7036
M15
G01X11.8911Y-3.7036
M16
G05
G00X11.7036Y-2.4064
M15
G01X11.7036Y-2.9536
M16
G05
G00X11.8911Y-1.6564
M15
G01X11.8911Y-2.2036
M16
G05
G00X11.8911Y-3.1564
M15
G01X11.8911Y-3.7036
M16
G05
G00X11.9064Y-0.9064
M15
G01X11.9064Y-1.4536
M16
G05
G00X11.9064Y-2.4064
M15
G01X11.9064Y-2.9536
M16
G05
G00X12.0939Y-1.6564
M15
G01X12.0939Y-2.2036
M16
G05
G00X12.0939Y-3.1564
M15
G01X12.0939Y-3.7036
M16
G05
G00X11.9064Y-0.9064
M15
G01X12.4536Y-0.9064
M16
G05
G00X11.9064Y-1.4536
M15
G01X12.4536Y-1.4536
M16
G05
G00X11.9064Y-2.4064
M15
G01X12.4536Y-2.4064
M16
G05
G00X11.9064Y-2.9536
M15
G01X12.4536Y-2.9536
M16
G05
G00X12.0939Y-1.6564
M15
G01X12.6411Y-1.6564
M16
G05
G00X12.0939Y-2.2036
M15
G01X12.6411Y-2.2036
M16
G05
G00X12.0939Y-3.1564
M15
G01X12.6411Y-3.1564
M16
G05
G00X12.0939Y-3.7036
M15
G01X12.6411Y-3.7036
M16
G05
G00X12.4536Y-0.9064
M15
G01X12.4536Y-1.4536
M16
G05
G00X12.4536Y-2.4064
M15
G01X12.4536Y-2.9536
M16
G05
G00X12.6411Y-1.6564
M15
G01X12.6411Y-2.2036
M16
G05
G00X12.6411Y-3.1564
M15
G01X12.6411Y-3.7036
M16
G05
T0
M30
