M48
; DRILL file {KiCad (6.0.0-0)} date 
; FORMAT={-:-/ absolute / inch / decimal}
; #@! TF.CreationDate,2021-12-31T14:24:38+09:00
; #@! TF.GenerationSoftware,Kicad,Pcbnew,(6.0.0-0)
; #@! TF.FileFunction,Plated,1,2,PTH
FMAT,2
INCH
; #@! TA.AperFunction,Plated,PTH,ViaDrill
T1C0.0157
; #@! TA.AperFunction,Plated,PTH,ComponentDrill
T2C0.0315
; #@! TA.AperFunction,Plated,PTH,ComponentDrill
T3C0.0320
; #@! TA.AperFunction,Plated,PTH,ComponentDrill
T4C0.0394
; #@! TA.AperFunction,Plated,PTH,ComponentDrill
T5C0.0400
; #@! TA.AperFunction,Plated,PTH,ComponentDrill
T6C0.0512
; #@! TA.AperFunction,Plated,PTH,ComponentDrill
T7C0.0787
%
G90
G05
T1
X0.915Y-3.63
X1.1325Y-2.1375
X1.155Y-1.3875
X1.2075Y-2.8875
X1.305Y-0.7575
X1.3575Y-3.6825
X1.4475Y-4.29
X1.5525Y-3.63
X1.575Y-1.3425
X1.575Y-2.085
X1.59Y-1.4475
X1.62Y-2.8275
X1.6425Y-2.2125
X1.68Y-3.6375
X1.695Y-2.9025
X1.71Y-3.7575
X1.7925Y-1.185
X1.8675Y-1.9575
X1.8825Y-1.5075
X1.92Y-3.12
X1.9275Y-4.35
X1.935Y-1.6275
X1.9575Y-2.265
X1.98Y-1.4475
X1.9875Y-3.0075
X2.0175Y-2.805
X2.0221Y-4.1338
X2.025Y-1.6275
X2.07Y-2.205
X2.1Y-3.555
X2.1Y-3.6675
X2.115Y-2.415
X2.1375Y-2.6775
X2.2425Y-2.385
X2.295Y-3.0075
X2.34Y-1.4325
X2.34Y-2.97
X2.434Y-2.156
X2.535Y-3.7875
X2.565Y-1.3575
X2.595Y-1.125
X2.6475Y-2.9025
X2.67Y-1.3575
X2.6775Y-1.515
X2.6925Y-1.89
X2.73Y-1.635
X2.7525Y-2.115
X2.7675Y-2.235
X2.8875Y-3.69
X2.9025Y-2.985
X2.91Y-2.3925
X2.925Y-3.2325
X2.925Y-4.29
X2.94Y-2.76
X3.0225Y-2.9175
X3.09Y-1.3425
X3.12Y-1.425
X3.165Y-2.13
X3.18Y-2.2275
X3.315Y-1.5525
X3.345Y-3.825
X3.36Y-1.2375
X3.375Y-4.35
X3.405Y-2.3325
X3.4125Y-1.545
X3.4125Y-2.04
X3.4125Y-2.9775
X3.465Y-1.8225
X3.465Y-3.06
X3.51Y-4.2075
X3.57Y-2.3175
X3.645Y-0.8025
X3.6825Y-2.8575
X3.735Y-2.61
X3.735Y-3.165
X3.75Y-3.3675
X3.7875Y-2.5725
X3.825Y-0.8025
X3.8325Y-1.545
X3.8325Y-2.175
X3.8475Y-3.135
X3.9Y-3.8025
X3.9225Y-2.3775
X3.9525Y-4.0125
X4.0425Y-3.8925
X4.0725Y-1.38
X4.08Y-1.5225
X4.11Y-0.8475
X4.11Y-1.7325
X4.1175Y-3.345
X4.14Y-2.4675
X4.155Y-1.6125
X4.155Y-2.145
X4.185Y-3.1725
X4.1925Y-1.9425
X4.2225Y-2.3925
X4.3425Y-4.4025
X4.41Y-0.7575
X4.4175Y-2.7375
X4.4775Y-4.005
X4.485Y-3.195
X4.545Y-3.3
X4.5825Y-1.6275
X4.59Y-1.7325
X4.62Y-2.385
X4.665Y-2.5125
X4.7775Y-4.4625
X4.7925Y-1.815
X4.815Y-1.515
X4.8525Y-2.595
X4.86Y-4.155
X4.8975Y-3.21
X4.8975Y-4.0725
X4.9343Y-4.3339
X4.935Y-2.0775
X4.9425Y-3.3225
X4.95Y-1.8075
X4.995Y-0.735
X5.055Y-2.595
X5.1225Y-3.45
X5.1375Y-3.63
X5.1675Y-0.735
X5.19Y-2.8875
X5.2425Y-0.7275
X5.2875Y-1.8225
X5.3025Y-3.405
X5.3175Y-2.445
X5.3925Y-2.6475
X5.505Y-3.99
X5.565Y-4.14
X5.58Y-4.2225
X5.58Y-4.4025
X5.595Y-3.255
X5.61Y-1.4025
X5.655Y-1.8075
X5.655Y-1.8825
X5.6583Y-3.4392
X5.67Y-1.065
X5.73Y-1.4175
X5.7525Y-1.125
X5.775Y-4.41
X5.7825Y-1.3575
X5.7975Y-4.5075
X5.835Y-1.8075
X5.835Y-1.8825
X5.835Y-4.1025
X5.85Y-4.4625
X5.865Y-4.4025
X5.9025Y-1.5525
X5.91Y-1.65
X5.9325Y-2.2125
X6.1425Y-1.0275
X6.3Y-4.4625
X6.3075Y-1.0275
X6.3155Y-4.403
X6.33Y-1.575
X6.45Y-1.8075
X6.4612Y-1.9163
X6.5625Y-2.0175
X6.5625Y-2.1075
X6.5775Y-2.175
X6.585Y-1.8075
X6.705Y-2.0325
X6.7275Y-1.4175
X6.7275Y-2.1675
X6.75Y-1.9125
X6.8475Y-1.1025
X6.8625Y-0.99
X7.0575Y-0.915
X7.1025Y-0.99
X7.11Y-2.1675
X7.2975Y-2.1675
X7.3125Y-1.095
X7.3575Y-0.9975
X7.4175Y-1.1025
X7.4325Y-0.9375
X7.56Y-4.4025
X7.5755Y-4.462
X7.6125Y-1.9125
X7.6815Y-1.92
X7.695Y-1.8375
X7.8075Y-1.0275
X7.8675Y-1.4175
X7.8825Y-1.9275
X7.8975Y-1.7175
X8.0086Y-1.9814
X8.0325Y-4.4625
X8.04Y-4.4025
X8.0625Y-2.97
X8.1Y-3.675
X8.1975Y-2.49
X8.22Y-3.3675
X8.25Y-2.1825
X8.2725Y-3.4575
X8.295Y-2.5875
X8.295Y-4.1475
X8.3175Y-1.17
X8.3465Y-1.028
X8.4225Y-0.8475
X8.4225Y-1.785
X8.43Y-2.58
X8.4375Y-1.0875
X8.475Y-1.8525
X8.4825Y-2.6925
X8.5575Y-0.84
X8.61Y-3.27
X8.6175Y-1.125
X8.6175Y-1.3575
X8.64Y-1.59
X8.6775Y-4.245
X8.685Y-1.875
X8.6925Y-3.375
X8.7525Y-4.11
X8.82Y-2.475
X8.8275Y-2.8275
X8.865Y-1.815
X8.88Y-2.535
X8.895Y-3.3975
X8.948Y-4.462
X8.9925Y-2.055
X9.0225Y-1.9725
X9.0225Y-3.9825
X9.09Y-2.58
X9.09Y-3.2925
X9.1125Y-4.4025
X9.1725Y-1.725
X9.255Y-3.0825
X9.27Y-2.5125
X9.27Y-3.5175
X9.33Y-1.635
X9.36Y-1.4625
X9.3675Y-0.8475
X9.3675Y-1.02
X9.3675Y-1.215
X9.3675Y-3.4275
X9.39Y-4.1175
X9.3975Y-3.225
X9.405Y-3.93
X9.4125Y-1.6725
X9.4275Y-1.7475
X9.555Y-4.4625
X9.57Y-2.6475
X9.5775Y-4.3575
X9.5925Y-2.43
X9.6675Y-3.24
X9.6975Y-3.0975
X9.735Y-1.92
X9.84Y-2.4675
X9.855Y-3.9225
X9.8925Y-2.31
X9.9Y-1.53
X9.96Y-1.605
X10.0425Y-1.0725
X10.0875Y-0.8475
X10.095Y-1.11
X10.095Y-3.015
X10.11Y-1.485
X10.14Y-1.3575
X10.155Y-3.7275
X10.17Y-1.62
X10.17Y-3.09
X10.2525Y-0.96
X10.2825Y-2.5725
X10.29Y-2.2275
X10.2975Y-3.7425
X10.305Y-3.8325
X10.3575Y-1.5675
X10.365Y-2.2725
X10.365Y-3.15
X10.38Y-3.33
X10.4625Y-1.68
X10.4775Y-1.8
X10.4775Y-3.8325
X10.5Y-4.29
X10.515Y-3.06
X10.515Y-3.7425
X10.5825Y-2.34
X10.59Y-0.8388
X10.6425Y-0.8388
X10.65Y-1.455
X10.6875Y-1.1025
X10.7114Y-0.8536
X10.725Y-2.8275
X10.7475Y-2.235
X10.7489Y-0.8911
X10.7625Y-1.305
X10.7789Y-3.945
X10.7925Y-1.2698
X10.8225Y-1.0125
X10.8225Y-1.2375
X10.8525Y-3.555
X10.8675Y-2.985
X10.8973Y-1.2364
X10.8975Y-1.306
X10.9275Y-1.275
X10.9275Y-1.3631
X10.9425Y-1.1475
X10.965Y-4.35
X10.9725Y-3.7041
X10.9927Y-1.3673
X11.0625Y-0.936
X11.0775Y-2.1975
X11.13Y-3.0225
X11.1375Y-0.915
X11.1375Y-2.46
X11.16Y-0.99
X11.1825Y-0.885
X11.1825Y-1.6875
X11.205Y-2.895
X11.22Y-1.545
X11.2275Y-3.7575
X11.28Y-1.995
X11.325Y-3.225
X11.3325Y-2.2575
X11.385Y-1.515
X11.385Y-3.63
X11.3925Y-2.13
X11.3925Y-2.385
X11.6325Y-2.835
X11.6775Y-1.5975
X11.6925Y-2.94
X11.753Y-1.3055
X11.8125Y-2.085
X11.835Y-3.675
X11.8575Y-1.2075
X11.88Y-2.16
X11.8875Y-3.015
X11.895Y-2.49
X11.9175Y-1.2675
X11.925Y-4.29
X12.015Y-3.6375
X12.045Y-1.98
X12.0525Y-2.355
X12.0525Y-3.57
X12.06Y-2.1975
X12.06Y-2.955
X12.0675Y-3.21
X12.075Y-0.765
X12.0825Y-1.635
X12.1275Y-1.515
X12.135Y-2.2575
X12.15Y-2.0775
X12.1511Y-3.6386
X12.18Y-3.7575
X12.2025Y-3.1275
X12.2475Y-2.2125
X12.3Y-2.775
X12.375Y-1.455
X12.375Y-2.88
X12.3825Y-1.635
X12.3975Y-1.3425
X12.405Y-4.2075
X12.5775Y-2.19
X12.5925Y-3.72
X12.6075Y-1.5675
T3
X1.455Y-3.4575
X1.455Y-3.7575
X1.68Y-1.2075
X1.68Y-1.5075
X1.755Y-1.9575
X1.755Y-2.2575
X1.7858Y-2.6965
X1.7858Y-2.9965
X2.205Y-3.4575
X2.205Y-3.7575
X2.4375Y-1.2075
X2.4375Y-1.5075
X2.505Y-1.965
X2.505Y-2.265
X2.7675Y-2.715
X2.7675Y-3.015
X3.1765Y-1.5502
X3.2285Y-1.2548
X3.2561Y-2.3214
X3.3082Y-2.026
X3.439Y-3.8752
X3.491Y-3.5798
X3.5215Y-3.1327
X3.5735Y-2.8373
X3.919Y-1.6852
X3.971Y-1.3898
X3.994Y-2.4577
X4.046Y-2.1623
X4.264Y-3.2677
X4.316Y-2.9723
X4.5714Y-4.0617
X4.6235Y-3.7662
X4.6615Y-1.8127
X4.7135Y-1.5173
X4.729Y-2.5927
X4.781Y-2.2973
X5.0025Y-3.3975
X5.0546Y-3.1021
X5.3965Y-1.9402
X5.4485Y-1.6448
X5.4761Y-2.7114
X5.5282Y-2.416
X5.6515Y-4.2652
X5.7035Y-3.9698
X5.749Y-3.5302
X5.801Y-3.2348
X6.5775Y-1.395
X6.5775Y-1.695
X7.6125Y-1.185
X7.6125Y-1.485
X8.5165Y-1.6298
X8.5685Y-1.9252
X8.719Y-3.1073
X8.771Y-3.4027
X8.8165Y-3.8498
X8.8685Y-4.1452
X8.9215Y-2.3198
X8.9735Y-2.6152
X9.259Y-1.4948
X9.311Y-1.7902
X9.4615Y-2.9873
X9.5135Y-3.2827
X9.664Y-2.1923
X9.716Y-2.4877
X9.9395Y-3.6529
X9.9916Y-3.9483
X9.994Y-1.3673
X10.046Y-1.6627
X10.1965Y-2.8523
X10.2485Y-3.1477
X10.399Y-2.0498
X10.451Y-2.3452
X10.699Y-1.2473
X10.751Y-1.5427
X10.835Y-0.8272
X10.835Y-1.4264
X10.935Y-0.8272
X10.935Y-1.4264
X10.939Y-2.7248
X10.991Y-3.0202
X11.035Y-0.8272
X11.035Y-1.4264
X11.0365Y-3.4598
X11.0885Y-3.7552
X11.135Y-0.8272
X11.135Y-1.4264
X11.1415Y-1.9298
X11.1935Y-2.2252
X11.235Y-0.8272
X11.235Y-1.4264
X11.335Y-0.8272
X11.335Y-1.4264
X11.435Y-0.8272
X11.435Y-1.4264
X11.535Y-0.8272
X11.535Y-1.4264
X11.635Y-0.8272
X11.635Y-1.4264
X11.64Y-0.9675
X11.64Y-1.2675
X11.735Y-0.8272
X11.735Y-1.4264
X11.76Y-2.715
X11.76Y-3.015
X11.835Y-0.8272
X11.835Y-1.4264
X11.935Y-0.8272
X11.935Y-1.4264
X11.9475Y-1.9575
X11.9475Y-2.2575
X11.955Y-3.4725
X11.955Y-3.7725
X12.035Y-0.8272
X12.035Y-1.4264
X12.51Y-2.715
X12.51Y-3.015
X12.555Y-1.1925
X12.555Y-1.4925
X12.6675Y-1.9575
X12.6675Y-2.2575
X12.6675Y-3.4575
X12.6675Y-3.7575
T4
X6.8447Y-1.2441
X6.8447Y-1.3425
X6.8447Y-1.4409
X7.4156Y-1.2441
X7.4156Y-1.4409
T5
X6.78Y-2.8102
X6.78Y-2.9102
X6.88Y-2.8102
X6.88Y-2.9102
X6.98Y-2.8102
X6.98Y-2.9102
X7.08Y-2.8102
X7.08Y-2.9102
T6
X6.4275Y-1.4095
X6.4275Y-1.6655
X12.1795Y-0.8175
X12.4355Y-0.8175
T2
G00X6.3291Y-0.8945
M15
G01X6.3291Y-0.8945
M16
G05
G00X6.4275Y-0.8945
M15
G01X6.4275Y-0.8945
M16
G05
G00X6.5259Y-0.8945
M15
G01X6.5259Y-0.8945
M16
G05
T7
G00X7.1243Y-1.122
M15
G01X7.1557Y-1.122
M16
G05
G00X7.1243Y-1.563
M15
G01X7.1557Y-1.563
M16
G05
T0
M30
