M48
; DRILL file {KiCad (6.0.0-0)} date 
; FORMAT={-:-/ absolute / inch / decimal}
; #@! TF.CreationDate,2021-12-31T14:24:38+09:00
; #@! TF.GenerationSoftware,Kicad,Pcbnew,(6.0.0-0)
; #@! TF.FileFunction,NonPlated,1,2,NPTH
FMAT,2
INCH
; #@! TA.AperFunction,NonPlated,NPTH,ComponentDrill
T1C0.0709
; #@! TA.AperFunction,NonPlated,NPTH,ComponentDrill
T2C0.0787
; #@! TA.AperFunction,NonPlated,NPTH,ComponentDrill
T3C0.0866
; #@! TA.AperFunction,NonPlated,NPTH,ComponentDrill
T4C0.0890
; #@! TA.AperFunction,NonPlated,NPTH,ComponentDrill
T5C0.1181
; #@! TA.AperFunction,NonPlated,NPTH,ComponentDrill
T6C0.1201
; #@! TA.AperFunction,NonPlated,NPTH,ComponentDrill
T7C0.1575
%
G90
G05
T1
X4.0825Y-3.6582
X4.4765Y-3.7277
X9.4012Y-3.7236
X9.7951Y-3.6541
T2
X0.925Y-3.43
X1.135Y-1.93
X1.15Y-1.18
X1.2025Y-2.68
X1.325Y-3.43
X1.535Y-1.93
X1.55Y-1.18
X1.6025Y-2.68
X1.675Y-3.43
X1.9Y-1.18
X1.975Y-1.93
X2.075Y-3.43
X2.2375Y-2.68
X2.3Y-1.18
X2.375Y-1.93
X2.6375Y-2.68
X2.7154Y-1.1325
X2.7919Y-1.9075
X2.9746Y-3.4629
X3.0605Y-2.7165
X3.1093Y-1.2019
X3.1859Y-1.977
X3.3685Y-3.5323
X3.454Y-1.2627
X3.4545Y-2.7859
X3.5305Y-2.0378
X3.7991Y-2.8467
X3.8479Y-1.3322
X3.9245Y-2.1072
X4.1926Y-1.3929
X4.1931Y-2.9162
X4.2691Y-2.168
X4.5378Y-2.9769
X4.5865Y-1.4624
X4.6631Y-2.2375
X4.9312Y-1.5232
X4.9317Y-3.0464
X5.0078Y-2.2982
X5.1904Y-3.8536
X5.2764Y-3.1072
X5.3251Y-1.5926
X5.4017Y-2.3677
X5.5844Y-3.923
X5.6703Y-3.1766
X5.905Y-1.3425
X6.305Y-1.3425
X7.9912Y-1.6875
X8.1926Y-3.1751
X8.2933Y-3.919
X8.3851Y-1.6181
X8.3947Y-2.3779
X8.5865Y-3.1057
X8.6872Y-3.8495
X8.7298Y-1.5573
X8.7886Y-2.3085
X8.9312Y-3.0449
X9.1237Y-1.4878
X9.1333Y-2.2477
X9.3251Y-2.9754
X9.4684Y-1.427
X9.5272Y-2.1782
X9.6698Y-2.9147
X9.8623Y-1.3576
X9.8719Y-2.1175
X10.0637Y-2.8452
X10.207Y-1.2968
X10.2659Y-2.048
X10.4084Y-2.7844
X10.5091Y-3.5282
X10.6009Y-1.2273
X10.6105Y-1.9872
X10.8023Y-2.715
X10.903Y-3.4588
X11.0045Y-1.9178
X11.0425Y-1.1425
X11.23Y-2.68
X11.4175Y-1.93
X11.4175Y-3.43
X11.4425Y-1.1425
X11.63Y-2.68
X11.8175Y-1.93
X11.8175Y-3.43
X11.98Y-1.18
X11.98Y-2.68
X12.1675Y-1.93
X12.1675Y-3.43
X12.38Y-1.18
X12.38Y-2.68
X12.5675Y-1.93
X12.5675Y-3.43
T3
X0.915Y-0.84
X0.96Y-4.3575
X2.5275Y-4.05
X4.77Y-0.9825
X6.075Y-2.3925
X6.075Y-3.3
X6.075Y-4.2
X6.93Y-2.46
X6.93Y-4.2225
X7.8075Y-2.3925
X7.8075Y-3.3
X7.8075Y-4.2
X8.7375Y-0.9825
X10.9725Y-4.05
X12.54Y-4.3575
X12.585Y-0.84
T4
X6.3985Y-3.3027
X7.4615Y-3.3027
T5
X0.975Y-3.33
X1.185Y-1.83
X1.2Y-1.08
X1.225Y-3.23
X1.2525Y-2.58
X1.435Y-1.73
X1.45Y-0.98
X1.5025Y-2.48
X1.725Y-3.33
X1.95Y-1.08
X1.975Y-3.23
X2.025Y-1.83
X2.2Y-0.98
X2.275Y-1.73
X2.2875Y-2.58
X2.5375Y-2.48
X2.782Y-1.0427
X2.8585Y-1.8177
X3.0412Y-3.3731
X3.0455Y-0.9876
X3.1221Y-1.7627
X3.1271Y-2.6267
X3.3048Y-3.318
X3.3907Y-2.5716
X3.5206Y-1.1729
X3.5971Y-1.948
X3.7841Y-1.1178
X3.8607Y-1.8929
X3.8658Y-2.7569
X4.1293Y-2.7018
X4.1491Y-3.5684
X4.2592Y-1.3031
X4.3357Y-2.0782
X4.4127Y-3.5134
X4.5227Y-1.2481
X4.5993Y-2.0231
X4.6044Y-2.8871
X4.8679Y-2.8321
X4.9978Y-1.4334
X5.0744Y-2.2084
X5.257Y-3.7638
X5.2613Y-1.3783
X5.3379Y-2.1534
X5.343Y-3.0174
X5.5206Y-3.7087
X5.6065Y-2.9623
X5.955Y-1.2425
X6.205Y-1.1425
X8.0231Y-1.5803
X8.2245Y-3.068
X8.2519Y-1.4385
X8.3252Y-3.8118
X8.4266Y-2.2708
X8.4533Y-2.9261
X8.554Y-3.6699
X8.6554Y-2.1289
X8.7617Y-1.4501
X8.9631Y-2.9377
X8.9905Y-1.3082
X9.1652Y-2.1405
X9.1919Y-2.7959
X9.394Y-1.9986
X9.4331Y-3.6164
X9.5003Y-1.3199
X9.6619Y-3.4745
X9.7017Y-2.8075
X9.7291Y-1.178
X9.9038Y-2.0103
X9.9305Y-2.6656
X10.1326Y-1.8684
X10.2389Y-1.1896
X10.4403Y-2.6773
X10.4677Y-1.0477
X10.541Y-3.4211
X10.6424Y-1.8801
X10.6691Y-2.5354
X10.7698Y-3.2792
X10.8713Y-1.7382
X11.0925Y-1.0425
X11.28Y-2.58
X11.3425Y-0.9425
X11.4675Y-1.83
X11.4675Y-3.33
X11.53Y-2.48
X11.7175Y-1.73
X11.7175Y-3.23
X12.03Y-1.08
X12.03Y-2.58
X12.2175Y-1.83
X12.2175Y-3.33
X12.28Y-0.98
X12.28Y-2.48
X12.4675Y-1.73
X12.4675Y-3.23
T6
X3.7703Y-3.883
X4.693Y-4.0457
X9.1846Y-4.0416
X10.1074Y-3.8789
T7
X1.125Y-3.43
X1.335Y-1.93
X1.35Y-1.18
X1.4025Y-2.68
X1.875Y-3.43
X2.1Y-1.18
X2.175Y-1.93
X2.4375Y-2.68
X2.9123Y-1.1672
X2.9889Y-1.9423
X3.1716Y-3.4976
X3.2575Y-2.7512
X3.6509Y-1.2974
X3.7275Y-2.0725
X3.8744Y-3.2921
X3.9961Y-2.8814
X4.2795Y-3.693
X4.3895Y-1.4277
X4.4661Y-2.2027
X4.7347Y-3.0117
X4.7972Y-3.4548
X5.1281Y-1.5579
X5.2047Y-2.333
X5.3874Y-3.8883
X5.4733Y-3.1419
X6.105Y-1.3425
X8.1882Y-1.6528
X8.3895Y-3.1404
X8.4902Y-3.8842
X8.5917Y-2.3432
X8.9268Y-1.5225
X9.0804Y-3.4507
X9.1282Y-3.0102
X9.3303Y-2.213
X9.5981Y-3.6889
X9.6654Y-1.3923
X9.8668Y-2.8799
X10.0032Y-3.288
X10.0689Y-2.0827
X10.404Y-1.2621
X10.6054Y-2.7497
X10.7061Y-3.4935
X10.8075Y-1.9525
X11.2425Y-1.1425
X11.43Y-2.68
X11.6175Y-1.93
X11.6175Y-3.43
X12.18Y-1.18
X12.18Y-2.68
X12.3675Y-1.93
X12.3675Y-3.43
T0
M30
