G04 #@! TF.GenerationSoftware,KiCad,Pcbnew,(6.0.0-0)*
G04 #@! TF.CreationDate,2021-12-31T14:24:18+09:00*
G04 #@! TF.ProjectId,aliceball,616c6963-6562-4616-9c6c-2e6b69636164,rev?*
G04 #@! TF.SameCoordinates,Original*
G04 #@! TF.FileFunction,Soldermask,Top*
G04 #@! TF.FilePolarity,Negative*
%FSLAX46Y46*%
G04 Gerber Fmt 4.6, Leading zero omitted, Abs format (unit mm)*
G04 Created by KiCad (PCBNEW (6.0.0-0)) date 2021-12-31 14:24:18*
%MOMM*%
%LPD*%
G01*
G04 APERTURE LIST*
G04 Aperture macros list*
%AMRotRect*
0 Rectangle, with rotation*
0 The origin of the aperture is its center*
0 $1 length*
0 $2 width*
0 $3 Rotation angle, in degrees counterclockwise*
0 Add horizontal line*
21,1,$1,$2,0,0,$3*%
G04 Aperture macros list end*
%ADD10R,2.500000X0.820000*%
%ADD11C,3.000000*%
%ADD12C,2.000000*%
%ADD13C,4.000000*%
%ADD14C,1.800000*%
%ADD15C,3.050000*%
%ADD16R,3.200000X2.500000*%
%ADD17O,1.500000X1.500000*%
%ADD18C,2.200000*%
%ADD19R,1.397000X1.397000*%
%ADD20C,1.397000*%
%ADD21RotRect,1.397000X1.397000X280.000000*%
%ADD22RotRect,1.397000X1.397000X80.000000*%
%ADD23C,3.810000*%
%ADD24C,1.500000*%
%ADD25C,1.524000*%
G04 APERTURE END LIST*
D10*
X157155000Y-113335500D03*
X151455000Y-113335500D03*
X151455000Y-111835500D03*
X157155000Y-111835500D03*
X239832000Y-113335500D03*
X234132000Y-113335500D03*
X234132000Y-111835500D03*
X239832000Y-111835500D03*
X207066000Y-27610500D03*
X201366000Y-27610500D03*
X201366000Y-26110500D03*
X207066000Y-26110500D03*
X82860000Y-110478000D03*
X77160000Y-110478000D03*
X77160000Y-108978000D03*
X82860000Y-108978000D03*
X45331500Y-110478000D03*
X39631500Y-110478000D03*
X39631500Y-108978000D03*
X45331500Y-108978000D03*
X201160500Y-113335500D03*
X195460500Y-113335500D03*
X195460500Y-111835500D03*
X201160500Y-111835500D03*
X311384000Y-110478000D03*
X305684000Y-110478000D03*
X305684000Y-108978000D03*
X311384000Y-108978000D03*
X118483500Y-113335500D03*
X112783500Y-113335500D03*
X112783500Y-111835500D03*
X118483500Y-111835500D03*
X140124500Y-27610500D03*
X134424500Y-27610500D03*
X134424500Y-26110500D03*
X140124500Y-26110500D03*
X275455500Y-110478000D03*
X269755500Y-110478000D03*
X269755500Y-108978000D03*
X275455500Y-108978000D03*
D11*
X57785000Y-43941817D03*
D12*
X50165000Y-49021817D03*
D13*
X55245000Y-49021817D03*
D11*
X51435000Y-46481817D03*
D12*
X60325000Y-49021817D03*
D13*
X53340000Y-29971817D03*
D12*
X48260000Y-29971817D03*
X58420000Y-29971817D03*
D11*
X55880000Y-24891817D03*
X49530000Y-27431817D03*
D13*
X35623500Y-68071817D03*
D12*
X40703500Y-68071817D03*
D11*
X38163500Y-62991817D03*
D12*
X30543500Y-68071817D03*
D11*
X31813500Y-65531817D03*
D13*
X34290000Y-29971817D03*
D11*
X36830000Y-24891817D03*
X30480000Y-27431817D03*
D12*
X29210000Y-29971817D03*
X39370000Y-29971817D03*
X28829000Y-49021817D03*
D11*
X30099000Y-46481817D03*
D12*
X38989000Y-49021817D03*
D13*
X33909000Y-49021817D03*
D11*
X36449000Y-43941817D03*
D14*
X113701975Y-94683424D03*
D11*
X105388101Y-90638280D03*
D14*
X103696329Y-92919158D03*
D15*
X95764402Y-98628532D03*
D11*
X112082696Y-89239534D03*
D13*
X98410801Y-83620062D03*
X108699152Y-93801291D03*
X121849225Y-87752888D03*
D15*
X119202827Y-102761359D03*
D13*
X47625000Y-87121817D03*
D12*
X52705000Y-87121817D03*
D11*
X43815000Y-84581817D03*
X50165000Y-82041817D03*
D12*
X42545000Y-87121817D03*
X66992500Y-68071817D03*
D13*
X61912500Y-68071817D03*
D11*
X58102500Y-65531817D03*
X64452500Y-62991817D03*
D12*
X56832500Y-68071817D03*
X78975769Y-30528625D03*
D11*
X70661895Y-26483481D03*
D13*
X73972946Y-29646492D03*
D12*
X68970123Y-28764359D03*
D11*
X77356490Y-25084735D03*
D13*
X28575000Y-87121817D03*
D11*
X24765000Y-84581817D03*
X31115000Y-82041817D03*
D12*
X23495000Y-87121817D03*
X33655000Y-87121817D03*
D11*
X89422482Y-29791479D03*
D13*
X92733533Y-32954490D03*
D11*
X96117077Y-28392733D03*
D12*
X87730710Y-32072357D03*
X97736356Y-33836623D03*
X141842855Y-99645420D03*
X131837209Y-97881154D03*
D11*
X140223576Y-94201530D03*
D13*
X136840032Y-98763287D03*
D11*
X133528981Y-95600276D03*
X108183070Y-33099477D03*
D12*
X106491298Y-35380355D03*
X116496944Y-37144621D03*
D11*
X114877665Y-31700731D03*
D13*
X111494121Y-36262488D03*
D11*
X133638253Y-35008730D03*
D12*
X125251886Y-38688354D03*
X135257532Y-40452620D03*
D13*
X130254709Y-39570487D03*
D11*
X126943658Y-36407476D03*
D12*
X173856000Y-31599500D03*
X173856000Y-36599500D03*
X173856000Y-34099500D03*
D16*
X181356000Y-28499500D03*
X181356000Y-39699500D03*
D12*
X188356000Y-36599500D03*
X188356000Y-31599500D03*
D11*
X310324500Y-84581817D03*
D12*
X309054500Y-87121817D03*
X319214500Y-87121817D03*
D11*
X316674500Y-82041817D03*
D13*
X314134500Y-87121817D03*
X314134500Y-49021817D03*
D12*
X309054500Y-49021817D03*
D11*
X316674500Y-43941817D03*
X310324500Y-46481817D03*
D12*
X319214500Y-49021817D03*
D11*
X311912000Y-62991817D03*
X305562000Y-65531817D03*
D12*
X304292000Y-68071817D03*
X314452000Y-68071817D03*
D13*
X309372000Y-68071817D03*
D12*
X314452000Y-29971817D03*
D11*
X305562000Y-27431817D03*
X311912000Y-24891817D03*
D13*
X309372000Y-29971817D03*
D12*
X304292000Y-29971817D03*
D17*
X163258500Y-22719500D03*
X165758500Y-22719500D03*
X160758500Y-22719500D03*
D18*
X318516000Y-110680500D03*
D19*
X45360000Y-76110000D03*
D20*
X45360000Y-68490000D03*
D19*
X317754000Y-68961000D03*
D20*
X317754000Y-76581000D03*
D21*
X258989900Y-72447882D03*
D20*
X260313100Y-79952118D03*
D19*
X303657000Y-88201500D03*
D20*
X303657000Y-95821500D03*
D18*
X198310500Y-106680000D03*
D22*
X101446400Y-62426118D03*
D20*
X102769600Y-54921882D03*
D12*
X290004500Y-49021817D03*
D11*
X297624500Y-43941817D03*
D13*
X295084500Y-49021817D03*
D11*
X291274500Y-46481817D03*
D12*
X300164500Y-49021817D03*
D18*
X23241000Y-21336000D03*
X319659000Y-21336000D03*
D12*
X210649221Y-99541538D03*
D13*
X215652044Y-98659405D03*
D12*
X220654867Y-97777272D03*
D11*
X217271323Y-93215515D03*
X211458860Y-96819593D03*
D19*
X167068500Y-43053000D03*
D20*
X167068500Y-35433000D03*
D18*
X64198500Y-102870000D03*
D19*
X193357500Y-37719000D03*
D20*
X193357500Y-30099000D03*
D11*
X265183049Y-68002692D03*
D13*
X269376233Y-69842504D03*
D11*
X270995512Y-64398614D03*
D12*
X264373410Y-70724637D03*
X274379056Y-68960371D03*
D21*
X245464400Y-55683882D03*
D20*
X246787600Y-63188118D03*
D13*
X264261084Y-32056689D03*
D12*
X259258261Y-32938822D03*
D11*
X265880363Y-26612799D03*
D12*
X269263907Y-31174556D03*
D11*
X260067900Y-30216877D03*
D21*
X277849400Y-69209382D03*
D20*
X279172600Y-76713618D03*
D22*
X82704626Y-58963584D03*
D20*
X84027826Y-51459348D03*
D21*
X282992900Y-49016382D03*
D20*
X284316100Y-56520618D03*
D22*
X80681900Y-39375618D03*
D20*
X82005100Y-31871382D03*
D22*
X137069900Y-49281618D03*
D20*
X138393100Y-41777382D03*
D19*
X70294500Y-76581000D03*
D20*
X70294500Y-68961000D03*
D18*
X221932500Y-24955500D03*
D19*
X61912500Y-38290500D03*
D20*
X61912500Y-30670500D03*
D23*
X162522000Y-83888000D03*
X189522000Y-83888000D03*
D24*
X172212000Y-73918500D03*
X172212000Y-71378500D03*
X174752000Y-73918500D03*
X174752000Y-71378500D03*
X177292000Y-73918500D03*
X177292000Y-71378500D03*
X179832000Y-73918500D03*
X179832000Y-71378500D03*
D11*
X79301456Y-44771563D03*
X72606861Y-46170309D03*
D12*
X70915089Y-48451187D03*
D13*
X75917912Y-49333320D03*
D12*
X80920735Y-50215453D03*
X280479500Y-29019317D03*
D11*
X281749500Y-26479317D03*
D13*
X285559500Y-29019317D03*
D12*
X290639500Y-29019317D03*
D11*
X288099500Y-23939317D03*
D22*
X146023400Y-89667618D03*
D20*
X147346600Y-82163382D03*
D13*
X120261807Y-76496223D03*
D11*
X123645351Y-71934466D03*
D12*
X115258984Y-75614090D03*
X125264630Y-77378356D03*
D11*
X116950756Y-73333212D03*
D19*
X44577000Y-57340500D03*
D20*
X44577000Y-49720500D03*
D12*
X309360500Y-20764500D03*
X315860500Y-20764500D03*
D18*
X198310500Y-60769500D03*
D11*
X252234924Y-67706612D03*
D12*
X255618468Y-72268369D03*
D13*
X250615645Y-73150502D03*
D12*
X245612822Y-74032635D03*
D11*
X246422461Y-71310690D03*
X77247219Y-85676283D03*
D13*
X80558270Y-88839294D03*
D11*
X83941814Y-84277537D03*
D12*
X75555447Y-87957161D03*
X85561093Y-89721427D03*
D22*
X87349400Y-98430618D03*
D20*
X88672600Y-90926382D03*
D11*
X228359188Y-33228794D03*
X222546725Y-36832872D03*
D12*
X221737086Y-39554817D03*
X231742732Y-37790551D03*
D13*
X226739909Y-38672684D03*
D21*
X223937900Y-97784382D03*
D20*
X225261100Y-105288618D03*
D19*
X298704000Y-68961000D03*
D20*
X298704000Y-76581000D03*
D22*
X139092626Y-68869584D03*
D20*
X140415826Y-61365348D03*
D18*
X24384000Y-110680500D03*
D19*
X42672000Y-38290500D03*
D20*
X42672000Y-30670500D03*
D21*
X271753400Y-31680882D03*
D20*
X273076600Y-39185118D03*
D11*
X238608603Y-50765423D03*
D12*
X241992147Y-55327180D03*
D13*
X236989324Y-56209313D03*
D12*
X231986501Y-57091446D03*
D11*
X232796140Y-54369501D03*
D21*
X252463741Y-92783223D03*
D20*
X253786941Y-100287459D03*
D21*
X253846400Y-34728882D03*
D20*
X255169600Y-42233118D03*
D11*
X270317316Y-47753505D03*
D12*
X279513323Y-48711184D03*
D11*
X276129779Y-44149427D03*
D13*
X274510500Y-49593317D03*
D12*
X269507677Y-50475450D03*
X260752735Y-52019182D03*
D11*
X257369191Y-47457425D03*
X251556728Y-51061503D03*
D13*
X255749912Y-52901315D03*
D12*
X250747089Y-53783448D03*
D19*
X303466500Y-49720500D03*
D20*
X303466500Y-57340500D03*
D12*
X276936630Y-87853279D03*
D11*
X267740623Y-86895600D03*
X273553086Y-83291522D03*
D12*
X266930984Y-89617545D03*
D13*
X271933807Y-88735412D03*
D11*
X214713749Y-74322607D03*
D12*
X218097293Y-78884364D03*
D11*
X208901286Y-77926685D03*
D13*
X213094470Y-79766497D03*
D12*
X208091647Y-80648630D03*
D13*
X132199675Y-59257313D03*
D11*
X128888624Y-56094302D03*
X135583219Y-54695556D03*
D12*
X127196852Y-58375180D03*
X137202498Y-60139446D03*
D13*
X113439087Y-55949315D03*
D11*
X116822631Y-51387558D03*
D12*
X118441910Y-56831448D03*
X108436264Y-55067182D03*
D11*
X110128036Y-52786304D03*
D22*
X143546900Y-108336618D03*
D20*
X144870100Y-100832382D03*
D19*
X36957000Y-95440500D03*
D20*
X36957000Y-87820500D03*
D19*
X63627000Y-57531000D03*
D20*
X63627000Y-49911000D03*
D19*
X318897000Y-30289500D03*
D20*
X318897000Y-37909500D03*
D11*
X286512000Y-65531817D03*
D13*
X290322000Y-68071817D03*
D11*
X292862000Y-62991817D03*
D12*
X285242000Y-68071817D03*
X295402000Y-68071817D03*
D21*
X216317900Y-41396382D03*
D20*
X217641100Y-48900618D03*
D12*
X96498396Y-72306092D03*
X106504042Y-74070358D03*
D11*
X104884763Y-68626468D03*
D13*
X101501219Y-73188225D03*
D11*
X98190168Y-70025214D03*
D19*
X56007000Y-95440500D03*
D20*
X56007000Y-87820500D03*
D22*
X120115400Y-65855118D03*
D20*
X121438600Y-58350882D03*
D11*
X142405939Y-75242462D03*
D13*
X139022395Y-79804219D03*
D12*
X144025218Y-80686352D03*
D11*
X135711344Y-76641208D03*
D12*
X134019572Y-78922086D03*
D18*
X278701500Y-102870000D03*
D19*
X321754500Y-49720500D03*
D20*
X321754500Y-57340500D03*
D22*
X89444900Y-79571118D03*
D20*
X90768100Y-72066882D03*
D12*
X163258500Y-42302500D03*
X163258500Y-35802500D03*
D22*
X108304400Y-83000118D03*
D20*
X109627600Y-75495882D03*
D18*
X176022000Y-62484000D03*
X198310500Y-83820000D03*
D19*
X321754500Y-87820500D03*
D20*
X321754500Y-95440500D03*
D22*
X99541400Y-42804618D03*
D20*
X100864600Y-35300382D03*
D13*
X207979321Y-41980682D03*
D12*
X212982144Y-41098549D03*
D11*
X209598600Y-36536792D03*
D12*
X202976498Y-42862815D03*
D11*
X203786137Y-40140870D03*
D25*
X277749000Y-36231400D03*
X280289000Y-36231400D03*
X282829000Y-36231400D03*
X285369000Y-36231400D03*
X287909000Y-36231400D03*
X290449000Y-36231400D03*
X292989000Y-36231400D03*
X295529000Y-36231400D03*
X298069000Y-36231400D03*
X300609000Y-36231400D03*
X303149000Y-36231400D03*
X305689000Y-36231400D03*
X305689000Y-21011400D03*
X303149000Y-21011400D03*
X300609000Y-21011400D03*
X298069000Y-21011400D03*
X295529000Y-21011400D03*
X292989000Y-21011400D03*
X290449000Y-21011400D03*
X287909000Y-21011400D03*
X285369000Y-21011400D03*
X282829000Y-21011400D03*
X280289000Y-21011400D03*
X277749000Y-21011400D03*
X275209000Y-21011400D03*
X275209000Y-36231400D03*
D12*
X99681323Y-53523450D03*
D13*
X94678500Y-52641317D03*
D12*
X89675677Y-51759184D03*
D11*
X91367449Y-49478306D03*
X98062044Y-48079560D03*
D12*
X250503320Y-34482554D03*
D11*
X247119776Y-29920797D03*
D12*
X240497674Y-36246820D03*
D11*
X241307313Y-33524875D03*
D13*
X245500497Y-35364687D03*
X254081277Y-83516179D03*
D15*
X233289251Y-102657476D03*
D11*
X239599742Y-91857596D03*
D14*
X238790103Y-94579541D03*
X248795749Y-92815275D03*
D13*
X243792926Y-93697408D03*
D11*
X245412205Y-88253518D03*
D15*
X256727676Y-98524649D03*
D13*
X230642853Y-87649005D03*
D22*
X116113741Y-103166778D03*
D20*
X117436941Y-95662542D03*
D21*
X240320900Y-75876882D03*
D20*
X241644100Y-83381118D03*
D21*
X264133400Y-52064382D03*
D20*
X265456600Y-59568618D03*
D21*
X280325900Y-87878382D03*
D20*
X281649100Y-95382618D03*
D21*
X226604900Y-58922382D03*
D20*
X227928100Y-66426618D03*
D11*
X291274500Y-84581817D03*
X297624500Y-82041817D03*
D12*
X300164500Y-87121817D03*
D13*
X295084500Y-87121817D03*
D12*
X290004500Y-87121817D03*
D22*
X127063500Y-86296500D03*
D20*
X128386700Y-78792264D03*
D18*
X154305000Y-106680000D03*
D12*
X236857881Y-75576367D03*
D13*
X231855058Y-76458500D03*
D11*
X227661874Y-74618688D03*
D12*
X226852235Y-77340633D03*
D11*
X233474337Y-71014610D03*
D18*
X154305000Y-83820000D03*
D19*
X295656000Y-24574500D03*
D20*
X295656000Y-32194500D03*
D18*
X176022000Y-107251500D03*
D12*
X87743455Y-70762359D03*
X77737809Y-68998093D03*
D11*
X86124176Y-65318469D03*
X79429581Y-66717215D03*
D13*
X82740632Y-69880226D03*
D11*
X157607000Y-29019500D03*
D12*
X160147000Y-34099500D03*
X149987000Y-34099500D03*
D13*
X155067000Y-34099500D03*
D11*
X151257000Y-31559500D03*
D18*
X121158000Y-24955500D03*
D11*
X219848016Y-54073421D03*
X214035553Y-57677499D03*
D12*
X213225914Y-60399444D03*
X223231560Y-58635178D03*
D13*
X218228737Y-59517311D03*
D22*
X118400900Y-46043118D03*
D20*
X119724100Y-38538882D03*
D21*
X235177400Y-37967382D03*
D20*
X236500600Y-45471618D03*
D18*
X154305000Y-60769500D03*
D21*
X221461400Y-78924882D03*
D20*
X222784600Y-86429118D03*
M02*
