G04 #@! TF.GenerationSoftware,KiCad,Pcbnew,(6.0.0-0)*
G04 #@! TF.CreationDate,2021-12-31T14:24:18+09:00*
G04 #@! TF.ProjectId,aliceball,616c6963-6562-4616-9c6c-2e6b69636164,rev?*
G04 #@! TF.SameCoordinates,Original*
G04 #@! TF.FileFunction,Legend,Top*
G04 #@! TF.FilePolarity,Positive*
%FSLAX46Y46*%
G04 Gerber Fmt 4.6, Leading zero omitted, Abs format (unit mm)*
G04 Created by KiCad (PCBNEW (6.0.0-0)) date 2021-12-31 14:24:18*
%MOMM*%
%LPD*%
G01*
G04 APERTURE LIST*
G04 Aperture macros list*
%AMRotRect*
0 Rectangle, with rotation*
0 The origin of the aperture is its center*
0 $1 length*
0 $2 width*
0 $3 Rotation angle, in degrees counterclockwise*
0 Add horizontal line*
21,1,$1,$2,0,0,$3*%
G04 Aperture macros list end*
%ADD10C,0.150000*%
%ADD11C,0.200000*%
%ADD12C,0.100000*%
%ADD13C,0.120000*%
%ADD14C,2.000000*%
%ADD15C,4.000000*%
%ADD16R,1.397000X1.397000*%
%ADD17C,1.397000*%
%ADD18RotRect,1.397000X1.397000X280.000000*%
%ADD19RotRect,1.397000X1.397000X80.000000*%
G04 APERTURE END LIST*
D10*
X153662142Y-115437880D02*
X153185952Y-115437880D01*
X153185952Y-114437880D01*
X154471666Y-114437880D02*
X153995476Y-114437880D01*
X153947857Y-114914071D01*
X153995476Y-114866452D01*
X154090714Y-114818833D01*
X154328809Y-114818833D01*
X154424047Y-114866452D01*
X154471666Y-114914071D01*
X154519285Y-115009309D01*
X154519285Y-115247404D01*
X154471666Y-115342642D01*
X154424047Y-115390261D01*
X154328809Y-115437880D01*
X154090714Y-115437880D01*
X153995476Y-115390261D01*
X153947857Y-115342642D01*
X155424047Y-114437880D02*
X154947857Y-114437880D01*
X154900238Y-114914071D01*
X154947857Y-114866452D01*
X155043095Y-114818833D01*
X155281190Y-114818833D01*
X155376428Y-114866452D01*
X155424047Y-114914071D01*
X155471666Y-115009309D01*
X155471666Y-115247404D01*
X155424047Y-115342642D01*
X155376428Y-115390261D01*
X155281190Y-115437880D01*
X155043095Y-115437880D01*
X154947857Y-115390261D01*
X154900238Y-115342642D01*
X158791666Y-111287880D02*
X159125000Y-112287880D01*
X159458333Y-111287880D01*
X160363095Y-112192642D02*
X160315476Y-112240261D01*
X160172619Y-112287880D01*
X160077380Y-112287880D01*
X159934523Y-112240261D01*
X159839285Y-112145023D01*
X159791666Y-112049785D01*
X159744047Y-111859309D01*
X159744047Y-111716452D01*
X159791666Y-111525976D01*
X159839285Y-111430738D01*
X159934523Y-111335500D01*
X160077380Y-111287880D01*
X160172619Y-111287880D01*
X160315476Y-111335500D01*
X160363095Y-111383119D01*
X161363095Y-112192642D02*
X161315476Y-112240261D01*
X161172619Y-112287880D01*
X161077380Y-112287880D01*
X160934523Y-112240261D01*
X160839285Y-112145023D01*
X160791666Y-112049785D01*
X160744047Y-111859309D01*
X160744047Y-111716452D01*
X160791666Y-111525976D01*
X160839285Y-111430738D01*
X160934523Y-111335500D01*
X161077380Y-111287880D01*
X161172619Y-111287880D01*
X161315476Y-111335500D01*
X161363095Y-111383119D01*
X147972142Y-112785500D02*
X147876904Y-112737880D01*
X147734047Y-112737880D01*
X147591190Y-112785500D01*
X147495952Y-112880738D01*
X147448333Y-112975976D01*
X147400714Y-113166452D01*
X147400714Y-113309309D01*
X147448333Y-113499785D01*
X147495952Y-113595023D01*
X147591190Y-113690261D01*
X147734047Y-113737880D01*
X147829285Y-113737880D01*
X147972142Y-113690261D01*
X148019761Y-113642642D01*
X148019761Y-113309309D01*
X147829285Y-113309309D01*
X148448333Y-113071214D02*
X148448333Y-113737880D01*
X148448333Y-113166452D02*
X148495952Y-113118833D01*
X148591190Y-113071214D01*
X148734047Y-113071214D01*
X148829285Y-113118833D01*
X148876904Y-113214071D01*
X148876904Y-113737880D01*
X149781666Y-113737880D02*
X149781666Y-112737880D01*
X149781666Y-113690261D02*
X149686428Y-113737880D01*
X149495952Y-113737880D01*
X149400714Y-113690261D01*
X149353095Y-113642642D01*
X149305476Y-113547404D01*
X149305476Y-113261690D01*
X149353095Y-113166452D01*
X149400714Y-113118833D01*
X149495952Y-113071214D01*
X149686428Y-113071214D01*
X149781666Y-113118833D01*
X158811190Y-113787880D02*
X158811190Y-112787880D01*
X159049285Y-112787880D01*
X159192142Y-112835500D01*
X159287380Y-112930738D01*
X159335000Y-113025976D01*
X159382619Y-113216452D01*
X159382619Y-113359309D01*
X159335000Y-113549785D01*
X159287380Y-113645023D01*
X159192142Y-113740261D01*
X159049285Y-113787880D01*
X158811190Y-113787880D01*
X160001666Y-112787880D02*
X160192142Y-112787880D01*
X160287380Y-112835500D01*
X160382619Y-112930738D01*
X160430238Y-113121214D01*
X160430238Y-113454547D01*
X160382619Y-113645023D01*
X160287380Y-113740261D01*
X160192142Y-113787880D01*
X160001666Y-113787880D01*
X159906428Y-113740261D01*
X159811190Y-113645023D01*
X159763571Y-113454547D01*
X159763571Y-113121214D01*
X159811190Y-112930738D01*
X159906428Y-112835500D01*
X160001666Y-112787880D01*
X161287380Y-113121214D02*
X161287380Y-113787880D01*
X160858809Y-113121214D02*
X160858809Y-113645023D01*
X160906428Y-113740261D01*
X161001666Y-113787880D01*
X161144523Y-113787880D01*
X161239761Y-113740261D01*
X161287380Y-113692642D01*
X161620714Y-113121214D02*
X162001666Y-113121214D01*
X161763571Y-112787880D02*
X161763571Y-113645023D01*
X161811190Y-113740261D01*
X161906428Y-113787880D01*
X162001666Y-113787880D01*
X147862619Y-112247880D02*
X147862619Y-111247880D01*
X148100714Y-111247880D01*
X148243571Y-111295500D01*
X148338809Y-111390738D01*
X148386428Y-111485976D01*
X148434047Y-111676452D01*
X148434047Y-111819309D01*
X148386428Y-112009785D01*
X148338809Y-112105023D01*
X148243571Y-112200261D01*
X148100714Y-112247880D01*
X147862619Y-112247880D01*
X148862619Y-112247880D02*
X148862619Y-111247880D01*
X149338809Y-111581214D02*
X149338809Y-112247880D01*
X149338809Y-111676452D02*
X149386428Y-111628833D01*
X149481666Y-111581214D01*
X149624523Y-111581214D01*
X149719761Y-111628833D01*
X149767380Y-111724071D01*
X149767380Y-112247880D01*
X236339142Y-115437880D02*
X235862952Y-115437880D01*
X235862952Y-114437880D01*
X237148666Y-114437880D02*
X236672476Y-114437880D01*
X236624857Y-114914071D01*
X236672476Y-114866452D01*
X236767714Y-114818833D01*
X237005809Y-114818833D01*
X237101047Y-114866452D01*
X237148666Y-114914071D01*
X237196285Y-115009309D01*
X237196285Y-115247404D01*
X237148666Y-115342642D01*
X237101047Y-115390261D01*
X237005809Y-115437880D01*
X236767714Y-115437880D01*
X236672476Y-115390261D01*
X236624857Y-115342642D01*
X237529619Y-114437880D02*
X238196285Y-114437880D01*
X237767714Y-115437880D01*
X241468666Y-111287880D02*
X241802000Y-112287880D01*
X242135333Y-111287880D01*
X243040095Y-112192642D02*
X242992476Y-112240261D01*
X242849619Y-112287880D01*
X242754380Y-112287880D01*
X242611523Y-112240261D01*
X242516285Y-112145023D01*
X242468666Y-112049785D01*
X242421047Y-111859309D01*
X242421047Y-111716452D01*
X242468666Y-111525976D01*
X242516285Y-111430738D01*
X242611523Y-111335500D01*
X242754380Y-111287880D01*
X242849619Y-111287880D01*
X242992476Y-111335500D01*
X243040095Y-111383119D01*
X244040095Y-112192642D02*
X243992476Y-112240261D01*
X243849619Y-112287880D01*
X243754380Y-112287880D01*
X243611523Y-112240261D01*
X243516285Y-112145023D01*
X243468666Y-112049785D01*
X243421047Y-111859309D01*
X243421047Y-111716452D01*
X243468666Y-111525976D01*
X243516285Y-111430738D01*
X243611523Y-111335500D01*
X243754380Y-111287880D01*
X243849619Y-111287880D01*
X243992476Y-111335500D01*
X244040095Y-111383119D01*
X230649142Y-112785500D02*
X230553904Y-112737880D01*
X230411047Y-112737880D01*
X230268190Y-112785500D01*
X230172952Y-112880738D01*
X230125333Y-112975976D01*
X230077714Y-113166452D01*
X230077714Y-113309309D01*
X230125333Y-113499785D01*
X230172952Y-113595023D01*
X230268190Y-113690261D01*
X230411047Y-113737880D01*
X230506285Y-113737880D01*
X230649142Y-113690261D01*
X230696761Y-113642642D01*
X230696761Y-113309309D01*
X230506285Y-113309309D01*
X231125333Y-113071214D02*
X231125333Y-113737880D01*
X231125333Y-113166452D02*
X231172952Y-113118833D01*
X231268190Y-113071214D01*
X231411047Y-113071214D01*
X231506285Y-113118833D01*
X231553904Y-113214071D01*
X231553904Y-113737880D01*
X232458666Y-113737880D02*
X232458666Y-112737880D01*
X232458666Y-113690261D02*
X232363428Y-113737880D01*
X232172952Y-113737880D01*
X232077714Y-113690261D01*
X232030095Y-113642642D01*
X231982476Y-113547404D01*
X231982476Y-113261690D01*
X232030095Y-113166452D01*
X232077714Y-113118833D01*
X232172952Y-113071214D01*
X232363428Y-113071214D01*
X232458666Y-113118833D01*
X241488190Y-113787880D02*
X241488190Y-112787880D01*
X241726285Y-112787880D01*
X241869142Y-112835500D01*
X241964380Y-112930738D01*
X242012000Y-113025976D01*
X242059619Y-113216452D01*
X242059619Y-113359309D01*
X242012000Y-113549785D01*
X241964380Y-113645023D01*
X241869142Y-113740261D01*
X241726285Y-113787880D01*
X241488190Y-113787880D01*
X242678666Y-112787880D02*
X242869142Y-112787880D01*
X242964380Y-112835500D01*
X243059619Y-112930738D01*
X243107238Y-113121214D01*
X243107238Y-113454547D01*
X243059619Y-113645023D01*
X242964380Y-113740261D01*
X242869142Y-113787880D01*
X242678666Y-113787880D01*
X242583428Y-113740261D01*
X242488190Y-113645023D01*
X242440571Y-113454547D01*
X242440571Y-113121214D01*
X242488190Y-112930738D01*
X242583428Y-112835500D01*
X242678666Y-112787880D01*
X243964380Y-113121214D02*
X243964380Y-113787880D01*
X243535809Y-113121214D02*
X243535809Y-113645023D01*
X243583428Y-113740261D01*
X243678666Y-113787880D01*
X243821523Y-113787880D01*
X243916761Y-113740261D01*
X243964380Y-113692642D01*
X244297714Y-113121214D02*
X244678666Y-113121214D01*
X244440571Y-112787880D02*
X244440571Y-113645023D01*
X244488190Y-113740261D01*
X244583428Y-113787880D01*
X244678666Y-113787880D01*
X230539619Y-112247880D02*
X230539619Y-111247880D01*
X230777714Y-111247880D01*
X230920571Y-111295500D01*
X231015809Y-111390738D01*
X231063428Y-111485976D01*
X231111047Y-111676452D01*
X231111047Y-111819309D01*
X231063428Y-112009785D01*
X231015809Y-112105023D01*
X230920571Y-112200261D01*
X230777714Y-112247880D01*
X230539619Y-112247880D01*
X231539619Y-112247880D02*
X231539619Y-111247880D01*
X232015809Y-111581214D02*
X232015809Y-112247880D01*
X232015809Y-111676452D02*
X232063428Y-111628833D01*
X232158666Y-111581214D01*
X232301523Y-111581214D01*
X232396761Y-111628833D01*
X232444380Y-111724071D01*
X232444380Y-112247880D01*
X203573142Y-29712880D02*
X203096952Y-29712880D01*
X203096952Y-28712880D01*
X204335047Y-29046214D02*
X204335047Y-29712880D01*
X204096952Y-28665261D02*
X203858857Y-29379547D01*
X204477904Y-29379547D01*
X204906476Y-29712880D02*
X205096952Y-29712880D01*
X205192190Y-29665261D01*
X205239809Y-29617642D01*
X205335047Y-29474785D01*
X205382666Y-29284309D01*
X205382666Y-28903357D01*
X205335047Y-28808119D01*
X205287428Y-28760500D01*
X205192190Y-28712880D01*
X205001714Y-28712880D01*
X204906476Y-28760500D01*
X204858857Y-28808119D01*
X204811238Y-28903357D01*
X204811238Y-29141452D01*
X204858857Y-29236690D01*
X204906476Y-29284309D01*
X205001714Y-29331928D01*
X205192190Y-29331928D01*
X205287428Y-29284309D01*
X205335047Y-29236690D01*
X205382666Y-29141452D01*
X208702666Y-25562880D02*
X209036000Y-26562880D01*
X209369333Y-25562880D01*
X210274095Y-26467642D02*
X210226476Y-26515261D01*
X210083619Y-26562880D01*
X209988380Y-26562880D01*
X209845523Y-26515261D01*
X209750285Y-26420023D01*
X209702666Y-26324785D01*
X209655047Y-26134309D01*
X209655047Y-25991452D01*
X209702666Y-25800976D01*
X209750285Y-25705738D01*
X209845523Y-25610500D01*
X209988380Y-25562880D01*
X210083619Y-25562880D01*
X210226476Y-25610500D01*
X210274095Y-25658119D01*
X211274095Y-26467642D02*
X211226476Y-26515261D01*
X211083619Y-26562880D01*
X210988380Y-26562880D01*
X210845523Y-26515261D01*
X210750285Y-26420023D01*
X210702666Y-26324785D01*
X210655047Y-26134309D01*
X210655047Y-25991452D01*
X210702666Y-25800976D01*
X210750285Y-25705738D01*
X210845523Y-25610500D01*
X210988380Y-25562880D01*
X211083619Y-25562880D01*
X211226476Y-25610500D01*
X211274095Y-25658119D01*
X197883142Y-27060500D02*
X197787904Y-27012880D01*
X197645047Y-27012880D01*
X197502190Y-27060500D01*
X197406952Y-27155738D01*
X197359333Y-27250976D01*
X197311714Y-27441452D01*
X197311714Y-27584309D01*
X197359333Y-27774785D01*
X197406952Y-27870023D01*
X197502190Y-27965261D01*
X197645047Y-28012880D01*
X197740285Y-28012880D01*
X197883142Y-27965261D01*
X197930761Y-27917642D01*
X197930761Y-27584309D01*
X197740285Y-27584309D01*
X198359333Y-27346214D02*
X198359333Y-28012880D01*
X198359333Y-27441452D02*
X198406952Y-27393833D01*
X198502190Y-27346214D01*
X198645047Y-27346214D01*
X198740285Y-27393833D01*
X198787904Y-27489071D01*
X198787904Y-28012880D01*
X199692666Y-28012880D02*
X199692666Y-27012880D01*
X199692666Y-27965261D02*
X199597428Y-28012880D01*
X199406952Y-28012880D01*
X199311714Y-27965261D01*
X199264095Y-27917642D01*
X199216476Y-27822404D01*
X199216476Y-27536690D01*
X199264095Y-27441452D01*
X199311714Y-27393833D01*
X199406952Y-27346214D01*
X199597428Y-27346214D01*
X199692666Y-27393833D01*
X208722190Y-28062880D02*
X208722190Y-27062880D01*
X208960285Y-27062880D01*
X209103142Y-27110500D01*
X209198380Y-27205738D01*
X209246000Y-27300976D01*
X209293619Y-27491452D01*
X209293619Y-27634309D01*
X209246000Y-27824785D01*
X209198380Y-27920023D01*
X209103142Y-28015261D01*
X208960285Y-28062880D01*
X208722190Y-28062880D01*
X209912666Y-27062880D02*
X210103142Y-27062880D01*
X210198380Y-27110500D01*
X210293619Y-27205738D01*
X210341238Y-27396214D01*
X210341238Y-27729547D01*
X210293619Y-27920023D01*
X210198380Y-28015261D01*
X210103142Y-28062880D01*
X209912666Y-28062880D01*
X209817428Y-28015261D01*
X209722190Y-27920023D01*
X209674571Y-27729547D01*
X209674571Y-27396214D01*
X209722190Y-27205738D01*
X209817428Y-27110500D01*
X209912666Y-27062880D01*
X211198380Y-27396214D02*
X211198380Y-28062880D01*
X210769809Y-27396214D02*
X210769809Y-27920023D01*
X210817428Y-28015261D01*
X210912666Y-28062880D01*
X211055523Y-28062880D01*
X211150761Y-28015261D01*
X211198380Y-27967642D01*
X211531714Y-27396214D02*
X211912666Y-27396214D01*
X211674571Y-27062880D02*
X211674571Y-27920023D01*
X211722190Y-28015261D01*
X211817428Y-28062880D01*
X211912666Y-28062880D01*
X197773619Y-26522880D02*
X197773619Y-25522880D01*
X198011714Y-25522880D01*
X198154571Y-25570500D01*
X198249809Y-25665738D01*
X198297428Y-25760976D01*
X198345047Y-25951452D01*
X198345047Y-26094309D01*
X198297428Y-26284785D01*
X198249809Y-26380023D01*
X198154571Y-26475261D01*
X198011714Y-26522880D01*
X197773619Y-26522880D01*
X198773619Y-26522880D02*
X198773619Y-25522880D01*
X199249809Y-25856214D02*
X199249809Y-26522880D01*
X199249809Y-25951452D02*
X199297428Y-25903833D01*
X199392666Y-25856214D01*
X199535523Y-25856214D01*
X199630761Y-25903833D01*
X199678380Y-25999071D01*
X199678380Y-26522880D01*
X79367142Y-112580380D02*
X78890952Y-112580380D01*
X78890952Y-111580380D01*
X80176666Y-111580380D02*
X79700476Y-111580380D01*
X79652857Y-112056571D01*
X79700476Y-112008952D01*
X79795714Y-111961333D01*
X80033809Y-111961333D01*
X80129047Y-112008952D01*
X80176666Y-112056571D01*
X80224285Y-112151809D01*
X80224285Y-112389904D01*
X80176666Y-112485142D01*
X80129047Y-112532761D01*
X80033809Y-112580380D01*
X79795714Y-112580380D01*
X79700476Y-112532761D01*
X79652857Y-112485142D01*
X80557619Y-111580380D02*
X81176666Y-111580380D01*
X80843333Y-111961333D01*
X80986190Y-111961333D01*
X81081428Y-112008952D01*
X81129047Y-112056571D01*
X81176666Y-112151809D01*
X81176666Y-112389904D01*
X81129047Y-112485142D01*
X81081428Y-112532761D01*
X80986190Y-112580380D01*
X80700476Y-112580380D01*
X80605238Y-112532761D01*
X80557619Y-112485142D01*
X84496666Y-108430380D02*
X84830000Y-109430380D01*
X85163333Y-108430380D01*
X86068095Y-109335142D02*
X86020476Y-109382761D01*
X85877619Y-109430380D01*
X85782380Y-109430380D01*
X85639523Y-109382761D01*
X85544285Y-109287523D01*
X85496666Y-109192285D01*
X85449047Y-109001809D01*
X85449047Y-108858952D01*
X85496666Y-108668476D01*
X85544285Y-108573238D01*
X85639523Y-108478000D01*
X85782380Y-108430380D01*
X85877619Y-108430380D01*
X86020476Y-108478000D01*
X86068095Y-108525619D01*
X87068095Y-109335142D02*
X87020476Y-109382761D01*
X86877619Y-109430380D01*
X86782380Y-109430380D01*
X86639523Y-109382761D01*
X86544285Y-109287523D01*
X86496666Y-109192285D01*
X86449047Y-109001809D01*
X86449047Y-108858952D01*
X86496666Y-108668476D01*
X86544285Y-108573238D01*
X86639523Y-108478000D01*
X86782380Y-108430380D01*
X86877619Y-108430380D01*
X87020476Y-108478000D01*
X87068095Y-108525619D01*
X73677142Y-109928000D02*
X73581904Y-109880380D01*
X73439047Y-109880380D01*
X73296190Y-109928000D01*
X73200952Y-110023238D01*
X73153333Y-110118476D01*
X73105714Y-110308952D01*
X73105714Y-110451809D01*
X73153333Y-110642285D01*
X73200952Y-110737523D01*
X73296190Y-110832761D01*
X73439047Y-110880380D01*
X73534285Y-110880380D01*
X73677142Y-110832761D01*
X73724761Y-110785142D01*
X73724761Y-110451809D01*
X73534285Y-110451809D01*
X74153333Y-110213714D02*
X74153333Y-110880380D01*
X74153333Y-110308952D02*
X74200952Y-110261333D01*
X74296190Y-110213714D01*
X74439047Y-110213714D01*
X74534285Y-110261333D01*
X74581904Y-110356571D01*
X74581904Y-110880380D01*
X75486666Y-110880380D02*
X75486666Y-109880380D01*
X75486666Y-110832761D02*
X75391428Y-110880380D01*
X75200952Y-110880380D01*
X75105714Y-110832761D01*
X75058095Y-110785142D01*
X75010476Y-110689904D01*
X75010476Y-110404190D01*
X75058095Y-110308952D01*
X75105714Y-110261333D01*
X75200952Y-110213714D01*
X75391428Y-110213714D01*
X75486666Y-110261333D01*
X84516190Y-110930380D02*
X84516190Y-109930380D01*
X84754285Y-109930380D01*
X84897142Y-109978000D01*
X84992380Y-110073238D01*
X85040000Y-110168476D01*
X85087619Y-110358952D01*
X85087619Y-110501809D01*
X85040000Y-110692285D01*
X84992380Y-110787523D01*
X84897142Y-110882761D01*
X84754285Y-110930380D01*
X84516190Y-110930380D01*
X85706666Y-109930380D02*
X85897142Y-109930380D01*
X85992380Y-109978000D01*
X86087619Y-110073238D01*
X86135238Y-110263714D01*
X86135238Y-110597047D01*
X86087619Y-110787523D01*
X85992380Y-110882761D01*
X85897142Y-110930380D01*
X85706666Y-110930380D01*
X85611428Y-110882761D01*
X85516190Y-110787523D01*
X85468571Y-110597047D01*
X85468571Y-110263714D01*
X85516190Y-110073238D01*
X85611428Y-109978000D01*
X85706666Y-109930380D01*
X86992380Y-110263714D02*
X86992380Y-110930380D01*
X86563809Y-110263714D02*
X86563809Y-110787523D01*
X86611428Y-110882761D01*
X86706666Y-110930380D01*
X86849523Y-110930380D01*
X86944761Y-110882761D01*
X86992380Y-110835142D01*
X87325714Y-110263714D02*
X87706666Y-110263714D01*
X87468571Y-109930380D02*
X87468571Y-110787523D01*
X87516190Y-110882761D01*
X87611428Y-110930380D01*
X87706666Y-110930380D01*
X73567619Y-109390380D02*
X73567619Y-108390380D01*
X73805714Y-108390380D01*
X73948571Y-108438000D01*
X74043809Y-108533238D01*
X74091428Y-108628476D01*
X74139047Y-108818952D01*
X74139047Y-108961809D01*
X74091428Y-109152285D01*
X74043809Y-109247523D01*
X73948571Y-109342761D01*
X73805714Y-109390380D01*
X73567619Y-109390380D01*
X74567619Y-109390380D02*
X74567619Y-108390380D01*
X75043809Y-108723714D02*
X75043809Y-109390380D01*
X75043809Y-108818952D02*
X75091428Y-108771333D01*
X75186666Y-108723714D01*
X75329523Y-108723714D01*
X75424761Y-108771333D01*
X75472380Y-108866571D01*
X75472380Y-109390380D01*
X41838642Y-112580380D02*
X41362452Y-112580380D01*
X41362452Y-111580380D01*
X42648166Y-111580380D02*
X42171976Y-111580380D01*
X42124357Y-112056571D01*
X42171976Y-112008952D01*
X42267214Y-111961333D01*
X42505309Y-111961333D01*
X42600547Y-112008952D01*
X42648166Y-112056571D01*
X42695785Y-112151809D01*
X42695785Y-112389904D01*
X42648166Y-112485142D01*
X42600547Y-112532761D01*
X42505309Y-112580380D01*
X42267214Y-112580380D01*
X42171976Y-112532761D01*
X42124357Y-112485142D01*
X43076738Y-111675619D02*
X43124357Y-111628000D01*
X43219595Y-111580380D01*
X43457690Y-111580380D01*
X43552928Y-111628000D01*
X43600547Y-111675619D01*
X43648166Y-111770857D01*
X43648166Y-111866095D01*
X43600547Y-112008952D01*
X43029119Y-112580380D01*
X43648166Y-112580380D01*
X46968166Y-108430380D02*
X47301500Y-109430380D01*
X47634833Y-108430380D01*
X48539595Y-109335142D02*
X48491976Y-109382761D01*
X48349119Y-109430380D01*
X48253880Y-109430380D01*
X48111023Y-109382761D01*
X48015785Y-109287523D01*
X47968166Y-109192285D01*
X47920547Y-109001809D01*
X47920547Y-108858952D01*
X47968166Y-108668476D01*
X48015785Y-108573238D01*
X48111023Y-108478000D01*
X48253880Y-108430380D01*
X48349119Y-108430380D01*
X48491976Y-108478000D01*
X48539595Y-108525619D01*
X49539595Y-109335142D02*
X49491976Y-109382761D01*
X49349119Y-109430380D01*
X49253880Y-109430380D01*
X49111023Y-109382761D01*
X49015785Y-109287523D01*
X48968166Y-109192285D01*
X48920547Y-109001809D01*
X48920547Y-108858952D01*
X48968166Y-108668476D01*
X49015785Y-108573238D01*
X49111023Y-108478000D01*
X49253880Y-108430380D01*
X49349119Y-108430380D01*
X49491976Y-108478000D01*
X49539595Y-108525619D01*
X36148642Y-109928000D02*
X36053404Y-109880380D01*
X35910547Y-109880380D01*
X35767690Y-109928000D01*
X35672452Y-110023238D01*
X35624833Y-110118476D01*
X35577214Y-110308952D01*
X35577214Y-110451809D01*
X35624833Y-110642285D01*
X35672452Y-110737523D01*
X35767690Y-110832761D01*
X35910547Y-110880380D01*
X36005785Y-110880380D01*
X36148642Y-110832761D01*
X36196261Y-110785142D01*
X36196261Y-110451809D01*
X36005785Y-110451809D01*
X36624833Y-110213714D02*
X36624833Y-110880380D01*
X36624833Y-110308952D02*
X36672452Y-110261333D01*
X36767690Y-110213714D01*
X36910547Y-110213714D01*
X37005785Y-110261333D01*
X37053404Y-110356571D01*
X37053404Y-110880380D01*
X37958166Y-110880380D02*
X37958166Y-109880380D01*
X37958166Y-110832761D02*
X37862928Y-110880380D01*
X37672452Y-110880380D01*
X37577214Y-110832761D01*
X37529595Y-110785142D01*
X37481976Y-110689904D01*
X37481976Y-110404190D01*
X37529595Y-110308952D01*
X37577214Y-110261333D01*
X37672452Y-110213714D01*
X37862928Y-110213714D01*
X37958166Y-110261333D01*
X46987690Y-110930380D02*
X46987690Y-109930380D01*
X47225785Y-109930380D01*
X47368642Y-109978000D01*
X47463880Y-110073238D01*
X47511500Y-110168476D01*
X47559119Y-110358952D01*
X47559119Y-110501809D01*
X47511500Y-110692285D01*
X47463880Y-110787523D01*
X47368642Y-110882761D01*
X47225785Y-110930380D01*
X46987690Y-110930380D01*
X48178166Y-109930380D02*
X48368642Y-109930380D01*
X48463880Y-109978000D01*
X48559119Y-110073238D01*
X48606738Y-110263714D01*
X48606738Y-110597047D01*
X48559119Y-110787523D01*
X48463880Y-110882761D01*
X48368642Y-110930380D01*
X48178166Y-110930380D01*
X48082928Y-110882761D01*
X47987690Y-110787523D01*
X47940071Y-110597047D01*
X47940071Y-110263714D01*
X47987690Y-110073238D01*
X48082928Y-109978000D01*
X48178166Y-109930380D01*
X49463880Y-110263714D02*
X49463880Y-110930380D01*
X49035309Y-110263714D02*
X49035309Y-110787523D01*
X49082928Y-110882761D01*
X49178166Y-110930380D01*
X49321023Y-110930380D01*
X49416261Y-110882761D01*
X49463880Y-110835142D01*
X49797214Y-110263714D02*
X50178166Y-110263714D01*
X49940071Y-109930380D02*
X49940071Y-110787523D01*
X49987690Y-110882761D01*
X50082928Y-110930380D01*
X50178166Y-110930380D01*
X36039119Y-109390380D02*
X36039119Y-108390380D01*
X36277214Y-108390380D01*
X36420071Y-108438000D01*
X36515309Y-108533238D01*
X36562928Y-108628476D01*
X36610547Y-108818952D01*
X36610547Y-108961809D01*
X36562928Y-109152285D01*
X36515309Y-109247523D01*
X36420071Y-109342761D01*
X36277214Y-109390380D01*
X36039119Y-109390380D01*
X37039119Y-109390380D02*
X37039119Y-108390380D01*
X37515309Y-108723714D02*
X37515309Y-109390380D01*
X37515309Y-108818952D02*
X37562928Y-108771333D01*
X37658166Y-108723714D01*
X37801023Y-108723714D01*
X37896261Y-108771333D01*
X37943880Y-108866571D01*
X37943880Y-109390380D01*
X197667642Y-115437880D02*
X197191452Y-115437880D01*
X197191452Y-114437880D01*
X198477166Y-114437880D02*
X198000976Y-114437880D01*
X197953357Y-114914071D01*
X198000976Y-114866452D01*
X198096214Y-114818833D01*
X198334309Y-114818833D01*
X198429547Y-114866452D01*
X198477166Y-114914071D01*
X198524785Y-115009309D01*
X198524785Y-115247404D01*
X198477166Y-115342642D01*
X198429547Y-115390261D01*
X198334309Y-115437880D01*
X198096214Y-115437880D01*
X198000976Y-115390261D01*
X197953357Y-115342642D01*
X199381928Y-114437880D02*
X199191452Y-114437880D01*
X199096214Y-114485500D01*
X199048595Y-114533119D01*
X198953357Y-114675976D01*
X198905738Y-114866452D01*
X198905738Y-115247404D01*
X198953357Y-115342642D01*
X199000976Y-115390261D01*
X199096214Y-115437880D01*
X199286690Y-115437880D01*
X199381928Y-115390261D01*
X199429547Y-115342642D01*
X199477166Y-115247404D01*
X199477166Y-115009309D01*
X199429547Y-114914071D01*
X199381928Y-114866452D01*
X199286690Y-114818833D01*
X199096214Y-114818833D01*
X199000976Y-114866452D01*
X198953357Y-114914071D01*
X198905738Y-115009309D01*
X202797166Y-111287880D02*
X203130500Y-112287880D01*
X203463833Y-111287880D01*
X204368595Y-112192642D02*
X204320976Y-112240261D01*
X204178119Y-112287880D01*
X204082880Y-112287880D01*
X203940023Y-112240261D01*
X203844785Y-112145023D01*
X203797166Y-112049785D01*
X203749547Y-111859309D01*
X203749547Y-111716452D01*
X203797166Y-111525976D01*
X203844785Y-111430738D01*
X203940023Y-111335500D01*
X204082880Y-111287880D01*
X204178119Y-111287880D01*
X204320976Y-111335500D01*
X204368595Y-111383119D01*
X205368595Y-112192642D02*
X205320976Y-112240261D01*
X205178119Y-112287880D01*
X205082880Y-112287880D01*
X204940023Y-112240261D01*
X204844785Y-112145023D01*
X204797166Y-112049785D01*
X204749547Y-111859309D01*
X204749547Y-111716452D01*
X204797166Y-111525976D01*
X204844785Y-111430738D01*
X204940023Y-111335500D01*
X205082880Y-111287880D01*
X205178119Y-111287880D01*
X205320976Y-111335500D01*
X205368595Y-111383119D01*
X191977642Y-112785500D02*
X191882404Y-112737880D01*
X191739547Y-112737880D01*
X191596690Y-112785500D01*
X191501452Y-112880738D01*
X191453833Y-112975976D01*
X191406214Y-113166452D01*
X191406214Y-113309309D01*
X191453833Y-113499785D01*
X191501452Y-113595023D01*
X191596690Y-113690261D01*
X191739547Y-113737880D01*
X191834785Y-113737880D01*
X191977642Y-113690261D01*
X192025261Y-113642642D01*
X192025261Y-113309309D01*
X191834785Y-113309309D01*
X192453833Y-113071214D02*
X192453833Y-113737880D01*
X192453833Y-113166452D02*
X192501452Y-113118833D01*
X192596690Y-113071214D01*
X192739547Y-113071214D01*
X192834785Y-113118833D01*
X192882404Y-113214071D01*
X192882404Y-113737880D01*
X193787166Y-113737880D02*
X193787166Y-112737880D01*
X193787166Y-113690261D02*
X193691928Y-113737880D01*
X193501452Y-113737880D01*
X193406214Y-113690261D01*
X193358595Y-113642642D01*
X193310976Y-113547404D01*
X193310976Y-113261690D01*
X193358595Y-113166452D01*
X193406214Y-113118833D01*
X193501452Y-113071214D01*
X193691928Y-113071214D01*
X193787166Y-113118833D01*
X202816690Y-113787880D02*
X202816690Y-112787880D01*
X203054785Y-112787880D01*
X203197642Y-112835500D01*
X203292880Y-112930738D01*
X203340500Y-113025976D01*
X203388119Y-113216452D01*
X203388119Y-113359309D01*
X203340500Y-113549785D01*
X203292880Y-113645023D01*
X203197642Y-113740261D01*
X203054785Y-113787880D01*
X202816690Y-113787880D01*
X204007166Y-112787880D02*
X204197642Y-112787880D01*
X204292880Y-112835500D01*
X204388119Y-112930738D01*
X204435738Y-113121214D01*
X204435738Y-113454547D01*
X204388119Y-113645023D01*
X204292880Y-113740261D01*
X204197642Y-113787880D01*
X204007166Y-113787880D01*
X203911928Y-113740261D01*
X203816690Y-113645023D01*
X203769071Y-113454547D01*
X203769071Y-113121214D01*
X203816690Y-112930738D01*
X203911928Y-112835500D01*
X204007166Y-112787880D01*
X205292880Y-113121214D02*
X205292880Y-113787880D01*
X204864309Y-113121214D02*
X204864309Y-113645023D01*
X204911928Y-113740261D01*
X205007166Y-113787880D01*
X205150023Y-113787880D01*
X205245261Y-113740261D01*
X205292880Y-113692642D01*
X205626214Y-113121214D02*
X206007166Y-113121214D01*
X205769071Y-112787880D02*
X205769071Y-113645023D01*
X205816690Y-113740261D01*
X205911928Y-113787880D01*
X206007166Y-113787880D01*
X191868119Y-112247880D02*
X191868119Y-111247880D01*
X192106214Y-111247880D01*
X192249071Y-111295500D01*
X192344309Y-111390738D01*
X192391928Y-111485976D01*
X192439547Y-111676452D01*
X192439547Y-111819309D01*
X192391928Y-112009785D01*
X192344309Y-112105023D01*
X192249071Y-112200261D01*
X192106214Y-112247880D01*
X191868119Y-112247880D01*
X192868119Y-112247880D02*
X192868119Y-111247880D01*
X193344309Y-111581214D02*
X193344309Y-112247880D01*
X193344309Y-111676452D02*
X193391928Y-111628833D01*
X193487166Y-111581214D01*
X193630023Y-111581214D01*
X193725261Y-111628833D01*
X193772880Y-111724071D01*
X193772880Y-112247880D01*
X307891142Y-112580380D02*
X307414952Y-112580380D01*
X307414952Y-111580380D01*
X308700666Y-111580380D02*
X308224476Y-111580380D01*
X308176857Y-112056571D01*
X308224476Y-112008952D01*
X308319714Y-111961333D01*
X308557809Y-111961333D01*
X308653047Y-112008952D01*
X308700666Y-112056571D01*
X308748285Y-112151809D01*
X308748285Y-112389904D01*
X308700666Y-112485142D01*
X308653047Y-112532761D01*
X308557809Y-112580380D01*
X308319714Y-112580380D01*
X308224476Y-112532761D01*
X308176857Y-112485142D01*
X309224476Y-112580380D02*
X309414952Y-112580380D01*
X309510190Y-112532761D01*
X309557809Y-112485142D01*
X309653047Y-112342285D01*
X309700666Y-112151809D01*
X309700666Y-111770857D01*
X309653047Y-111675619D01*
X309605428Y-111628000D01*
X309510190Y-111580380D01*
X309319714Y-111580380D01*
X309224476Y-111628000D01*
X309176857Y-111675619D01*
X309129238Y-111770857D01*
X309129238Y-112008952D01*
X309176857Y-112104190D01*
X309224476Y-112151809D01*
X309319714Y-112199428D01*
X309510190Y-112199428D01*
X309605428Y-112151809D01*
X309653047Y-112104190D01*
X309700666Y-112008952D01*
X313020666Y-108430380D02*
X313354000Y-109430380D01*
X313687333Y-108430380D01*
X314592095Y-109335142D02*
X314544476Y-109382761D01*
X314401619Y-109430380D01*
X314306380Y-109430380D01*
X314163523Y-109382761D01*
X314068285Y-109287523D01*
X314020666Y-109192285D01*
X313973047Y-109001809D01*
X313973047Y-108858952D01*
X314020666Y-108668476D01*
X314068285Y-108573238D01*
X314163523Y-108478000D01*
X314306380Y-108430380D01*
X314401619Y-108430380D01*
X314544476Y-108478000D01*
X314592095Y-108525619D01*
X315592095Y-109335142D02*
X315544476Y-109382761D01*
X315401619Y-109430380D01*
X315306380Y-109430380D01*
X315163523Y-109382761D01*
X315068285Y-109287523D01*
X315020666Y-109192285D01*
X314973047Y-109001809D01*
X314973047Y-108858952D01*
X315020666Y-108668476D01*
X315068285Y-108573238D01*
X315163523Y-108478000D01*
X315306380Y-108430380D01*
X315401619Y-108430380D01*
X315544476Y-108478000D01*
X315592095Y-108525619D01*
X302201142Y-109928000D02*
X302105904Y-109880380D01*
X301963047Y-109880380D01*
X301820190Y-109928000D01*
X301724952Y-110023238D01*
X301677333Y-110118476D01*
X301629714Y-110308952D01*
X301629714Y-110451809D01*
X301677333Y-110642285D01*
X301724952Y-110737523D01*
X301820190Y-110832761D01*
X301963047Y-110880380D01*
X302058285Y-110880380D01*
X302201142Y-110832761D01*
X302248761Y-110785142D01*
X302248761Y-110451809D01*
X302058285Y-110451809D01*
X302677333Y-110213714D02*
X302677333Y-110880380D01*
X302677333Y-110308952D02*
X302724952Y-110261333D01*
X302820190Y-110213714D01*
X302963047Y-110213714D01*
X303058285Y-110261333D01*
X303105904Y-110356571D01*
X303105904Y-110880380D01*
X304010666Y-110880380D02*
X304010666Y-109880380D01*
X304010666Y-110832761D02*
X303915428Y-110880380D01*
X303724952Y-110880380D01*
X303629714Y-110832761D01*
X303582095Y-110785142D01*
X303534476Y-110689904D01*
X303534476Y-110404190D01*
X303582095Y-110308952D01*
X303629714Y-110261333D01*
X303724952Y-110213714D01*
X303915428Y-110213714D01*
X304010666Y-110261333D01*
X313040190Y-110930380D02*
X313040190Y-109930380D01*
X313278285Y-109930380D01*
X313421142Y-109978000D01*
X313516380Y-110073238D01*
X313564000Y-110168476D01*
X313611619Y-110358952D01*
X313611619Y-110501809D01*
X313564000Y-110692285D01*
X313516380Y-110787523D01*
X313421142Y-110882761D01*
X313278285Y-110930380D01*
X313040190Y-110930380D01*
X314230666Y-109930380D02*
X314421142Y-109930380D01*
X314516380Y-109978000D01*
X314611619Y-110073238D01*
X314659238Y-110263714D01*
X314659238Y-110597047D01*
X314611619Y-110787523D01*
X314516380Y-110882761D01*
X314421142Y-110930380D01*
X314230666Y-110930380D01*
X314135428Y-110882761D01*
X314040190Y-110787523D01*
X313992571Y-110597047D01*
X313992571Y-110263714D01*
X314040190Y-110073238D01*
X314135428Y-109978000D01*
X314230666Y-109930380D01*
X315516380Y-110263714D02*
X315516380Y-110930380D01*
X315087809Y-110263714D02*
X315087809Y-110787523D01*
X315135428Y-110882761D01*
X315230666Y-110930380D01*
X315373523Y-110930380D01*
X315468761Y-110882761D01*
X315516380Y-110835142D01*
X315849714Y-110263714D02*
X316230666Y-110263714D01*
X315992571Y-109930380D02*
X315992571Y-110787523D01*
X316040190Y-110882761D01*
X316135428Y-110930380D01*
X316230666Y-110930380D01*
X302091619Y-109390380D02*
X302091619Y-108390380D01*
X302329714Y-108390380D01*
X302472571Y-108438000D01*
X302567809Y-108533238D01*
X302615428Y-108628476D01*
X302663047Y-108818952D01*
X302663047Y-108961809D01*
X302615428Y-109152285D01*
X302567809Y-109247523D01*
X302472571Y-109342761D01*
X302329714Y-109390380D01*
X302091619Y-109390380D01*
X303091619Y-109390380D02*
X303091619Y-108390380D01*
X303567809Y-108723714D02*
X303567809Y-109390380D01*
X303567809Y-108818952D02*
X303615428Y-108771333D01*
X303710666Y-108723714D01*
X303853523Y-108723714D01*
X303948761Y-108771333D01*
X303996380Y-108866571D01*
X303996380Y-109390380D01*
X114990642Y-115437880D02*
X114514452Y-115437880D01*
X114514452Y-114437880D01*
X115800166Y-114437880D02*
X115323976Y-114437880D01*
X115276357Y-114914071D01*
X115323976Y-114866452D01*
X115419214Y-114818833D01*
X115657309Y-114818833D01*
X115752547Y-114866452D01*
X115800166Y-114914071D01*
X115847785Y-115009309D01*
X115847785Y-115247404D01*
X115800166Y-115342642D01*
X115752547Y-115390261D01*
X115657309Y-115437880D01*
X115419214Y-115437880D01*
X115323976Y-115390261D01*
X115276357Y-115342642D01*
X116704928Y-114771214D02*
X116704928Y-115437880D01*
X116466833Y-114390261D02*
X116228738Y-115104547D01*
X116847785Y-115104547D01*
X120120166Y-111287880D02*
X120453500Y-112287880D01*
X120786833Y-111287880D01*
X121691595Y-112192642D02*
X121643976Y-112240261D01*
X121501119Y-112287880D01*
X121405880Y-112287880D01*
X121263023Y-112240261D01*
X121167785Y-112145023D01*
X121120166Y-112049785D01*
X121072547Y-111859309D01*
X121072547Y-111716452D01*
X121120166Y-111525976D01*
X121167785Y-111430738D01*
X121263023Y-111335500D01*
X121405880Y-111287880D01*
X121501119Y-111287880D01*
X121643976Y-111335500D01*
X121691595Y-111383119D01*
X122691595Y-112192642D02*
X122643976Y-112240261D01*
X122501119Y-112287880D01*
X122405880Y-112287880D01*
X122263023Y-112240261D01*
X122167785Y-112145023D01*
X122120166Y-112049785D01*
X122072547Y-111859309D01*
X122072547Y-111716452D01*
X122120166Y-111525976D01*
X122167785Y-111430738D01*
X122263023Y-111335500D01*
X122405880Y-111287880D01*
X122501119Y-111287880D01*
X122643976Y-111335500D01*
X122691595Y-111383119D01*
X109300642Y-112785500D02*
X109205404Y-112737880D01*
X109062547Y-112737880D01*
X108919690Y-112785500D01*
X108824452Y-112880738D01*
X108776833Y-112975976D01*
X108729214Y-113166452D01*
X108729214Y-113309309D01*
X108776833Y-113499785D01*
X108824452Y-113595023D01*
X108919690Y-113690261D01*
X109062547Y-113737880D01*
X109157785Y-113737880D01*
X109300642Y-113690261D01*
X109348261Y-113642642D01*
X109348261Y-113309309D01*
X109157785Y-113309309D01*
X109776833Y-113071214D02*
X109776833Y-113737880D01*
X109776833Y-113166452D02*
X109824452Y-113118833D01*
X109919690Y-113071214D01*
X110062547Y-113071214D01*
X110157785Y-113118833D01*
X110205404Y-113214071D01*
X110205404Y-113737880D01*
X111110166Y-113737880D02*
X111110166Y-112737880D01*
X111110166Y-113690261D02*
X111014928Y-113737880D01*
X110824452Y-113737880D01*
X110729214Y-113690261D01*
X110681595Y-113642642D01*
X110633976Y-113547404D01*
X110633976Y-113261690D01*
X110681595Y-113166452D01*
X110729214Y-113118833D01*
X110824452Y-113071214D01*
X111014928Y-113071214D01*
X111110166Y-113118833D01*
X120139690Y-113787880D02*
X120139690Y-112787880D01*
X120377785Y-112787880D01*
X120520642Y-112835500D01*
X120615880Y-112930738D01*
X120663500Y-113025976D01*
X120711119Y-113216452D01*
X120711119Y-113359309D01*
X120663500Y-113549785D01*
X120615880Y-113645023D01*
X120520642Y-113740261D01*
X120377785Y-113787880D01*
X120139690Y-113787880D01*
X121330166Y-112787880D02*
X121520642Y-112787880D01*
X121615880Y-112835500D01*
X121711119Y-112930738D01*
X121758738Y-113121214D01*
X121758738Y-113454547D01*
X121711119Y-113645023D01*
X121615880Y-113740261D01*
X121520642Y-113787880D01*
X121330166Y-113787880D01*
X121234928Y-113740261D01*
X121139690Y-113645023D01*
X121092071Y-113454547D01*
X121092071Y-113121214D01*
X121139690Y-112930738D01*
X121234928Y-112835500D01*
X121330166Y-112787880D01*
X122615880Y-113121214D02*
X122615880Y-113787880D01*
X122187309Y-113121214D02*
X122187309Y-113645023D01*
X122234928Y-113740261D01*
X122330166Y-113787880D01*
X122473023Y-113787880D01*
X122568261Y-113740261D01*
X122615880Y-113692642D01*
X122949214Y-113121214D02*
X123330166Y-113121214D01*
X123092071Y-112787880D02*
X123092071Y-113645023D01*
X123139690Y-113740261D01*
X123234928Y-113787880D01*
X123330166Y-113787880D01*
X109191119Y-112247880D02*
X109191119Y-111247880D01*
X109429214Y-111247880D01*
X109572071Y-111295500D01*
X109667309Y-111390738D01*
X109714928Y-111485976D01*
X109762547Y-111676452D01*
X109762547Y-111819309D01*
X109714928Y-112009785D01*
X109667309Y-112105023D01*
X109572071Y-112200261D01*
X109429214Y-112247880D01*
X109191119Y-112247880D01*
X110191119Y-112247880D02*
X110191119Y-111247880D01*
X110667309Y-111581214D02*
X110667309Y-112247880D01*
X110667309Y-111676452D02*
X110714928Y-111628833D01*
X110810166Y-111581214D01*
X110953023Y-111581214D01*
X111048261Y-111628833D01*
X111095880Y-111724071D01*
X111095880Y-112247880D01*
X136631642Y-29712880D02*
X136155452Y-29712880D01*
X136155452Y-28712880D01*
X137393547Y-29046214D02*
X137393547Y-29712880D01*
X137155452Y-28665261D02*
X136917357Y-29379547D01*
X137536404Y-29379547D01*
X138060214Y-29141452D02*
X137964976Y-29093833D01*
X137917357Y-29046214D01*
X137869738Y-28950976D01*
X137869738Y-28903357D01*
X137917357Y-28808119D01*
X137964976Y-28760500D01*
X138060214Y-28712880D01*
X138250690Y-28712880D01*
X138345928Y-28760500D01*
X138393547Y-28808119D01*
X138441166Y-28903357D01*
X138441166Y-28950976D01*
X138393547Y-29046214D01*
X138345928Y-29093833D01*
X138250690Y-29141452D01*
X138060214Y-29141452D01*
X137964976Y-29189071D01*
X137917357Y-29236690D01*
X137869738Y-29331928D01*
X137869738Y-29522404D01*
X137917357Y-29617642D01*
X137964976Y-29665261D01*
X138060214Y-29712880D01*
X138250690Y-29712880D01*
X138345928Y-29665261D01*
X138393547Y-29617642D01*
X138441166Y-29522404D01*
X138441166Y-29331928D01*
X138393547Y-29236690D01*
X138345928Y-29189071D01*
X138250690Y-29141452D01*
X141761166Y-25562880D02*
X142094500Y-26562880D01*
X142427833Y-25562880D01*
X143332595Y-26467642D02*
X143284976Y-26515261D01*
X143142119Y-26562880D01*
X143046880Y-26562880D01*
X142904023Y-26515261D01*
X142808785Y-26420023D01*
X142761166Y-26324785D01*
X142713547Y-26134309D01*
X142713547Y-25991452D01*
X142761166Y-25800976D01*
X142808785Y-25705738D01*
X142904023Y-25610500D01*
X143046880Y-25562880D01*
X143142119Y-25562880D01*
X143284976Y-25610500D01*
X143332595Y-25658119D01*
X144332595Y-26467642D02*
X144284976Y-26515261D01*
X144142119Y-26562880D01*
X144046880Y-26562880D01*
X143904023Y-26515261D01*
X143808785Y-26420023D01*
X143761166Y-26324785D01*
X143713547Y-26134309D01*
X143713547Y-25991452D01*
X143761166Y-25800976D01*
X143808785Y-25705738D01*
X143904023Y-25610500D01*
X144046880Y-25562880D01*
X144142119Y-25562880D01*
X144284976Y-25610500D01*
X144332595Y-25658119D01*
X130941642Y-27060500D02*
X130846404Y-27012880D01*
X130703547Y-27012880D01*
X130560690Y-27060500D01*
X130465452Y-27155738D01*
X130417833Y-27250976D01*
X130370214Y-27441452D01*
X130370214Y-27584309D01*
X130417833Y-27774785D01*
X130465452Y-27870023D01*
X130560690Y-27965261D01*
X130703547Y-28012880D01*
X130798785Y-28012880D01*
X130941642Y-27965261D01*
X130989261Y-27917642D01*
X130989261Y-27584309D01*
X130798785Y-27584309D01*
X131417833Y-27346214D02*
X131417833Y-28012880D01*
X131417833Y-27441452D02*
X131465452Y-27393833D01*
X131560690Y-27346214D01*
X131703547Y-27346214D01*
X131798785Y-27393833D01*
X131846404Y-27489071D01*
X131846404Y-28012880D01*
X132751166Y-28012880D02*
X132751166Y-27012880D01*
X132751166Y-27965261D02*
X132655928Y-28012880D01*
X132465452Y-28012880D01*
X132370214Y-27965261D01*
X132322595Y-27917642D01*
X132274976Y-27822404D01*
X132274976Y-27536690D01*
X132322595Y-27441452D01*
X132370214Y-27393833D01*
X132465452Y-27346214D01*
X132655928Y-27346214D01*
X132751166Y-27393833D01*
X141780690Y-28062880D02*
X141780690Y-27062880D01*
X142018785Y-27062880D01*
X142161642Y-27110500D01*
X142256880Y-27205738D01*
X142304500Y-27300976D01*
X142352119Y-27491452D01*
X142352119Y-27634309D01*
X142304500Y-27824785D01*
X142256880Y-27920023D01*
X142161642Y-28015261D01*
X142018785Y-28062880D01*
X141780690Y-28062880D01*
X142971166Y-27062880D02*
X143161642Y-27062880D01*
X143256880Y-27110500D01*
X143352119Y-27205738D01*
X143399738Y-27396214D01*
X143399738Y-27729547D01*
X143352119Y-27920023D01*
X143256880Y-28015261D01*
X143161642Y-28062880D01*
X142971166Y-28062880D01*
X142875928Y-28015261D01*
X142780690Y-27920023D01*
X142733071Y-27729547D01*
X142733071Y-27396214D01*
X142780690Y-27205738D01*
X142875928Y-27110500D01*
X142971166Y-27062880D01*
X144256880Y-27396214D02*
X144256880Y-28062880D01*
X143828309Y-27396214D02*
X143828309Y-27920023D01*
X143875928Y-28015261D01*
X143971166Y-28062880D01*
X144114023Y-28062880D01*
X144209261Y-28015261D01*
X144256880Y-27967642D01*
X144590214Y-27396214D02*
X144971166Y-27396214D01*
X144733071Y-27062880D02*
X144733071Y-27920023D01*
X144780690Y-28015261D01*
X144875928Y-28062880D01*
X144971166Y-28062880D01*
X130832119Y-26522880D02*
X130832119Y-25522880D01*
X131070214Y-25522880D01*
X131213071Y-25570500D01*
X131308309Y-25665738D01*
X131355928Y-25760976D01*
X131403547Y-25951452D01*
X131403547Y-26094309D01*
X131355928Y-26284785D01*
X131308309Y-26380023D01*
X131213071Y-26475261D01*
X131070214Y-26522880D01*
X130832119Y-26522880D01*
X131832119Y-26522880D02*
X131832119Y-25522880D01*
X132308309Y-25856214D02*
X132308309Y-26522880D01*
X132308309Y-25951452D02*
X132355928Y-25903833D01*
X132451166Y-25856214D01*
X132594023Y-25856214D01*
X132689261Y-25903833D01*
X132736880Y-25999071D01*
X132736880Y-26522880D01*
X271962642Y-112580380D02*
X271486452Y-112580380D01*
X271486452Y-111580380D01*
X272772166Y-111580380D02*
X272295976Y-111580380D01*
X272248357Y-112056571D01*
X272295976Y-112008952D01*
X272391214Y-111961333D01*
X272629309Y-111961333D01*
X272724547Y-112008952D01*
X272772166Y-112056571D01*
X272819785Y-112151809D01*
X272819785Y-112389904D01*
X272772166Y-112485142D01*
X272724547Y-112532761D01*
X272629309Y-112580380D01*
X272391214Y-112580380D01*
X272295976Y-112532761D01*
X272248357Y-112485142D01*
X273391214Y-112008952D02*
X273295976Y-111961333D01*
X273248357Y-111913714D01*
X273200738Y-111818476D01*
X273200738Y-111770857D01*
X273248357Y-111675619D01*
X273295976Y-111628000D01*
X273391214Y-111580380D01*
X273581690Y-111580380D01*
X273676928Y-111628000D01*
X273724547Y-111675619D01*
X273772166Y-111770857D01*
X273772166Y-111818476D01*
X273724547Y-111913714D01*
X273676928Y-111961333D01*
X273581690Y-112008952D01*
X273391214Y-112008952D01*
X273295976Y-112056571D01*
X273248357Y-112104190D01*
X273200738Y-112199428D01*
X273200738Y-112389904D01*
X273248357Y-112485142D01*
X273295976Y-112532761D01*
X273391214Y-112580380D01*
X273581690Y-112580380D01*
X273676928Y-112532761D01*
X273724547Y-112485142D01*
X273772166Y-112389904D01*
X273772166Y-112199428D01*
X273724547Y-112104190D01*
X273676928Y-112056571D01*
X273581690Y-112008952D01*
X277092166Y-108430380D02*
X277425500Y-109430380D01*
X277758833Y-108430380D01*
X278663595Y-109335142D02*
X278615976Y-109382761D01*
X278473119Y-109430380D01*
X278377880Y-109430380D01*
X278235023Y-109382761D01*
X278139785Y-109287523D01*
X278092166Y-109192285D01*
X278044547Y-109001809D01*
X278044547Y-108858952D01*
X278092166Y-108668476D01*
X278139785Y-108573238D01*
X278235023Y-108478000D01*
X278377880Y-108430380D01*
X278473119Y-108430380D01*
X278615976Y-108478000D01*
X278663595Y-108525619D01*
X279663595Y-109335142D02*
X279615976Y-109382761D01*
X279473119Y-109430380D01*
X279377880Y-109430380D01*
X279235023Y-109382761D01*
X279139785Y-109287523D01*
X279092166Y-109192285D01*
X279044547Y-109001809D01*
X279044547Y-108858952D01*
X279092166Y-108668476D01*
X279139785Y-108573238D01*
X279235023Y-108478000D01*
X279377880Y-108430380D01*
X279473119Y-108430380D01*
X279615976Y-108478000D01*
X279663595Y-108525619D01*
X266272642Y-109928000D02*
X266177404Y-109880380D01*
X266034547Y-109880380D01*
X265891690Y-109928000D01*
X265796452Y-110023238D01*
X265748833Y-110118476D01*
X265701214Y-110308952D01*
X265701214Y-110451809D01*
X265748833Y-110642285D01*
X265796452Y-110737523D01*
X265891690Y-110832761D01*
X266034547Y-110880380D01*
X266129785Y-110880380D01*
X266272642Y-110832761D01*
X266320261Y-110785142D01*
X266320261Y-110451809D01*
X266129785Y-110451809D01*
X266748833Y-110213714D02*
X266748833Y-110880380D01*
X266748833Y-110308952D02*
X266796452Y-110261333D01*
X266891690Y-110213714D01*
X267034547Y-110213714D01*
X267129785Y-110261333D01*
X267177404Y-110356571D01*
X267177404Y-110880380D01*
X268082166Y-110880380D02*
X268082166Y-109880380D01*
X268082166Y-110832761D02*
X267986928Y-110880380D01*
X267796452Y-110880380D01*
X267701214Y-110832761D01*
X267653595Y-110785142D01*
X267605976Y-110689904D01*
X267605976Y-110404190D01*
X267653595Y-110308952D01*
X267701214Y-110261333D01*
X267796452Y-110213714D01*
X267986928Y-110213714D01*
X268082166Y-110261333D01*
X277111690Y-110930380D02*
X277111690Y-109930380D01*
X277349785Y-109930380D01*
X277492642Y-109978000D01*
X277587880Y-110073238D01*
X277635500Y-110168476D01*
X277683119Y-110358952D01*
X277683119Y-110501809D01*
X277635500Y-110692285D01*
X277587880Y-110787523D01*
X277492642Y-110882761D01*
X277349785Y-110930380D01*
X277111690Y-110930380D01*
X278302166Y-109930380D02*
X278492642Y-109930380D01*
X278587880Y-109978000D01*
X278683119Y-110073238D01*
X278730738Y-110263714D01*
X278730738Y-110597047D01*
X278683119Y-110787523D01*
X278587880Y-110882761D01*
X278492642Y-110930380D01*
X278302166Y-110930380D01*
X278206928Y-110882761D01*
X278111690Y-110787523D01*
X278064071Y-110597047D01*
X278064071Y-110263714D01*
X278111690Y-110073238D01*
X278206928Y-109978000D01*
X278302166Y-109930380D01*
X279587880Y-110263714D02*
X279587880Y-110930380D01*
X279159309Y-110263714D02*
X279159309Y-110787523D01*
X279206928Y-110882761D01*
X279302166Y-110930380D01*
X279445023Y-110930380D01*
X279540261Y-110882761D01*
X279587880Y-110835142D01*
X279921214Y-110263714D02*
X280302166Y-110263714D01*
X280064071Y-109930380D02*
X280064071Y-110787523D01*
X280111690Y-110882761D01*
X280206928Y-110930380D01*
X280302166Y-110930380D01*
X266163119Y-109390380D02*
X266163119Y-108390380D01*
X266401214Y-108390380D01*
X266544071Y-108438000D01*
X266639309Y-108533238D01*
X266686928Y-108628476D01*
X266734547Y-108818952D01*
X266734547Y-108961809D01*
X266686928Y-109152285D01*
X266639309Y-109247523D01*
X266544071Y-109342761D01*
X266401214Y-109390380D01*
X266163119Y-109390380D01*
X267163119Y-109390380D02*
X267163119Y-108390380D01*
X267639309Y-108723714D02*
X267639309Y-109390380D01*
X267639309Y-108818952D02*
X267686928Y-108771333D01*
X267782166Y-108723714D01*
X267925023Y-108723714D01*
X268020261Y-108771333D01*
X268067880Y-108866571D01*
X268067880Y-109390380D01*
X317277904Y-107932880D02*
X317277904Y-106932880D01*
X317277904Y-107409071D02*
X317849333Y-107409071D01*
X317849333Y-107932880D02*
X317849333Y-106932880D01*
X318849333Y-107932880D02*
X318277904Y-107932880D01*
X318563619Y-107932880D02*
X318563619Y-106932880D01*
X318468380Y-107075738D01*
X318373142Y-107170976D01*
X318277904Y-107218595D01*
X319230285Y-107028119D02*
X319277904Y-106980500D01*
X319373142Y-106932880D01*
X319611238Y-106932880D01*
X319706476Y-106980500D01*
X319754095Y-107028119D01*
X319801714Y-107123357D01*
X319801714Y-107218595D01*
X319754095Y-107361452D01*
X319182666Y-107932880D01*
X319801714Y-107932880D01*
X197548595Y-103932380D02*
X197548595Y-102932380D01*
X197548595Y-103408571D02*
X198120023Y-103408571D01*
X198120023Y-103932380D02*
X198120023Y-102932380D01*
X199024785Y-103265714D02*
X199024785Y-103932380D01*
X198786690Y-102884761D02*
X198548595Y-103599047D01*
X199167642Y-103599047D01*
X22002904Y-18588380D02*
X22002904Y-17588380D01*
X22002904Y-18064571D02*
X22574333Y-18064571D01*
X22574333Y-18588380D02*
X22574333Y-17588380D01*
X23574333Y-18588380D02*
X23002904Y-18588380D01*
X23288619Y-18588380D02*
X23288619Y-17588380D01*
X23193380Y-17731238D01*
X23098142Y-17826476D01*
X23002904Y-17874095D01*
X24479095Y-17588380D02*
X24002904Y-17588380D01*
X23955285Y-18064571D01*
X24002904Y-18016952D01*
X24098142Y-17969333D01*
X24336238Y-17969333D01*
X24431476Y-18016952D01*
X24479095Y-18064571D01*
X24526714Y-18159809D01*
X24526714Y-18397904D01*
X24479095Y-18493142D01*
X24431476Y-18540761D01*
X24336238Y-18588380D01*
X24098142Y-18588380D01*
X24002904Y-18540761D01*
X23955285Y-18493142D01*
X318420904Y-18588380D02*
X318420904Y-17588380D01*
X318420904Y-18064571D02*
X318992333Y-18064571D01*
X318992333Y-18588380D02*
X318992333Y-17588380D01*
X319992333Y-18588380D02*
X319420904Y-18588380D01*
X319706619Y-18588380D02*
X319706619Y-17588380D01*
X319611380Y-17731238D01*
X319516142Y-17826476D01*
X319420904Y-17874095D01*
X320849476Y-17588380D02*
X320659000Y-17588380D01*
X320563761Y-17636000D01*
X320516142Y-17683619D01*
X320420904Y-17826476D01*
X320373285Y-18016952D01*
X320373285Y-18397904D01*
X320420904Y-18493142D01*
X320468523Y-18540761D01*
X320563761Y-18588380D01*
X320754238Y-18588380D01*
X320849476Y-18540761D01*
X320897095Y-18493142D01*
X320944714Y-18397904D01*
X320944714Y-18159809D01*
X320897095Y-18064571D01*
X320849476Y-18016952D01*
X320754238Y-17969333D01*
X320563761Y-17969333D01*
X320468523Y-18016952D01*
X320420904Y-18064571D01*
X320373285Y-18159809D01*
X62960404Y-100122380D02*
X62960404Y-99122380D01*
X62960404Y-99598571D02*
X63531833Y-99598571D01*
X63531833Y-100122380D02*
X63531833Y-99122380D01*
X64531833Y-100122380D02*
X63960404Y-100122380D01*
X64246119Y-100122380D02*
X64246119Y-99122380D01*
X64150880Y-99265238D01*
X64055642Y-99360476D01*
X63960404Y-99408095D01*
X64865166Y-99122380D02*
X65484214Y-99122380D01*
X65150880Y-99503333D01*
X65293738Y-99503333D01*
X65388976Y-99550952D01*
X65436595Y-99598571D01*
X65484214Y-99693809D01*
X65484214Y-99931904D01*
X65436595Y-100027142D01*
X65388976Y-100074761D01*
X65293738Y-100122380D01*
X65008023Y-100122380D01*
X64912785Y-100074761D01*
X64865166Y-100027142D01*
X220694404Y-22207880D02*
X220694404Y-21207880D01*
X220694404Y-21684071D02*
X221265833Y-21684071D01*
X221265833Y-22207880D02*
X221265833Y-21207880D01*
X222265833Y-22207880D02*
X221694404Y-22207880D01*
X221980119Y-22207880D02*
X221980119Y-21207880D01*
X221884880Y-21350738D01*
X221789642Y-21445976D01*
X221694404Y-21493595D01*
X222884880Y-21207880D02*
X222980119Y-21207880D01*
X223075357Y-21255500D01*
X223122976Y-21303119D01*
X223170595Y-21398357D01*
X223218214Y-21588833D01*
X223218214Y-21826928D01*
X223170595Y-22017404D01*
X223122976Y-22112642D01*
X223075357Y-22160261D01*
X222980119Y-22207880D01*
X222884880Y-22207880D01*
X222789642Y-22160261D01*
X222742023Y-22112642D01*
X222694404Y-22017404D01*
X222646785Y-21826928D01*
X222646785Y-21588833D01*
X222694404Y-21398357D01*
X222742023Y-21303119D01*
X222789642Y-21255500D01*
X222884880Y-21207880D01*
X175212476Y-82840380D02*
X175212476Y-83554666D01*
X175164857Y-83697523D01*
X175069619Y-83792761D01*
X174926761Y-83840380D01*
X174831523Y-83840380D01*
X176212476Y-83840380D02*
X175641047Y-83840380D01*
X175926761Y-83840380D02*
X175926761Y-82840380D01*
X175831523Y-82983238D01*
X175736285Y-83078476D01*
X175641047Y-83126095D01*
X176783904Y-83268952D02*
X176688666Y-83221333D01*
X176641047Y-83173714D01*
X176593428Y-83078476D01*
X176593428Y-83030857D01*
X176641047Y-82935619D01*
X176688666Y-82888000D01*
X176783904Y-82840380D01*
X176974380Y-82840380D01*
X177069619Y-82888000D01*
X177117238Y-82935619D01*
X177164857Y-83030857D01*
X177164857Y-83078476D01*
X177117238Y-83173714D01*
X177069619Y-83221333D01*
X176974380Y-83268952D01*
X176783904Y-83268952D01*
X176688666Y-83316571D01*
X176641047Y-83364190D01*
X176593428Y-83459428D01*
X176593428Y-83649904D01*
X176641047Y-83745142D01*
X176688666Y-83792761D01*
X176783904Y-83840380D01*
X176974380Y-83840380D01*
X177069619Y-83792761D01*
X177117238Y-83745142D01*
X177164857Y-83649904D01*
X177164857Y-83459428D01*
X177117238Y-83364190D01*
X177069619Y-83316571D01*
X176974380Y-83268952D01*
X176006285Y-69814761D02*
X176149142Y-69862380D01*
X176387238Y-69862380D01*
X176482476Y-69814761D01*
X176530095Y-69767142D01*
X176577714Y-69671904D01*
X176577714Y-69576666D01*
X176530095Y-69481428D01*
X176482476Y-69433809D01*
X176387238Y-69386190D01*
X176196761Y-69338571D01*
X176101523Y-69290952D01*
X176053904Y-69243333D01*
X176006285Y-69148095D01*
X176006285Y-69052857D01*
X176053904Y-68957619D01*
X176101523Y-68910000D01*
X176196761Y-68862380D01*
X176434857Y-68862380D01*
X176577714Y-68910000D01*
X177577714Y-69767142D02*
X177530095Y-69814761D01*
X177387238Y-69862380D01*
X177292000Y-69862380D01*
X177149142Y-69814761D01*
X177053904Y-69719523D01*
X177006285Y-69624285D01*
X176958666Y-69433809D01*
X176958666Y-69290952D01*
X177006285Y-69100476D01*
X177053904Y-69005238D01*
X177149142Y-68910000D01*
X177292000Y-68862380D01*
X177387238Y-68862380D01*
X177530095Y-68910000D01*
X177577714Y-68957619D01*
X178006285Y-69862380D02*
X178006285Y-68862380D01*
X178577714Y-69862380D02*
X178149142Y-69290952D01*
X178577714Y-68862380D02*
X178006285Y-69433809D01*
X172164571Y-69862380D02*
X172164571Y-68862380D01*
X172497904Y-69576666D01*
X172831238Y-68862380D01*
X172831238Y-69862380D01*
X173497904Y-68862380D02*
X173688380Y-68862380D01*
X173783619Y-68910000D01*
X173878857Y-69005238D01*
X173926476Y-69195714D01*
X173926476Y-69529047D01*
X173878857Y-69719523D01*
X173783619Y-69814761D01*
X173688380Y-69862380D01*
X173497904Y-69862380D01*
X173402666Y-69814761D01*
X173307428Y-69719523D01*
X173259809Y-69529047D01*
X173259809Y-69195714D01*
X173307428Y-69005238D01*
X173402666Y-68910000D01*
X173497904Y-68862380D01*
X174307428Y-69814761D02*
X174450285Y-69862380D01*
X174688380Y-69862380D01*
X174783619Y-69814761D01*
X174831238Y-69767142D01*
X174878857Y-69671904D01*
X174878857Y-69576666D01*
X174831238Y-69481428D01*
X174783619Y-69433809D01*
X174688380Y-69386190D01*
X174497904Y-69338571D01*
X174402666Y-69290952D01*
X174355047Y-69243333D01*
X174307428Y-69148095D01*
X174307428Y-69052857D01*
X174355047Y-68957619D01*
X174402666Y-68910000D01*
X174497904Y-68862380D01*
X174736000Y-68862380D01*
X174878857Y-68910000D01*
X175307428Y-69862380D02*
X175307428Y-68862380D01*
X181292571Y-73434380D02*
X181625904Y-74434380D01*
X181959238Y-73434380D01*
X182292571Y-74434380D02*
X182292571Y-73434380D01*
X173990095Y-76212380D02*
X173990095Y-75212380D01*
X174228190Y-75212380D01*
X174371047Y-75260000D01*
X174466285Y-75355238D01*
X174513904Y-75450476D01*
X174561523Y-75640952D01*
X174561523Y-75783809D01*
X174513904Y-75974285D01*
X174466285Y-76069523D01*
X174371047Y-76164761D01*
X174228190Y-76212380D01*
X173990095Y-76212380D01*
X175513904Y-75260000D02*
X175418666Y-75212380D01*
X175275809Y-75212380D01*
X175132952Y-75260000D01*
X175037714Y-75355238D01*
X174990095Y-75450476D01*
X174942476Y-75640952D01*
X174942476Y-75783809D01*
X174990095Y-75974285D01*
X175037714Y-76069523D01*
X175132952Y-76164761D01*
X175275809Y-76212380D01*
X175371047Y-76212380D01*
X175513904Y-76164761D01*
X175561523Y-76117142D01*
X175561523Y-75783809D01*
X175371047Y-75783809D01*
X176553904Y-75926666D02*
X177030095Y-75926666D01*
X176458666Y-76212380D02*
X176792000Y-75212380D01*
X177125333Y-76212380D01*
X177982476Y-75260000D02*
X177887238Y-75212380D01*
X177744380Y-75212380D01*
X177601523Y-75260000D01*
X177506285Y-75355238D01*
X177458666Y-75450476D01*
X177411047Y-75640952D01*
X177411047Y-75783809D01*
X177458666Y-75974285D01*
X177506285Y-76069523D01*
X177601523Y-76164761D01*
X177744380Y-76212380D01*
X177839619Y-76212380D01*
X177982476Y-76164761D01*
X178030095Y-76117142D01*
X178030095Y-75783809D01*
X177839619Y-75783809D01*
X168179904Y-74434380D02*
X168179904Y-73434380D01*
X168513238Y-74148666D01*
X168846571Y-73434380D01*
X168846571Y-74434380D01*
X169513238Y-73434380D02*
X169703714Y-73434380D01*
X169798952Y-73482000D01*
X169894190Y-73577238D01*
X169941809Y-73767714D01*
X169941809Y-74101047D01*
X169894190Y-74291523D01*
X169798952Y-74386761D01*
X169703714Y-74434380D01*
X169513238Y-74434380D01*
X169418000Y-74386761D01*
X169322761Y-74291523D01*
X169275142Y-74101047D01*
X169275142Y-73767714D01*
X169322761Y-73577238D01*
X169418000Y-73482000D01*
X169513238Y-73434380D01*
X170227523Y-73434380D02*
X170798952Y-73434380D01*
X170513238Y-74434380D02*
X170513238Y-73434380D01*
X169505333Y-71799142D02*
X169457714Y-71846761D01*
X169314857Y-71894380D01*
X169219619Y-71894380D01*
X169076761Y-71846761D01*
X168981523Y-71751523D01*
X168933904Y-71656285D01*
X168886285Y-71465809D01*
X168886285Y-71322952D01*
X168933904Y-71132476D01*
X168981523Y-71037238D01*
X169076761Y-70942000D01*
X169219619Y-70894380D01*
X169314857Y-70894380D01*
X169457714Y-70942000D01*
X169505333Y-70989619D01*
X169886285Y-71846761D02*
X170029142Y-71894380D01*
X170267238Y-71894380D01*
X170362476Y-71846761D01*
X170410095Y-71799142D01*
X170457714Y-71703904D01*
X170457714Y-71608666D01*
X170410095Y-71513428D01*
X170362476Y-71465809D01*
X170267238Y-71418190D01*
X170076761Y-71370571D01*
X169981523Y-71322952D01*
X169933904Y-71275333D01*
X169886285Y-71180095D01*
X169886285Y-71084857D01*
X169933904Y-70989619D01*
X169981523Y-70942000D01*
X170076761Y-70894380D01*
X170314857Y-70894380D01*
X170457714Y-70942000D01*
X181308571Y-71894380D02*
X181308571Y-70894380D01*
X181641904Y-71608666D01*
X181975238Y-70894380D01*
X181975238Y-71894380D01*
X182451428Y-71894380D02*
X182451428Y-70894380D01*
X182880000Y-71846761D02*
X183022857Y-71894380D01*
X183260952Y-71894380D01*
X183356190Y-71846761D01*
X183403809Y-71799142D01*
X183451428Y-71703904D01*
X183451428Y-71608666D01*
X183403809Y-71513428D01*
X183356190Y-71465809D01*
X183260952Y-71418190D01*
X183070476Y-71370571D01*
X182975238Y-71322952D01*
X182927619Y-71275333D01*
X182880000Y-71180095D01*
X182880000Y-71084857D01*
X182927619Y-70989619D01*
X182975238Y-70942000D01*
X183070476Y-70894380D01*
X183308571Y-70894380D01*
X183451428Y-70942000D01*
X184070476Y-70894380D02*
X184260952Y-70894380D01*
X184356190Y-70942000D01*
X184451428Y-71037238D01*
X184499047Y-71227714D01*
X184499047Y-71561047D01*
X184451428Y-71751523D01*
X184356190Y-71846761D01*
X184260952Y-71894380D01*
X184070476Y-71894380D01*
X183975238Y-71846761D01*
X183880000Y-71751523D01*
X183832380Y-71561047D01*
X183832380Y-71227714D01*
X183880000Y-71037238D01*
X183975238Y-70942000D01*
X184070476Y-70894380D01*
X197548595Y-58021880D02*
X197548595Y-57021880D01*
X197548595Y-57498071D02*
X198120023Y-57498071D01*
X198120023Y-58021880D02*
X198120023Y-57021880D01*
X198548595Y-57117119D02*
X198596214Y-57069500D01*
X198691452Y-57021880D01*
X198929547Y-57021880D01*
X199024785Y-57069500D01*
X199072404Y-57117119D01*
X199120023Y-57212357D01*
X199120023Y-57307595D01*
X199072404Y-57450452D01*
X198500976Y-58021880D01*
X199120023Y-58021880D01*
X23145904Y-107932880D02*
X23145904Y-106932880D01*
X23145904Y-107409071D02*
X23717333Y-107409071D01*
X23717333Y-107932880D02*
X23717333Y-106932880D01*
X24717333Y-107932880D02*
X24145904Y-107932880D01*
X24431619Y-107932880D02*
X24431619Y-106932880D01*
X24336380Y-107075738D01*
X24241142Y-107170976D01*
X24145904Y-107218595D01*
X25574476Y-107266214D02*
X25574476Y-107932880D01*
X25336380Y-106885261D02*
X25098285Y-107599547D01*
X25717333Y-107599547D01*
X277463404Y-100122380D02*
X277463404Y-99122380D01*
X277463404Y-99598571D02*
X278034833Y-99598571D01*
X278034833Y-100122380D02*
X278034833Y-99122380D01*
X279034833Y-100122380D02*
X278463404Y-100122380D01*
X278749119Y-100122380D02*
X278749119Y-99122380D01*
X278653880Y-99265238D01*
X278558642Y-99360476D01*
X278463404Y-99408095D01*
X279987214Y-100122380D02*
X279415785Y-100122380D01*
X279701500Y-100122380D02*
X279701500Y-99122380D01*
X279606261Y-99265238D01*
X279511023Y-99360476D01*
X279415785Y-99408095D01*
X175260095Y-59736380D02*
X175260095Y-58736380D01*
X175260095Y-59212571D02*
X175831523Y-59212571D01*
X175831523Y-59736380D02*
X175831523Y-58736380D01*
X176783904Y-58736380D02*
X176307714Y-58736380D01*
X176260095Y-59212571D01*
X176307714Y-59164952D01*
X176402952Y-59117333D01*
X176641047Y-59117333D01*
X176736285Y-59164952D01*
X176783904Y-59212571D01*
X176831523Y-59307809D01*
X176831523Y-59545904D01*
X176783904Y-59641142D01*
X176736285Y-59688761D01*
X176641047Y-59736380D01*
X176402952Y-59736380D01*
X176307714Y-59688761D01*
X176260095Y-59641142D01*
X197548595Y-81072380D02*
X197548595Y-80072380D01*
X197548595Y-80548571D02*
X198120023Y-80548571D01*
X198120023Y-81072380D02*
X198120023Y-80072380D01*
X198739071Y-80500952D02*
X198643833Y-80453333D01*
X198596214Y-80405714D01*
X198548595Y-80310476D01*
X198548595Y-80262857D01*
X198596214Y-80167619D01*
X198643833Y-80120000D01*
X198739071Y-80072380D01*
X198929547Y-80072380D01*
X199024785Y-80120000D01*
X199072404Y-80167619D01*
X199120023Y-80262857D01*
X199120023Y-80310476D01*
X199072404Y-80405714D01*
X199024785Y-80453333D01*
X198929547Y-80500952D01*
X198739071Y-80500952D01*
X198643833Y-80548571D01*
X198596214Y-80596190D01*
X198548595Y-80691428D01*
X198548595Y-80881904D01*
X198596214Y-80977142D01*
X198643833Y-81024761D01*
X198739071Y-81072380D01*
X198929547Y-81072380D01*
X199024785Y-81024761D01*
X199072404Y-80977142D01*
X199120023Y-80881904D01*
X199120023Y-80691428D01*
X199072404Y-80596190D01*
X199024785Y-80548571D01*
X198929547Y-80500952D01*
X153543095Y-103932380D02*
X153543095Y-102932380D01*
X153543095Y-103408571D02*
X154114523Y-103408571D01*
X154114523Y-103932380D02*
X154114523Y-102932380D01*
X154495476Y-102932380D02*
X155114523Y-102932380D01*
X154781190Y-103313333D01*
X154924047Y-103313333D01*
X155019285Y-103360952D01*
X155066904Y-103408571D01*
X155114523Y-103503809D01*
X155114523Y-103741904D01*
X155066904Y-103837142D01*
X155019285Y-103884761D01*
X154924047Y-103932380D01*
X154638333Y-103932380D01*
X154543095Y-103884761D01*
X154495476Y-103837142D01*
X153543095Y-81072380D02*
X153543095Y-80072380D01*
X153543095Y-80548571D02*
X154114523Y-80548571D01*
X154114523Y-81072380D02*
X154114523Y-80072380D01*
X154495476Y-80072380D02*
X155162142Y-80072380D01*
X154733571Y-81072380D01*
X175260095Y-104503880D02*
X175260095Y-103503880D01*
X175260095Y-103980071D02*
X175831523Y-103980071D01*
X175831523Y-104503880D02*
X175831523Y-103503880D01*
X176736285Y-103503880D02*
X176545809Y-103503880D01*
X176450571Y-103551500D01*
X176402952Y-103599119D01*
X176307714Y-103741976D01*
X176260095Y-103932452D01*
X176260095Y-104313404D01*
X176307714Y-104408642D01*
X176355333Y-104456261D01*
X176450571Y-104503880D01*
X176641047Y-104503880D01*
X176736285Y-104456261D01*
X176783904Y-104408642D01*
X176831523Y-104313404D01*
X176831523Y-104075309D01*
X176783904Y-103980071D01*
X176736285Y-103932452D01*
X176641047Y-103884833D01*
X176450571Y-103884833D01*
X176355333Y-103932452D01*
X176307714Y-103980071D01*
X176260095Y-104075309D01*
X120396095Y-22207880D02*
X120396095Y-21207880D01*
X120396095Y-21684071D02*
X120967523Y-21684071D01*
X120967523Y-22207880D02*
X120967523Y-21207880D01*
X121491333Y-22207880D02*
X121681809Y-22207880D01*
X121777047Y-22160261D01*
X121824666Y-22112642D01*
X121919904Y-21969785D01*
X121967523Y-21779309D01*
X121967523Y-21398357D01*
X121919904Y-21303119D01*
X121872285Y-21255500D01*
X121777047Y-21207880D01*
X121586571Y-21207880D01*
X121491333Y-21255500D01*
X121443714Y-21303119D01*
X121396095Y-21398357D01*
X121396095Y-21636452D01*
X121443714Y-21731690D01*
X121491333Y-21779309D01*
X121586571Y-21826928D01*
X121777047Y-21826928D01*
X121872285Y-21779309D01*
X121919904Y-21731690D01*
X121967523Y-21636452D01*
X153543095Y-58021880D02*
X153543095Y-57021880D01*
X153543095Y-57498071D02*
X154114523Y-57498071D01*
X154114523Y-58021880D02*
X154114523Y-57021880D01*
X155114523Y-58021880D02*
X154543095Y-58021880D01*
X154828809Y-58021880D02*
X154828809Y-57021880D01*
X154733571Y-57164738D01*
X154638333Y-57259976D01*
X154543095Y-57307595D01*
D11*
X147105000Y-114085500D02*
X150105000Y-114085500D01*
X150105000Y-114085500D02*
X150105000Y-112485500D01*
X150105000Y-112485500D02*
X147105000Y-112485500D01*
X147105000Y-112485500D02*
X147105000Y-114085500D01*
D12*
X147705000Y-114085500D02*
X147105000Y-114085500D01*
X147105000Y-114085500D02*
X147105000Y-113485500D01*
X147105000Y-113485500D02*
X147705000Y-114085500D01*
G36*
X147705000Y-114085500D02*
G01*
X147105000Y-114085500D01*
X147105000Y-113485500D01*
X147705000Y-114085500D01*
G37*
X147705000Y-114085500D02*
X147105000Y-114085500D01*
X147105000Y-113485500D01*
X147705000Y-114085500D01*
D11*
X229782000Y-114085500D02*
X232782000Y-114085500D01*
X232782000Y-114085500D02*
X232782000Y-112485500D01*
X232782000Y-112485500D02*
X229782000Y-112485500D01*
X229782000Y-112485500D02*
X229782000Y-114085500D01*
D12*
X230382000Y-114085500D02*
X229782000Y-114085500D01*
X229782000Y-114085500D02*
X229782000Y-113485500D01*
X229782000Y-113485500D02*
X230382000Y-114085500D01*
G36*
X230382000Y-114085500D02*
G01*
X229782000Y-114085500D01*
X229782000Y-113485500D01*
X230382000Y-114085500D01*
G37*
X230382000Y-114085500D02*
X229782000Y-114085500D01*
X229782000Y-113485500D01*
X230382000Y-114085500D01*
D11*
X197016000Y-28360500D02*
X200016000Y-28360500D01*
X200016000Y-28360500D02*
X200016000Y-26760500D01*
X200016000Y-26760500D02*
X197016000Y-26760500D01*
X197016000Y-26760500D02*
X197016000Y-28360500D01*
D12*
X197616000Y-28360500D02*
X197016000Y-28360500D01*
X197016000Y-28360500D02*
X197016000Y-27760500D01*
X197016000Y-27760500D02*
X197616000Y-28360500D01*
G36*
X197616000Y-28360500D02*
G01*
X197016000Y-28360500D01*
X197016000Y-27760500D01*
X197616000Y-28360500D01*
G37*
X197616000Y-28360500D02*
X197016000Y-28360500D01*
X197016000Y-27760500D01*
X197616000Y-28360500D01*
D11*
X72810000Y-111228000D02*
X75810000Y-111228000D01*
X75810000Y-111228000D02*
X75810000Y-109628000D01*
X75810000Y-109628000D02*
X72810000Y-109628000D01*
X72810000Y-109628000D02*
X72810000Y-111228000D01*
D12*
X73410000Y-111228000D02*
X72810000Y-111228000D01*
X72810000Y-111228000D02*
X72810000Y-110628000D01*
X72810000Y-110628000D02*
X73410000Y-111228000D01*
G36*
X73410000Y-111228000D02*
G01*
X72810000Y-111228000D01*
X72810000Y-110628000D01*
X73410000Y-111228000D01*
G37*
X73410000Y-111228000D02*
X72810000Y-111228000D01*
X72810000Y-110628000D01*
X73410000Y-111228000D01*
D11*
X35281500Y-111228000D02*
X38281500Y-111228000D01*
X38281500Y-111228000D02*
X38281500Y-109628000D01*
X38281500Y-109628000D02*
X35281500Y-109628000D01*
X35281500Y-109628000D02*
X35281500Y-111228000D01*
D12*
X35881500Y-111228000D02*
X35281500Y-111228000D01*
X35281500Y-111228000D02*
X35281500Y-110628000D01*
X35281500Y-110628000D02*
X35881500Y-111228000D01*
G36*
X35881500Y-111228000D02*
G01*
X35281500Y-111228000D01*
X35281500Y-110628000D01*
X35881500Y-111228000D01*
G37*
X35881500Y-111228000D02*
X35281500Y-111228000D01*
X35281500Y-110628000D01*
X35881500Y-111228000D01*
D11*
X191110500Y-114085500D02*
X194110500Y-114085500D01*
X194110500Y-114085500D02*
X194110500Y-112485500D01*
X194110500Y-112485500D02*
X191110500Y-112485500D01*
X191110500Y-112485500D02*
X191110500Y-114085500D01*
D12*
X191710500Y-114085500D02*
X191110500Y-114085500D01*
X191110500Y-114085500D02*
X191110500Y-113485500D01*
X191110500Y-113485500D02*
X191710500Y-114085500D01*
G36*
X191710500Y-114085500D02*
G01*
X191110500Y-114085500D01*
X191110500Y-113485500D01*
X191710500Y-114085500D01*
G37*
X191710500Y-114085500D02*
X191110500Y-114085500D01*
X191110500Y-113485500D01*
X191710500Y-114085500D01*
D11*
X301334000Y-111228000D02*
X304334000Y-111228000D01*
X304334000Y-111228000D02*
X304334000Y-109628000D01*
X304334000Y-109628000D02*
X301334000Y-109628000D01*
X301334000Y-109628000D02*
X301334000Y-111228000D01*
D12*
X301934000Y-111228000D02*
X301334000Y-111228000D01*
X301334000Y-111228000D02*
X301334000Y-110628000D01*
X301334000Y-110628000D02*
X301934000Y-111228000D01*
G36*
X301934000Y-111228000D02*
G01*
X301334000Y-111228000D01*
X301334000Y-110628000D01*
X301934000Y-111228000D01*
G37*
X301934000Y-111228000D02*
X301334000Y-111228000D01*
X301334000Y-110628000D01*
X301934000Y-111228000D01*
D11*
X108433500Y-114085500D02*
X111433500Y-114085500D01*
X111433500Y-114085500D02*
X111433500Y-112485500D01*
X111433500Y-112485500D02*
X108433500Y-112485500D01*
X108433500Y-112485500D02*
X108433500Y-114085500D01*
D12*
X109033500Y-114085500D02*
X108433500Y-114085500D01*
X108433500Y-114085500D02*
X108433500Y-113485500D01*
X108433500Y-113485500D02*
X109033500Y-114085500D01*
G36*
X109033500Y-114085500D02*
G01*
X108433500Y-114085500D01*
X108433500Y-113485500D01*
X109033500Y-114085500D01*
G37*
X109033500Y-114085500D02*
X108433500Y-114085500D01*
X108433500Y-113485500D01*
X109033500Y-114085500D01*
D11*
X130074500Y-28360500D02*
X133074500Y-28360500D01*
X133074500Y-28360500D02*
X133074500Y-26760500D01*
X133074500Y-26760500D02*
X130074500Y-26760500D01*
X130074500Y-26760500D02*
X130074500Y-28360500D01*
D12*
X130674500Y-28360500D02*
X130074500Y-28360500D01*
X130074500Y-28360500D02*
X130074500Y-27760500D01*
X130074500Y-27760500D02*
X130674500Y-28360500D01*
G36*
X130674500Y-28360500D02*
G01*
X130074500Y-28360500D01*
X130074500Y-27760500D01*
X130674500Y-28360500D01*
G37*
X130674500Y-28360500D02*
X130074500Y-28360500D01*
X130074500Y-27760500D01*
X130674500Y-28360500D01*
D11*
X265405500Y-111228000D02*
X268405500Y-111228000D01*
X268405500Y-111228000D02*
X268405500Y-109628000D01*
X268405500Y-109628000D02*
X265405500Y-109628000D01*
X265405500Y-109628000D02*
X265405500Y-111228000D01*
D12*
X266005500Y-111228000D02*
X265405500Y-111228000D01*
X265405500Y-111228000D02*
X265405500Y-110628000D01*
X265405500Y-110628000D02*
X266005500Y-111228000D01*
G36*
X266005500Y-111228000D02*
G01*
X265405500Y-111228000D01*
X265405500Y-110628000D01*
X266005500Y-111228000D01*
G37*
X266005500Y-111228000D02*
X265405500Y-111228000D01*
X265405500Y-110628000D01*
X266005500Y-111228000D01*
D10*
X186912250Y-39655750D02*
X186912250Y-38862000D01*
X186118500Y-39655750D02*
X186912250Y-39655750D01*
X176593500Y-28543250D02*
X175799750Y-28543250D01*
X175799750Y-39655750D02*
X176593500Y-39655750D01*
X186912250Y-28543250D02*
X186912250Y-29337000D01*
X186118500Y-28543250D02*
X186912250Y-28543250D01*
X175799750Y-28543250D02*
X175799750Y-29337000D01*
X175799750Y-38862000D02*
X175799750Y-39655750D01*
X158758500Y-24169500D02*
X158758500Y-21419500D01*
X167758500Y-21419500D02*
X167758500Y-24169500D01*
X167758500Y-24169500D02*
X158758500Y-24169500D01*
X158758500Y-21419500D02*
X167758500Y-21419500D01*
D13*
X181030751Y-75194183D02*
X170870751Y-75194183D01*
X170870751Y-75194183D02*
X170870751Y-70114183D01*
X170870751Y-70114183D02*
X181030751Y-70114183D01*
X181030751Y-70114183D02*
X181030751Y-75194183D01*
X167132000Y-76268000D02*
X184912000Y-76268000D01*
X184912000Y-76268000D02*
X184912000Y-91508000D01*
X184912000Y-91508000D02*
X167132000Y-91508000D01*
X167132000Y-91508000D02*
X167132000Y-76268000D01*
X191772000Y-83888000D02*
G75*
G03*
X191772000Y-83888000I-15750000J0D01*
G01*
D14*
X50165000Y-49021817D03*
D15*
X55245000Y-49021817D03*
D14*
X60325000Y-49021817D03*
D15*
X53340000Y-29971817D03*
D14*
X48260000Y-29971817D03*
X58420000Y-29971817D03*
D15*
X35623500Y-68071817D03*
D14*
X40703500Y-68071817D03*
X30543500Y-68071817D03*
D15*
X34290000Y-29971817D03*
D14*
X29210000Y-29971817D03*
X39370000Y-29971817D03*
X28829000Y-49021817D03*
X38989000Y-49021817D03*
D15*
X33909000Y-49021817D03*
X47625000Y-87121817D03*
D14*
X52705000Y-87121817D03*
X42545000Y-87121817D03*
X66992500Y-68071817D03*
D15*
X61912500Y-68071817D03*
D14*
X56832500Y-68071817D03*
X78975769Y-30528625D03*
D15*
X73972946Y-29646492D03*
D14*
X68970123Y-28764359D03*
D15*
X28575000Y-87121817D03*
D14*
X23495000Y-87121817D03*
X33655000Y-87121817D03*
D15*
X92733533Y-32954490D03*
D14*
X87730710Y-32072357D03*
X97736356Y-33836623D03*
X141842855Y-99645420D03*
X131837209Y-97881154D03*
D15*
X136840032Y-98763287D03*
D14*
X106491298Y-35380355D03*
X116496944Y-37144621D03*
D15*
X111494121Y-36262488D03*
D14*
X125251886Y-38688354D03*
X135257532Y-40452620D03*
D15*
X130254709Y-39570487D03*
D14*
X309054500Y-87121817D03*
X319214500Y-87121817D03*
D15*
X314134500Y-87121817D03*
X314134500Y-49021817D03*
D14*
X309054500Y-49021817D03*
X319214500Y-49021817D03*
X304292000Y-68071817D03*
X314452000Y-68071817D03*
D15*
X309372000Y-68071817D03*
D14*
X314452000Y-29971817D03*
D15*
X309372000Y-29971817D03*
D14*
X304292000Y-29971817D03*
D16*
X45360000Y-76110000D03*
D17*
X45360000Y-68490000D03*
D16*
X317754000Y-68961000D03*
D17*
X317754000Y-76581000D03*
D18*
X258989900Y-72447882D03*
D17*
X260313100Y-79952118D03*
D16*
X303657000Y-88201500D03*
D17*
X303657000Y-95821500D03*
D19*
X101446400Y-62426118D03*
D17*
X102769600Y-54921882D03*
D14*
X290004500Y-49021817D03*
D15*
X295084500Y-49021817D03*
D14*
X300164500Y-49021817D03*
X210649221Y-99541538D03*
D15*
X215652044Y-98659405D03*
D14*
X220654867Y-97777272D03*
D16*
X167068500Y-43053000D03*
D17*
X167068500Y-35433000D03*
D16*
X193357500Y-37719000D03*
D17*
X193357500Y-30099000D03*
D15*
X269376233Y-69842504D03*
D14*
X264373410Y-70724637D03*
X274379056Y-68960371D03*
D18*
X245464400Y-55683882D03*
D17*
X246787600Y-63188118D03*
D15*
X264261084Y-32056689D03*
D14*
X259258261Y-32938822D03*
X269263907Y-31174556D03*
D18*
X277849400Y-69209382D03*
D17*
X279172600Y-76713618D03*
D19*
X82704626Y-58963584D03*
D17*
X84027826Y-51459348D03*
D18*
X282992900Y-49016382D03*
D17*
X284316100Y-56520618D03*
D19*
X80681900Y-39375618D03*
D17*
X82005100Y-31871382D03*
D19*
X137069900Y-49281618D03*
D17*
X138393100Y-41777382D03*
D16*
X70294500Y-76581000D03*
D17*
X70294500Y-68961000D03*
D16*
X61912500Y-38290500D03*
D17*
X61912500Y-30670500D03*
D14*
X70915089Y-48451187D03*
D15*
X75917912Y-49333320D03*
D14*
X80920735Y-50215453D03*
X280479500Y-29019317D03*
D15*
X285559500Y-29019317D03*
D14*
X290639500Y-29019317D03*
D19*
X146023400Y-89667618D03*
D17*
X147346600Y-82163382D03*
D15*
X120261807Y-76496223D03*
D14*
X115258984Y-75614090D03*
X125264630Y-77378356D03*
D16*
X44577000Y-57340500D03*
D17*
X44577000Y-49720500D03*
D14*
X309360500Y-20764500D03*
X315860500Y-20764500D03*
X255618468Y-72268369D03*
D15*
X250615645Y-73150502D03*
D14*
X245612822Y-74032635D03*
D15*
X80558270Y-88839294D03*
D14*
X75555447Y-87957161D03*
X85561093Y-89721427D03*
D19*
X87349400Y-98430618D03*
D17*
X88672600Y-90926382D03*
D14*
X221737086Y-39554817D03*
X231742732Y-37790551D03*
D15*
X226739909Y-38672684D03*
D18*
X223937900Y-97784382D03*
D17*
X225261100Y-105288618D03*
D16*
X298704000Y-68961000D03*
D17*
X298704000Y-76581000D03*
D19*
X139092626Y-68869584D03*
D17*
X140415826Y-61365348D03*
D16*
X42672000Y-38290500D03*
D17*
X42672000Y-30670500D03*
D18*
X271753400Y-31680882D03*
D17*
X273076600Y-39185118D03*
D14*
X241992147Y-55327180D03*
D15*
X236989324Y-56209313D03*
D14*
X231986501Y-57091446D03*
D18*
X252463741Y-92783223D03*
D17*
X253786941Y-100287459D03*
D18*
X253846400Y-34728882D03*
D17*
X255169600Y-42233118D03*
D14*
X279513323Y-48711184D03*
D15*
X274510500Y-49593317D03*
D14*
X269507677Y-50475450D03*
X260752735Y-52019182D03*
D15*
X255749912Y-52901315D03*
D14*
X250747089Y-53783448D03*
D16*
X303466500Y-49720500D03*
D17*
X303466500Y-57340500D03*
D14*
X276936630Y-87853279D03*
X266930984Y-89617545D03*
D15*
X271933807Y-88735412D03*
D14*
X218097293Y-78884364D03*
D15*
X213094470Y-79766497D03*
D14*
X208091647Y-80648630D03*
D15*
X132199675Y-59257313D03*
D14*
X127196852Y-58375180D03*
X137202498Y-60139446D03*
D15*
X113439087Y-55949315D03*
D14*
X118441910Y-56831448D03*
X108436264Y-55067182D03*
D19*
X143546900Y-108336618D03*
D17*
X144870100Y-100832382D03*
D16*
X36957000Y-95440500D03*
D17*
X36957000Y-87820500D03*
D16*
X63627000Y-57531000D03*
D17*
X63627000Y-49911000D03*
D16*
X318897000Y-30289500D03*
D17*
X318897000Y-37909500D03*
D15*
X290322000Y-68071817D03*
D14*
X285242000Y-68071817D03*
X295402000Y-68071817D03*
D18*
X216317900Y-41396382D03*
D17*
X217641100Y-48900618D03*
D14*
X96498396Y-72306092D03*
X106504042Y-74070358D03*
D15*
X101501219Y-73188225D03*
D16*
X56007000Y-95440500D03*
D17*
X56007000Y-87820500D03*
D19*
X120115400Y-65855118D03*
D17*
X121438600Y-58350882D03*
D15*
X139022395Y-79804219D03*
D14*
X144025218Y-80686352D03*
X134019572Y-78922086D03*
D16*
X321754500Y-49720500D03*
D17*
X321754500Y-57340500D03*
D19*
X89444900Y-79571118D03*
D17*
X90768100Y-72066882D03*
D14*
X163258500Y-42302500D03*
X163258500Y-35802500D03*
D19*
X108304400Y-83000118D03*
D17*
X109627600Y-75495882D03*
D16*
X321754500Y-87820500D03*
D17*
X321754500Y-95440500D03*
D19*
X99541400Y-42804618D03*
D17*
X100864600Y-35300382D03*
D15*
X207979321Y-41980682D03*
D14*
X212982144Y-41098549D03*
X202976498Y-42862815D03*
X99681323Y-53523450D03*
D15*
X94678500Y-52641317D03*
D14*
X89675677Y-51759184D03*
X250503320Y-34482554D03*
X240497674Y-36246820D03*
D15*
X245500497Y-35364687D03*
D19*
X116113741Y-103166778D03*
D17*
X117436941Y-95662542D03*
D18*
X240320900Y-75876882D03*
D17*
X241644100Y-83381118D03*
D18*
X264133400Y-52064382D03*
D17*
X265456600Y-59568618D03*
D18*
X280325900Y-87878382D03*
D17*
X281649100Y-95382618D03*
D18*
X226604900Y-58922382D03*
D17*
X227928100Y-66426618D03*
D14*
X300164500Y-87121817D03*
D15*
X295084500Y-87121817D03*
D14*
X290004500Y-87121817D03*
D19*
X127063500Y-86296500D03*
D17*
X128386700Y-78792264D03*
D14*
X236857881Y-75576367D03*
D15*
X231855058Y-76458500D03*
D14*
X226852235Y-77340633D03*
D16*
X295656000Y-24574500D03*
D17*
X295656000Y-32194500D03*
D14*
X87743455Y-70762359D03*
X77737809Y-68998093D03*
D15*
X82740632Y-69880226D03*
D14*
X160147000Y-34099500D03*
X149987000Y-34099500D03*
D15*
X155067000Y-34099500D03*
D14*
X213225914Y-60399444D03*
X223231560Y-58635178D03*
D15*
X218228737Y-59517311D03*
D19*
X118400900Y-46043118D03*
D17*
X119724100Y-38538882D03*
D18*
X235177400Y-37967382D03*
D17*
X236500600Y-45471618D03*
D18*
X221461400Y-78924882D03*
D17*
X222784600Y-86429118D03*
M02*
