<?xml version="1.0" standalone="no"?>
 <!DOCTYPE svg PUBLIC "-//W3C//DTD SVG 1.1//EN" 
 "http://www.w3.org/Graphics/SVG/1.1/DTD/svg11.dtd"> 
<svg
  xmlns:svg="http://www.w3.org/2000/svg"
  xmlns="http://www.w3.org/2000/svg"
  xmlns:xlink="http://www.w3.org/1999/xlink"
  version="1.1"
  width="32.588200cm" height="12.489180cm" viewBox="0 0 325882000 124891800">
<title>SVG Picture created as aliceball-Edge_Cuts.svg date 2022/02/25 23:58:57 </title>
  <desc>Picture generated by PCBNEW </desc>
<g style="fill:#000000; fill-opacity:1.000000;stroke:#000000; stroke-opacity:1.000000;
stroke-linecap:round; stroke-linejoin:round;"
 transform="translate(0 0) scale(1 1)">
</g>
<g style="fill:#000000; fill-opacity:0.0; 
stroke:#000000; stroke-width:0.000000; stroke-opacity:1; 
stroke-linecap:round; stroke-linejoin:round;">
</g>
<g style="fill:#D2D200; fill-opacity:0.0; 
stroke:#D2D200; stroke-width:0.000000; stroke-opacity:1; 
stroke-linecap:round; stroke-linejoin:round;">
</g>
<g style="fill:#D2D200; fill-opacity:0.0; 
stroke:#D2D200; stroke-width:100000.000000; stroke-opacity:1; 
stroke-linecap:round; stroke-linejoin:round;">
<path d="M320125000.000000 22317500.000000 A3000001.000000 3000001.000000 0.0 0 0 317125000.000000 19317500.000000" />
<path d="M8775000.000000 19317500.000000 A3000001.000000 3000001.000000 0.0 0 0 5775000.000000 22317500.000000" />
<path d="M5775000.000000 115117500.000000 A3000001.000000 3000001.000000 0.0 0 0 8775000.000000 118117500.000000" />
<path d="M317125000 19317500
L8775000 19317500
" />
<path d="M320125000 115117500
L320125000 22317500
" />
<circle cx="167522000.000000" cy="85955500.000000" r="27500000.000000" /> 
<path d="M317125000.000000 118117500.000000 A3000001.000000 3000001.000000 0.0 0 0 320125000.000000 115117500.000000" />
<path d="M5775000 22317500
L5775000 115117500
" />
<path d="M8775000 118117500
L317125000 118117500
" />
</g>
<g style="fill:#D2D200; fill-opacity:0.0; 
stroke:#D2D200; stroke-width:150000.000000; stroke-opacity:1; 
stroke-linecap:round; stroke-linejoin:round;">
<path d="M253052492 99798224
L250604053 85912435
" />
<path d="M266938281 97349785
L253052492 99798224
" />
<path d="M264489842 83463996
L266938281 97349785
" />
<path d="M250604053 85912435
L264489842 83463996
" />
<path d="M236348961 88425992
L238797400 102311781
" />
<path d="M222463172 90874431
L236348961 88425992
" />
<path d="M224911611 104760220
L222463172 90874431
" />
<path d="M238797400 102311781
L224911611 104760220
" />
<path d="M110696613 90560913
L108248174 104446702
" />
<path d="M96810824 88112474
L110696613 90560913
" />
<path d="M94362385 101998263
L96810824 88112474
" />
<path d="M108248174 104446702
L94362385 101998263
" />
<path d="M66219412 97031856
L68667851 83146067
" />
<path d="M80105201 99480295
L66219412 97031856
" />
<path d="M82553640 85594506
L80105201 99480295
" />
<path d="M68667851 83146067
L82553640 85594506
" />
<path d="M53795000 58139317
L39695000 58139317
" />
<path d="M53795000 44039317
L53795000 58139317
" />
<path d="M39695000 58139317
L39695000 44039317
" />
<path d="M39695000 44039317
L53795000 44039317
" />
<path d="M51890000 24989317
L51890000 39089317
" />
<path d="M51890000 39089317
L37790000 39089317
" />
<path d="M37790000 24989317
L51890000 24989317
" />
<path d="M37790000 39089317
L37790000 24989317
" />
<path d="M34267167 63081434
L34267167 77181434
" />
<path d="M20167167 77181434
L20167167 63081434
" />
<path d="M34267167 77181434
L20167167 77181434
" />
<path d="M20167167 63081434
L34267167 63081434
" />
<path d="M18740000 24989317
L32840000 24989317
" />
<path d="M32840000 24989317
L32840000 39089317
" />
<path d="M18740000 39089317
L18740000 24989317
" />
<path d="M32840000 39089317
L18740000 39089317
" />
<path d="M32459000 58139317
L18359000 58139317
" />
<path d="M18359000 44039317
L32459000 44039317
" />
<path d="M18359000 58139317
L18359000 44039317
" />
<path d="M32459000 44039317
L32459000 58139317
" />
<path d="M32075000 82139317
L46175000 82139317
" />
<path d="M46175000 82139317
L46175000 96239317
" />
<path d="M32075000 96239317
L32075000 82139317
" />
<path d="M46175000 96239317
L32075000 96239317
" />
<path d="M46362500 77189317
L46362500 63089317
" />
<path d="M46362500 63089317
L60462500 63089317
" />
<path d="M60462500 77189317
L46362500 77189317
" />
<path d="M60462500 63089317
L60462500 77189317
" />
<path d="M59754271 23546878
L73640060 25995317
" />
<path d="M71191621 39881106
L57305832 37432667
" />
<path d="M57305832 37432667
L59754271 23546878
" />
<path d="M73640060 25995317
L71191621 39881106
" />
<path d="M27125000 96239317
L13025000 96239317
" />
<path d="M13025000 82139317
L27125000 82139317
" />
<path d="M27125000 82139317
L27125000 96239317
" />
<path d="M13025000 96239317
L13025000 82139317
" />
<path d="M89952208 43189104
L76066419 40740665
" />
<path d="M92400647 29303315
L89952208 43189104
" />
<path d="M76066419 40740665
L78514858 26854876
" />
<path d="M78514858 26854876
L92400647 29303315
" />
<path d="M134058707 108997901
L120172918 106549462
" />
<path d="M136507146 95112112
L134058707 108997901
" />
<path d="M120172918 106549462
L122621357 92663673
" />
<path d="M122621357 92663673
L136507146 95112112
" />
<path d="M108712796 46497102
L94827007 44048663
" />
<path d="M94827007 44048663
L97275446 30162874
" />
<path d="M97275446 30162874
L111161235 32611313
" />
<path d="M111161235 32611313
L108712796 46497102
" />
<path d="M113587595 47356662
L116036034 33470873
" />
<path d="M127473384 49805101
L113587595 47356662
" />
<path d="M116036034 33470873
L129921823 35919312
" />
<path d="M129921823 35919312
L127473384 49805101
" />
<path d="M179906000 29117000
L179906000 43217000
" />
<path d="M165806000 29117000
L179906000 29117000
" />
<path d="M179906000 43217000
L165806000 43217000
" />
<path d="M165806000 43217000
L165806000 29117000
" />
<path d="M312684500 82139317
L312684500 96239317
" />
<path d="M312684500 96239317
L298584500 96239317
" />
<path d="M298584500 82139317
L312684500 82139317
" />
<path d="M298584500 96239317
L298584500 82139317
" />
<path d="M312684500 58139317
L298584500 58139317
" />
<path d="M298584500 58139317
L298584500 44039317
" />
<path d="M312684500 44039317
L312684500 58139317
" />
<path d="M298584500 44039317
L312684500 44039317
" />
<path d="M293822000 63089317
L307922000 63089317
" />
<path d="M307922000 77189317
L293822000 77189317
" />
<path d="M307922000 63089317
L307922000 77189317
" />
<path d="M293822000 77189317
L293822000 63089317
" />
<path d="M293822000 24989317
L307922000 24989317
" />
<path d="M307922000 24989317
L307922000 39089317
" />
<path d="M293822000 39089317
L293822000 24989317
" />
<path d="M307922000 39089317
L293822000 39089317
" />
</g>
<g style="fill:#D2D200; fill-opacity:0.0; 
stroke:#D2D200; stroke-width:10000.000000; stroke-opacity:1; 
stroke-linecap:round; stroke-linejoin:round;">
<circle cx="7575000.000000" cy="23617500.000000" r="1100000.000000" /> 
<circle cx="7575000.000000" cy="68717500.000000" r="1100000.000000" /> 
<circle cx="7575000.000000" cy="113817500.000000" r="1100000.000000" /> 
<circle cx="318325000.000000" cy="23617500.000000" r="1100000.000000" /> 
<circle cx="318325000.000000" cy="68717500.000000" r="1100000.000000" /> 
<circle cx="318325000.000000" cy="113817500.000000" r="1100000.000000" /> 
</g>
<g style="fill:#D2D200; fill-opacity:0.0; 
stroke:#D2D200; stroke-width:150000.000000; stroke-opacity:1; 
stroke-linecap:round; stroke-linejoin:round;">
<path d="M293634500 58139317
L279534500 58139317
" />
<path d="M293634500 44039317
L293634500 58139317
" />
<path d="M279534500 58139317
L279534500 44039317
" />
<path d="M279534500 44039317
L293634500 44039317
" />
<path d="M215319158 106445580
L201433369 108894019
" />
<path d="M201433369 108894019
L198984930 95008230
" />
<path d="M198984930 95008230
L212870719 92559791
" />
<path d="M212870719 92559791
L215319158 106445580
" />
<path d="M269043347 77628679
L255157558 80077118
" />
<path d="M266594908 63742890
L269043347 77628679
" />
<path d="M252709119 66191329
L266594908 63742890
" />
<path d="M255157558 80077118
L252709119 66191329
" />
<path d="M263928198 39842864
L250042409 42291303
" />
<path d="M247593970 28405514
L261479759 25957075
" />
<path d="M261479759 25957075
L263928198 39842864
" />
<path d="M250042409 42291303
L247593970 28405514
" />
<path d="M75585026 45682145
L73136587 59567934
" />
<path d="M73136587 59567934
L59250798 57119495
" />
<path d="M61699237 43233706
L75585026 45682145
" />
<path d="M59250798 57119495
L61699237 43233706
" />
<path d="M284109500 38136817
L270009500 38136817
" />
<path d="M270009500 24036817
L284109500 24036817
" />
<path d="M270009500 38136817
L270009500 24036817
" />
<path d="M284109500 24036817
L284109500 38136817
" />
<path d="M119928921 72845048
L117480482 86730837
" />
<path d="M117480482 86730837
L103594693 84282398
" />
<path d="M103594693 84282398
L106043132 70396609
" />
<path d="M106043132 70396609
L119928921 72845048
" />
<path d="M247834320 67050888
L250282759 80936677
" />
<path d="M236396970 83385116
L233948531 69499327
" />
<path d="M250282759 80936677
L236396970 83385116
" />
<path d="M233948531 69499327
L247834320 67050888
" />
<path d="M223958584 32573070
L226407023 46458859
" />
<path d="M226407023 46458859
L212521234 48907298
" />
<path d="M210072795 35021509
L223958584 32573070
" />
<path d="M212521234 48907298
L210072795 35021509
" />
<path d="M222770649 66443927
L220322210 52558138
" />
<path d="M234207999 50109699
L236656438 63995488
" />
<path d="M220322210 52558138
L234207999 50109699
" />
<path d="M236656438 63995488
L222770649 66443927
" />
<path d="M271729175 43493703
L274177614 57379492
" />
<path d="M257843386 45942142
L271729175 43493703
" />
<path d="M260291825 59827931
L257843386 45942142
" />
<path d="M274177614 57379492
L260291825 59827931
" />
<path d="M255417026 60687490
L241531237 63135929
" />
<path d="M239082798 49250140
L252968587 46801701
" />
<path d="M241531237 63135929
L239082798 49250140
" />
<path d="M252968587 46801701
L255417026 60687490
" />
<path d="M198875795 90001111
L196427356 76115322
" />
<path d="M210313145 73666883
L212761584 87552672
" />
<path d="M196427356 76115322
L210313145 73666883
" />
<path d="M212761584 87552672
L198875795 90001111
" />
<path d="M115532561 67043488
L117981000 53157699
" />
<path d="M131866789 55606138
L129418350 69491927
" />
<path d="M117981000 53157699
L131866789 55606138
" />
<path d="M129418350 69491927
L115532561 67043488
" />
<path d="M110657762 66183929
L96771973 63735490
" />
<path d="M113106201 52298140
L110657762 66183929
" />
<path d="M96771973 63735490
L99220412 49849701
" />
<path d="M99220412 49849701
L113106201 52298140
" />
<path d="M274772000 63089317
L288872000 63089317
" />
<path d="M274772000 77189317
L274772000 63089317
" />
<path d="M288872000 63089317
L288872000 77189317
" />
<path d="M288872000 77189317
L274772000 77189317
" />
<path d="M98719894 83422839
L84834105 80974400
" />
<path d="M101168333 69537050
L98719894 83422839
" />
<path d="M87282544 67088611
L101168333 69537050
" />
<path d="M84834105 80974400
L87282544 67088611
" />
<path d="M124803720 73704605
L138689509 76153044
" />
<path d="M122355281 87590394
L124803720 73704605
" />
<path d="M136241070 90038833
L122355281 87590394
" />
<path d="M138689509 76153044
L136241070 90038833
" />
<path d="M205197996 35881068
L207646435 49766857
" />
<path d="M191312207 38329507
L205197996 35881068
" />
<path d="M193760646 52215296
L191312207 38329507
" />
<path d="M207646435 49766857
L193760646 52215296
" />
<path d="M91897175 62875931
L78011386 60427492
" />
<path d="M80459825 46541703
L94345614 48990142
" />
<path d="M94345614 48990142
L91897175 62875931
" />
<path d="M78011386 60427492
L80459825 46541703
" />
<path d="M228833383 31713512
L242719172 29265073
" />
<path d="M242719172 29265073
L245167611 43150862
" />
<path d="M245167611 43150862
L231281822 45599301
" />
<path d="M231281822 45599301
L228833383 31713512
" />
<path d="M279534500 82139317
L293634500 82139317
" />
<path d="M293634500 96239317
L279534500 96239317
" />
<path d="M279534500 96239317
L279534500 82139317
" />
<path d="M293634500 82139317
L293634500 96239317
" />
<path d="M215187944 72807325
L229073733 70358886
" />
<path d="M229073733 70358886
L231522172 84244675
" />
<path d="M231522172 84244675
L217636383 86693114
" />
<path d="M217636383 86693114
L215187944 72807325
" />
<path d="M66073518 77666401
L68521957 63780612
" />
<path d="M68521957 63780612
L82407746 66229051
" />
<path d="M79959307 80114840
L66073518 77666401
" />
<path d="M82407746 66229051
L79959307 80114840
" />
<path d="M139517000 43217000
L139517000 29117000
" />
<path d="M139517000 29117000
L153617000 29117000
" />
<path d="M153617000 29117000
L153617000 43217000
" />
<path d="M153617000 43217000
L139517000 43217000
" />
<path d="M215447412 53417697
L217895851 67303486
" />
<path d="M217895851 67303486
L204010062 69751925
" />
<path d="M201561623 55866136
L215447412 53417697
" />
<path d="M204010062 69751925
L201561623 55866136
" />
<g >
</g>
<g >
</g>
<g >
</g>
<g >
</g>
<g >
</g>
<g >
</g>
<g >
</g>
<g >
</g>
<g >
</g>
<g >
</g>
<g >
</g>
<g >
</g>
<g >
</g>
<g >
</g>
<g >
</g>
<g >
</g>
<g >
</g>
<g >
</g>
<g >
</g>
<g >
</g>
<g >
</g>
<g >
</g>
<g >
</g>
<g >
</g>
<g >
</g>
<g >
</g>
<g >
</g>
<g >
</g>
<g >
</g>
<g >
</g>
<g >
</g>
<g >
</g>
<g >
</g>
<g >
</g>
<g >
</g>
<g >
</g>
<g >
</g>
<g >
</g>
<g >
</g>
<g >
</g>
<g >
</g>
<g >
</g>
<g >
</g>
<g >
</g>
<g >
</g>
<g >
</g>
<g >
</g>
<g >
</g>
<g >
</g>
<g >
</g>
<g >
</g>
<g >
</g>
<g >
</g>
<g >
</g>
<g >
</g>
<g >
</g>
<g >
</g>
<g >
</g>
<g >
</g>
<g >
</g>
<g >
</g>
<g >
</g>
<g >
</g>
<g >
</g>
<g >
</g>
<g >
</g>
<g >
</g>
</g> 
</svg>
